<?xml version="1.0" standalone="no"?>
<!DOCTYPE svg PUBLIC "-//W3C//DTD SVG 1.1//EN" "http://www.w3.org/Graphics/SVG/1.1/DTD/svg11.dtd" >
<svg xmlns="http://www.w3.org/2000/svg" xmlns:xlink="http://www.w3.org/1999/xlink" version="1.1">
<metadata>
Created by FontForge 20150318 at Thu Sep 17 12:00:32 2015
 By uniteet7
Copyright (c) 2012 by . All rights reserved.
</metadata>
<defs>
<font id="ALSSchlangesansLight" horiz-adv-x="538" >
  <font-face 
    font-family="ALSSchlangesansLight"
    font-weight="400"
    font-stretch="normal"
    units-per-em="1000"
    panose-1="2 0 5 6 0 0 0 2 0 4"
    ascent="769"
    descent="-231"
    x-height="486"
    cap-height="690"
    bbox="-167.565 -285.903 1071 907.828"
    underline-thickness="50"
    underline-position="-50"
    unicode-range="U+0020-FB02"
  />
<missing-glyph horiz-adv-x="260" 
 />
    <glyph glyph-name="ff" unicode="ff" horiz-adv-x="507" 
d="M101 524v-34h187v19q0 90 26 131q-42 29 -101 29q-112 0 -112 -145zM433 669q-112 0 -112 -145v-34h146q16 0 16 -16q0 -15 -16 -15h-146v-640q0 -19 -17 -19q-16 0 -16 19v640h-187v-640q0 -19 -17 -19q-16 0 -16 19v690q0 100 35 145.5t113 45.5q70 0 115 -36
q38 36 105 36q55 0 89 -18q23 -12 17 -26q-6 -11 -23 -4q-42 17 -86 17z" />
    <glyph glyph-name="fi" unicode="fi" horiz-adv-x="392" 
d="M322 656q-6 -11 -23 -4q-42 17 -86 17q-112 0 -112 -145v-34h202q18 0 18 -20v-451q0 -19 -17 -19q-16 0 -16 19v440h-187v-640q0 -19 -17 -19q-16 0 -16 19v690q0 100 35 145.5t113 45.5q55 0 89 -18q23 -12 17 -26z" />
    <glyph glyph-name="fl" unicode="fl" horiz-adv-x="389" 
d="M288 19v636q-33 14 -75 14q-112 0 -112 -145v-34h118q16 0 16 -16q0 -15 -16 -15h-118v-640q0 -19 -17 -19q-16 0 -16 19v690q0 100 35 145.5t113 45.5q51 0 87 -16q18 -8 18 -27v-638q0 -19 -17 -19q-16 0 -16 19z" />
    <glyph glyph-name=".notdef" horiz-adv-x="260" 
 />
    <glyph glyph-name=".null" horiz-adv-x="0" 
 />
    <glyph glyph-name="nonmarkingreturn" horiz-adv-x="333" 
 />
    <glyph glyph-name="space" unicode=" " horiz-adv-x="260" 
 />
    <glyph glyph-name="exclam" unicode="!" horiz-adv-x="179" 
d="M73 192v479q0 19 17 19q16 0 16 -19v-479q0 -19 -16 -19q-17 0 -17 19zM60 29q0 13 7.5 21t21.5 8t22 -8.5t8 -20.5t-8 -20.5t-22 -8.5t-21.5 8t-7.5 21z" />
    <glyph glyph-name="quotedbl" unicode="&#x22;" horiz-adv-x="262" 
d="M63 511v170q0 19 16 19t16 -19v-170q0 -19 -16 -19t-16 19zM167 511v170q0 19 16 19t16 -19v-170q0 -19 -16 -19t-16 19z" />
    <glyph glyph-name="numbersign" unicode="#" horiz-adv-x="620" 
d="M561 442h-104l-68 -190h117q16 0 16 -14t-16 -14h-127l-73 -203q-7 -20 -12.5 -26.5t-14.5 -3.5q-13 4 -1 38l69 195h-175l-73 -203q-7 -20 -12.5 -26.5t-14.5 -3.5q-13 5 -2 36l70 197h-81q-16 0 -16 14t16 14h91l68 190h-104q-16 0 -16 14t16 14h114l73 205
q10 29 25 24q14 -4 5 -31l-71 -198h175l73 205q10 29 25 24q14 -4 5 -31l-71 -198h94q16 0 16 -14t-16 -14zM250 442l-68 -190h175l68 190h-175z" />
    <glyph glyph-name="dollar" unicode="$" horiz-adv-x="546" 
d="M286 668q-80 0 -117 -36t-37 -94q0 -41 20 -71.5t52.5 -48.5t71.5 -32.5t78 -31t71.5 -37.5t52.5 -57t20 -84q0 -80 -48 -130t-144 -55v-98q0 -19 -16 -19t-16 19v97q-106 2 -181 48q-31 20 -20 36q8 12 39 -6q79 -46 174 -46q87 0 131.5 40t44.5 109q0 43 -20 74.5
t-52.5 50t-71.5 33.5l-78 31q-39 16 -71.5 36.5t-52.5 55.5t-20 83q0 71 44 116.5t136 48.5v97q0 19 16 19t16 -19v-98q76 -4 141 -42q34 -19 23 -36q-1 -2 -2.5 -3.5t-3.5 -2t-3.5 -0.5t-4 0.5t-4.5 1t-5 2t-5 3t-5.5 3.5t-5.5 3q-68 40 -147 40z" />
    <glyph glyph-name="percent" unicode="%" horiz-adv-x="750" 
d="M233 -5l255 715q6 17 12 24t15 4q14 -5 2 -38l-255 -716q-10 -27 -26 -23q-14 4 -3 34zM31 521q0 82 35.5 130.5t106.5 48.5t106 -48.5t35 -130.5t-35 -130t-106 -48t-106.5 48t-35.5 130zM63 521q0 -150 110 -150q109 0 109 150q0 68 -26 109.5t-83 41.5
q-110 0 -110 -151zM436 168q0 82 35.5 130.5t106.5 48.5t106 -48.5t35 -130.5t-35 -130t-106 -48t-106.5 48t-35.5 130zM468 168q0 -150 110 -150q109 0 109 150q0 68 -26 109.5t-83 41.5q-110 0 -110 -151z" />
    <glyph glyph-name="ampersand" unicode="&#x26;" horiz-adv-x="684" 
d="M588 366q4 25 18 25q16 0 13 -25q-14 -119 -97 -229l113 -100q23 -21 13 -32q-11 -14 -36 9q-47 38 -112 97q-107 -121 -253 -121q-83 0 -138.5 42t-55.5 127q0 38 12.5 70t40 60t52.5 46.5t69 47.5q-80 95 -80 175q0 63 41 102.5t111 39.5t105 -32.5t35 -80.5
q0 -49 -34 -98t-128 -112q45 -49 114 -118q32 -33 108 -101q68 91 89 208zM247 21q132 0 230 110q-60 55 -107 103q-85 85 -121 124q-96 -61 -129 -102.5t-33 -97.5q0 -54 41.5 -95.5t118.5 -41.5zM181 559q0 -68 75 -158q80 53 114.5 94.5t34.5 89.5q0 38 -27.5 61
t-79.5 23q-53 0 -85 -28.5t-32 -81.5z" />
    <glyph glyph-name="quotesingle" unicode="'" horiz-adv-x="158" 
d="M63 511v170q0 19 16 19t16 -19v-170q0 -19 -16 -19t-16 19z" />
    <glyph glyph-name="parenleft" unicode="(" horiz-adv-x="259" 
d="M53 345q0 125 38.5 232.5t100.5 172.5q29 30 41 15q2 -2 2.5 -4.5t-0.5 -5t-1.5 -4.5t-3 -5.5t-3.5 -5.5l-6 -5q-4 -4 -5 -6q-62 -73 -95.5 -174t-33.5 -210t33.5 -210t95.5 -174q23 -27 17 -36q-11 -17 -41 15q-62 65 -100.5 172.5t-38.5 232.5z" />
    <glyph glyph-name="parenright" unicode=")" horiz-adv-x="259" 
d="M207 345q0 -125 -38.5 -232.5t-100.5 -172.5q-30 -32 -41 -15q-6 9 17 36q62 73 95.5 174t33.5 210t-33.5 210t-95.5 174q-1 2 -5 6l-5 5q-2 2 -4.5 5.5t-3 5.5t-1.5 4.5t-0.5 5t2.5 4.5q12 15 41 -15q62 -65 100.5 -172.5t38.5 -232.5z" />
    <glyph glyph-name="asterisk" unicode="*" horiz-adv-x="337" 
d="M186 587l75 52q20 13 28 1q8 -13 -12 -25l-77 -44l76 -44q20 -11 13 -24q-8 -12 -29 1l-74 51l3 -94q0 -19 -14 -19t-14 19l3 94l-73 -51q-20 -14 -29 -1q-7 13 13 24l75 44l-76 44q-19 12 -12 25q8 12 28 -1l74 -52l-3 94q0 19 14 19t14 -19z" />
    <glyph glyph-name="plus" unicode="+" horiz-adv-x="486" 
d="M227 149v165h-168q-16 0 -16 15q0 16 16 16h168v164q0 19 16 19t16 -19v-164h168q16 0 16 -16q0 -15 -16 -15h-168v-165q0 -19 -16 -19t-16 19z" />
    <glyph glyph-name="comma" unicode="," horiz-adv-x="196" 
d="M145 37l-95 -175q-12 -23 -29 -15q-14 8 -2 30l94 174q12 24 29 15q14 -8 3 -29z" />
    <glyph glyph-name="hyphen" unicode="-" horiz-adv-x="332" 
d="M303 255h-274q-16 0 -16 16q0 15 16 15h274q16 0 16 -15q0 -16 -16 -16z" />
    <glyph glyph-name="period" unicode="." horiz-adv-x="179" 
d="M60 29q0 13 7.5 21t21.5 8t22 -8.5t8 -20.5t-8 -20.5t-22 -8.5t-21.5 8t-7.5 21z" />
    <glyph glyph-name="slash" unicode="/" horiz-adv-x="310" 
d="M0 -72l301 845q6 17 12 22.5t14 3.5q16 -4 5 -36l-299 -848q-11 -29 -28 -24q-16 5 -5 37z" />
    <glyph glyph-name="zero" unicode="0" horiz-adv-x="546" 
d="M517 345q0 -163 -61.5 -259t-182.5 -96t-182.5 96t-61.5 259t61.5 259t182.5 96t182.5 -96t61.5 -259zM483 345q0 155 -53.5 239.5t-156.5 84.5t-156.5 -84.5t-53.5 -239.5t53.5 -239.5t156.5 -84.5t156.5 84.5t53.5 239.5z" />
    <glyph glyph-name="one" unicode="1" horiz-adv-x="546" 
d="M310 19v629l-161 -157q-20 -20 -32 -10q-10 12 9 31l178 174q14 14 25 14q14 0 14 -21v-660q0 -19 -17 -19q-16 0 -16 19z" />
    <glyph glyph-name="two" unicode="2" horiz-adv-x="546" 
d="M121 620q-31 -20 -39 -11q-11 13 17 34q79 57 179 57q97 0 144 -43.5t47 -114.5q0 -47 -20 -87t-51.5 -69.5t-70.5 -56.5l-77 -57q-38 -29 -69.5 -61.5t-51.5 -78.5t-20 -101h366q17 0 17 -16q0 -15 -17 -15h-377q-22 0 -22 23q0 61 20 111.5t51.5 85.5t69.5 65.5
t76.5 57.5t70 55t51.5 64.5t20 79.5q0 52 -38 89.5t-119 37.5q-80 0 -157 -49z" />
    <glyph glyph-name="three" unicode="3" horiz-adv-x="546" 
d="M200 377q-17 0 -22 10.5t5 20.5l220 251h-287q-16 0 -16 15q0 16 16 16h309q15 0 19 -11t-7 -25l-216 -246q118 -2 184.5 -53.5t66.5 -153.5q0 -96 -60 -153.5t-164 -57.5t-169 46q-26 20 -17 33q7 12 34 -5q70 -43 154 -43q93 0 140.5 51.5t47.5 129.5q0 83 -58.5 129
t-179.5 46z" />
    <glyph glyph-name="four" unicode="4" horiz-adv-x="546" 
d="M470 246h-64v-227q0 -19 -17 -19q-16 0 -16 19v227h-316q-14 0 -17.5 11t3.5 19l328 410q10 14 21 14q14 0 14 -19v-404h64q18 0 18 -15q0 -16 -18 -16zM79 277h294v365z" />
    <glyph glyph-name="five" unicode="5" horiz-adv-x="546" 
d="M258 -10q-44 0 -93 13.5t-77 33.5q-25 18 -15 32q7 11 34 -6q69 -42 152 -42q101 0 147.5 56.5t46.5 140.5q0 74 -44.5 124.5t-133.5 50.5q-48 0 -91 -13t-44 -13q-16 0 -15 19l22 283q1 21 21 21h279q16 0 16 -15q0 -16 -16 -16h-270l-20 -258q60 23 121 23
q57 0 99.5 -18.5t65.5 -49.5t33.5 -65t10.5 -72q0 -110 -63 -169.5t-166 -59.5z" />
    <glyph glyph-name="six" unicode="6" horiz-adv-x="546" 
d="M408 655q-42 14 -102 14q-106 0 -165 -91t-59 -262q26 63 82.5 95t123.5 32q96 0 151 -59t55 -154q0 -99 -55 -169.5t-162 -70.5q-226 0 -226 298q0 412 261 412q66 0 109 -17q24 -11 19 -24q-4 -12 -32 -4zM88 237q0 -36 8.5 -70.5t28 -69t59.5 -55.5t95 -21
q90 0 135.5 61.5t45.5 146.5q0 80 -47 131.5t-131 51.5q-80 0 -137 -49.5t-57 -125.5z" />
    <glyph glyph-name="seven" unicode="7" horiz-adv-x="546" 
d="M477 654l-294 -632q-12 -26 -27 -20t-2 33l48 104l94 201l106 228l42 91h-372q-17 0 -17 15q0 16 17 16h387q35 0 18 -36z" />
    <glyph glyph-name="eight" unicode="8" horiz-adv-x="546" 
d="M77 548q0 75 55.5 113.5t140.5 38.5q86 0 141 -38.5t55 -113.5q0 -59 -32.5 -104.5t-98.5 -86.5q88 -42 125.5 -85.5t37.5 -108.5q0 -78 -64 -125.5t-164 -47.5q-97 0 -162.5 43.5t-65.5 129.5q0 70 40.5 122t126.5 94q-75 39 -105 76.5t-30 92.5zM78 163
q0 -66 57.5 -104t137.5 -38q87 0 141 38.5t54 103.5q0 68 -57 112.5t-169 87.5q-164 -73 -164 -200zM110 548q0 -60 55 -102t145 -75q126 72 126 177q0 121 -163 121q-74 0 -118.5 -31t-44.5 -90z" />
    <glyph glyph-name="nine" unicode="9" horiz-adv-x="546" 
d="M136 35q42 -14 102 -14q106 0 165 91t59 262q-26 -63 -82.5 -95t-123.5 -32q-96 0 -151 59t-55 154q0 99 55 169.5t162 70.5q226 0 226 -298q0 -412 -261 -412q-66 0 -109 17q-24 11 -19 24q4 12 32 4zM456 453q0 36 -8.5 70.5t-28 69t-59.5 55.5t-95 21
q-90 0 -135.5 -61.5t-45.5 -146.5q0 -80 47 -131.5t131 -51.5q80 0 137 49.5t57 125.5z" />
    <glyph glyph-name="colon" unicode=":" horiz-adv-x="179" 
d="M60 29q0 13 7.5 21t21.5 8t22 -8.5t8 -20.5t-8 -20.5t-22 -8.5t-21.5 8t-7.5 21zM60 461q0 13 7.5 21t21.5 8t22 -8.5t8 -20.5t-8 -20.5t-22 -8.5t-21.5 8t-7.5 21z" />
    <glyph glyph-name="semicolon" unicode=";" horiz-adv-x="196" 
d="M145 37l-95 -175q-12 -23 -29 -15q-14 8 -2 30l94 174q12 24 29 15q14 -8 3 -29zM85 461q0 13 7.5 21t21.5 8t22 -8.5t8 -20.5t-8 -20.5t-22 -8.5t-21.5 8t-7.5 21z" />
    <glyph glyph-name="less" unicode="&#x3c;" horiz-adv-x="486" 
d="M147 352l229 179q21 16 30 5q9 -12 -13 -29l-225 -177l226 -179q22 -18 13 -30q-9 -13 -30 4l-231 181q-29 22 1 46z" />
    <glyph glyph-name="equal" unicode="=" horiz-adv-x="486" 
d="M427 343h-368q-16 0 -16 15q0 16 16 16h368q16 0 16 -16q0 -15 -16 -15zM427 222h-368q-16 0 -16 15q0 16 16 16h368q16 0 16 -16q0 -15 -16 -15z" />
    <glyph glyph-name="greater" unicode="&#x3e;" horiz-adv-x="486" 
d="M375 306l-229 -179q-21 -16 -30 -5q-9 12 13 29l225 177l-226 179q-22 18 -13 30q9 13 30 -4l231 -181q29 -22 -1 -46z" />
    <glyph glyph-name="question" unicode="?" horiz-adv-x="407" 
d="M207 700q87 0 129 -42t42 -108q0 -33 -7.5 -60.5t-26 -53.5t-30 -38.5t-37.5 -38.5q-30 -29 -44.5 -46.5t-28.5 -49.5t-14 -69q0 -21 -16 -21q-17 0 -17 21q0 42 16 79t33 57t47 50q30 29 46.5 48.5t30.5 52t14 69.5q0 51 -35.5 85t-103.5 34q-56 0 -123 -31
q-26 -13 -33 -2q-9 14 17 28q67 36 141 36zM145 29q0 13 7.5 21t21.5 8t22 -8.5t8 -20.5t-8 -20.5t-22 -8.5t-21.5 8t-7.5 21z" />
    <glyph glyph-name="at" unicode="@" horiz-adv-x="976" 
d="M614 -198q-39 -12 -113 -12q-204 0 -326 116t-122 324q0 218 120 344t331 126q208 0 313.5 -114t105.5 -305q0 -57 -11.5 -105t-36 -89t-68 -64t-102.5 -23h-35q-19 0 -19 20v137q-16 -76 -67.5 -121.5t-132.5 -45.5q-94 0 -142.5 65.5t-48.5 174.5q0 120 58 195t175 75
q92 0 158 -38v9q0 19 17 19q16 0 16 -19v-440h30q87 0 131 69t44 183q0 177 -96 281.5t-289 104.5q-194 0 -305.5 -117.5t-111.5 -321.5q0 -195 116.5 -302t297.5 -107q59 0 109 11q22 5 26 -6q5 -17 -22 -24zM457 21q46 0 81 18t56 47t34 70t18 81.5t5 86.5v104
q-74 41 -159 41q-70 0 -115.5 -34t-64 -85.5t-18.5 -119.5q0 -96 40.5 -152.5t122.5 -56.5z" />
    <glyph glyph-name="A" unicode="A" horiz-adv-x="599" 
d="M331 680l256 -646q11 -26 -4 -33q-19 -8 -29 19l-82 207h-327l-79 -203q-11 -30 -28 -23q-15 5 -4 33l252 644q9 22 23 22t22 -20zM307 648l-150 -389h303z" />
    <glyph glyph-name="B" unicode="B" horiz-adv-x="580" 
d="M251 695q115 0 178.5 -38t63.5 -130q0 -61 -30 -106.5t-96 -59.5q82 -7 121 -54t39 -118q0 -194 -265 -194q-100 0 -162 11q-17 3 -17 21v632q0 22 18 25q61 11 150 11zM276 341h-158v-305q64 -9 144 -9q111 0 170 36.5t59 124.5q0 83 -54 118t-161 35zM242 663
q-65 0 -124 -8v-284h151q188 0 188 156q0 74 -56 105t-159 31z" />
    <glyph glyph-name="C" unicode="C" horiz-adv-x="632" 
d="M376 668q-135 0 -211 -92t-76 -234q0 -150 76 -235t204 -85q101 0 180 54q27 19 36 9q10 -13 -18 -35q-77 -60 -200 -60q-157 0 -235.5 96t-78.5 258q0 159 87.5 257.5t236.5 98.5q110 -1 181 -44q28 -16 19 -31q-7 -13 -39 4q-75 39 -162 39z" />
    <glyph glyph-name="D" unicode="D" horiz-adv-x="682" 
d="M83 28v630q0 20 17 23q62 14 179 14q350 0 350 -347q0 -168 -88 -260.5t-260 -92.5q-117 0 -181 12q-17 3 -17 21zM277 663q-88 0 -159 -11v-615q60 -10 160 -10q156 0 235.5 83t79.5 238q0 315 -316 315z" />
    <glyph glyph-name="E" unicode="E" horiz-adv-x="535" 
d="M491 0h-388q-9 0 -14.5 6t-5.5 14v650q0 20 19 20h381q16 0 16 -16t-16 -16h-365v-282h306q16 0 16 -16t-16 -16h-306v-312h373q16 0 16 -16t-16 -16z" />
    <glyph glyph-name="F" unicode="F" horiz-adv-x="507" 
d="M401 346h-283v-327q0 -19 -18 -19q-17 0 -17 19v652q0 19 18 19h359q16 0 16 -16t-16 -16h-342v-280h283q16 0 16 -16t-16 -16z" />
    <glyph glyph-name="G" unicode="G" horiz-adv-x="662" 
d="M376 668q-135 0 -211 -91.5t-76 -233.5q0 -151 74.5 -236t209.5 -85q57 0 112.5 17t90.5 46v214h-179q-16 0 -16 16t16 16h194q18 0 18 -19v-225q0 -16 -12 -25q-33 -29 -95 -50.5t-130 -21.5q-160 0 -239.5 95.5t-79.5 258.5q0 159 87.5 257.5t236.5 98.5
q110 -1 181 -44q29 -17 19 -32q-8 -11 -39 5q-75 39 -162 39z" />
    <glyph glyph-name="H" unicode="H" horiz-adv-x="692" 
d="M574 371v300q0 19 18 19q17 0 17 -19v-652q0 -19 -17 -19q-18 0 -18 19v320h-456v-320q0 -19 -18 -19q-17 0 -17 19v652q0 19 17 19q18 0 18 -19v-300h456z" />
    <glyph glyph-name="I" unicode="I" horiz-adv-x="201" 
d="M83 19v652q0 19 17 19q18 0 18 -19v-652q0 -19 -18 -19q-17 0 -17 19z" />
    <glyph glyph-name="J" unicode="J" horiz-adv-x="330" 
d="M-7 38q6 10 31 2q43 -18 88 -18q108 0 108 132v517q0 19 18 19q17 0 17 -19v-522q0 -159 -141 -159q-65 0 -107 21q-22 12 -14 27z" />
    <glyph glyph-name="K" unicode="K" horiz-adv-x="518" 
d="M83 19v652q0 19 17 19q18 0 18 -19v-310l328 316q20 20 32 8q12 -11 -9 -32l-315 -301l338 -315q20 -19 9 -32t-34 8l-349 324v-318q0 -19 -18 -19q-17 0 -17 19z" />
    <glyph glyph-name="L" unicode="L" horiz-adv-x="509" 
d="M480 0h-380q-17 0 -17 19v652q0 19 17 19q18 0 18 -19v-639h362q16 0 16 -16t-16 -16z" />
    <glyph glyph-name="M" unicode="M" horiz-adv-x="772" 
d="M387 261l263 412q11 17 22 17q17 0 17 -21v-650q0 -19 -17 -19q-18 0 -18 19v606l-248 -393q-9 -14 -21.5 -14t-21.5 14l-247 388v-601q0 -19 -17 -19q-16 0 -16 19v650q0 21 17 21q13 0 23 -17z" />
    <glyph glyph-name="N" unicode="N" horiz-adv-x="693" 
d="M577 68v603q0 19 17 19q16 0 16 -19v-650q0 -21 -17 -21q-10 0 -20 12l-457 610v-603q0 -19 -17 -19q-16 0 -16 19v648q0 23 17 23q12 0 24 -16z" />
    <glyph glyph-name="O" unicode="O" horiz-adv-x="753" 
d="M53 345q0 155 85.5 255t238.5 100q152 0 237.5 -100t85.5 -255q0 -156 -85 -255.5t-238 -99.5t-238.5 99.5t-85.5 255.5zM89 345q0 -143 77 -233t211 -90q133 0 210 90t77 233t-77 233t-210 90q-134 0 -211 -90t-77 -233z" />
    <glyph glyph-name="P" unicode="P" 
d="M500 490q0 -111 -70.5 -163.5t-189.5 -52.5q-68 0 -122 9v-264q0 -19 -18 -19q-17 0 -17 19v641q0 20 18 23q74 12 154 12q245 0 245 -205zM255 663q-73 0 -137 -10v-338q51 -9 124 -9q222 0 222 184q0 173 -209 173z" />
    <glyph glyph-name="Q" unicode="Q" horiz-adv-x="753" 
d="M53 345q0 155 85.5 255t238.5 100q152 0 237.5 -100t85.5 -255q0 -99 -36 -178t-103 -125q60 -58 128 -99q27 -17 22 -30q-6 -13 -38 4q-73 40 -141 108q-67 -35 -155 -35q-153 0 -238.5 99.5t-85.5 255.5zM89 345q0 -143 77 -233t211 -90q73 0 131 29q-62 72 -91 132
q-15 29 -1 36q15 7 30 -23q47 -83 90 -129q61 41 94.5 113.5t33.5 164.5q0 143 -77 233t-210 90q-134 0 -211 -90t-77 -233z" />
    <glyph glyph-name="R" unicode="R" horiz-adv-x="581" 
d="M83 19v644q0 18 18 21q74 11 144 11q243 0 243 -191q0 -153 -148 -196l171 -273q16 -22 1 -32q-17 -11 -32 15l-176 282q-30 -5 -75 -5q-71 0 -111 7v-283q0 -19 -18 -19q-17 0 -17 19zM242 663q-50 0 -124 -9v-320q50 -8 109 -8q110 0 167.5 41t57.5 136q0 86 -53.5 123
t-156.5 37z" />
    <glyph glyph-name="S" unicode="S" horiz-adv-x="536" 
d="M285 668q-83 0 -126 -36.5t-43 -94.5q0 -50 29 -85t72 -51l94 -35q51 -19 94 -37.5t72 -57.5t29 -95q0 -86 -59 -136t-170 -50q-109 0 -191 46q-42 23 -30 42q2 3 4.5 4.5t5.5 1.5t5.5 -0.5t7 -3t7.5 -4t8 -4.5t8 -5q80 -45 176 -45q90 0 141 38.5t51 110.5q0 50 -29 84
t-72 50l-94 35q-51 19 -94 37.5t-72 59t-29 98.5q0 73 52 119t153 46q100 0 170 -44q32 -20 23 -35q-3 -4 -7 -5.5t-11.5 1.5t-10.5 4.5t-14 7.5q-71 39 -150 39z" />
    <glyph glyph-name="T" unicode="T" horiz-adv-x="583" 
d="M554 658h-245v-639q0 -19 -18 -19q-17 0 -17 19v639h-245q-16 0 -16 16t16 16h525q16 0 16 -16t-16 -16z" />
    <glyph glyph-name="U" unicode="U" horiz-adv-x="664" 
d="M332 22q116 0 165 71t49 197v381q0 19 18 19q17 0 17 -19v-382q0 -299 -250 -299q-248 0 -248 299v382q0 19 17 19q18 0 18 -19v-381q0 -268 214 -268z" />
    <glyph glyph-name="V" unicode="V" horiz-adv-x="599" 
d="M292 11l-257 642q-12 29 6 35q18 7 28 -20l247 -624l239 620q11 30 28 25q17 -6 5 -34l-252 -645q-8 -20 -21 -20q-14 0 -23 21z" />
    <glyph glyph-name="W" unicode="W" horiz-adv-x="857" 
d="M609 12l-173 507l-182 -509q-7 -20 -22 -20q-16 0 -21 21l-181 648q-7 26 10 30t25 -23l170 -615l182 509q7 19 20 19t20 -18l176 -509l174 614q8 27 25 23q16 -4 8 -32l-187 -644q-6 -23 -22 -23q-14 0 -22 22z" />
    <glyph glyph-name="X" unicode="X" horiz-adv-x="598" 
d="M100 673l210 -287l210 287q17 23 31 14t-4 -33l-216 -292l240 -324q19 -24 3 -34q-15 -11 -32 12l-233 317l-233 -316q-19 -26 -32 -14q-11 10 5 32l239 324l-218 293q-17 23 -3 34q14 12 33 -13z" />
    <glyph glyph-name="Y" unicode="Y" horiz-adv-x="551" 
d="M275 19v286l-235 349q-15 22 -1 32q15 10 31 -14l224 -331l218 334q14 21 28 12t-1 -30l-229 -349v-289q0 -19 -17 -19q-18 0 -18 19z" />
    <glyph glyph-name="Z" unicode="Z" horiz-adv-x="595" 
d="M537 0h-470q-14 0 -18 10.5t3 20.5l449 627h-419q-16 0 -16 16t16 16h446q14 0 17.5 -11t-4.5 -23l-447 -624h443q16 0 16 -16t-16 -16z" />
    <glyph glyph-name="bracketleft" unicode="[" horiz-adv-x="266" 
d="M217 -70h-136q-18 0 -18 19v792q0 19 17 19h137q16 0 16 -16q0 -15 -16 -15h-121v-768h121q16 0 16 -16q0 -15 -16 -15z" />
    <glyph glyph-name="backslash" unicode="\" horiz-adv-x="310" 
d="M301 -83l-301 845q-11 32 5 37q17 5 28 -24l299 -848q11 -32 -5 -36q-8 -2 -14 3.5t-12 22.5z" />
    <glyph glyph-name="bracketright" unicode="]" horiz-adv-x="266" 
d="M183 -70h-136q-16 0 -16 15q0 16 16 16h121v768h-121q-16 0 -16 15q0 16 16 16h137q17 0 17 -19v-792q0 -19 -18 -19z" />
    <glyph glyph-name="asciicircum" unicode="^" horiz-adv-x="566" 
d="M313 684l206 -305q15 -23 3 -32q-14 -9 -29 14l-204 304l-198 -304q-14 -23 -28 -14q-10 8 2 27l203 310q10 16 22 16q13 0 23 -16z" />
    <glyph glyph-name="underscore" unicode="_" horiz-adv-x="588" 
d="M559 -77h-530q-16 0 -16 15q0 16 16 16h530q16 0 16 -16q0 -15 -16 -15z" />
    <glyph glyph-name="grave" unicode="`" horiz-adv-x="525" 
d="M339 586l-154 102q-21 13 -13 27q8 12 29 -2l155 -103q21 -14 12 -27q-8 -12 -29 3z" />
    <glyph glyph-name="a" unicode="a" horiz-adv-x="491" 
d="M98 437q-24 -10 -29 3q-6 14 14 24q72 36 160 36q180 0 180 -174v-307q0 -19 -17 -19q-16 0 -16 19v118q-22 -64 -77 -105.5t-137 -41.5q-71 0 -113.5 36t-42.5 104q0 45 19.5 78.5t53.5 51t71 25.5t79 8q77 0 147 -14v43q0 147 -150 147q-63 0 -142 -32zM181 21
q95 0 152 65.5t57 141.5v22q-81 13 -142 13q-88 0 -141 -33t-53 -99q0 -51 33 -80.5t94 -29.5z" />
    <glyph glyph-name="b" unicode="b" horiz-adv-x="535" 
d="M301 500q94 0 142.5 -65.5t48.5 -174.5q0 -120 -58 -195t-175 -75q-92 0 -158 38v-9q0 -19 -17 -19q-16 0 -16 19v652q0 19 16 19q17 0 17 -19v-338q16 76 67.5 121.5t132.5 45.5zM295 469q-46 0 -81 -18t-56 -47t-34 -70t-18 -81.5t-5 -86.5v-104q74 -41 159 -41
q70 0 115.5 34t64 85.5t18.5 119.5q0 96 -40.5 152.5t-122.5 56.5z" />
    <glyph glyph-name="c" unicode="c" horiz-adv-x="469" 
d="M431 40q-68 -50 -161 -50q-110 0 -168.5 64.5t-58.5 185.5q0 118 66.5 189t172.5 71q75 0 130 -29q24 -12 16 -27q-7 -12 -31 -1q-58 26 -115 26q-89 0 -147 -63t-58 -166q0 -105 52 -162t142 -57q73 0 142 44q21 13 30 3q9 -13 -12 -28z" />
    <glyph glyph-name="d" unicode="d" horiz-adv-x="535" 
d="M234 -10q-94 0 -142.5 65.5t-48.5 174.5q0 120 58 195t175 75q92 0 158 -38v209q0 19 17 19q16 0 16 -19v-652q0 -19 -16 -19q-17 0 -17 19v138q-16 -76 -67.5 -121.5t-132.5 -45.5zM240 21q46 0 81 18t56 47t34 70t18 81.5t5 86.5v104q-74 41 -159 41q-70 0 -115.5 -34
t-64 -85.5t-18.5 -119.5q0 -96 40.5 -152.5t122.5 -56.5z" />
    <glyph glyph-name="e" unicode="e" horiz-adv-x="505" 
d="M274 21q75 0 142 42q19 11 26 0q9 -12 -10 -26q-64 -47 -158 -47q-115 0 -173 66t-58 187q0 114 61 185.5t166 71.5q94 0 143 -54.5t49 -131.5q0 -37 -5 -57q-6 -29 -31 -29h-349q0 -97 53 -152t144 -55zM267 469q-83 0 -136.5 -58t-53.5 -153h350q4 19 4 54
q-1 73 -44 115t-120 42z" />
    <glyph glyph-name="f" unicode="f" horiz-adv-x="287" 
d="M322 658q-4 -11 -23 -5q-46 16 -86 16q-112 0 -112 -145v-34h146q16 0 16 -16q0 -15 -16 -15h-146v-640q0 -19 -17 -19q-16 0 -16 19v701q0 180 148 180q62 0 96 -20q15 -9 10 -22z" />
    <glyph glyph-name="g" unicode="g" horiz-adv-x="508" 
d="M484 464h-108q63 -46 63 -132q0 -72 -48.5 -119t-139.5 -47q-74 0 -122 32q-45 -28 -45 -66q0 -33 39.5 -51t145.5 -22q42 -2 70.5 -5t58 -10.5t47 -19.5t28.5 -32.5t11 -48.5q0 -69 -64 -111t-184 -42q-213 0 -213 135q0 83 93 125q-64 22 -64 80q0 50 54 87
q-43 44 -43 115q0 73 48.5 120.5t139.5 47.5q37 0 72 -10h161q16 0 16 -13t-16 -13zM255 29q-53 1 -100 10q-99 -36 -99 -114q0 -44 40.5 -75t138.5 -31q109 0 162.5 34.5t53.5 83.5q0 48 -43 67.5t-153 24.5zM96 332q0 -59 39.5 -98t115.5 -39t115.5 39t39.5 98t-39.5 98.5
t-115.5 39.5t-115.5 -39t-39.5 -99z" />
    <glyph glyph-name="h" unicode="h" 
d="M437 19v273q0 84 -32 130.5t-110 46.5q-99 0 -146.5 -81t-47.5 -222v-147q0 -19 -17 -19q-16 0 -16 19v652q0 19 16 19q17 0 17 -19v-338q17 82 70 124.5t126 42.5q91 0 132 -52.5t41 -154.5v-274q0 -19 -16 -19q-17 0 -17 19z" />
    <glyph glyph-name="i" unicode="i" horiz-adv-x="169" 
d="M68 19v452q0 19 16 19q17 0 17 -19v-452q0 -19 -17 -19q-16 0 -16 19zM56 636q0 13 7.5 21t20.5 8t21 -8t8 -21q0 -28 -29 -28q-28 0 -28 28z" />
    <glyph glyph-name="j" unicode="j" horiz-adv-x="169" 
d="M-113 -194q-18 8 -12 23q5 12 25 5q41 -13 77 -13q58 0 77.5 34.5t19.5 112.5v503q0 19 16 19q17 0 17 -19v-512q0 -86 -29 -127.5t-99 -41.5q-60 0 -92 16zM62 636q0 13 7.5 21t20.5 8t21 -8t8 -21q0 -28 -29 -28q-28 0 -28 28z" />
    <glyph glyph-name="k" unicode="k" horiz-adv-x="398" 
d="M68 19v652q0 19 16 19q17 0 17 -19v-404l234 212q19 17 30 6q9 -11 -9 -29l-224 -202l240 -218q21 -19 8 -32q-11 -11 -33 9l-246 224v-218q0 -19 -17 -19q-16 0 -16 19z" />
    <glyph glyph-name="l" unicode="l" horiz-adv-x="291" 
d="M68 145v526q0 19 16 19q17 0 17 -19v-514q0 -78 19 -107t75 -29q34 0 70 18q22 11 28 -1q7 -14 -12 -25q-38 -23 -92 -23q-67 0 -94 35t-27 120z" />
    <glyph glyph-name="m" unicode="m" horiz-adv-x="846" 
d="M406 19v270q0 88 -25 134t-95 46q-66 0 -109.5 -45t-59.5 -103.5t-16 -125.5v-176q0 -19 -17 -19q-16 0 -16 19v452q0 19 16 19q17 0 17 -19v-138q16 78 66 122.5t123 44.5q146 0 144 -176q16 82 69 129t125 47q81 0 115.5 -49t34.5 -151v-281q0 -19 -17 -19
q-16 0 -16 19v277q0 86 -26.5 129.5t-94.5 43.5q-62 0 -105 -40.5t-61 -98t-19 -126.5v-185q0 -19 -16 -19q-17 0 -17 19z" />
    <glyph glyph-name="n" unicode="n" 
d="M437 19v273q0 84 -32 130.5t-110 46.5q-99 0 -146.5 -81t-47.5 -222v-147q0 -19 -17 -19q-16 0 -16 19v452q0 19 16 19q17 0 17 -19v-138q17 82 70 124.5t126 42.5q91 0 132 -52.5t41 -154.5v-274q0 -19 -16 -19q-17 0 -17 19z" />
    <glyph glyph-name="o" unicode="o" horiz-adv-x="558" 
d="M43 245q0 113 62.5 184t173.5 71t173.5 -71t62.5 -184t-62.5 -184t-173.5 -71t-173.5 71t-62.5 184zM77 245q0 -104 54 -164t148 -60t148 60t54 164q0 103 -54 163.5t-148 60.5t-148 -60.5t-54 -163.5z" />
    <glyph glyph-name="p" unicode="p" horiz-adv-x="535" 
d="M301 500q94 0 142.5 -65.5t48.5 -174.5q0 -120 -58 -195t-175 -75q-92 0 -158 38v-209q0 -19 -17 -19q-16 0 -16 19v652q0 19 16 19q17 0 17 -19v-138q16 76 67.5 121.5t132.5 45.5zM295 469q-46 0 -81 -18t-56 -47t-34 -70t-18 -81.5t-5 -86.5v-104q74 -41 159 -41
q70 0 115.5 34t64 85.5t18.5 119.5q0 96 -40.5 152.5t-122.5 56.5z" />
    <glyph glyph-name="q" unicode="q" horiz-adv-x="535" 
d="M234 -10q-94 0 -142.5 65.5t-48.5 174.5q0 120 58 195t175 75q92 0 158 -38v9q0 19 17 19q16 0 16 -19v-652q0 -19 -16 -19q-17 0 -17 19v338q-16 -76 -67.5 -121.5t-132.5 -45.5zM240 21q46 0 81 18t56 47t34 70t18 81.5t5 86.5v104q-74 41 -159 41q-70 0 -115.5 -34
t-64 -85.5t-18.5 -119.5q0 -96 40.5 -152.5t122.5 -56.5z" />
    <glyph glyph-name="r" unicode="r" horiz-adv-x="330" 
d="M101 204v-185q0 -19 -17 -19q-16 0 -16 19v452q0 19 16 19q17 0 17 -19v-112q15 63 55 102t98 39q37 0 62 -16q17 -11 11 -24q-5 -12 -25 -3q-28 12 -53 12q-58 0 -96 -52q-52 -69 -52 -213z" />
    <glyph glyph-name="s" unicode="s" horiz-adv-x="416" 
d="M220 500q78 0 137 -32q24 -13 16 -27q-6 -11 -28 -2q-65 30 -125 30q-63 0 -95 -24t-32 -67q0 -41 31 -65t75 -35.5t87.5 -25t74.5 -43.5t31 -80q0 -64 -48 -101.5t-136 -37.5t-148 36q-25 14 -16 29q7 11 32 -1q66 -33 136 -33q66 0 106 28.5t40 76.5q0 41 -31 66
t-75 37l-87 25q-44 13 -75 42.5t-31 78.5q0 61 43 93t118 32z" />
    <glyph glyph-name="t" unicode="t" horiz-adv-x="291" 
d="M68 145v446q0 19 16 19q17 0 17 -19v-101h146q16 0 16 -16q0 -15 -16 -15h-146v-301q0 -78 19 -107.5t75 -29.5q34 0 70 18q22 11 28 -1q7 -14 -12 -25q-38 -23 -92 -23q-67 0 -94 35t-27 120z" />
    <glyph glyph-name="u" unicode="u" 
d="M101 471v-273q0 -84 32 -130.5t110 -46.5q99 0 146.5 81t47.5 222v147q0 19 17 19q16 0 16 -19v-452q0 -19 -16 -19q-17 0 -17 19v138q-17 -82 -70 -124.5t-126 -42.5q-91 0 -132 52.5t-41 154.5v274q0 19 16 19q17 0 17 -19z" />
    <glyph glyph-name="v" unicode="v" horiz-adv-x="453" 
d="M441 460l-183 -451q-9 -19 -21 -19t-20 19l-185 450q-10 24 7 30q16 6 25 -16l175 -430l171 429q7 22 25 16q15 -6 6 -28z" />
    <glyph glyph-name="w" unicode="w" horiz-adv-x="664" 
d="M176 8l-146 447q-9 28 8 34t26 -23l134 -423l126 346q6 17 19 17q12 0 18 -16l133 -350l127 427q8 26 23 22t8 -28l-138 -452q-6 -19 -21 -19q-13 0 -20 17l-132 344l-125 -342q-6 -19 -20 -19t-20 18z" />
    <glyph glyph-name="x" unicode="x" horiz-adv-x="457" 
d="M87 475l152 -195l153 196q16 19 29 10q12 -9 -4 -29l-158 -200l175 -222q17 -21 5 -31q-13 -11 -31 12l-171 213l-169 -217q-16 -20 -29 -9q-11 10 6 31l173 221l-156 197q-18 22 -5 34q14 11 30 -11z" />
    <glyph glyph-name="y" unicode="y" horiz-adv-x="453" 
d="M2 -192q-20 11 -14 26q6 13 30 1q31 -14 62 -14q25 0 47 15t37.5 41t27 51.5t22.5 54.5q3 9 5 14l-192 455q-12 29 5 36t28 -20l177 -430l172 431q11 25 27 19q15 -6 4 -32l-200 -488q-41 -100 -75 -139t-87 -39q-43 0 -76 18z" />
    <glyph glyph-name="z" unicode="z" horiz-adv-x="453" 
d="M407 0h-354q-13 0 -16 10t5 21l332 428h-300q-16 0 -16 16q0 15 16 15h326q16 0 19 -11t-5 -21l-333 -427h326q16 0 16 -16q0 -15 -16 -15z" />
    <glyph glyph-name="braceleft" unicode="{" horiz-adv-x="291" 
d="M128 257v-198q0 -52 16 -80.5t61 -28.5q9 0 41 7q20 4 24 -6q6 -14 -18 -23q-19 -8 -48 -8q-62 0 -85.5 34.5t-23.5 103.5v189q0 31 -7 49t-28 27q-17 8 -17 22q0 13 17 21q21 9 28 27.5t7 49.5v189q0 65 23 101.5t86 36.5q29 0 48 -8q24 -9 18 -23q-4 -11 -26 -5
q-27 6 -39 6q-44 0 -60.5 -28t-16.5 -81v-198q0 -71 -48 -88q48 -17 48 -88z" />
    <glyph glyph-name="bar" unicode="|" horiz-adv-x="169" 
d="M68 -91v872q0 19 16 19t16 -19v-872q0 -19 -16 -19t-16 19z" />
    <glyph glyph-name="braceright" unicode="}" horiz-adv-x="291" 
d="M167 59v198q0 71 48 88q-48 17 -48 88v198q0 53 -16.5 81t-60.5 28q-12 0 -39 -6q-22 -6 -26 5q-6 14 18 23q19 8 48 8q63 0 86 -36.5t23 -101.5v-189q0 -31 7 -49.5t28 -27.5q17 -8 17 -21q0 -14 -17 -22q-21 -9 -28 -27t-7 -49v-189q0 -69 -23.5 -103.5t-85.5 -34.5
q-29 0 -48 8q-24 9 -18 23q4 10 24 6q32 -7 41 -7q45 0 61 28.5t16 80.5z" />
    <glyph glyph-name="asciitilde" unicode="~" horiz-adv-x="486" 
d="M343 268q-32 0 -94.5 25t-89.5 25q-39 0 -71 -30q-21 -19 -31 -10q-10 11 9 30q41 41 96 41q34 0 98 -25t86 -25q39 0 72 29q21 20 31 10t-10 -30q-40 -40 -96 -40z" />
    <glyph glyph-name="uni00A0" unicode="&#xa0;" horiz-adv-x="260" 
 />
    <glyph glyph-name="exclamdown" unicode="&#xa1;" horiz-adv-x="179" 
d="M73 19v479q0 19 17 19q16 0 16 -19v-479q0 -19 -16 -19q-17 0 -17 19zM60 661q0 13 7.5 21t21.5 8t22 -8.5t8 -20.5t-8 -20.5t-22 -8.5t-21.5 8t-7.5 21z" />
    <glyph glyph-name="cent" unicode="&#xa2;" horiz-adv-x="546" 
d="M456 40q-57 -44 -142 -49v-103q0 -19 -15 -19q-16 0 -16 19v102q-104 4 -159.5 68t-55.5 182q0 111 59.5 181t155.5 78v103q0 19 16 19q15 0 15 -19v-102q69 -1 123 -29q24 -12 16 -27q-7 -12 -31 -1q-58 26 -115 26q-89 0 -147 -63t-58 -166q0 -105 52 -162t142 -57
q73 0 141 43q23 14 31 4q9 -13 -12 -28z" />
    <glyph glyph-name="sterling" unicode="&#xa3;" horiz-adv-x="546" 
d="M295 678q-73 0 -116.5 -39.5t-43.5 -110.5q0 -25 6.5 -52.5t12.5 -44.5t20.5 -50t19.5 -47h177q16 0 16 -15t-16 -15h-166q20 -58 20 -116q0 -51 -23 -93.5t-57 -63.5h341q16 0 16 -16q0 -15 -16 -15h-416q-16 0 -16 15q0 16 16 16q52 0 86.5 47t34.5 109q0 58 -22 117
h-85q-16 0 -16 15t16 15h74q-4 8 -15.5 34.5t-16.5 39t-12 34.5t-10 42.5t-3 43.5q0 83 53 132t143 49q105 -1 173 -48q23 -15 15 -29q-7 -12 -34 3q-74 43 -156 43z" />
    <glyph glyph-name="currency" unicode="&#xa4;" horiz-adv-x="670" 
d="M121 351q0 92 54 152l-90 94q-18 20 -7 31q12 11 31 -9l89 -94q59 50 148 50q88 0 147 -50l89 94q19 21 32 9q11 -11 -7 -31l-91 -94q54 -62 54 -152q0 -91 -54 -153l91 -93q18 -20 7 -31q-13 -12 -32 9l-88 93q-61 -50 -148 -50q-88 0 -149 50l-88 -93q-19 -20 -31 -9
q-11 11 7 31l90 93q-54 60 -54 153zM152 351q0 -88 53.5 -142t140.5 -54t140 54t53 142t-53 142t-140 54q-86 0 -140 -55.5t-54 -140.5z" />
    <glyph glyph-name="yen" unicode="&#xa5;" horiz-adv-x="546" 
d="M464 172h-155v-153q0 -19 -18 -19q-17 0 -17 19v153h-155q-16 0 -16 15t16 15h155v95h-155q-16 0 -16 15t16 15h143l-210 326q-17 24 -1 34q15 9 30 -16l210 -337l210 339q13 23 27 15q13 -7 -1 -30l-209 -331h146q16 0 16 -15t-16 -15h-155v-95h155q16 0 16 -15t-16 -15
z" />
    <glyph glyph-name="brokenbar" unicode="&#xa6;" horiz-adv-x="169" 
d="M68 -91v347q0 19 16 19t16 -19v-347q0 -19 -16 -19t-16 19zM68 434v347q0 19 16 19t16 -19v-347q0 -19 -16 -19t-16 19z" />
    <glyph glyph-name="section" unicode="&#xa7;" horiz-adv-x="544" 
d="M66 252q0 94 92 150q-61 46 -61 134q0 75 51 119.5t149 44.5q67 0 130 -25q40 -18 32 -35q-5 -11 -40 3q-3 1 -4 2q-59 24 -120 24q-82 0 -123 -36t-41 -97q0 -17 3.5 -31.5t7 -26t13.5 -23t15.5 -18.5t21.5 -17l21 -13q6 -3 26 -11l24 -10q5 -2 28 -10l26 -9
q77 -26 119 -63t42 -108q0 -97 -92 -150q61 -49 61 -134q0 -75 -51 -119.5t-149 -44.5q-67 0 -130 25q-40 18 -32 35q5 11 40 -3q3 -1 4 -2q59 -24 120 -24q82 0 123 36t41 97q0 17 -3.5 32t-7 26.5t-13.5 22.5t-16 18.5t-20.5 16.5t-21.5 13t-25 11l-26 10q-6 3 -27 10
t-26 9q-77 26 -119 63t-42 108zM444 192q0 32 -10.5 56t-31.5 40t-41.5 26t-51.5 21q-8 3 -31 11l-35 12q-12 4 -30 11.5t-31 15.5q-82 -47 -82 -129q0 -32 10 -55.5t31.5 -39.5t41 -25.5t52.5 -21.5l39 -14q31 -11 50.5 -19.5t36.5 -18.5q83 51 83 130z" />
    <glyph glyph-name="dieresis" unicode="&#xa8;" horiz-adv-x="525" 
d="M163 635q0 12 7.5 20t20.5 8q12 0 20 -8t8 -20q0 -11 -7.5 -19t-20.5 -8t-20.5 7.5t-7.5 19.5zM306 635q0 12 7.5 20t19.5 8q13 0 20.5 -8t7.5 -20t-7.5 -19.5t-20.5 -7.5q-12 0 -19.5 7.5t-7.5 19.5z" />
    <glyph glyph-name="copyright" unicode="&#xa9;" horiz-adv-x="780" 
d="M43 345q0 156 92 255.5t255 99.5t255 -99.5t92 -255.5q0 -157 -92 -256t-255 -99t-255 99.5t-92 255.5zM76 345q0 -146 83 -235t231 -89t231 89t83 235q0 145 -83 234.5t-231 89.5t-231 -89.5t-83 -234.5zM401 517q-68 0 -106.5 -46t-38.5 -124q0 -79 36 -123t105 -44
q52 0 97 29q14 9 22 0q9 -11 -5 -23q-44 -37 -115 -37q-87 0 -130 52.5t-43 145.5q0 91 49 146t130 55q60 0 98 -24q18 -11 10 -24q-5 -11 -25 -1q-41 18 -84 18z" />
    <glyph glyph-name="ordfeminine" unicode="&#xaa;" horiz-adv-x="379" 
d="M103 653q-24 -7 -28 4q-4 13 16 21q51 22 110 22q68 0 100 -30.5t32 -94.5v-207q0 -15 -15 -15t-15 15v68q-38 -93 -144 -93q-53 0 -83 27.5t-30 75.5q0 58 41.5 87.5t105.5 29.5q50 0 110 -12v25q0 50 -24 73t-79 23q-40 0 -97 -19zM162 371q68 0 104.5 43t36.5 91v20
q-51 10 -107 10q-118 0 -118 -87q0 -34 22.5 -55.5t61.5 -21.5z" />
    <glyph glyph-name="guillemotleft" unicode="&#xab;" horiz-adv-x="482" 
d="M78 271l171 167q17 17 27 7q10 -9 -8 -27l-172 -168l172 -174q18 -18 9 -29q-11 -11 -29 8l-171 171q-22 22 1 45zM249 271l171 167q17 17 27 7q9 -9 -8 -27l-172 -168l172 -174q18 -18 9 -29q-10 -11 -29 8l-171 171q-22 22 1 45z" />
    <glyph glyph-name="logicalnot" unicode="&#xac;" horiz-adv-x="486" 
d="M411 195v119h-352q-16 0 -16 15q0 16 16 16h365q19 0 19 -20v-130q0 -19 -16 -19t-16 19z" />
    <glyph glyph-name="uni00AD" unicode="&#xad;" horiz-adv-x="332" 
d="M303 255h-274q-16 0 -16 16q0 15 16 15h274q16 0 16 -15q0 -16 -16 -16z" />
    <glyph glyph-name="registered" unicode="&#xae;" horiz-adv-x="670" 
d="M83 445q0 110 68.5 182.5t183.5 72.5t183.5 -72.5t68.5 -182.5q0 -111 -68.5 -183t-183.5 -72t-183.5 72t-68.5 183zM113 445q0 -98 58 -162.5t164 -64.5t164 64.5t58 162.5t-58 162t-164 64t-164 -64t-58 -162zM412 316l-66 106q-13 -2 -33 -2q-21 0 -42 3v-103
q0 -15 -13 -15t-13 15v249q0 17 17 22q27 8 67 8q104 0 104 -86q0 -66 -60 -84l62 -97q11 -18 -1 -25q-12 -8 -22 9zM325 575q-30 0 -54 -6v-122q19 -3 40 -3q52 0 73.5 15.5t21.5 53.5q0 62 -81 62z" />
    <glyph glyph-name="macron" unicode="&#xaf;" horiz-adv-x="525" 
d="M391 618h-258q-15 0 -15 15t15 15h258q16 0 16 -15t-16 -15z" />
    <glyph glyph-name="degree" unicode="&#xb0;" horiz-adv-x="540" 
d="M121 552q0 67 42.5 107.5t106.5 40.5t106.5 -40.5t42.5 -107.5t-42.5 -107t-106.5 -40t-106.5 40t-42.5 107zM153 552q0 -54 33 -86.5t84 -32.5t84 32.5t33 86.5q0 55 -33 87.5t-84 32.5t-84 -32.5t-33 -87.5z" />
    <glyph glyph-name="plusminus" unicode="&#xb1;" horiz-adv-x="486" 
d="M227 269v82h-168q-16 0 -16 15q0 16 16 16h168v147q0 19 16 19t16 -19v-147h168q16 0 16 -16q0 -15 -16 -15h-168v-82q0 -19 -16 -19t-16 19zM427 164h-368q-16 0 -16 15q0 16 16 16h368q16 0 16 -16q0 -15 -16 -15z" />
    <glyph glyph-name="twosuperior" unicode="&#xb2;" horiz-adv-x="284" 
d="M250 353h-209q-12 0 -12 13q0 40 19.5 70.5t48.5 49.5l56 36q28 17 47.5 39.5t19.5 50.5q0 26 -19 43t-59 17q-41 0 -82 -23q-20 -12 -26 -2q-7 11 12 24q44 29 98 29q53 0 80.5 -23.5t27.5 -61.5q0 -33 -19.5 -60t-48.5 -45l-56 -36q-28 -18 -47.5 -41.5t-19.5 -51.5
h189q15 0 15 -14t-15 -14z" />
    <glyph glyph-name="threesuperior" unicode="&#xb3;" horiz-adv-x="295" 
d="M103 528q-16 0 -16 13q0 7 10 17l113 104h-145q-14 0 -14 14t14 14h177q14 0 14 -13q0 -8 -10 -18l-118 -106q141 -2 141 -102q0 -52 -34 -80t-96 -28q-54 0 -87 18q-24 12 -17 27q5 11 29 0q41 -17 75 -17q98 0 98 79q0 40 -31.5 59t-102.5 19z" />
    <glyph glyph-name="acute" unicode="&#xb4;" horiz-adv-x="525" 
d="M357 690l-155 -104q-21 -16 -30 -3q-8 13 12 26l155 104q22 15 30 3t-12 -26z" />
    <glyph glyph-name="mu" unicode="&#xb5;" 
d="M101 471v-284q5 -166 142 -166q99 0 146.5 81t47.5 222v147q0 19 17 19q16 0 16 -19v-452q0 -19 -16 -19q-17 0 -17 19v138q-17 -82 -70 -124.5t-126 -42.5q-106 0 -140 84v-255q0 -19 -17 -19q-16 0 -16 19v652q0 19 16 19q17 0 17 -19z" />
    <glyph glyph-name="paragraph" unicode="&#xb6;" horiz-adv-x="398" 
d="M165 -91v396q-65 1 -108.5 57t-43.5 137q0 80 47 135.5t116 55.5q21 0 21 -22v-759q0 -19 -16 -19t-16 19zM283 -91v762q0 19 16 19t16 -19v-762q0 -19 -16 -19t-16 19z" />
    <glyph glyph-name="periodcentered" unicode="&#xb7;" horiz-adv-x="174" 
d="M57 314q0 13 7.5 21t21.5 8t22 -8.5t8 -20.5t-8 -20.5t-22 -8.5t-21.5 8t-7.5 21z" />
    <glyph glyph-name="cedilla" unicode="&#xb8;" horiz-adv-x="297" 
d="M90 -202q28 -12 60 -12q70 0 70 60q0 62 -93 62q-17 0 -14 17l20 81q5 18 19 15t9 -20l-18 -67q108 -4 108 -87q0 -42 -26.5 -66t-75.5 -24q-44 0 -74 16q-20 9 -13 24q1 2 2.5 3.5t3.5 2t3.5 0.5t4.5 -0.5t4.5 -1t5 -2t4.5 -1.5z" />
    <glyph glyph-name="onesuperior" unicode="&#xb9;" horiz-adv-x="234" 
d="M149 369v284l-94 -94q-18 -18 -28 -7q-9 10 6 25l110 110q13 13 23 13q14 0 14 -17v-314q0 -16 -16 -16q-15 0 -15 16z" />
    <glyph glyph-name="ordmasculine" unicode="&#xba;" horiz-adv-x="345" 
d="M31 521q0 82 35.5 130.5t106.5 48.5t106 -48.5t35 -130.5t-35 -130t-106 -48t-106.5 48t-35.5 130zM63 521q0 -150 110 -150q109 0 109 150q0 68 -26 109.5t-83 41.5q-110 0 -110 -151z" />
    <glyph glyph-name="guillemotright" unicode="&#xbb;" horiz-adv-x="482" 
d="M262 222l-171 -167q-17 -17 -27 -7q-9 10 8 27l172 168l-172 174q-18 18 -9 29q10 10 29 -8l171 -171q22 -22 -1 -45zM433 222l-171 -167q-17 -17 -27 -7t8 27l172 168l-172 174q-18 18 -9 29q11 10 29 -8l171 -171q22 -22 -1 -45z" />
    <glyph glyph-name="onequarter" unicode="&#xbc;" horiz-adv-x="671" 
d="M429 131h137v171zM595 103v-88q0 -15 -15 -15q-14 0 -14 15v88h-157q-13 0 -15.5 10.5t4.5 18.5l161 201q10 14 22 14q14 0 14 -19v-197h39q13 0 13 -14t-13 -14h-39zM201 -5l255 715q6 17 12 24t15 4q14 -5 2 -38l-255 -716q-10 -27 -26 -23q-14 4 -3 34zM149 369v284
l-94 -94q-18 -18 -28 -7q-9 10 6 25l110 110q13 13 23 13q14 0 14 -17v-314q0 -16 -16 -16q-15 0 -15 16z" />
    <glyph glyph-name="onehalf" unicode="&#xbd;" horiz-adv-x="706" 
d="M679 0h-209q-12 0 -12 13q0 40 19.5 70.5t47.5 49.5t56.5 36t48 39.5t19.5 50.5q0 26 -19 43t-59 17q-41 0 -82 -23q-20 -12 -26 -2q-7 11 12 24q43 29 98 29q53 0 80.5 -23.5t27.5 -61.5q0 -33 -19.5 -60t-47.5 -45l-57 -36q-28 -18 -47.5 -41.5t-19.5 -51.5h189
q15 0 15 -14t-15 -14zM149 369v284l-94 -94q-18 -18 -28 -7q-9 10 6 25l110 110q13 13 23 13q14 0 14 -17v-314q0 -16 -16 -16q-15 0 -15 16zM200 -5l255 715q6 17 12 24t15 4q14 -5 2 -38l-255 -716q-10 -27 -26 -23q-14 4 -3 34z" />
    <glyph glyph-name="threequarters" unicode="&#xbe;" horiz-adv-x="705" 
d="M103 538q-16 0 -16 13q0 7 10 17l113 104h-145q-14 0 -14 14t14 14h177q14 0 14 -13q0 -8 -10 -18l-118 -106q141 -2 141 -102q0 -52 -34 -80t-96 -28q-54 0 -87 18q-24 12 -17 27q5 11 29 0q41 -17 75 -17q98 0 98 79q0 40 -31.5 59t-102.5 19zM461 131h137v171z
M627 103v-88q0 -15 -15 -15q-14 0 -14 15v88h-157q-13 0 -15.5 10.5t4.5 18.5l161 201q10 14 22 14q14 0 14 -19v-197h39q13 0 13 -14t-13 -14h-39zM230 -5l255 715q6 17 12 24t15 4q14 -5 2 -38l-255 -716q-10 -27 -26 -23q-14 4 -3 34z" />
    <glyph glyph-name="questiondown" unicode="&#xbf;" horiz-adv-x="407" 
d="M207 -10q-87 0 -129 42t-42 108q0 33 7.5 60.5t26 53.5t30 38.5t37.5 38.5q30 29 44.5 46.5t28.5 49.5t14 69q0 21 16 21q17 0 17 -21q0 -42 -16 -79t-33 -57t-47 -50q-30 -29 -46.5 -48.5t-30.5 -52t-14 -69.5q0 -51 35.5 -85t103.5 -34q56 0 123 31q26 13 33 2
q9 -14 -17 -28q-68 -36 -141 -36zM269 661q0 -13 -7.5 -21t-21.5 -8t-22 8.5t-8 20.5t8 20.5t22 8.5t21.5 -8t7.5 -21z" />
    <glyph glyph-name="Agrave" unicode="&#xc0;" horiz-adv-x="599" 
d="M331 680l256 -646q11 -26 -4 -33q-19 -8 -29 19l-82 207h-327l-79 -203q-11 -30 -28 -23q-15 5 -4 33l252 644q9 22 23 22t22 -20zM307 648l-150 -389h303zM307 765l-184 110q-23 14 -14 27q8 13 31 -3l183 -108q25 -14 16 -28q-8 -12 -32 2z" />
    <glyph glyph-name="Aacute" unicode="&#xc1;" horiz-adv-x="599" 
d="M331 680l256 -646q11 -26 -4 -33q-19 -8 -29 19l-82 207h-327l-79 -203q-11 -30 -28 -23q-15 5 -4 33l252 644q9 22 23 22t22 -20zM307 648l-150 -389h303zM465 875l-184 -110q-24 -14 -32 -2q-9 14 16 28l183 108q23 16 31 3q9 -13 -14 -27z" />
    <glyph glyph-name="Acircumflex" unicode="&#xc2;" horiz-adv-x="599" 
d="M331 680l256 -646q11 -26 -4 -33q-19 -8 -29 19l-82 207h-327l-79 -203q-11 -30 -28 -23q-15 5 -4 33l252 644q9 22 23 22t22 -20zM307 648l-150 -389h303zM442 757l-134 83l-137 -84q-22 -13 -30 -1q-6 12 15 26l128 81q14 9 24.5 9t24.5 -9l127 -79q24 -16 15 -29
q-8 -13 -33 3z" />
    <glyph glyph-name="Atilde" unicode="&#xc3;" horiz-adv-x="599" 
d="M331 680l256 -646q11 -26 -4 -33q-19 -8 -29 19l-82 207h-327l-79 -203q-11 -30 -28 -23q-15 5 -4 33l252 644q9 22 23 22t22 -20zM307 648l-150 -389h303zM380 773q-32 0 -75 26.5t-65 26.5q-26 0 -59 -31q-20 -18 -28 -12q-12 10 6 30q36 42 84 42q29 0 73 -26t66 -26
q30 0 60 30q18 20 28 11q11 -8 -7 -30q-37 -41 -83 -41z" />
    <glyph glyph-name="Adieresis" unicode="&#xc4;" horiz-adv-x="599" 
d="M331 680l256 -646q11 -26 -4 -33q-19 -8 -29 19l-82 207h-327l-79 -203q-11 -30 -28 -23q-15 5 -4 33l252 644q9 22 23 22t22 -20zM307 648l-150 -389h303zM200 816q0 30 30 30q14 0 22.5 -8t8.5 -22q0 -29 -31 -29q-30 0 -30 29zM358 816q0 30 30 30q14 0 22.5 -8
t8.5 -22q0 -29 -31 -29q-30 0 -30 29z" />
    <glyph glyph-name="Aring" unicode="&#xc5;" horiz-adv-x="599" 
d="M325 691l6 -11l256 -646q11 -26 -4 -33q-19 -8 -29 19l-82 207h-327l-79 -203q-11 -30 -28 -23q-15 5 -4 33l252 644q4 10 7 13q-37 5 -59 27t-22 56q0 38 27.5 60.5t70.5 22.5t71 -22.5t28 -60.5q0 -35 -23 -57t-61 -26zM307 648l-150 -389h303zM310 832
q-32 0 -50.5 -15.5t-18.5 -42.5t18.5 -43t50.5 -16q33 0 52 15.5t19 43.5q0 27 -19.5 42.5t-51.5 15.5z" />
    <glyph glyph-name="AE" unicode="&#xc6;" horiz-adv-x="888" 
d="M857 0h-368q-21 0 -21 20v207h-265l-139 -207q-18 -29 -35 -17q-13 9 4 33l433 636q12 18 27 18h357q16 0 16 -16t-16 -16h-347v-282h290q16 0 16 -16t-16 -16h-290v-312h354q16 0 16 -16t-16 -16zM468 621l-243 -362h243v362z" />
    <glyph glyph-name="Ccedilla" unicode="&#xc7;" horiz-adv-x="632" 
d="M376 668q-135 0 -211 -92t-76 -234q0 -150 76 -235t204 -85q101 0 180 54q27 19 36 9q10 -13 -18 -35q-77 -60 -200 -60h-7l-14 -56q108 -4 108 -87q0 -42 -26.5 -66t-75.5 -24q-44 0 -74 16q-20 9 -13 24q1 2 2.5 3.5t3.5 2t3.5 0.5t4.5 -0.5t4.5 -1t5 -2t4.5 -1.5
q28 -12 60 -12q70 0 70 60q0 62 -93 62q-17 0 -14 17l16 67q-140 10 -209.5 104.5t-69.5 247.5q0 159 87.5 257.5t236.5 98.5q110 -1 181 -44q28 -16 19 -31q-7 -13 -39 4q-75 39 -162 39z" />
    <glyph glyph-name="Egrave" unicode="&#xc8;" horiz-adv-x="535" 
d="M491 0h-388q-9 0 -14.5 6t-5.5 14v650q0 20 19 20h381q16 0 16 -16t-16 -16h-365v-282h306q16 0 16 -16t-16 -16h-306v-312h373q16 0 16 -16t-16 -16zM293 765l-184 110q-23 14 -14 27q8 13 31 -3l183 -108q25 -14 16 -28q-8 -12 -32 2z" />
    <glyph glyph-name="Eacute" unicode="&#xc9;" horiz-adv-x="535" 
d="M491 0h-388q-9 0 -14.5 6t-5.5 14v650q0 20 19 20h381q16 0 16 -16t-16 -16h-365v-282h306q16 0 16 -16t-16 -16h-306v-312h373q16 0 16 -16t-16 -16zM446 875l-184 -110q-24 -14 -32 -2q-9 14 16 28l183 108q23 16 31 3q9 -13 -14 -27z" />
    <glyph glyph-name="Ecircumflex" unicode="&#xca;" horiz-adv-x="535" 
d="M421 757l-134 83l-137 -84q-22 -13 -30 -1q-6 12 15 26l128 81q14 9 24.5 9t24.5 -9l127 -79q24 -16 15 -29q-8 -13 -33 3zM491 0h-388q-9 0 -14.5 6t-5.5 14v650q0 20 19 20h381q16 0 16 -16t-16 -16h-365v-282h306q16 0 16 -16t-16 -16h-306v-312h373q16 0 16 -16
t-16 -16z" />
    <glyph glyph-name="Edieresis" unicode="&#xcb;" horiz-adv-x="535" 
d="M491 0h-388q-9 0 -14.5 6t-5.5 14v650q0 20 19 20h381q16 0 16 -16t-16 -16h-365v-282h306q16 0 16 -16t-16 -16h-306v-312h373q16 0 16 -16t-16 -16zM178 816q0 30 30 30q14 0 22.5 -8t8.5 -22q0 -29 -31 -29q-30 0 -30 29zM336 816q0 30 30 30q14 0 22.5 -8t8.5 -22
q0 -29 -31 -29q-30 0 -30 29z" />
    <glyph glyph-name="Igrave" unicode="&#xcc;" horiz-adv-x="201" 
d="M92 765l-184 110q-23 14 -14 27q8 13 31 -3l183 -108q25 -14 16 -28q-8 -12 -32 2zM92 19v652q0 19 17 19q18 0 18 -19v-652q0 -19 -18 -19q-17 0 -17 19z" />
    <glyph glyph-name="Iacute" unicode="&#xcd;" horiz-adv-x="201" 
d="M297 875l-184 -110q-24 -14 -32 -2q-9 14 16 28l183 108q23 16 31 3q9 -13 -14 -27zM92 19v652q0 19 17 19q18 0 18 -19v-652q0 -19 -18 -19q-17 0 -17 19z" />
    <glyph glyph-name="Icircumflex" unicode="&#xce;" horiz-adv-x="201" 
d="M241 757l-134 83l-137 -84q-22 -13 -30 -1q-6 12 15 26l128 81q14 9 24.5 9t24.5 -9l127 -79q24 -16 15 -29q-8 -13 -33 3zM89 19v652q0 19 17 19q18 0 18 -19v-652q0 -19 -18 -19q-17 0 -17 19z" />
    <glyph glyph-name="Idieresis" unicode="&#xcf;" horiz-adv-x="201" 
d="M6 815q0 29 28 29q13 0 20.5 -8.5t7.5 -20.5q0 -28 -28 -28t-28 28zM138 815q0 12 7.5 20.5t20.5 8.5q14 0 21.5 -8t7.5 -21q0 -28 -29 -28q-28 0 -28 28zM83 7v652q0 19 17 19q18 0 18 -19v-652q0 -19 -18 -19q-17 0 -17 19z" />
    <glyph glyph-name="Eth" unicode="&#xd0;" horiz-adv-x="713" 
d="M114 28v312h-75q-16 0 -16 16t16 16h75v286q0 20 17 23q62 14 179 14q350 0 350 -347q0 -168 -88 -260.5t-260 -92.5q-116 0 -181 12q-17 3 -17 21zM308 663q-88 0 -159 -11v-280h180q16 0 16 -16t-16 -16h-180v-303q60 -10 160 -10q156 0 235.5 83t79.5 238
q0 315 -316 315z" />
    <glyph glyph-name="Ntilde" unicode="&#xd1;" horiz-adv-x="693" 
d="M577 68v603q0 19 17 19q16 0 16 -19v-650q0 -21 -17 -21q-10 0 -20 12l-457 610v-603q0 -19 -17 -19q-16 0 -16 19v648q0 23 17 23q12 0 24 -16zM419 773q-32 0 -75 26.5t-65 26.5q-26 0 -59 -31q-20 -18 -28 -12q-12 10 6 30q36 42 84 42q29 0 73 -26t66 -26q30 0 60 30
q18 20 28 11q11 -8 -7 -30q-37 -41 -83 -41z" />
    <glyph glyph-name="Ograve" unicode="&#xd2;" horiz-adv-x="753" 
d="M53 345q0 155 85.5 255t238.5 100q152 0 237.5 -100t85.5 -255q0 -156 -85 -255.5t-238 -99.5t-238.5 99.5t-85.5 255.5zM89 345q0 -143 77 -233t211 -90q133 0 210 90t77 233t-77 233t-210 90q-134 0 -211 -90t-77 -233zM389 765l-184 110q-23 14 -14 27q8 13 31 -3
l183 -108q25 -14 16 -28q-8 -12 -32 2z" />
    <glyph glyph-name="Oacute" unicode="&#xd3;" horiz-adv-x="753" 
d="M53 345q0 155 85.5 255t238.5 100q152 0 237.5 -100t85.5 -255q0 -156 -85 -255.5t-238 -99.5t-238.5 99.5t-85.5 255.5zM89 345q0 -143 77 -233t211 -90q133 0 210 90t77 233t-77 233t-210 90q-134 0 -211 -90t-77 -233zM537 875l-184 -110q-24 -14 -32 -2q-9 14 16 28
l183 108q23 16 31 3q9 -13 -14 -27z" />
    <glyph glyph-name="Ocircumflex" unicode="&#xd4;" horiz-adv-x="753" 
d="M510 757l-134 83l-137 -84q-22 -13 -30 -1q-6 12 15 26l128 81q14 9 24.5 9t24.5 -9l127 -79q24 -16 15 -29q-8 -13 -33 3zM53 345q0 155 85.5 255t238.5 100q152 0 237.5 -100t85.5 -255q0 -156 -85 -255.5t-238 -99.5t-238.5 99.5t-85.5 255.5zM89 345q0 -143 77 -233
t211 -90q133 0 210 90t77 233t-77 233t-210 90q-134 0 -211 -90t-77 -233z" />
    <glyph glyph-name="Otilde" unicode="&#xd5;" horiz-adv-x="753" 
d="M53 345q0 155 85.5 255t238.5 100q152 0 237.5 -100t85.5 -255q0 -156 -85 -255.5t-238 -99.5t-238.5 99.5t-85.5 255.5zM89 345q0 -143 77 -233t211 -90q133 0 210 90t77 233t-77 233t-210 90q-134 0 -211 -90t-77 -233zM446 773q-32 0 -75 26.5t-65 26.5q-26 0 -59 -31
q-20 -18 -28 -12q-12 10 6 30q36 42 84 42q29 0 73 -26t66 -26q30 0 60 30q18 20 28 11q11 -8 -7 -30q-37 -41 -83 -41z" />
    <glyph glyph-name="Odieresis" unicode="&#xd6;" horiz-adv-x="753" 
d="M53 345q0 155 85.5 255t238.5 100q152 0 237.5 -100t85.5 -255q0 -156 -85 -255.5t-238 -99.5t-238.5 99.5t-85.5 255.5zM89 345q0 -143 77 -233t211 -90q133 0 210 90t77 233t-77 233t-210 90q-134 0 -211 -90t-77 -233zM267 816q0 30 30 30q14 0 22.5 -8t8.5 -22
q0 -29 -31 -29q-30 0 -30 29zM425 816q0 30 30 30q14 0 22.5 -8t8.5 -22q0 -29 -31 -29q-30 0 -30 29z" />
    <glyph glyph-name="multiply" unicode="&#xd7;" horiz-adv-x="486" 
d="M116 216l115 113l-116 115q-16 16 -5 28q11 11 27 -5l116 -116l116 114q16 17 27 6q10 -10 -7 -27l-115 -114l115 -113q18 -18 7 -29q-11 -12 -30 7l-114 113l-115 -113q-19 -19 -29 -6q-9 10 8 27z" />
    <glyph glyph-name="Oslash" unicode="&#xd8;" horiz-adv-x="743" 
d="M48 345q0 155 85.5 255t238.5 100q56 0 107 -16l21 59q6 16 11.5 22t13.5 3q14 -5 3 -35l-21 -59q91 -38 139.5 -125.5t48.5 -203.5q0 -156 -85 -255.5t-238 -99.5q-58 0 -106 15l-20 -56q-6 -15 -11.5 -21.5t-13.5 -4.5q-15 5 -3 37l20 55q-92 38 -141 126t-49 204z
M84 345q0 -106 43 -184.5t122 -114.5l219 607q-44 15 -96 15q-134 0 -211 -90t-77 -233zM659 345q0 105 -43 183.5t-121 114.5l-218 -607q45 -14 95 -14q133 0 210 90t77 233z" />
    <glyph glyph-name="Ugrave" unicode="&#xd9;" horiz-adv-x="664" 
d="M332 22q116 0 165 71t49 197v381q0 19 18 19q17 0 17 -19v-382q0 -299 -250 -299q-248 0 -248 299v382q0 19 17 19q18 0 18 -19v-381q0 -268 214 -268zM364 765l-184 110q-23 14 -14 27q8 13 31 -3l183 -108q25 -14 16 -28q-8 -12 -32 2z" />
    <glyph glyph-name="Uacute" unicode="&#xda;" horiz-adv-x="664" 
d="M332 22q116 0 165 71t49 197v381q0 19 18 19q17 0 17 -19v-382q0 -299 -250 -299q-248 0 -248 299v382q0 19 17 19q18 0 18 -19v-381q0 -268 214 -268zM492 875l-184 -110q-24 -14 -32 -2q-9 14 16 28l183 108q23 16 31 3q9 -13 -14 -27z" />
    <glyph glyph-name="Ucircumflex" unicode="&#xdb;" horiz-adv-x="664" 
d="M478 757l-134 83l-137 -84q-22 -13 -30 -1q-6 12 15 26l128 81q14 9 24.5 9t24.5 -9l127 -79q24 -16 15 -29q-8 -13 -33 3zM332 22q116 0 165 71t49 197v381q0 19 18 19q17 0 17 -19v-382q0 -299 -250 -299q-248 0 -248 299v382q0 19 17 19q18 0 18 -19v-381
q0 -268 214 -268z" />
    <glyph glyph-name="Udieresis" unicode="&#xdc;" horiz-adv-x="664" 
d="M332 22q116 0 165 71t49 197v381q0 19 18 19q17 0 17 -19v-382q0 -299 -250 -299q-248 0 -248 299v382q0 19 17 19q18 0 18 -19v-381q0 -268 214 -268zM235 816q0 30 30 30q14 0 22.5 -8t8.5 -22q0 -29 -31 -29q-30 0 -30 29zM393 816q0 30 30 30q14 0 22.5 -8t8.5 -22
q0 -29 -31 -29q-30 0 -30 29z" />
    <glyph glyph-name="Yacute" unicode="&#xdd;" horiz-adv-x="551" 
d="M275 19v286l-235 349q-15 22 -1 32q15 10 31 -14l224 -331l218 334q14 21 28 12t-1 -30l-229 -349v-289q0 -19 -17 -19q-18 0 -18 19zM447 875l-184 -110q-24 -14 -32 -2q-9 14 16 28l183 108q23 16 31 3q9 -13 -14 -27z" />
    <glyph glyph-name="Thorn" unicode="&#xde;" 
d="M500 412q0 -110 -71 -162.5t-187 -52.5q-80 0 -124 9v-187q0 -19 -18 -19q-17 0 -17 19v652q0 19 17 19q18 0 18 -19v-64q81 11 137 11q116 0 180.5 -50t64.5 -156zM255 586q-63 0 -137 -11v-337q48 -9 121 -9q225 0 225 183q0 86 -53.5 130t-155.5 44z" />
    <glyph glyph-name="germandbls" unicode="&#xdf;" horiz-adv-x="490" 
d="M239 669q-76 0 -107 -39t-31 -139v-672q0 -19 -17 -19q-16 0 -16 19v668q0 114 37 163.5t135 49.5q86 0 124 -34t38 -87q0 -36 -19.5 -67.5t-42.5 -50t-42.5 -42.5t-19.5 -47q0 -19 18.5 -38t45 -37t52.5 -40t44.5 -55t18.5 -72q0 -61 -39 -100.5t-115 -39.5
q-68 0 -117 21q-41 18 -29 35q2 3 5 4.5t7.5 0.5t8 -2t10.5 -4l12 -5q49 -19 104 -19q62 0 90.5 30t28.5 78q0 42 -28 77t-61 55t-61 49t-28 60q0 24 12.5 45.5t30.5 38.5l37 35q18 17 30.5 40t12.5 49q0 91 -129 91z" />
    <glyph glyph-name="agrave" unicode="&#xe0;" horiz-adv-x="491" 
d="M98 437q-24 -10 -29 3q-6 14 14 24q72 36 160 36q180 0 180 -174v-307q0 -19 -17 -19q-16 0 -16 19v118q-22 -64 -77 -105.5t-137 -41.5q-71 0 -113.5 36t-42.5 104q0 45 19.5 78.5t53.5 51t71 25.5t79 8q77 0 147 -14v43q0 147 -150 147q-63 0 -142 -32zM181 21
q95 0 152 65.5t57 141.5v22q-81 13 -142 13q-88 0 -141 -33t-53 -99q0 -51 33 -80.5t94 -29.5zM288 586l-154 102q-21 13 -13 27q8 12 29 -2l155 -103q21 -14 12 -27q-8 -12 -29 3z" />
    <glyph glyph-name="aacute" unicode="&#xe1;" horiz-adv-x="491" 
d="M98 437q-24 -10 -29 3q-6 14 14 24q72 36 160 36q180 0 180 -174v-307q0 -19 -17 -19q-16 0 -16 19v118q-22 -64 -77 -105.5t-137 -41.5q-71 0 -113.5 36t-42.5 104q0 45 19.5 78.5t53.5 51t71 25.5t79 8q77 0 147 -14v43q0 147 -150 147q-63 0 -142 -32zM181 21
q95 0 152 65.5t57 141.5v22q-81 13 -142 13q-88 0 -141 -33t-53 -99q0 -51 33 -80.5t94 -29.5zM365 690l-155 -104q-21 -16 -30 -3q-8 13 12 26l155 104q22 15 30 3t-12 -26z" />
    <glyph glyph-name="acircumflex" unicode="&#xe2;" horiz-adv-x="491" 
d="M98 437q-24 -10 -29 3q-6 14 14 24q72 36 160 36q180 0 180 -174v-307q0 -19 -17 -19q-16 0 -16 19v118q-22 -64 -77 -105.5t-137 -41.5q-71 0 -113.5 36t-42.5 104q0 45 19.5 78.5t53.5 51t71 25.5t79 8q77 0 147 -14v43q0 147 -150 147q-63 0 -142 -32zM181 21
q95 0 152 65.5t57 141.5v22q-81 13 -142 13q-88 0 -141 -33t-53 -99q0 -51 33 -80.5t94 -29.5zM350 585l-112 95l-110 -94q-21 -17 -30 -5t11 28l108 90q13 10 22 10t23 -10l108 -89q22 -17 11 -30q-10 -12 -31 5z" />
    <glyph glyph-name="atilde" unicode="&#xe3;" horiz-adv-x="491" 
d="M98 437q-24 -10 -29 3q-6 14 14 24q72 36 160 36q180 0 180 -174v-307q0 -19 -17 -19q-16 0 -16 19v118q-22 -64 -77 -105.5t-137 -41.5q-71 0 -113.5 36t-42.5 104q0 45 19.5 78.5t53.5 51t71 25.5t79 8q77 0 147 -14v43q0 147 -150 147q-63 0 -142 -32zM181 21
q95 0 152 65.5t57 141.5v22q-81 13 -142 13q-88 0 -141 -33t-53 -99q0 -51 33 -80.5t94 -29.5zM301 589q-30 0 -68.5 27t-57.5 27q-24 0 -55 -31q-16 -16 -26 -10q-12 10 3 27q38 44 80 44q29 0 68.5 -27t58.5 -27q26 0 55 31q15 17 26 9q10 -8 -3 -27q-34 -43 -81 -43z" />
    <glyph glyph-name="adieresis" unicode="&#xe4;" horiz-adv-x="491" 
d="M98 437q-24 -10 -29 3q-6 14 14 24q72 36 160 36q180 0 180 -174v-307q0 -19 -17 -19q-16 0 -16 19v118q-22 -64 -77 -105.5t-137 -41.5q-71 0 -113.5 36t-42.5 104q0 45 19.5 78.5t53.5 51t71 25.5t79 8q77 0 147 -14v43q0 147 -150 147q-63 0 -142 -32zM181 21
q95 0 152 65.5t57 141.5v22q-81 13 -142 13q-88 0 -141 -33t-53 -99q0 -51 33 -80.5t94 -29.5zM152 635q0 12 7.5 20t20.5 8q12 0 20 -8t8 -20q0 -11 -8 -19t-20 -8q-13 0 -20.5 7.5t-7.5 19.5zM295 635q0 12 7.5 20t19.5 8q13 0 20.5 -8t7.5 -20t-7.5 -19.5t-20.5 -7.5
q-12 0 -19.5 7.5t-7.5 19.5z" />
    <glyph glyph-name="aring" unicode="&#xe5;" horiz-adv-x="491" 
d="M98 437q-24 -10 -29 3q-6 14 14 24q72 36 160 36q180 0 180 -174v-307q0 -19 -17 -19q-16 0 -16 19v118q-22 -64 -77 -105.5t-137 -41.5q-71 0 -113.5 36t-42.5 104q0 45 19.5 78.5t53.5 51t71 25.5t79 8q77 0 147 -14v43q0 147 -150 147q-63 0 -142 -32zM181 21
q95 0 152 65.5t57 141.5v22q-81 13 -142 13q-88 0 -141 -33t-53 -99q0 -51 33 -80.5t94 -29.5zM240 743q42 0 66.5 -25t24.5 -65t-24.5 -64.5t-66.5 -24.5q-41 0 -65.5 24.5t-24.5 64.5t24.5 65t65.5 25zM240 718q-28 0 -45.5 -18t-17.5 -46q0 -29 17.5 -47t45.5 -18
t46 17.5t18 46.5q0 28 -18 46.5t-46 18.5z" />
    <glyph glyph-name="ae" unicode="&#xe6;" horiz-adv-x="851" 
d="M621 21q78 0 140 40q20 13 27 1q9 -14 -8 -26q-64 -46 -159 -46q-91 0 -150 46t-66 125q-23 -80 -83 -125.5t-145 -45.5q-71 0 -114 35t-43 99q0 45 17.5 77t50 48t69.5 23t85 7h148v43q0 147 -151 147q-59 0 -140 -33q-24 -10 -29 3q-4 12 16 23q28 15 73 26.5t84 11.5
q163 0 172 -139q46 139 204 139q91 0 140 -52.5t49 -124.5q0 -31 -6 -53q-4 -14 -13 -17t-34 -3h-8h-326q0 -113 51 -171t149 -58zM179 21q95 0 153 62t58 140v27h-151q-90 0 -137.5 -28.5t-47.5 -96.5q0 -48 33.5 -76t91.5 -28zM617 469q-79 0 -132.5 -50.5t-61.5 -139.5
h350q3 18 3 43q0 65 -42 106t-117 41z" />
    <glyph glyph-name="ccedilla" unicode="&#xe7;" horiz-adv-x="469" 
d="M431 40q-66 -50 -160 -50h-7l-14 -56q108 -4 108 -87q0 -42 -26.5 -66t-75.5 -24q-44 0 -74 16q-20 9 -13 24q1 2 2.5 3.5t3.5 2t3.5 0.5t4.5 -0.5t4.5 -1t5 -2t4.5 -1.5q28 -12 60 -12q70 0 70 60q0 61 -93 62q-17 2 -14 17l16 67q-94 10 -143.5 73.5t-49.5 174.5
q0 118 66.5 189t172.5 71q75 0 130 -29q24 -12 16 -27q-7 -12 -31 -1q-58 26 -115 26q-89 0 -147 -63t-58 -166q0 -105 52 -162t142 -57q73 0 141 43q23 14 31 4q9 -13 -12 -28z" />
    <glyph glyph-name="egrave" unicode="&#xe8;" horiz-adv-x="505" 
d="M274 21q75 0 142 42q19 11 26 0q9 -12 -10 -26q-64 -47 -158 -47q-115 0 -173 66t-58 187q0 114 61 185.5t166 71.5q94 0 143 -54.5t49 -131.5q0 -37 -5 -57q-6 -29 -31 -29h-349q0 -97 53 -152t144 -55zM267 469q-83 0 -136.5 -58t-53.5 -153h350q4 19 4 54
q-1 73 -44 115t-120 42zM316 586l-154 102q-21 13 -13 27q8 12 29 -2l155 -103q21 -14 12 -27q-8 -12 -29 3z" />
    <glyph glyph-name="eacute" unicode="&#xe9;" horiz-adv-x="505" 
d="M274 21q75 0 142 42q19 11 26 0q9 -12 -10 -26q-64 -47 -158 -47q-115 0 -173 66t-58 187q0 114 61 185.5t166 71.5q94 0 143 -54.5t49 -131.5q0 -37 -5 -57q-6 -29 -31 -29h-349q0 -97 53 -152t144 -55zM267 469q-83 0 -136.5 -58t-53.5 -153h350q4 19 4 54
q-1 73 -44 115t-120 42zM399 690l-155 -104q-21 -16 -30 -3q-8 13 12 26l155 104q22 15 30 3t-12 -26z" />
    <glyph glyph-name="ecircumflex" unicode="&#xea;" horiz-adv-x="505" 
d="M274 21q75 0 142 42q19 11 26 0q9 -12 -10 -26q-64 -47 -158 -47q-115 0 -173 66t-58 187q0 114 61 185.5t166 71.5q94 0 143 -54.5t49 -131.5q0 -37 -5 -57q-6 -29 -31 -29h-349q0 -97 53 -152t144 -55zM267 469q-83 0 -136.5 -58t-53.5 -153h350q4 19 4 54
q-1 73 -44 115t-120 42zM383 585l-112 95l-110 -94q-21 -17 -30 -5t11 28l108 90q13 10 22 10t23 -10l108 -89q22 -17 11 -30q-10 -12 -31 5z" />
    <glyph glyph-name="edieresis" unicode="&#xeb;" horiz-adv-x="505" 
d="M274 21q75 0 142 42q19 11 26 0q9 -12 -10 -26q-64 -47 -158 -47q-115 0 -173 66t-58 187q0 114 61 185.5t166 71.5q94 0 143 -54.5t49 -131.5q0 -37 -5 -57q-6 -29 -31 -29h-349q0 -97 53 -152t144 -55zM267 469q-83 0 -136.5 -58t-53.5 -153h350q4 19 4 54
q-1 73 -44 115t-120 42zM171 635q0 12 7.5 20t20.5 8q12 0 20 -8t8 -20q0 -11 -7.5 -19t-20.5 -8t-20.5 7.5t-7.5 19.5zM314 635q0 12 7.5 20t19.5 8q13 0 20.5 -8t7.5 -20t-7.5 -19.5t-20.5 -7.5q-12 0 -19.5 7.5t-7.5 19.5z" />
    <glyph glyph-name="igrave" unicode="&#xec;" horiz-adv-x="169" 
d="M91 586l-154 102q-21 13 -13 27q8 12 29 -2l155 -103q21 -14 12 -27q-8 -12 -29 3zM76 19v452q0 19 16 19q17 0 17 -19v-452q0 -19 -17 -19q-16 0 -16 19z" />
    <glyph glyph-name="iacute" unicode="&#xed;" horiz-adv-x="169" 
d="M257 690l-155 -104q-21 -16 -30 -3q-8 13 12 26l155 104q22 15 30 3t-12 -26zM76 19v452q0 19 16 19q17 0 17 -19v-452q0 -19 -17 -19q-16 0 -16 19z" />
    <glyph glyph-name="icircumflex" unicode="&#xee;" horiz-adv-x="169" 
d="M203 585l-112 95l-110 -94q-21 -17 -30 -5t11 28l108 90q13 10 22 10t23 -10l108 -89q22 -17 11 -30q-10 -12 -31 5zM77 19v452q0 19 16 19q17 0 17 -19v-452q0 -19 -17 -19q-16 0 -16 19z" />
    <glyph glyph-name="idieresis" unicode="&#xef;" horiz-adv-x="169" 
d="M-2 636q0 12 7.5 20t20.5 8q12 0 20 -8t8 -20t-8 -20t-20 -8q-13 0 -20.5 8t-7.5 20zM116 636q0 12 7.5 20t19.5 8q13 0 20.5 -8t7.5 -20t-7.5 -20t-20.5 -8q-12 0 -19.5 8t-7.5 20zM68 19v452q0 19 16 19q17 0 17 -19v-452q0 -19 -17 -19q-16 0 -16 19z" />
    <glyph glyph-name="eth" unicode="&#xf0;" horiz-adv-x="546" 
d="M150 670q-21 2 -21 16t18 14q107 -2 193 -49l55 40q20 14 28 3t-11 -25l-46 -33q137 -93 137 -318q0 -148 -56.5 -238t-172.5 -90q-109 0 -170 70.5t-61 184.5q0 115 60 184.5t168 69.5q140 0 200 -122q-9 83 -44 144.5t-89 94.5l-92 -66q-19 -14 -27 -2t11 25l81 58
q-67 32 -161 39zM471 325q-25 65 -76 104t-121 39q-96 0 -146.5 -59t-50.5 -164q0 -101 53 -162.5t144 -61.5q197 0 197 304z" />
    <glyph glyph-name="ntilde" unicode="&#xf1;" 
d="M437 19v273q0 84 -32 130.5t-110 46.5q-99 0 -146.5 -81t-47.5 -222v-147q0 -19 -17 -19q-16 0 -16 19v452q0 19 16 19q17 0 17 -19v-138q17 82 70 124.5t126 42.5q91 0 132 -52.5t41 -154.5v-274q0 -19 -16 -19q-17 0 -17 19zM338 589q-30 0 -68.5 27t-57.5 27
q-24 0 -55 -31q-16 -16 -26 -10q-12 10 3 27q38 44 80 44q29 0 68.5 -27t58.5 -27q26 0 55 31q15 17 26 9q10 -8 -3 -27q-34 -43 -81 -43z" />
    <glyph glyph-name="ograve" unicode="&#xf2;" horiz-adv-x="558" 
d="M43 245q0 113 62.5 184t173.5 71t173.5 -71t62.5 -184t-62.5 -184t-173.5 -71t-173.5 71t-62.5 184zM77 245q0 -104 54 -164t148 -60t148 60t54 164q0 103 -54 163.5t-148 60.5t-148 -60.5t-54 -163.5zM291 586l-154 102q-21 13 -13 27q8 12 29 -2l155 -103
q21 -14 12 -27q-8 -12 -29 3z" />
    <glyph glyph-name="oacute" unicode="&#xf3;" horiz-adv-x="558" 
d="M43 245q0 113 62.5 184t173.5 71t173.5 -71t62.5 -184t-62.5 -184t-173.5 -71t-173.5 71t-62.5 184zM77 245q0 -104 54 -164t148 -60t148 60t54 164q0 103 -54 163.5t-148 60.5t-148 -60.5t-54 -163.5zM409 690l-155 -104q-21 -16 -30 -3q-8 13 12 26l155 104q22 15 30 3
t-12 -26z" />
    <glyph glyph-name="ocircumflex" unicode="&#xf4;" horiz-adv-x="558" 
d="M388 585l-112 95l-110 -94q-21 -17 -30 -5t11 28l108 90q13 10 22 10t23 -10l108 -89q22 -17 11 -30q-10 -12 -31 5zM43 245q0 113 62.5 184t173.5 71t173.5 -71t62.5 -184t-62.5 -184t-173.5 -71t-173.5 71t-62.5 184zM77 245q0 -104 54 -164t148 -60t148 60t54 164
q0 103 -54 163.5t-148 60.5t-148 -60.5t-54 -163.5z" />
    <glyph glyph-name="otilde" unicode="&#xf5;" horiz-adv-x="558" 
d="M43 245q0 113 62.5 184t173.5 71t173.5 -71t62.5 -184t-62.5 -184t-173.5 -71t-173.5 71t-62.5 184zM77 245q0 -104 54 -164t148 -60t148 60t54 164q0 103 -54 163.5t-148 60.5t-148 -60.5t-54 -163.5zM340 589q-30 0 -68.5 27t-57.5 27q-24 0 -55 -31q-16 -16 -26 -10
q-12 10 3 27q38 44 80 44q29 0 68.5 -27t58.5 -27q26 0 55 31q15 17 26 9q10 -8 -3 -27q-34 -43 -81 -43z" />
    <glyph glyph-name="odieresis" unicode="&#xf6;" horiz-adv-x="558" 
d="M43 245q0 113 62.5 184t173.5 71t173.5 -71t62.5 -184t-62.5 -184t-173.5 -71t-173.5 71t-62.5 184zM77 245q0 -104 54 -164t148 -60t148 60t54 164q0 103 -54 163.5t-148 60.5t-148 -60.5t-54 -163.5zM179 635q0 12 7.5 20t20.5 8q12 0 20 -8t8 -20q0 -11 -7.5 -19
t-20.5 -8t-20.5 7.5t-7.5 19.5zM322 635q0 12 7.5 20t19.5 8q13 0 20.5 -8t7.5 -20t-7.5 -19.5t-20.5 -7.5q-12 0 -19.5 7.5t-7.5 19.5z" />
    <glyph glyph-name="divide" unicode="&#xf7;" horiz-adv-x="486" 
d="M212 471q0 13 7.5 21.5t21.5 8.5t21.5 -8.5t7.5 -21.5t-7.5 -21t-21.5 -8t-21.5 8t-7.5 21zM212 187q0 13 7.5 21t21.5 8t21.5 -8t7.5 -21t-7.5 -21t-21.5 -8t-21.5 8t-7.5 21zM427 314h-368q-16 0 -16 15q0 16 16 16h368q16 0 16 -16q0 -15 -16 -15z" />
    <glyph glyph-name="oslash" unicode="&#xf8;" horiz-adv-x="558" 
d="M43 245q0 113 62.5 184t173.5 71q35 0 73 -10l22 60q5 16 11 22t14 3q14 -5 3 -35l-22 -60q65 -27 100 -89.5t35 -145.5q0 -113 -62.5 -184t-173.5 -71q-36 0 -73 10l-20 -60q-11 -30 -26 -25q-14 4 -3 36l21 58q-65 27 -100 89.5t-35 146.5zM77 245q0 -75 29 -128.5
t83 -77.5l152 421q-28 9 -62 9q-94 0 -148 -60.5t-54 -163.5zM481 245q0 74 -29.5 127.5t-82.5 77.5l-152 -421q30 -8 62 -8q94 0 148 60t54 164z" />
    <glyph glyph-name="ugrave" unicode="&#xf9;" 
d="M101 471v-273q0 -84 32 -130.5t110 -46.5q99 0 146.5 81t47.5 222v147q0 19 17 19q16 0 16 -19v-452q0 -19 -16 -19q-17 0 -17 19v138q-17 -82 -70 -124.5t-126 -42.5q-91 0 -132 52.5t-41 154.5v274q0 19 16 19q17 0 17 -19zM296 586l-154 102q-21 13 -13 27q8 12 29 -2
l155 -103q21 -14 12 -27q-8 -12 -29 3z" />
    <glyph glyph-name="uacute" unicode="&#xfa;" 
d="M101 471v-273q0 -84 32 -130.5t110 -46.5q99 0 146.5 81t47.5 222v147q0 19 17 19q16 0 16 -19v-452q0 -19 -16 -19q-17 0 -17 19v138q-17 -82 -70 -124.5t-126 -42.5q-91 0 -132 52.5t-41 154.5v274q0 19 16 19q17 0 17 -19zM418 690l-155 -104q-21 -16 -30 -3
q-8 13 12 26l155 104q22 15 30 3t-12 -26z" />
    <glyph glyph-name="ucircumflex" unicode="&#xfb;" 
d="M378 585l-112 95l-110 -94q-21 -17 -30 -5t11 28l108 90q13 10 22 10t23 -10l108 -89q22 -17 11 -30q-10 -12 -31 5zM101 471v-273q0 -84 32 -130.5t110 -46.5q99 0 146.5 81t47.5 222v147q0 19 17 19q16 0 16 -19v-452q0 -19 -16 -19q-17 0 -17 19v138
q-17 -82 -70 -124.5t-126 -42.5q-91 0 -132 52.5t-41 154.5v274q0 19 16 19q17 0 17 -19z" />
    <glyph glyph-name="udieresis" unicode="&#xfc;" 
d="M101 471v-273q0 -84 32 -130.5t110 -46.5q99 0 146.5 81t47.5 222v147q0 19 17 19q16 0 16 -19v-452q0 -19 -16 -19q-17 0 -17 19v138q-17 -82 -70 -124.5t-126 -42.5q-91 0 -132 52.5t-41 154.5v274q0 19 16 19q17 0 17 -19zM168 635q0 12 7.5 20t20.5 8q12 0 20 -8
t8 -20q0 -11 -8 -19t-20 -8q-13 0 -20.5 7.5t-7.5 19.5zM311 635q0 12 7.5 20t19.5 8q13 0 20.5 -8t7.5 -20t-7.5 -19.5t-20.5 -7.5q-12 0 -19.5 7.5t-7.5 19.5z" />
    <glyph glyph-name="yacute" unicode="&#xfd;" horiz-adv-x="453" 
d="M2 -192q-20 11 -14 26q6 13 30 1q31 -14 62 -14q25 0 47 15t37.5 41t27 51.5t22.5 54.5q3 9 5 14l-192 455q-12 29 5 36t28 -20l177 -430l172 431q11 25 27 19q15 -6 4 -32l-200 -488q-41 -100 -75 -139t-87 -39q-43 0 -76 18zM374 690l-155 -104q-21 -16 -30 -3
q-8 13 12 26l155 104q22 15 30 3t-12 -26z" />
    <glyph glyph-name="thorn" unicode="&#xfe;" horiz-adv-x="535" 
d="M301 500q94 0 142.5 -65.5t48.5 -174.5q0 -120 -58 -195t-175 -75q-92 0 -158 38v-209q0 -19 -17 -19q-16 0 -16 19v852q0 19 16 19q17 0 17 -19v-338q16 76 67.5 121.5t132.5 45.5zM295 469q-45 0 -79 -17.5t-55 -45t-35 -67t-19 -79t-6 -84.5v-114q74 -41 159 -41
q70 0 115.5 34t64 85.5t18.5 119.5q0 96 -40.5 152.5t-122.5 56.5z" />
    <glyph glyph-name="ydieresis" unicode="&#xff;" horiz-adv-x="453" 
d="M2 -192q-20 11 -14 26q6 13 30 1q31 -14 62 -14q25 0 47 15t37.5 41t27 51.5t22.5 54.5q3 9 5 14l-192 455q-12 29 5 36t28 -20l177 -430l172 431q11 25 27 19q15 -6 4 -32l-200 -488q-41 -100 -75 -139t-87 -39q-43 0 -76 18zM134 635q0 12 7.5 20t20.5 8q12 0 20 -8
t8 -20q0 -11 -8 -19t-20 -8q-13 0 -20.5 7.5t-7.5 19.5zM277 635q0 12 7.5 20t19.5 8q13 0 20.5 -8t7.5 -20t-7.5 -19.5t-20.5 -7.5q-12 0 -19.5 7.5t-7.5 19.5z" />
    <glyph glyph-name="Amacron" unicode="&#x100;" horiz-adv-x="599" 
d="M331 680l256 -646q11 -26 -4 -33q-19 -8 -29 19l-82 207h-327l-79 -203q-11 -30 -28 -23q-15 5 -4 33l252 644q9 22 23 22t22 -20zM307 648l-150 -389h303zM451 794h-285q-16 0 -16 14q0 15 16 15h285q15 0 15 -15q0 -14 -15 -14z" />
    <glyph glyph-name="amacron" unicode="&#x101;" horiz-adv-x="491" 
d="M98 437q-24 -10 -29 3q-6 14 14 24q72 36 160 36q180 0 180 -174v-307q0 -19 -17 -19q-16 0 -16 19v118q-22 -64 -77 -105.5t-137 -41.5q-71 0 -113.5 36t-42.5 104q0 45 19.5 78.5t53.5 51t71 25.5t79 8q77 0 147 -14v43q0 147 -150 147q-63 0 -142 -32zM181 21
q95 0 152 65.5t57 141.5v22q-81 13 -142 13q-88 0 -141 -33t-53 -99q0 -51 33 -80.5t94 -29.5zM364 618h-258q-15 0 -15 15t15 15h258q16 0 16 -15t-16 -15z" />
    <glyph glyph-name="Abreve" unicode="&#x102;" horiz-adv-x="599" 
d="M331 680l256 -646q11 -26 -4 -33q-19 -8 -29 19l-82 207h-327l-79 -203q-11 -30 -28 -23q-15 5 -4 33l252 644q9 22 23 22t22 -20zM307 648l-150 -389h303zM308 765q-89 0 -135 64q-16 23 -4 33q12 9 28 -12q43 -55 111 -55q67 0 111 54q18 23 30 13q12 -9 -5 -33
q-48 -64 -136 -64z" />
    <glyph glyph-name="abreve" unicode="&#x103;" horiz-adv-x="491" 
d="M98 437q-24 -10 -29 3q-6 14 14 24q72 36 160 36q180 0 180 -174v-307q0 -19 -17 -19q-16 0 -16 19v118q-22 -64 -77 -105.5t-137 -41.5q-71 0 -113.5 36t-42.5 104q0 45 19.5 78.5t53.5 51t71 25.5t79 8q77 0 147 -14v43q0 147 -150 147q-63 0 -142 -32zM181 21
q95 0 152 65.5t57 141.5v22q-81 13 -142 13q-88 0 -141 -33t-53 -99q0 -51 33 -80.5t94 -29.5zM237 588q-46 0 -79 21t-48 51q-12 23 2 30q13 6 26 -15q35 -58 99 -58t100 57q14 22 26 16q13 -6 1 -29q-41 -73 -127 -73z" />
    <glyph glyph-name="Aogonek" unicode="&#x104;" horiz-adv-x="599" 
d="M573 -11q-28 -24 -54.5 -65t-26.5 -78q0 -60 55 -60q19 0 39 11q18 11 23 1q8 -13 -12 -26q-21 -15 -50 -15q-39 0 -62.5 21t-23.5 64q0 45 28 91.5t69 78.5l-86 215h-327l-79 -203q-11 -30 -28 -23q-15 5 -4 33l252 644q9 22 23 22t22 -20l256 -646q6 -16 3.5 -24.5
t-17.5 -20.5zM307 648l-150 -389h303z" />
    <glyph glyph-name="aogonek" unicode="&#x105;" horiz-adv-x="491" 
d="M401 -13q-29 -26 -54 -65t-25 -76q0 -60 55 -60q19 0 39 11q18 11 23 1q8 -13 -12 -26q-21 -15 -50 -15q-39 0 -62.5 21t-23.5 64q0 46 28.5 93t70.5 81v121q-22 -64 -77 -105.5t-137 -41.5q-71 0 -113.5 36t-42.5 104q0 45 19.5 78.5t53.5 51t71 25.5t79 8q77 0 147 -14
v43q0 147 -150 147q-63 0 -142 -32q-24 -10 -29 3q-6 14 14 24q72 36 160 36q180 0 180 -174v-307v-4q0 -2 -1 -4l-2 -3q0 -1 -1.5 -3t-2 -3t-2.5 -4l-4 -3q-1 -1 -4.5 -4t-4.5 -4zM181 21q95 0 152 65.5t57 141.5v22q-81 13 -142 13q-88 0 -141 -33t-53 -99q0 -51 33 -80.5
t94 -29.5z" />
    <glyph glyph-name="Cacute" unicode="&#x106;" horiz-adv-x="632" 
d="M376 668q-135 0 -211 -92t-76 -234q0 -150 76 -235t204 -85q101 0 180 54q27 19 36 9q10 -13 -18 -35q-77 -60 -200 -60q-157 0 -235.5 96t-78.5 258q0 159 87.5 257.5t236.5 98.5q110 -1 181 -44q28 -16 19 -31q-7 -13 -39 4q-75 39 -162 39zM524 875l-184 -110
q-24 -14 -32 -2q-9 14 16 28l183 108q23 16 31 3q9 -13 -14 -27z" />
    <glyph glyph-name="cacute" unicode="&#x107;" horiz-adv-x="469" 
d="M431 40q-68 -50 -161 -50q-110 0 -168.5 64.5t-58.5 185.5q0 118 66.5 189t172.5 71q75 0 130 -29q24 -12 16 -27q-7 -12 -31 -1q-58 26 -115 26q-89 0 -147 -63t-58 -166q0 -105 52 -162t142 -57q73 0 142 44q21 13 30 3q9 -13 -12 -28zM416 690l-155 -104
q-21 -16 -30 -3q-8 13 12 26l155 104q22 15 30 3t-12 -26z" />
    <glyph glyph-name="Ccircumflex" unicode="&#x108;" horiz-adv-x="632" 
d="M507 757l-134 83l-137 -84q-22 -13 -30 -1q-6 12 15 26l128 81q14 9 24.5 9t24.5 -9l127 -79q24 -16 15 -29q-8 -13 -33 3zM376 668q-135 0 -211 -92t-76 -234q0 -150 76 -235t204 -85q101 0 180 54q27 19 36 9q10 -13 -18 -35q-77 -60 -200 -60q-157 0 -235.5 96
t-78.5 258q0 159 87.5 257.5t236.5 98.5q110 -1 181 -44q28 -16 19 -31q-7 -13 -39 4q-75 39 -162 39z" />
    <glyph glyph-name="ccircumflex" unicode="&#x109;" horiz-adv-x="469" 
d="M384 585l-112 95l-110 -94q-21 -17 -30 -5t11 28l108 90q13 10 22 10t23 -10l108 -89q22 -17 11 -30q-10 -12 -31 5zM431 40q-68 -50 -161 -50q-110 0 -168.5 64.5t-58.5 185.5q0 118 66.5 189t172.5 71q75 0 130 -29q24 -12 16 -27q-7 -12 -31 -1q-58 26 -115 26
q-89 0 -147 -63t-58 -166q0 -105 52 -162t142 -57q73 0 142 44q21 13 30 3q9 -13 -12 -28z" />
    <glyph glyph-name="Cdotaccent" unicode="&#x10a;" horiz-adv-x="632" 
d="M376 668q-135 0 -211 -92t-76 -234q0 -150 76 -235t204 -85q101 0 180 54q27 19 36 9q10 -13 -18 -35q-77 -60 -200 -60q-157 0 -235.5 96t-78.5 258q0 159 87.5 257.5t236.5 98.5q110 -1 181 -44q28 -16 19 -31q-7 -13 -39 4q-75 39 -162 39zM340 818q0 32 33 32t33 -32
q0 -31 -33 -31t-33 31z" />
    <glyph glyph-name="cdotaccent" unicode="&#x10b;" horiz-adv-x="469" 
d="M431 40q-68 -50 -161 -50q-110 0 -168.5 64.5t-58.5 185.5q0 118 66.5 189t172.5 71q75 0 130 -29q24 -12 16 -27q-7 -12 -31 -1q-58 26 -115 26q-89 0 -147 -63t-58 -166q0 -105 52 -162t142 -57q73 0 142 44q21 13 30 3q9 -13 -12 -28zM249 636q0 29 28 29
q13 0 20.5 -8t7.5 -21q0 -28 -28 -28t-28 28z" />
    <glyph glyph-name="Ccaron" unicode="&#x10c;" horiz-adv-x="632" 
d="M238 865l132 -83l138 84q21 13 29 2q9 -12 -15 -27l-127 -81q-14 -9 -24.5 -9t-24.5 9l-125 79q-27 15 -17 30q8 12 34 -4zM376 668q-135 0 -211 -92t-76 -234q0 -150 76 -235t204 -85q101 0 180 54q27 19 36 9q10 -13 -18 -35q-77 -60 -200 -60q-157 0 -235.5 96
t-78.5 258q0 159 87.5 257.5t236.5 98.5q110 -1 181 -44q28 -16 19 -31q-7 -13 -39 4q-75 39 -162 39z" />
    <glyph glyph-name="ccaron" unicode="&#x10d;" horiz-adv-x="469" 
d="M164 703l112 -95l110 94q20 18 30 5q10 -12 -11 -29l-108 -89q-13 -10 -22 -10t-23 10l-108 89q-21 17 -11 30q10 14 31 -5zM431 40q-68 -50 -161 -50q-110 0 -168.5 64.5t-58.5 185.5q0 118 66.5 189t172.5 71q75 0 130 -29q24 -12 16 -27q-7 -12 -31 -1q-58 26 -115 26
q-89 0 -147 -63t-58 -166q0 -105 52 -162t142 -57q73 0 142 44q21 13 30 3q9 -13 -12 -28z" />
    <glyph glyph-name="Dcaron" unicode="&#x10e;" horiz-adv-x="682" 
d="M171 865l132 -83l138 84q21 13 29 2q9 -12 -15 -27l-127 -81q-14 -9 -24.5 -9t-24.5 9l-125 79q-27 15 -17 30q8 12 34 -4zM83 28v630q0 20 17 23q62 14 179 14q350 0 350 -347q0 -168 -88 -260.5t-260 -92.5q-117 0 -181 12q-17 3 -17 21zM277 663q-88 0 -159 -11v-615
q60 -10 160 -10q156 0 235.5 83t79.5 238q0 315 -316 315z" />
    <glyph glyph-name="dcaron" unicode="&#x10f;" horiz-adv-x="635" 
d="M558 541q44 36 44 81q0 38 -42 49q-19 4 -16 18q2 13 24 10q29 -5 46.5 -24.5t17.5 -48.5q0 -62 -54 -104q-23 -18 -33 -7q-6 11 13 26zM234 -10q-94 0 -142.5 65.5t-48.5 174.5q0 120 58 195t175 75q92 0 158 -38v209q0 19 17 19q16 0 16 -19v-652q0 -19 -16 -19
q-17 0 -17 19v138q-16 -76 -67.5 -121.5t-132.5 -45.5zM240 21q46 0 81 18t56 47t34 70t18 81.5t5 86.5v104q-74 41 -159 41q-70 0 -115.5 -34t-64 -85.5t-18.5 -119.5q0 -96 40.5 -152.5t122.5 -56.5z" />
    <glyph glyph-name="Dcroat" unicode="&#x110;" horiz-adv-x="713" 
d="M114 28v312h-75q-16 0 -16 16t16 16h75v286q0 20 17 23q62 14 179 14q350 0 350 -347q0 -168 -88 -260.5t-260 -92.5q-116 0 -181 12q-17 3 -17 21zM308 663q-88 0 -159 -11v-280h180q16 0 16 -16t-16 -16h-180v-303q60 -10 160 -10q156 0 235.5 83t79.5 238
q0 315 -316 315z" />
    <glyph glyph-name="dcroat" unicode="&#x111;" horiz-adv-x="559" 
d="M234 -10q-94 0 -142.5 65.5t-48.5 174.5q0 120 58 195t175 75q92 0 158 -38v122h-199q-15 0 -15 15q0 14 15 14h199v58q0 19 17 19q16 0 16 -19v-58h74q15 0 15 -14q0 -15 -15 -15h-74v-565q0 -19 -16 -19q-17 0 -17 19v138q-16 -76 -67.5 -121.5t-132.5 -45.5zM240 21
q46 0 81 18t56 47t34 70t18 81.5t5 86.5v104q-74 41 -159 41q-70 0 -115.5 -34t-64 -85.5t-18.5 -119.5q0 -96 40.5 -152.5t122.5 -56.5z" />
    <glyph glyph-name="Emacron" unicode="&#x112;" horiz-adv-x="535" 
d="M491 0h-388q-9 0 -14.5 6t-5.5 14v650q0 20 19 20h381q16 0 16 -16t-16 -16h-365v-282h306q16 0 16 -16t-16 -16h-306v-312h373q16 0 16 -16t-16 -16zM425 794h-285q-16 0 -16 14q0 15 16 15h285q15 0 15 -15q0 -14 -15 -14z" />
    <glyph glyph-name="emacron" unicode="&#x113;" horiz-adv-x="505" 
d="M274 21q75 0 142 42q19 11 26 0q9 -12 -10 -26q-64 -47 -158 -47q-115 0 -173 66t-58 187q0 114 61 185.5t166 71.5q94 0 143 -54.5t49 -131.5q0 -37 -5 -57q-6 -29 -31 -29h-349q0 -97 53 -152t144 -55zM267 469q-83 0 -136.5 -58t-53.5 -153h350q4 19 4 54
q-1 73 -44 115t-120 42zM405 618h-258q-15 0 -15 15t15 15h258q16 0 16 -15t-16 -15z" />
    <glyph glyph-name="Edotaccent" unicode="&#x116;" horiz-adv-x="535" 
d="M491 0h-388q-9 0 -14.5 6t-5.5 14v650q0 20 19 20h381q16 0 16 -16t-16 -16h-365v-282h306q16 0 16 -16t-16 -16h-306v-312h373q16 0 16 -16t-16 -16zM249 818q0 32 33 32t33 -32q0 -31 -33 -31t-33 31z" />
    <glyph glyph-name="edotaccent" unicode="&#x117;" horiz-adv-x="505" 
d="M274 21q75 0 142 42q19 11 26 0q9 -12 -10 -26q-64 -47 -158 -47q-115 0 -173 66t-58 187q0 114 61 185.5t166 71.5q94 0 143 -54.5t49 -131.5q0 -37 -5 -57q-6 -29 -31 -29h-349q0 -97 53 -152t144 -55zM267 469q-83 0 -136.5 -58t-53.5 -153h350q4 19 4 54
q-1 73 -44 115t-120 42zM244 636q0 29 28 29q13 0 20.5 -8t7.5 -21q0 -28 -28 -28t-28 28z" />
    <glyph glyph-name="Eogonek" unicode="&#x118;" horiz-adv-x="535" 
d="M491 0h-57q-34 -28 -63.5 -72.5t-29.5 -81.5q0 -60 55 -60q19 0 39 11q18 11 23 1q8 -13 -12 -26q-21 -15 -50 -15q-39 0 -62.5 21t-23.5 64q0 41 24 84t59 74h-290q-9 0 -14.5 6t-5.5 14v650q0 20 19 20h381q16 0 16 -16t-16 -16h-365v-282h306q16 0 16 -16t-16 -16
h-306v-312h373q16 0 16 -16t-16 -16z" />
    <glyph glyph-name="eogonek" unicode="&#x119;" horiz-adv-x="505" 
d="M398 17q-94 -101 -94 -169q0 -62 55 -62q19 0 39 11q18 11 23 1q8 -13 -12 -26q-21 -15 -50 -15q-38 0 -62 21.5t-24 65.5q0 80 73 155q-41 -9 -72 -9q-115 0 -173 66t-58 187q0 114 61 185.5t166 71.5q94 0 143 -54.5t49 -131.5q0 -37 -5 -57q-6 -29 -31 -29h-349
q0 -97 53 -152t144 -55q75 0 142 42q19 11 26 0q9 -12 -10 -26q-6 -5 -34 -20zM267 469q-83 0 -136.5 -58t-53.5 -153h350q4 19 4 54q-1 73 -44 115t-120 42z" />
    <glyph glyph-name="Ecaron" unicode="&#x11a;" horiz-adv-x="535" 
d="M148 865l132 -83l138 84q21 13 29 2q9 -12 -15 -27l-127 -81q-14 -9 -24.5 -9t-24.5 9l-125 79q-27 15 -17 30q8 12 34 -4zM491 0h-388q-9 0 -14.5 6t-5.5 14v650q0 20 19 20h381q16 0 16 -16t-16 -16h-365v-282h306q16 0 16 -16t-16 -16h-306v-312h373q16 0 16 -16
t-16 -16z" />
    <glyph glyph-name="ecaron" unicode="&#x11b;" horiz-adv-x="505" 
d="M274 21q75 0 142 42q19 11 26 0q9 -12 -10 -26q-64 -47 -158 -47q-115 0 -173 66t-58 187q0 114 61 185.5t166 71.5q94 0 143 -54.5t49 -131.5q0 -37 -5 -57q-6 -29 -31 -29h-349q0 -97 53 -152t144 -55zM267 469q-83 0 -136.5 -58t-53.5 -153h350q4 19 4 54
q-1 73 -44 115t-120 42zM162 703l112 -95l110 94q20 18 30 5q10 -12 -11 -29l-108 -89q-13 -10 -22 -10t-23 10l-108 89q-21 17 -11 30q10 14 31 -5z" />
    <glyph glyph-name="Gcircumflex" unicode="&#x11c;" horiz-adv-x="662" 
d="M376 668q-135 0 -211 -91.5t-76 -233.5q0 -151 74.5 -236t209.5 -85q57 0 112.5 17t90.5 46v214h-179q-16 0 -16 16t16 16h194q18 0 18 -19v-225q0 -16 -12 -25q-33 -29 -95 -50.5t-130 -21.5q-160 0 -239.5 95.5t-79.5 258.5q0 159 87.5 257.5t236.5 98.5
q110 -1 181 -44q29 -17 19 -32q-8 -11 -39 5q-75 39 -162 39zM506 757l-134 83l-137 -84q-22 -13 -30 -1q-6 12 15 26l128 81q14 9 24.5 9t24.5 -9l127 -79q24 -16 15 -29q-8 -13 -33 3z" />
    <glyph glyph-name="gcircumflex" unicode="&#x11d;" horiz-adv-x="508" 
d="M484 464h-108q63 -46 63 -132q0 -72 -48.5 -119t-139.5 -47q-74 0 -122 32q-45 -28 -45 -66q0 -33 39.5 -51t145.5 -22q42 -2 70.5 -5t58 -10.5t47 -19.5t28.5 -32.5t11 -48.5q0 -69 -64 -111t-184 -42q-213 0 -213 135q0 83 93 125q-64 22 -64 80q0 50 54 87
q-43 44 -43 115q0 73 48.5 120.5t139.5 47.5q37 0 72 -10h161q16 0 16 -13t-16 -13zM255 29q-53 1 -100 10q-99 -36 -99 -114q0 -44 40.5 -75t138.5 -31q109 0 162.5 34.5t53.5 83.5q0 48 -43 67.5t-153 24.5zM96 332q0 -59 39.5 -98t115.5 -39t115.5 39t39.5 98t-39.5 98.5
t-115.5 39.5t-115.5 -39t-39.5 -99zM360 585l-112 95l-110 -94q-21 -17 -30 -5t11 28l108 90q13 10 22 10t23 -10l108 -89q22 -17 11 -30q-10 -12 -31 5z" />
    <glyph glyph-name="Gbreve" unicode="&#x11e;" horiz-adv-x="662" 
d="M376 668q-135 0 -211 -91.5t-76 -233.5q0 -151 74.5 -236t209.5 -85q57 0 112.5 17t90.5 46v214h-179q-16 0 -16 16t16 16h194q18 0 18 -19v-225q0 -16 -12 -25q-33 -29 -95 -50.5t-130 -21.5q-160 0 -239.5 95.5t-79.5 258.5q0 159 87.5 257.5t236.5 98.5
q110 -1 181 -44q29 -17 19 -32q-8 -11 -39 5q-75 39 -162 39zM370 765q-89 0 -135 64q-16 23 -4 33q12 9 28 -12q43 -55 111 -55t111 54q18 23 30 13q12 -9 -5 -33q-48 -64 -136 -64z" />
    <glyph glyph-name="gbreve" unicode="&#x11f;" horiz-adv-x="508" 
d="M484 464h-108q63 -46 63 -132q0 -72 -48.5 -119t-139.5 -47q-74 0 -122 32q-45 -28 -45 -66q0 -33 39.5 -51t145.5 -22q42 -2 70.5 -5t58 -10.5t47 -19.5t28.5 -32.5t11 -48.5q0 -69 -64 -111t-184 -42q-213 0 -213 135q0 83 93 125q-64 22 -64 80q0 50 54 87
q-43 44 -43 115q0 73 48.5 120.5t139.5 47.5q37 0 72 -10h161q16 0 16 -13t-16 -13zM255 29q-53 1 -100 10q-99 -36 -99 -114q0 -44 40.5 -75t138.5 -31q109 0 162.5 34.5t53.5 83.5q0 48 -43 67.5t-153 24.5zM96 332q0 -59 39.5 -98t115.5 -39t115.5 39t39.5 98t-39.5 98.5
t-115.5 39.5t-115.5 -39t-39.5 -99zM254 588q-46 0 -79 21t-48 51q-12 23 2 30q13 6 26 -15q35 -58 99 -58t100 57q14 22 26 16q13 -6 1 -29q-41 -73 -127 -73z" />
    <glyph glyph-name="Gdotaccent" unicode="&#x120;" horiz-adv-x="662" 
d="M376 668q-135 0 -211 -91.5t-76 -233.5q0 -151 74.5 -236t209.5 -85q57 0 112.5 17t90.5 46v214h-179q-16 0 -16 16t16 16h194q18 0 18 -19v-225q0 -16 -12 -25q-33 -29 -95 -50.5t-130 -21.5q-160 0 -239.5 95.5t-79.5 258.5q0 159 87.5 257.5t236.5 98.5
q110 -1 181 -44q29 -17 19 -32q-8 -11 -39 5q-75 39 -162 39zM336 818q0 32 33 32t33 -32q0 -31 -33 -31t-33 31z" />
    <glyph glyph-name="gdotaccent" unicode="&#x121;" horiz-adv-x="508" 
d="M484 464h-108q63 -46 63 -132q0 -72 -48.5 -119t-139.5 -47q-74 0 -122 32q-45 -28 -45 -66q0 -33 39.5 -51t145.5 -22q42 -2 70.5 -5t58 -10.5t47 -19.5t28.5 -32.5t11 -48.5q0 -69 -64 -111t-184 -42q-213 0 -213 135q0 83 93 125q-64 22 -64 80q0 50 54 87
q-43 44 -43 115q0 73 48.5 120.5t139.5 47.5q37 0 72 -10h161q16 0 16 -13t-16 -13zM255 29q-53 1 -100 10q-99 -36 -99 -114q0 -44 40.5 -75t138.5 -31q109 0 162.5 34.5t53.5 83.5q0 48 -43 67.5t-153 24.5zM96 332q0 -59 39.5 -98t115.5 -39t115.5 39t39.5 98t-39.5 98.5
t-115.5 39.5t-115.5 -39t-39.5 -99zM226 636q0 29 28 29q13 0 20.5 -8t7.5 -21q0 -28 -28 -28t-28 28z" />
    <glyph glyph-name="Gcommaaccent" unicode="&#x122;" horiz-adv-x="662" 
d="M352 -251q54 46 54 99q0 45 -47 55q-21 6 -18 19q2 15 24 12q32 -3 53 -26t21 -58t-19.5 -69t-45.5 -54q-27 -20 -37 -9q-9 10 15 31zM376 673q-135 0 -211 -91.5t-76 -233.5q0 -151 74.5 -236t209.5 -85q57 0 112.5 17t90.5 46v214h-179q-16 0 -16 16t16 16h194
q18 0 18 -19v-225q0 -16 -12 -25q-33 -29 -95 -50.5t-130 -21.5q-160 0 -239.5 95.5t-79.5 258.5q0 159 87.5 257.5t236.5 98.5q110 -1 181 -44q29 -17 19 -32q-8 -11 -39 5q-75 39 -162 39z" />
    <glyph glyph-name="gcommaaccent" unicode="&#x123;" horiz-adv-x="508" 
d="M264 749q-53 -42 -53 -93q0 -40 46 -51q18 -4 17 -17q-2 -14 -24 -11q-29 3 -49 23.5t-20 53.5q0 34 18.5 65t43.5 49t33 6q6 -10 -12 -25zM484 464h-108q63 -46 63 -132q0 -72 -48.5 -119t-139.5 -47q-74 0 -122 32q-45 -28 -45 -66q0 -33 39.5 -51t145.5 -22
q42 -2 70.5 -5t58 -10.5t47 -19.5t28.5 -32.5t11 -48.5q0 -69 -64 -111t-184 -42q-213 0 -213 135q0 83 93 125q-64 22 -64 80q0 50 54 87q-43 44 -43 115q0 73 48.5 120.5t139.5 47.5q37 0 72 -10h161q16 0 16 -13t-16 -13zM255 29q-53 1 -100 10q-99 -36 -99 -114
q0 -44 40.5 -75t138.5 -31q109 0 162.5 34.5t53.5 83.5q0 48 -43 67.5t-153 24.5zM96 332q0 -59 39.5 -98t115.5 -39t115.5 39t39.5 98t-39.5 98.5t-115.5 39.5t-115.5 -39t-39.5 -99z" />
    <glyph glyph-name="Hcircumflex" unicode="&#x124;" horiz-adv-x="692" 
d="M480 757l-134 83l-137 -84q-22 -13 -30 -1q-6 12 15 26l128 81q14 9 24.5 9t24.5 -9l127 -79q24 -16 15 -29q-8 -13 -33 3zM574 371v300q0 19 18 19q17 0 17 -19v-652q0 -19 -17 -19q-18 0 -18 19v320h-456v-320q0 -19 -18 -19q-17 0 -17 19v652q0 19 17 19q18 0 18 -19
v-300h456z" />
    <glyph glyph-name="hcircumflex" unicode="&#x125;" 
d="M227 757l-134 83l-137 -84q-22 -13 -30 -1q-6 12 15 26l128 81q14 9 24.5 9t24.5 -9l127 -79q24 -16 15 -29q-8 -13 -33 3zM443 19v273q0 84 -32 130.5t-110 46.5q-99 0 -146.5 -81t-47.5 -222v-147q0 -19 -17 -19q-16 0 -16 19v652q0 19 16 19q17 0 17 -19v-338
q17 82 70 124.5t126 42.5q91 0 132 -52.5t41 -154.5v-274q0 -19 -16 -19q-17 0 -17 19z" />
    <glyph glyph-name="Hbar" unicode="&#x126;" horiz-adv-x="709" 
d="M682 540h-65v-521q0 -19 -17 -19q-18 0 -18 19v320h-456v-320q0 -19 -18 -19q-17 0 -17 19v521h-64q-16 0 -16 14q0 15 16 15h64v102q0 19 17 19q18 0 18 -19v-102h456v102q0 19 18 19q17 0 17 -19v-102h65q16 0 16 -15q0 -14 -16 -14zM582 371v169h-456v-169h456z" />
    <glyph glyph-name="hbar" unicode="&#x127;" horiz-adv-x="578" 
d="M477 19v273q0 84 -32 130.5t-110 46.5q-99 0 -146.5 -81t-47.5 -222v-147q0 -19 -17 -19q-16 0 -16 19v551h-89q-16 0 -16 15q0 14 16 14h89v72q0 19 16 19q17 0 17 -19v-72h189q16 0 16 -14q0 -15 -16 -15h-189v-237q17 82 70 124.5t126 42.5q91 0 132 -52.5t41 -154.5
v-274q0 -19 -16 -19q-17 0 -17 19z" />
    <glyph glyph-name="Imacron" unicode="&#x12a;" horiz-adv-x="201" 
d="M243 794h-285q-16 0 -16 14q0 15 16 15h285q15 0 15 -15q0 -14 -15 -14zM83 19v652q0 19 17 19q18 0 18 -19v-652q0 -19 -18 -19q-17 0 -17 19z" />
    <glyph glyph-name="imacron" unicode="&#x12b;" horiz-adv-x="169" 
d="M68 19v452q0 19 16 19q17 0 17 -19v-452q0 -19 -17 -19q-16 0 -16 19zM213 618h-258q-15 0 -15 15t15 15h258q16 0 16 -15t-16 -15z" />
    <glyph glyph-name="Iogonek" unicode="&#x12e;" horiz-adv-x="201" 
d="M95 -13q-29 -26 -54 -65t-25 -76q0 -60 55 -60q19 0 39 11q18 11 23 1q8 -13 -12 -26q-21 -15 -50 -15q-39 0 -62.5 21t-23.5 64q0 46 28 93t70 81v655q0 19 17 19q18 0 18 -19v-652q0 -3 -1 -6t-1.5 -5t-3.5 -5l-4 -5q-2 -1 -6.5 -5t-6.5 -6z" />
    <glyph glyph-name="iogonek" unicode="&#x12f;" horiz-adv-x="169" 
d="M79 -13q-29 -26 -54 -65t-25 -76q0 -60 55 -60q19 0 39 11q18 11 23 1q8 -13 -12 -26q-21 -15 -50 -15q-39 0 -62.5 21t-23.5 64q0 46 28.5 93t70.5 81v455q0 19 16 19q17 0 17 -19v-452v-4q0 -2 -1 -4l-2 -3q0 -1 -1.5 -3t-2 -3t-2.5 -4l-4 -3q-1 -1 -4.5 -4t-4.5 -4z
M56 636q0 13 7.5 21t20.5 8t21 -8t8 -21q0 -28 -29 -28q-28 0 -28 28z" />
    <glyph glyph-name="Idotaccent" unicode="&#x130;" horiz-adv-x="201" 
d="M83 19v652q0 19 17 19q18 0 18 -19v-652q0 -19 -18 -19q-17 0 -17 19zM66 818q0 32 33 32t33 -32q0 -31 -33 -31t-33 31z" />
    <glyph glyph-name="dotlessi" unicode="&#x131;" horiz-adv-x="169" 
d="M68 19v452q0 19 16 19q17 0 17 -19v-452q0 -19 -17 -19q-16 0 -16 19z" />
    <glyph glyph-name="Jcircumflex" unicode="&#x134;" horiz-adv-x="330" 
d="M376 757l-134 83l-137 -84q-22 -13 -30 -1q-6 12 15 26l128 81q14 9 24.5 9t24.5 -9l127 -79q24 -16 15 -29q-8 -13 -33 3zM-7 38q6 10 31 2q43 -18 88 -18q108 0 108 132v517q0 19 18 19q17 0 17 -19v-522q0 -159 -141 -159q-65 0 -107 21q-22 12 -14 27z" />
    <glyph glyph-name="jcircumflex" unicode="&#x135;" horiz-adv-x="169" 
d="M-113 -194q-18 8 -12 23q5 12 25 5q41 -13 77 -13q58 0 77.5 34.5t19.5 112.5v503q0 19 16 19q17 0 17 -19v-512q0 -86 -29 -127.5t-99 -41.5q-60 0 -92 16zM200 585l-112 95l-110 -94q-21 -17 -30 -5t11 28l108 90q13 10 22 10t23 -10l108 -89q22 -17 11 -30
q-10 -12 -31 5z" />
    <glyph glyph-name="Kcommaaccent" unicode="&#x136;" horiz-adv-x="518" 
d="M255 -251q54 46 54 99q0 44 -47 55q-21 6 -18 19q2 14 23 13q32 -4 53 -27t21 -58t-19.5 -69.5t-45.5 -53.5q-27 -20 -37 -9q-8 10 16 31zM83 19v652q0 19 17 19q18 0 18 -19v-310l328 316q20 20 32 8q12 -11 -9 -32l-315 -301l338 -315q20 -19 9 -32t-34 8l-349 324
v-318q0 -19 -18 -19q-17 0 -17 19z" />
    <glyph glyph-name="kcommaaccent" unicode="&#x137;" horiz-adv-x="398" 
d="M196 -242q52 43 52 93q0 41 -46 51q-18 4 -17 17t24 12q29 -4 49 -24.5t20 -53.5q0 -34 -18 -64.5t-44 -49.5q-27 -18 -35 -7q-5 11 15 26zM68 19v652q0 19 16 19q17 0 17 -19v-404l234 212q19 17 30 6q9 -11 -9 -29l-224 -202l240 -218q21 -19 8 -32q-11 -11 -33 9
l-246 224v-218q0 -19 -17 -19q-16 0 -16 19z" />
    <glyph glyph-name="Lacute" unicode="&#x139;" horiz-adv-x="509" 
d="M308 875l-184 -110q-24 -14 -32 -2q-9 14 16 28l183 108q23 16 31 3q9 -13 -14 -27zM483 0h-380q-17 0 -17 19v652q0 19 17 19q18 0 18 -19v-639h362q16 0 16 -16t-16 -16z" />
    <glyph glyph-name="lacute" unicode="&#x13a;" horiz-adv-x="291" 
d="M278 875l-184 -110q-24 -14 -32 -2q-9 14 16 28l183 108q23 16 31 3q9 -13 -14 -27zM77 145v526q0 19 16 19q17 0 17 -19v-514q0 -78 19 -107t75 -29q34 0 70 18q22 11 28 -1q7 -14 -12 -25q-38 -23 -92 -23q-67 0 -94 35t-27 120z" />
    <glyph glyph-name="Lcommaaccent" unicode="&#x13b;" horiz-adv-x="509" 
d="M254 -251q54 46 54 99q0 44 -47 55q-20 6 -19 19q2 15 24 12q32 -3 53 -26t21 -58t-19.5 -69.5t-45.5 -53.5q-27 -20 -37 -9q-8 10 16 31zM480 0h-380q-17 0 -17 19v652q0 19 17 19q18 0 18 -19v-639h362q16 0 16 -16t-16 -16z" />
    <glyph glyph-name="lcommaaccent" unicode="&#x13c;" horiz-adv-x="294" 
d="M163 -242q53 42 53 93q0 41 -46 51q-10 2 -14.5 6t-3.5 11q1 13 25 12q29 -4 49 -24.5t20 -53.5q0 -34 -18.5 -65t-44.5 -49q-26 -17 -34 -6q-6 10 14 25zM71 145v526q0 19 16 19q17 0 17 -19v-514q0 -78 19 -107t75 -29q34 0 70 18q22 11 28 -1q7 -14 -12 -25
q-38 -23 -92 -23q-67 0 -94 35t-27 120z" />
    <glyph glyph-name="Lcaron" unicode="&#x13d;" horiz-adv-x="509" 
d="M272 512q53 44 53 97q0 43 -47 54q-18 6 -17 19q2 14 23 11q31 -4 51.5 -26t20.5 -56t-19 -67.5t-45 -52.5q-26 -20 -36 -10q-8 10 16 31zM480 0h-380q-17 0 -17 19v652q0 19 17 19q18 0 18 -19v-639h362q16 0 16 -16t-16 -16z" />
    <glyph glyph-name="lcaron" unicode="&#x13e;" horiz-adv-x="291" 
d="M194 541q44 36 44 81q0 38 -42 49q-19 4 -16 18q2 13 24 10q29 -5 46.5 -24.5t17.5 -48.5q0 -62 -54 -104q-23 -18 -33 -7q-6 11 13 26zM68 145v526q0 19 16 19q17 0 17 -19v-514q0 -78 19 -107t75 -29q34 0 70 18q22 11 28 -1q7 -14 -12 -25q-38 -23 -92 -23
q-67 0 -94 35t-27 120z" />
    <glyph glyph-name="Ldot" unicode="&#x13f;" horiz-adv-x="509" 
d="M480 0h-380q-17 0 -17 19v652q0 19 17 19q18 0 18 -19v-639h362q16 0 16 -16t-16 -16zM300 374q0 13 7.5 21t21.5 8t22 -8.5t8 -20.5t-8 -20.5t-22 -8.5t-21.5 8t-7.5 21z" />
    <glyph glyph-name="ldot" unicode="&#x140;" horiz-adv-x="291" 
d="M68 146v526q0 19 16 19q17 0 17 -19v-514q0 -78 19 -107t75 -29q34 0 70 18q22 11 28 -1q7 -14 -12 -25q-38 -23 -92 -23q-67 0 -94 35t-27 120zM196 350q0 13 7.5 21t21.5 8t22 -8.5t8 -20.5t-8 -20.5t-22 -8.5t-21.5 8t-7.5 21z" />
    <glyph glyph-name="Lslash" unicode="&#x141;" horiz-adv-x="529" 
d="M508 0h-380q-17 0 -17 19v278l-68 -47q-20 -16 -29 -3q-8 12 12 27l85 59v338q0 19 17 19q18 0 18 -19v-313l119 83q21 15 29 3q9 -12 -12 -28l-136 -95v-289h362q16 0 16 -16t-16 -16z" />
    <glyph glyph-name="lslash" unicode="&#x142;" horiz-adv-x="296" 
d="M81 145v130l-50 -35q-22 -15 -30 -3t13 27l67 46v361q0 19 16 19q17 0 17 -19v-338l101 71q20 15 29 4q10 -14 -12 -28l-118 -82v-141q0 -78 19 -107t75 -29q34 0 70 18q22 11 28 -1q7 -14 -12 -25q-38 -23 -92 -23q-67 0 -94 35t-27 120z" />
    <glyph glyph-name="Nacute" unicode="&#x143;" horiz-adv-x="693" 
d="M577 68v603q0 19 17 19q16 0 16 -19v-650q0 -21 -17 -21q-10 0 -20 12l-457 610v-603q0 -19 -17 -19q-16 0 -16 19v648q0 23 17 23q12 0 24 -16zM485 875l-184 -110q-24 -14 -32 -2q-9 14 16 28l183 108q23 16 31 3q9 -13 -14 -27z" />
    <glyph glyph-name="nacute" unicode="&#x144;" 
d="M437 19v273q0 84 -32 130.5t-110 46.5q-99 0 -146.5 -81t-47.5 -222v-147q0 -19 -17 -19q-16 0 -16 19v452q0 19 16 19q17 0 17 -19v-138q17 82 70 124.5t126 42.5q91 0 132 -52.5t41 -154.5v-274q0 -19 -16 -19q-17 0 -17 19zM410 690l-155 -104q-21 -16 -30 -3
q-8 13 12 26l155 104q22 15 30 3t-12 -26z" />
    <glyph glyph-name="Ncommaaccent" unicode="&#x145;" horiz-adv-x="693" 
d="M302 -251q54 46 54 99q0 44 -47 55q-20 6 -19 19q2 15 24 12q32 -3 53 -26t21 -58t-19.5 -69.5t-45.5 -53.5q-27 -20 -37 -9q-8 10 16 31zM577 68v603q0 19 17 19q16 0 16 -19v-650q0 -21 -17 -21q-10 0 -20 12l-457 610v-603q0 -19 -17 -19q-16 0 -16 19v648q0 23 17 23
q12 0 24 -16z" />
    <glyph glyph-name="ncommaaccent" unicode="&#x146;" 
d="M229 -242q52 41 52 93q0 41 -46 51q-18 4 -17 17q2 13 24 12q29 -4 49 -24.5t20 -53.5q0 -34 -18.5 -65t-43.5 -49q-27 -18 -34 -6q-7 10 14 25zM437 19v273q0 84 -32 130.5t-110 46.5q-99 0 -146.5 -81t-47.5 -222v-147q0 -19 -17 -19q-16 0 -16 19v452q0 19 16 19
q17 0 17 -19v-138q17 82 70 124.5t126 42.5q91 0 132 -52.5t41 -154.5v-274q0 -19 -16 -19q-17 0 -17 19z" />
    <glyph glyph-name="Ncaron" unicode="&#x147;" horiz-adv-x="693" 
d="M577 68v603q0 19 17 19q16 0 16 -19v-650q0 -21 -17 -21q-10 0 -20 12l-457 610v-603q0 -19 -17 -19q-16 0 -16 19v648q0 23 17 23q12 0 24 -16zM215 865l132 -83l138 84q21 13 29 2q9 -12 -15 -27l-127 -81q-14 -9 -24.5 -9t-24.5 9l-125 79q-27 15 -17 30q8 12 34 -4z
" />
    <glyph glyph-name="ncaron" unicode="&#x148;" 
d="M163 703l112 -95l110 94q20 18 30 5q10 -12 -11 -29l-108 -89q-13 -10 -22 -10t-23 10l-108 89q-21 17 -11 30q10 14 31 -5zM437 19v273q0 84 -32 130.5t-110 46.5q-99 0 -146.5 -81t-47.5 -222v-147q0 -19 -17 -19q-16 0 -16 19v452q0 19 16 19q17 0 17 -19v-138
q17 82 70 124.5t126 42.5q91 0 132 -52.5t41 -154.5v-274q0 -19 -16 -19q-17 0 -17 19z" />
    <glyph glyph-name="Omacron" unicode="&#x14c;" horiz-adv-x="753" 
d="M53 345q0 155 85.5 255t238.5 100q152 0 237.5 -100t85.5 -255q0 -156 -85 -255.5t-238 -99.5t-238.5 99.5t-85.5 255.5zM89 345q0 -143 77 -233t211 -90q133 0 210 90t77 233t-77 233t-210 90q-134 0 -211 -90t-77 -233zM519 794h-285q-16 0 -16 14q0 15 16 15h285
q15 0 15 -15q0 -14 -15 -14z" />
    <glyph glyph-name="omacron" unicode="&#x14d;" horiz-adv-x="558" 
d="M43 245q0 113 62.5 184t173.5 71t173.5 -71t62.5 -184t-62.5 -184t-173.5 -71t-173.5 71t-62.5 184zM77 245q0 -104 54 -164t148 -60t148 60t54 164q0 103 -54 163.5t-148 60.5t-148 -60.5t-54 -163.5zM407 618h-258q-15 0 -15 15t15 15h258q16 0 16 -15t-16 -15z" />
    <glyph glyph-name="Obreve" unicode="&#x14e;" horiz-adv-x="753" 
d="M53 345q0 155 85.5 255t238.5 100q152 0 237.5 -100t85.5 -255q0 -156 -85 -255.5t-238 -99.5t-238.5 99.5t-85.5 255.5zM89 345q0 -143 77 -233t211 -90q133 0 210 90t77 233t-77 233t-210 90q-134 0 -211 -90t-77 -233zM376 765q-89 0 -135 64q-16 23 -4 33
q12 9 28 -12q43 -55 111 -55t111 54q18 23 30 13q12 -9 -5 -33q-48 -64 -136 -64z" />
    <glyph glyph-name="obreve" unicode="&#x14f;" horiz-adv-x="558" 
d="M43 245q0 113 62.5 184t173.5 71t173.5 -71t62.5 -184t-62.5 -184t-173.5 -71t-173.5 71t-62.5 184zM77 245q0 -104 54 -164t148 -60t148 60t54 164q0 103 -54 163.5t-148 60.5t-148 -60.5t-54 -163.5zM278 588q-46 0 -79 21t-48 51q-12 23 2 30q13 6 26 -15
q35 -58 99 -58t100 57q14 22 26 16q13 -6 1 -29q-41 -73 -127 -73z" />
    <glyph glyph-name="Ohungarumlaut" unicode="&#x150;" horiz-adv-x="753" 
d="M459 875l-184 -110q-24 -14 -32 -2q-9 14 16 28l183 108q23 13 31 2q8 -13 -14 -26zM636 875l-184 -110q-24 -14 -32 -2q-9 14 16 28l183 108q23 13 31 2q8 -13 -14 -26zM53 345q0 155 85.5 255t238.5 100q152 0 237.5 -100t85.5 -255q0 -156 -85 -255.5t-238 -99.5
t-238.5 99.5t-85.5 255.5zM89 345q0 -143 77 -233t211 -90q133 0 210 90t77 233t-77 233t-210 90q-134 0 -211 -90t-77 -233z" />
    <glyph glyph-name="ohungarumlaut" unicode="&#x151;" horiz-adv-x="558" 
d="M360 689l-154 -103q-21 -16 -30 -3q-8 13 12 26l157 105q20 14 28 2q8 -13 -13 -27zM500 689l-154 -103q-21 -16 -30 -3q-8 13 12 26l157 105q20 14 28 2q8 -13 -13 -27zM43 245q0 113 62.5 184t173.5 71t173.5 -71t62.5 -184t-62.5 -184t-173.5 -71t-173.5 71t-62.5 184
zM77 245q0 -104 54 -164t148 -60t148 60t54 164q0 103 -54 163.5t-148 60.5t-148 -60.5t-54 -163.5z" />
    <glyph glyph-name="OE" unicode="&#x152;" horiz-adv-x="973" 
d="M929 0h-388q-9 0 -14.5 6t-5.5 14v3q-68 -33 -149 -33q-153 0 -238.5 99.5t-85.5 255.5q0 155 85.5 255t238.5 100q80 0 149 -32v2q0 20 19 20h381q16 0 16 -16t-16 -16h-365v-282h306q16 0 16 -16t-16 -16h-306v-312h373q16 0 16 -16t-16 -16zM372 22q86 0 149 36v573
q-65 37 -149 37q-134 0 -211 -90t-77 -233t77 -233t211 -90z" />
    <glyph glyph-name="oe" unicode="&#x153;" horiz-adv-x="830" 
d="M599 21q75 0 142 42q19 11 26 0q9 -12 -10 -26q-63 -47 -158 -47q-103 0 -162 54q-62 -54 -157 -54q-111 0 -174 71t-63 184t63 184t174 71q98 0 162 -58q60 58 153 58q94 0 143 -54.5t49 -131.5q0 -37 -5 -57q-6 -29 -31 -29h-349q0 -97 53 -152t144 -55zM280 21
q87 0 136 46q-48 64 -48 176q0 106 52 175q-56 51 -140 51q-94 0 -148.5 -60.5t-54.5 -163.5t54.5 -163.5t148.5 -60.5zM592 469q-83 0 -136.5 -58t-53.5 -153h350q4 19 4 54q-1 73 -44 115t-120 42z" />
    <glyph glyph-name="Racute" unicode="&#x154;" horiz-adv-x="581" 
d="M83 19v644q0 18 18 21q74 11 144 11q243 0 243 -191q0 -153 -148 -196l171 -273q16 -22 1 -32q-17 -11 -32 15l-176 282q-30 -5 -75 -5q-71 0 -111 7v-283q0 -19 -18 -19q-17 0 -17 19zM242 663q-50 0 -124 -9v-320q50 -8 109 -8q110 0 167.5 41t57.5 136q0 86 -53.5 123
t-156.5 37zM402 875l-184 -110q-24 -14 -32 -2q-9 14 16 28l183 108q23 16 31 3q9 -13 -14 -27z" />
    <glyph glyph-name="racute" unicode="&#x155;" horiz-adv-x="330" 
d="M101 204v-185q0 -19 -17 -19q-16 0 -16 19v452q0 19 16 19q17 0 17 -19v-112q15 63 55 102t98 39q37 0 62 -16q17 -11 11 -24q-5 -12 -25 -3q-28 12 -53 12q-58 0 -96 -52q-52 -69 -52 -213zM326 690l-155 -104q-21 -16 -30 -3q-8 13 12 26l155 104q22 15 30 3t-12 -26z
" />
    <glyph glyph-name="Rcommaaccent" unicode="&#x156;" horiz-adv-x="581" 
d="M276 -251q54 46 54 99q0 44 -47 55q-20 6 -19 19q2 15 24 12q32 -3 53 -26t21 -58t-19.5 -69.5t-45.5 -53.5q-27 -20 -37 -9q-8 10 16 31zM83 19v644q0 18 18 21q74 11 144 11q243 0 243 -191q0 -153 -148 -196l171 -273q16 -22 1 -32q-17 -11 -32 15l-176 282
q-30 -5 -75 -5q-71 0 -111 7v-283q0 -19 -18 -19q-17 0 -17 19zM242 663q-50 0 -124 -9v-320q50 -8 109 -8q110 0 167.5 41t57.5 136q0 86 -53.5 123t-156.5 37z" />
    <glyph glyph-name="rcommaaccent" unicode="&#x157;" horiz-adv-x="330" 
d="M84 -242q53 42 53 93q0 41 -46 51q-10 2 -14.5 6t-3.5 11q1 13 25 12q29 -4 49 -24.5t20 -53.5q0 -34 -18.5 -65t-44.5 -49q-26 -17 -34 -6q-6 10 14 25zM107 204v-185q0 -19 -17 -19q-16 0 -16 19v452q0 19 16 19q17 0 17 -19v-112q15 63 55 102t98 39q37 0 62 -16
q17 -11 11 -24q-5 -12 -25 -3q-28 12 -53 12q-58 0 -96 -52q-52 -69 -52 -213z" />
    <glyph glyph-name="Rcaron" unicode="&#x158;" horiz-adv-x="581" 
d="M93 19v644q0 18 18 21q74 11 144 11q243 0 243 -191q0 -153 -148 -196l171 -273q16 -22 1 -32q-17 -11 -32 15l-176 282q-30 -5 -75 -5q-71 0 -111 7v-283q0 -19 -18 -19q-17 0 -17 19zM252 663q-50 0 -124 -9v-320q50 -8 109 -8q110 0 167.5 41t57.5 136q0 86 -53.5 123
t-156.5 37zM124 865l132 -83l138 84q21 13 29 2q9 -12 -15 -27l-127 -81q-14 -9 -24.5 -9t-24.5 9l-125 79q-27 15 -17 30q8 12 34 -4z" />
    <glyph glyph-name="rcaron" unicode="&#x159;" horiz-adv-x="330" 
d="M87 703l112 -95l110 94q20 18 30 5q10 -12 -11 -29l-108 -89q-13 -10 -22 -10t-23 10l-108 89q-21 17 -11 30q10 14 31 -5zM111 204v-185q0 -19 -17 -19q-16 0 -16 19v452q0 19 16 19q17 0 17 -19v-112q15 63 55 102t98 39q37 0 62 -16q17 -11 11 -24q-5 -12 -25 -3
q-28 12 -53 12q-58 0 -96 -52q-52 -69 -52 -213z" />
    <glyph glyph-name="Sacute" unicode="&#x15a;" horiz-adv-x="536" 
d="M285 668q-83 0 -126 -36.5t-43 -94.5q0 -50 29 -85t72 -51l94 -35q51 -19 94 -37.5t72 -57.5t29 -95q0 -86 -59 -136t-170 -50q-109 0 -191 46q-42 23 -30 42q2 3 4.5 4.5t5.5 1.5t5.5 -0.5t7 -3t7.5 -4t8 -4.5t8 -5q80 -45 176 -45q90 0 141 38.5t51 110.5q0 50 -29 84
t-72 50l-94 35q-51 19 -94 37.5t-72 59t-29 98.5q0 73 52 119t153 46q100 0 170 -44q32 -20 23 -35q-3 -4 -7 -5.5t-11.5 1.5t-10.5 4.5t-14 7.5q-71 39 -150 39zM419 875l-184 -110q-24 -14 -32 -2q-9 14 16 28l183 108q23 16 31 3q9 -13 -14 -27z" />
    <glyph glyph-name="sacute" unicode="&#x15b;" horiz-adv-x="416" 
d="M220 500q78 0 137 -32q24 -13 16 -27q-6 -11 -28 -2q-65 30 -125 30q-63 0 -95 -24t-32 -67q0 -41 31 -65t75 -35.5t87.5 -25t74.5 -43.5t31 -80q0 -64 -48 -101.5t-136 -37.5t-148 36q-25 14 -16 29q7 11 32 -1q66 -33 136 -33q66 0 106 28.5t40 76.5q0 41 -31 66
t-75 37l-87 25q-44 13 -75 42.5t-31 78.5q0 61 43 93t118 32zM361 690l-155 -104q-21 -16 -30 -3q-8 13 12 26l155 104q22 15 30 3t-12 -26z" />
    <glyph glyph-name="Scircumflex" unicode="&#x15c;" horiz-adv-x="536" 
d="M285 668q-83 0 -126 -36.5t-43 -94.5q0 -50 29 -85t72 -51l94 -35q51 -19 94 -37.5t72 -57.5t29 -95q0 -86 -59 -136t-170 -50q-109 0 -191 46q-42 23 -30 42q2 3 4.5 4.5t5.5 1.5t5.5 -0.5t7 -3t7.5 -4t8 -4.5t8 -5q80 -45 176 -45q90 0 141 38.5t51 110.5q0 50 -29 84
t-72 50l-94 35q-51 19 -94 37.5t-72 59t-29 98.5q0 73 52 119t153 46q100 0 170 -44q32 -20 23 -35q-3 -4 -7 -5.5t-11.5 1.5t-10.5 4.5t-14 7.5q-71 39 -150 39zM422 757l-134 83l-137 -84q-22 -13 -30 -1q-6 12 15 26l128 81q14 9 24.5 9t24.5 -9l127 -79q24 -16 15 -29
q-8 -13 -33 3z" />
    <glyph glyph-name="scircumflex" unicode="&#x15d;" horiz-adv-x="416" 
d="M220 500q78 0 137 -32q24 -13 16 -27q-6 -11 -28 -2q-65 30 -125 30q-63 0 -95 -24t-32 -67q0 -41 31 -65t75 -35.5t87.5 -25t74.5 -43.5t31 -80q0 -64 -48 -101.5t-136 -37.5t-148 36q-25 14 -16 29q7 11 32 -1q66 -33 136 -33q66 0 106 28.5t40 76.5q0 41 -31 66
t-75 37l-87 25q-44 13 -75 42.5t-31 78.5q0 61 43 93t118 32zM324 585l-112 95l-110 -94q-21 -17 -30 -5t11 28l108 90q13 10 22 10t23 -10l108 -89q22 -17 11 -30q-10 -12 -31 5z" />
    <glyph glyph-name="Scedilla" unicode="&#x15e;" horiz-adv-x="536" 
d="M216 -202q28 -12 60 -12q70 0 70 60q0 62 -93 62q-17 0 -14 17l16 66q-100 5 -169 45q-42 23 -30 42q2 3 4.5 4.5t5.5 1.5t5.5 -0.5t7 -3t7.5 -4t8 -4.5t8 -5q80 -45 176 -45q90 0 141 38.5t51 110.5q0 50 -29 84t-72 50l-94 35q-51 19 -94 37.5t-72 59t-29 98.5
q0 73 52 119t153 46q100 0 170 -44q32 -20 23 -35q-3 -4 -7 -5.5t-11.5 1.5t-10.5 4.5t-14 7.5q-71 39 -150 39q-83 0 -126 -36.5t-43 -94.5q0 -50 29 -85t72 -51l94 -35q51 -19 94 -37.5t72 -57.5t29 -95q0 -85 -57.5 -135t-165.5 -51l-14 -56q108 -4 108 -87
q0 -42 -26.5 -66t-75.5 -24q-44 0 -74 16q-20 9 -13 24q1 2 2.5 3.5t3.5 2t3.5 0.5t4.5 -0.5t4.5 -1t5 -2t4.5 -1.5z" />
    <glyph glyph-name="scedilla" unicode="&#x15f;" horiz-adv-x="416" 
d="M153 -202q29 -12 60 -12q70 0 70 60q0 62 -93 62q-17 0 -14 17l16 66q-80 3 -132 35q-25 14 -16 29q7 11 32 -1q66 -33 136 -33q66 0 106 28.5t40 76.5q0 41 -31 66t-74 37l-88 25q-44 13 -75 42.5t-31 78.5q0 61 43 93t118 32q78 0 137 -32q24 -13 16 -27q-6 -11 -28 -2
q-65 30 -125 30q-63 0 -95 -24t-32 -67q0 -41 31 -65t75 -35.5t87.5 -25t74.5 -43.5t31 -80q0 -61 -44.5 -98.5t-126.5 -40.5l-15 -56q108 -4 108 -87q0 -42 -26.5 -66t-75.5 -24q-44 0 -74 16q-20 9 -13 24q1 2 2.5 3.5t3.5 2t3.5 0.5t4.5 -0.5t4.5 -1t5 -2t4.5 -1.5z" />
    <glyph glyph-name="Scaron" unicode="&#x160;" horiz-adv-x="536" 
d="M285 668q-83 0 -126 -36.5t-43 -94.5q0 -50 29 -85t72 -51l94 -35q51 -19 94 -37.5t72 -57.5t29 -95q0 -86 -59 -136t-170 -50q-109 0 -191 46q-42 23 -30 42q2 3 4.5 4.5t5.5 1.5t5.5 -0.5t7 -3t7.5 -4t8 -4.5t8 -5q80 -45 176 -45q90 0 141 38.5t51 110.5q0 50 -29 84
t-72 50l-94 35q-51 19 -94 37.5t-72 59t-29 98.5q0 73 52 119t153 46q100 0 170 -44q32 -20 23 -35q-3 -4 -7 -5.5t-11.5 1.5t-10.5 4.5t-14 7.5q-71 39 -150 39zM160 865l132 -83l138 84q21 13 29 2q9 -12 -15 -27l-127 -81q-14 -9 -24.5 -9t-24.5 9l-125 79q-27 15 -17 30
q8 12 34 -4z" />
    <glyph glyph-name="scaron" unicode="&#x161;" horiz-adv-x="416" 
d="M220 500q78 0 137 -32q24 -13 16 -27q-6 -11 -28 -2q-65 30 -125 30q-63 0 -95 -24t-32 -67q0 -41 31 -65t75 -35.5t87.5 -25t74.5 -43.5t31 -80q0 -64 -48 -101.5t-136 -37.5t-148 36q-25 14 -16 29q7 11 32 -1q66 -33 136 -33q66 0 106 28.5t40 76.5q0 41 -31 66
t-75 37l-87 25q-44 13 -75 42.5t-31 78.5q0 61 43 93t118 32zM110 703l112 -95l110 94q20 18 30 5q10 -12 -11 -29l-108 -89q-13 -10 -22 -10t-23 10l-108 89q-21 17 -11 30q10 14 31 -5z" />
    <glyph glyph-name="Tcommaaccent" unicode="&#x162;" horiz-adv-x="583" 
d="M267 -251q54 46 54 99q0 44 -47 55q-20 6 -19 19q2 15 24 12q32 -3 53 -26t21 -58t-19.5 -69.5t-45.5 -53.5q-27 -20 -37 -9q-8 10 16 31zM554 658h-245v-639q0 -19 -18 -19q-17 0 -17 19v639h-245q-16 0 -16 16t16 16h525q16 0 16 -16t-16 -16z" />
    <glyph glyph-name="tcommaaccent" unicode="&#x163;" horiz-adv-x="291" 
d="M158 -242q53 42 53 93q0 41 -46 51q-10 2 -14.5 6t-3.5 11q1 13 25 12q29 -4 49 -24.5t20 -53.5q0 -34 -18.5 -65t-44.5 -49q-26 -17 -34 -6q-6 10 14 25zM68 145v446q0 19 16 19q17 0 17 -19v-101h146q16 0 16 -16q0 -15 -16 -15h-146v-301q0 -78 19 -107.5t75 -29.5
q34 0 70 18q22 11 28 -1q7 -14 -12 -25q-38 -23 -92 -23q-67 0 -94 35t-27 120z" />
    <glyph glyph-name="Tcaron" unicode="&#x164;" horiz-adv-x="583" 
d="M159 865l132 -83l138 84q21 13 29 2q9 -12 -15 -27l-127 -81q-14 -9 -24.5 -9t-24.5 9l-125 79q-27 15 -17 30q8 12 34 -4zM554 658h-245v-639q0 -19 -18 -19q-17 0 -17 19v639h-245q-16 0 -16 16t16 16h525q16 0 16 -16t-16 -16z" />
    <glyph glyph-name="tcaron" unicode="&#x165;" horiz-adv-x="306" 
d="M224 541q44 36 44 81q0 38 -42 49q-19 4 -16 18q2 13 24 10q29 -5 46.5 -24.5t17.5 -48.5q0 -62 -54 -104q-23 -18 -33 -7q-6 11 13 26zM68 145v446q0 19 16 19q17 0 17 -19v-101h146q16 0 16 -16q0 -15 -16 -15h-146v-301q0 -78 19 -107.5t75 -29.5q34 0 70 18
q22 11 28 -1q7 -14 -12 -25q-38 -23 -92 -23q-67 0 -94 35t-27 120z" />
    <glyph glyph-name="Umacron" unicode="&#x16a;" horiz-adv-x="664" 
d="M332 22q116 0 165 71t49 197v381q0 19 18 19q17 0 17 -19v-382q0 -299 -250 -299q-248 0 -248 299v382q0 19 17 19q18 0 18 -19v-381q0 -268 214 -268zM486 794h-285q-16 0 -16 14q0 15 16 15h285q15 0 15 -15q0 -14 -15 -14z" />
    <glyph glyph-name="umacron" unicode="&#x16b;" 
d="M101 471v-273q0 -84 32 -130.5t110 -46.5q99 0 146.5 81t47.5 222v147q0 19 17 19q16 0 16 -19v-452q0 -19 -16 -19q-17 0 -17 19v138q-17 -82 -70 -124.5t-126 -42.5q-91 0 -132 52.5t-41 154.5v274q0 19 16 19q17 0 17 -19zM397 618h-258q-15 0 -15 15t15 15h258
q16 0 16 -15t-16 -15z" />
    <glyph glyph-name="Ubreve" unicode="&#x16c;" horiz-adv-x="664" 
d="M332 22q116 0 165 71t49 197v381q0 19 18 19q17 0 17 -19v-382q0 -299 -250 -299q-248 0 -248 299v382q0 19 17 19q18 0 18 -19v-381q0 -268 214 -268zM338 765q-89 0 -135 64q-16 23 -4 33q12 9 28 -12q43 -55 111 -55q67 0 111 54q18 23 30 13q12 -9 -5 -33
q-48 -64 -136 -64z" />
    <glyph glyph-name="ubreve" unicode="&#x16d;" 
d="M101 471v-273q0 -84 32 -130.5t110 -46.5q99 0 146.5 81t47.5 222v147q0 19 17 19q16 0 16 -19v-452q0 -19 -16 -19q-17 0 -17 19v138q-17 -82 -70 -124.5t-126 -42.5q-91 0 -132 52.5t-41 154.5v274q0 19 16 19q17 0 17 -19zM268 588q-46 0 -79 21t-48 51q-12 23 2 30
q13 6 26 -15q35 -58 99 -58t100 57q14 22 26 16q13 -6 1 -29q-41 -73 -127 -73z" />
    <glyph glyph-name="Uring" unicode="&#x16e;" horiz-adv-x="664" 
d="M338 889q43 0 71 -22.5t28 -60.5t-27.5 -61t-71.5 -23t-71 23t-27 61t27.5 60.5t70.5 22.5zM338 864q-31 0 -50 -16t-19 -42q0 -25 19 -42t50 -17q32 0 51.5 16.5t19.5 42.5q0 25 -20 41.5t-51 16.5zM332 22q116 0 165 71t49 197v381q0 19 18 19q17 0 17 -19v-382
q0 -299 -250 -299q-248 0 -248 299v382q0 19 17 19q18 0 18 -19v-381q0 -268 214 -268z" />
    <glyph glyph-name="uring" unicode="&#x16f;" 
d="M101 471v-273q0 -84 32 -130.5t110 -46.5q99 0 146.5 81t47.5 222v147q0 19 17 19q16 0 16 -19v-452q0 -19 -16 -19q-17 0 -17 19v138q-17 -82 -70 -124.5t-126 -42.5q-91 0 -132 52.5t-41 154.5v274q0 19 16 19q17 0 17 -19zM268 743q42 0 66.5 -25t24.5 -65
t-24.5 -64.5t-66.5 -24.5q-41 0 -65.5 24.5t-24.5 64.5t24.5 65t65.5 25zM268 718q-28 0 -45.5 -18t-17.5 -46q0 -29 17.5 -47t45.5 -18t46 17.5t18 46.5q0 28 -18 46.5t-46 18.5z" />
    <glyph glyph-name="Uhungarumlaut" unicode="&#x170;" horiz-adv-x="664" 
d="M414 875l-184 -110q-24 -14 -32 -2q-9 14 16 28l183 108q23 13 31 2q8 -13 -14 -26zM591 875l-184 -110q-24 -14 -32 -2q-9 14 16 28l183 108q23 13 31 2q8 -13 -14 -26zM332 22q116 0 165 71t49 197v381q0 19 18 19q17 0 17 -19v-382q0 -299 -250 -299q-248 0 -248 299
v382q0 19 17 19q18 0 18 -19v-381q0 -268 214 -268z" />
    <glyph glyph-name="uhungarumlaut" unicode="&#x171;" 
d="M346 689l-154 -103q-21 -16 -30 -3q-8 13 12 26l157 105q20 14 28 2q8 -13 -13 -27zM486 689l-154 -103q-21 -16 -30 -3q-8 13 12 26l157 105q20 14 28 2q8 -13 -13 -27zM101 471v-273q0 -84 32 -130.5t110 -46.5q99 0 146.5 81t47.5 222v147q0 19 17 19q16 0 16 -19
v-452q0 -19 -16 -19q-17 0 -17 19v138q-17 -82 -70 -124.5t-126 -42.5q-91 0 -132 52.5t-41 154.5v274q0 19 16 19q17 0 17 -19z" />
    <glyph glyph-name="Uogonek" unicode="&#x172;" horiz-adv-x="664" 
d="M332 22q116 0 165 71t49 197v381q0 19 18 19q17 0 17 -19v-382q0 -229 -149 -282q-56 -20 -95 -65q-40 -46 -40 -95q0 -61 57 -61q19 0 39 11q18 11 23 1q8 -13 -12 -26q-21 -15 -50 -15q-39 0 -63.5 21.5t-24.5 64.5q0 82 79 147h-14q-248 0 -248 299v382q0 19 17 19
q18 0 18 -19v-381q0 -268 214 -268z" />
    <glyph glyph-name="uogonek" unicode="&#x173;" 
d="M101 471v-273q0 -84 32 -130.5t110 -46.5q99 0 146.5 81t47.5 222v147q0 19 17 19q16 0 16 -19v-452v-4q0 -2 -1 -4l-2 -3q0 -1 -1.5 -3t-2 -3t-3.5 -3l-3 -4q-1 -1 -4.5 -4t-4.5 -4q-29 -26 -54 -65t-25 -76q0 -60 55 -60q19 0 39 11q18 11 23 1q8 -13 -12 -26
q-21 -15 -50 -15q-39 0 -62.5 21t-23.5 64q0 46 28.5 93t70.5 81v141q-17 -82 -70 -124.5t-126 -42.5q-91 0 -132 52.5t-41 154.5v274q0 19 16 19q17 0 17 -19z" />
    <glyph glyph-name="Ydieresis" unicode="&#x178;" horiz-adv-x="551" 
d="M275 19v286l-235 349q-15 22 -1 32q15 10 31 -14l224 -331l218 334q14 21 28 12t-1 -30l-229 -349v-289q0 -19 -17 -19q-18 0 -18 19zM180 816q0 30 30 30q14 0 22.5 -8t8.5 -22q0 -29 -31 -29q-30 0 -30 29zM338 816q0 30 30 30q14 0 22.5 -8t8.5 -22q0 -29 -31 -29
q-30 0 -30 29z" />
    <glyph glyph-name="Zacute" unicode="&#x179;" horiz-adv-x="595" 
d="M537 0h-470q-14 0 -18 10.5t3 20.5l449 627h-419q-16 0 -16 16t16 16h446q14 0 17.5 -11t-4.5 -23l-447 -624h443q16 0 16 -16t-16 -16zM466 875l-184 -110q-24 -14 -32 -2q-9 14 16 28l183 108q23 16 31 3q9 -13 -14 -27z" />
    <glyph glyph-name="zacute" unicode="&#x17a;" horiz-adv-x="453" 
d="M407 0h-354q-13 0 -16 10t5 21l332 428h-300q-16 0 -16 16q0 15 16 15h326q16 0 19 -11t-5 -21l-333 -427h326q16 0 16 -16q0 -15 -16 -15zM362 690l-155 -104q-21 -16 -30 -3q-8 13 12 26l155 104q22 15 30 3t-12 -26z" />
    <glyph glyph-name="Zdotaccent" unicode="&#x17b;" horiz-adv-x="595" 
d="M537 0h-470q-14 0 -18 10.5t3 20.5l449 627h-419q-16 0 -16 16t16 16h446q14 0 17.5 -11t-4.5 -23l-447 -624h443q16 0 16 -16t-16 -16zM253 818q0 32 33 32t33 -32q0 -31 -33 -31t-33 31z" />
    <glyph glyph-name="zdotaccent" unicode="&#x17c;" horiz-adv-x="453" 
d="M407 0h-354q-13 0 -16 10t5 21l332 428h-300q-16 0 -16 16q0 15 16 15h326q16 0 19 -11t-5 -21l-333 -427h326q16 0 16 -16q0 -15 -16 -15zM205 636q0 29 28 29q13 0 20.5 -8t7.5 -21q0 -28 -28 -28t-28 28z" />
    <glyph glyph-name="Zcaron" unicode="&#x17d;" horiz-adv-x="595" 
d="M165 865l132 -83l138 84q21 13 29 2q9 -12 -15 -27l-127 -81q-14 -9 -24.5 -9t-24.5 9l-125 79q-27 15 -17 30q8 12 34 -4zM537 0h-470q-14 0 -18 10.5t3 20.5l449 627h-419q-16 0 -16 16t16 16h446q14 0 17.5 -11t-4.5 -23l-447 -624h443q16 0 16 -16t-16 -16z" />
    <glyph glyph-name="zcaron" unicode="&#x17e;" horiz-adv-x="453" 
d="M130 703l112 -95l110 94q20 18 30 5q10 -12 -11 -29l-108 -89q-13 -10 -22 -10t-23 10l-108 89q-21 17 -11 30q10 14 31 -5zM407 0h-354q-13 0 -16 10t5 21l332 428h-300q-16 0 -16 16q0 15 16 15h326q16 0 19 -11t-5 -21l-333 -427h326q16 0 16 -16q0 -15 -16 -15z" />
    <glyph glyph-name="uni018F" unicode="&#x18f;" horiz-adv-x="650" 
d="M311 668q-83 0 -178 -41q-26 -12 -32 0q-9 17 20 31q89 42 192 42q80 0 136 -26t88 -75t46 -110.5t14 -141.5q0 -69 -13 -128t-42.5 -113t-87 -85t-137.5 -31q-132 0 -198 79t-66 216q0 37 5 62q7 34 33 34h469q-6 138 -64.5 212.5t-184.5 74.5zM317 22q245 0 245 326
h-470q-6 -21 -6 -61q1 -130 61 -197.5t170 -67.5z" />
    <glyph glyph-name="florin" unicode="&#x192;" horiz-adv-x="546" 
d="M403 459h-149l-67 -480q-14 -96 -51 -142.5t-121 -46.5q-56 0 -90 19q-17 10 -11 24q6 13 26 4q42 -16 81 -16q60 0 90.5 39t40.5 113l75 537q14 96 52.5 143t122.5 47q55 0 92 -21q15 -9 9 -23q-6 -12 -26 -3q-44 16 -82 16q-61 0 -92 -39t-41 -113l-4 -27h145
q16 0 16 -16q0 -15 -16 -15z" />
    <glyph glyph-name="uni01CF" unicode="&#x1cf;" horiz-adv-x="201" 
d="M-22 865l132 -83l138 84q21 13 29 2q9 -12 -15 -27l-127 -81q-14 -9 -24.5 -9t-24.5 9l-125 79q-27 15 -17 30q8 12 34 -4zM93 19v652q0 19 17 19q18 0 18 -19v-652q0 -19 -18 -19q-17 0 -17 19z" />
    <glyph glyph-name="uni01D0" unicode="&#x1d0;" horiz-adv-x="169" 
d="M-16 703l112 -95l110 94q20 18 30 5q10 -12 -11 -29l-108 -89q-13 -10 -22 -10t-23 10l-108 89q-21 17 -11 30q10 14 31 -5zM78 19v452q0 19 16 19q17 0 17 -19v-452q0 -19 -17 -19q-16 0 -16 19z" />
    <glyph glyph-name="uni01DD" unicode="&#x1dd;" horiz-adv-x="486" 
d="M49 246q7 30 35 30h326q-11 193 -178 193q-61 0 -128 -29q-27 -12 -33 -1q-7 15 19 28q62 33 144 33q209 0 209 -254q0 -116 -50 -186t-158 -70q-95 0 -143.5 53.5t-48.5 147.5q0 32 6 55zM236 20q173 0 175 225h-331q-6 -27 -6 -55q0 -83 42 -126.5t120 -43.5z" />
    <glyph glyph-name="Gcaron" unicode="&#x1e6;" horiz-adv-x="662" 
d="M376 668q-135 0 -211 -91.5t-76 -233.5q0 -151 74.5 -236t209.5 -85q57 0 112.5 17t90.5 46v214h-179q-16 0 -16 16t16 16h194q18 0 18 -19v-225q0 -16 -12 -25q-33 -29 -95 -50.5t-130 -21.5q-160 0 -239.5 95.5t-79.5 258.5q0 159 87.5 257.5t236.5 98.5
q110 -1 181 -44q29 -17 19 -32q-8 -11 -39 5q-75 39 -162 39zM233 865l132 -83l138 84q21 13 29 2q9 -12 -15 -27l-127 -81q-14 -9 -24.5 -9t-24.5 9l-125 79q-27 15 -17 30q8 12 34 -4z" />
    <glyph glyph-name="gcaron" unicode="&#x1e7;" horiz-adv-x="508" 
d="M484 464h-108q63 -46 63 -132q0 -72 -48.5 -119t-139.5 -47q-74 0 -122 32q-45 -28 -45 -66q0 -33 39.5 -51t145.5 -22q42 -2 70.5 -5t58 -10.5t47 -19.5t28.5 -32.5t11 -48.5q0 -69 -64 -111t-184 -42q-213 0 -213 135q0 83 93 125q-64 22 -64 80q0 50 54 87
q-43 44 -43 115q0 73 48.5 120.5t139.5 47.5q37 0 72 -10h161q16 0 16 -13t-16 -13zM255 29q-53 1 -100 10q-99 -36 -99 -114q0 -44 40.5 -75t138.5 -31q109 0 162.5 34.5t53.5 83.5q0 48 -43 67.5t-153 24.5zM96 332q0 -59 39.5 -98t115.5 -39t115.5 39t39.5 98t-39.5 98.5
t-115.5 39.5t-115.5 -39t-39.5 -99zM140 703l112 -95l110 94q20 18 30 5q10 -12 -11 -29l-108 -89q-13 -10 -22 -10t-23 10l-108 89q-21 17 -11 30q10 14 31 -5z" />
    <glyph glyph-name="Scommaaccent" unicode="&#x218;" horiz-adv-x="536" 
d="M259 -251q54 46 54 99q0 44 -47 55q-20 6 -19 19q2 15 24 12q32 -3 53 -26t21 -58t-19.5 -69.5t-45.5 -53.5q-27 -20 -37 -9q-8 10 16 31zM285 668q-83 0 -126 -36.5t-43 -94.5q0 -50 29 -85t72 -51l94 -35q51 -19 94 -37.5t72 -57.5t29 -95q0 -86 -59 -136t-170 -50
q-109 0 -191 46q-42 23 -30 42q2 3 4.5 4.5t5.5 1.5t5.5 -0.5t7 -3t7.5 -4t8 -4.5t8 -5q80 -45 176 -45q90 0 141 38.5t51 110.5q0 50 -29 84t-72 50l-94 35q-51 19 -94 37.5t-72 59t-29 98.5q0 73 52 119t153 46q100 0 170 -44q32 -20 23 -35q-3 -4 -7 -5.5t-11.5 1.5
t-10.5 4.5t-14 7.5q-71 39 -150 39z" />
    <glyph glyph-name="scommaaccent" unicode="&#x219;" horiz-adv-x="416" 
d="M180 -242q53 42 53 93q0 41 -46 51q-10 2 -14.5 6t-3.5 11q1 13 25 12q29 -4 49 -24.5t20 -53.5q0 -34 -18.5 -65t-44.5 -49q-26 -17 -34 -6q-6 10 14 25zM220 500q78 0 137 -32q24 -13 16 -27q-6 -11 -28 -2q-65 30 -125 30q-63 0 -95 -24t-32 -67q0 -41 31 -65
t75 -35.5t87.5 -25t74.5 -43.5t31 -80q0 -64 -48 -101.5t-136 -37.5t-148 36q-25 14 -16 29q7 11 32 -1q66 -33 136 -33q66 0 106 28.5t40 76.5q0 41 -31 66t-75 37l-87 25q-44 13 -75 42.5t-31 78.5q0 61 43 93t118 32z" />
    <glyph glyph-name="uni021A" unicode="&#x21a;" horiz-adv-x="583" 
d="M265 -251q54 46 54 99q0 44 -47 55q-20 6 -19 19q2 15 24 12q32 -3 53 -26t21 -58t-19.5 -69.5t-45.5 -53.5q-27 -20 -37 -9q-8 10 16 31zM554 658h-245v-639q0 -19 -18 -19q-17 0 -17 19v639h-245q-16 0 -16 16t16 16h525q16 0 16 -16t-16 -16z" />
    <glyph glyph-name="uni021B" unicode="&#x21b;" horiz-adv-x="291" 
d="M158 -242q53 42 53 93q0 41 -46 51q-10 2 -14.5 6t-3.5 11q1 13 25 12q29 -4 49 -24.5t20 -53.5q0 -34 -18.5 -65t-44.5 -49q-26 -17 -34 -6q-6 10 14 25zM68 145v446q0 19 16 19q17 0 17 -19v-101h146q16 0 16 -16q0 -15 -16 -15h-146v-301q0 -78 19 -107.5t75 -29.5
q34 0 70 18q22 11 28 -1q7 -14 -12 -25q-38 -23 -92 -23q-67 0 -94 35t-27 120z" />
    <glyph glyph-name="uni0259" unicode="&#x259;" horiz-adv-x="486" 
d="M49 246q7 30 35 30h326q-11 193 -178 193q-61 0 -128 -29q-27 -12 -33 -1q-7 15 19 28q62 33 144 33q209 0 209 -254q0 -116 -50 -186t-158 -70q-95 0 -143.5 53.5t-48.5 147.5q0 32 6 55zM236 20q173 0 175 225h-331q-6 -27 -6 -55q0 -83 42 -126.5t120 -43.5z" />
    <glyph glyph-name="circumflex" unicode="&#x2c6;" horiz-adv-x="525" 
d="M381 585l-112 95l-110 -94q-21 -17 -30 -5t11 28l108 90q13 10 22 10t23 -10l108 -89q22 -17 11 -30q-10 -12 -31 5z" />
    <glyph glyph-name="caron" unicode="&#x2c7;" horiz-adv-x="525" 
d="M161 703l112 -95l110 94q20 18 30 5q10 -12 -11 -29l-108 -89q-13 -10 -22 -10t-23 10l-108 89q-21 17 -11 30q10 14 31 -5z" />
    <glyph glyph-name="breve" unicode="&#x2d8;" horiz-adv-x="525" 
d="M274 588q-46 0 -79 21t-48 51q-12 23 2 30q13 6 26 -15q35 -58 99 -58t100 57q14 22 26 16q13 -6 1 -29q-41 -73 -127 -73z" />
    <glyph glyph-name="dotaccent" unicode="&#x2d9;" horiz-adv-x="525" 
d="M234 636q0 29 28 29q13 0 20.5 -8t7.5 -21q0 -28 -28 -28t-28 28z" />
    <glyph glyph-name="ring" unicode="&#x2da;" horiz-adv-x="525" 
d="M237 743q42 0 66.5 -25t24.5 -65t-24.5 -64.5t-66.5 -24.5q-41 0 -65.5 24.5t-24.5 64.5t24.5 65t65.5 25zM237 718q-28 0 -45.5 -18t-17.5 -46q0 -29 17.5 -47t45.5 -18q29 0 46.5 17.5t17.5 46.5q0 28 -18 46.5t-46 18.5z" />
    <glyph glyph-name="ogonek" unicode="&#x2db;" horiz-adv-x="257" 
d="M163 -13q-28 -24 -53.5 -64t-25.5 -77q0 -60 55 -60q19 0 39 11q18 11 23 1q8 -13 -12 -26q-21 -15 -50 -15q-39 0 -62.5 21t-23.5 64t27 88.5t64 76.5q27 23 36 11q7 -9 -13 -28q-3 -2 -4 -3z" />
    <glyph glyph-name="tilde" unicode="&#x2dc;" horiz-adv-x="525" 
d="M336 589q-30 0 -68.5 27t-57.5 27q-24 0 -55 -31q-16 -16 -26 -10q-12 10 3 27q38 44 80 44q29 0 68.5 -27t58.5 -27q26 0 55 31q15 17 26 9q10 -8 -3 -27q-34 -43 -81 -43z" />
    <glyph glyph-name="hungarumlaut" unicode="&#x2dd;" horiz-adv-x="525" 
d="M286 689l-154 -103q-21 -16 -30 -3q-8 13 12 26l157 105q20 14 28 2q8 -13 -13 -27zM426 689l-154 -103q-21 -16 -30 -3q-8 13 12 26l157 105q20 14 28 2q8 -13 -13 -27z" />
    <glyph glyph-name="pi" unicode="&#x3c0;" horiz-adv-x="554" 
d="M90 19v440h-51q-16 0 -16 16q0 15 16 15h476q16 0 16 -15q0 -16 -16 -16h-51v-440q0 -19 -17 -19q-16 0 -16 19v440h-308v-440q0 -19 -17 -19q-16 0 -16 19z" />
    <glyph glyph-name="afii10023" unicode="&#x401;" horiz-adv-x="535" 
d="M491 0h-388q-9 0 -14.5 6t-5.5 14v650q0 20 19 20h381q16 0 16 -16t-16 -16h-365v-282h306q16 0 16 -16t-16 -16h-306v-312h373q16 0 16 -16t-16 -16zM181 816q0 30 30 30q14 0 22.5 -8t8.5 -22q0 -29 -31 -29q-30 0 -30 29zM339 816q0 30 30 30q14 0 22.5 -8t8.5 -22
q0 -29 -31 -29q-30 0 -30 29z" />
    <glyph glyph-name="afii10051" unicode="&#x402;" horiz-adv-x="749" 
d="M483 -8q-68 0 -111 17q-22 9 -18 24q4 16 29 7q52 -16 101 -16q186 0 186 181q0 177 -215 177q-86 0 -146 -17v-346q0 -19 -18 -19q-17 0 -17 19v639h-245q-16 0 -16 16t16 16h525q16 0 16 -16t-16 -16h-245v-261q66 17 149 17q248 0 248 -208q0 -103 -56 -158.5
t-167 -55.5z" />
    <glyph glyph-name="afii10052" unicode="&#x403;" horiz-adv-x="458" 
d="M368 875l-184 -110q-24 -14 -32 -2q-9 14 16 28l183 108q23 16 31 3q9 -13 -14 -27zM434 658h-316v-639q0 -19 -18 -19q-17 0 -17 19v651q0 20 18 20h333q16 0 16 -16t-16 -16z" />
    <glyph glyph-name="afii10053" unicode="&#x404;" horiz-adv-x="632" 
d="M376 668q-128 0 -203.5 -83.5t-83.5 -215.5h422q16 0 16 -16t-16 -16h-422q1 -148 77 -231.5t203 -83.5q101 0 180 54q27 19 36 9q10 -13 -18 -35q-77 -60 -200 -60q-157 0 -235.5 96t-78.5 258q0 159 87.5 257.5t236.5 98.5q110 -1 181 -44q28 -16 19 -31q-7 -13 -39 4
q-75 39 -162 39z" />
    <glyph glyph-name="afii10054" unicode="&#x405;" horiz-adv-x="536" 
d="M285 668q-83 0 -126 -36.5t-43 -94.5q0 -50 29 -85t72 -51l94 -35q51 -19 94 -37.5t72 -57.5t29 -95q0 -86 -59 -136t-170 -50q-109 0 -191 46q-42 23 -30 42q2 3 4.5 4.5t5.5 1.5t5.5 -0.5t7 -3t7.5 -4t8 -4.5t8 -5q80 -45 176 -45q90 0 141 38.5t51 110.5q0 50 -29 84
t-72 50l-94 35q-51 19 -94 37.5t-72 59t-29 98.5q0 73 52 119t153 46q100 0 170 -44q32 -20 23 -35q-3 -4 -7 -5.5t-11.5 1.5t-10.5 4.5t-14 7.5q-71 39 -150 39z" />
    <glyph glyph-name="afii10055" unicode="&#x406;" horiz-adv-x="201" 
d="M83 19v652q0 19 17 19q18 0 18 -19v-652q0 -19 -18 -19q-17 0 -17 19z" />
    <glyph glyph-name="afii10056" unicode="&#x407;" horiz-adv-x="201" 
d="M6 815q0 29 28 29q13 0 20.5 -8.5t7.5 -20.5q0 -28 -28 -28t-28 28zM138 815q0 12 7.5 20.5t20.5 8.5q14 0 21.5 -8t7.5 -21q0 -28 -29 -28q-28 0 -28 28zM83 7v652q0 19 17 19q18 0 18 -19v-652q0 -19 -18 -19q-17 0 -17 19z" />
    <glyph glyph-name="afii10057" unicode="&#x408;" horiz-adv-x="330" 
d="M-7 38q6 10 31 2q43 -18 88 -18q108 0 108 132v517q0 19 18 19q17 0 17 -19v-522q0 -159 -141 -159q-65 0 -107 21q-22 12 -14 27z" />
    <glyph glyph-name="afii10058" unicode="&#x409;" horiz-adv-x="953" 
d="M664 -5q-94 0 -149 9q-18 3 -18 23v631h-290q-7 -417 -72 -570q-40 -93 -113 -93q-46 0 -42 25q1 7 5.5 10t9 3.5t13 -0.5t11.5 -1q54 0 84 69q69 165 69 572q0 17 16 17h326q18 0 18 -19v-268q62 11 131 11q251 0 251 -206q0 -102 -63 -157.5t-187 -55.5zM664 27
q214 0 214 180q0 175 -217 175q-72 0 -129 -11v-337q51 -7 132 -7z" />
    <glyph glyph-name="afii10059" unicode="&#x40a;" horiz-adv-x="1034" 
d="M741 -5q-94 0 -149 9q-18 3 -18 23v312h-456v-320q0 -19 -18 -19q-17 0 -17 19v652q0 19 17 19q18 0 18 -19v-300h456v300q0 19 17 19q18 0 18 -19v-268q62 11 131 11q251 0 251 -206q0 -102 -63 -157.5t-187 -55.5zM741 27q214 0 214 180q0 175 -217 175q-72 0 -129 -11
v-337q51 -7 132 -7z" />
    <glyph glyph-name="afii10060" unicode="&#x40b;" horiz-adv-x="764" 
d="M554 658h-239v-303q40 35 96 57.5t109 22.5q107 0 157 -52t50 -182v-182q0 -19 -17 -19q-18 0 -18 19v172q0 116 -39.5 164t-133.5 48q-53 0 -108.5 -23.5t-95.5 -61.5v-299q0 -19 -17 -19q-18 0 -18 19v639h-251q-16 0 -16 16t16 16h525q16 0 16 -16t-16 -16z" />
    <glyph glyph-name="afii10061" unicode="&#x40c;" horiz-adv-x="518" 
d="M83 19v652q0 19 17 19q18 0 18 -19v-310l328 316q20 20 32 8q12 -11 -9 -32l-315 -301l338 -315q20 -19 9 -32t-34 8l-349 324v-318q0 -19 -18 -19q-17 0 -17 19zM433 875l-184 -110q-24 -14 -32 -2q-9 14 16 28l183 108q23 16 31 3q9 -13 -14 -27z" />
    <glyph glyph-name="afii10062" unicode="&#x40e;" horiz-adv-x="572" 
d="M313 157l-275 494q-17 28 -1 36q16 9 31 -17l263 -476l198 474q11 26 27 20q14 -6 4 -31l-194 -459q-21 -50 -32 -74t-28.5 -55.5t-32 -45t-36 -23.5t-47.5 -10q-49 0 -86 21q-23 14 -16 29q3 6 8.5 7t9.5 0l14 -6q42 -19 71 -19q41 0 67.5 33.5t54.5 101.5zM287 765
q-89 0 -135 64q-16 23 -4 33q12 9 28 -12q43 -55 111 -55q67 0 111 54q18 23 30 13q12 -9 -5 -33q-48 -64 -136 -64z" />
    <glyph glyph-name="afii10145" unicode="&#x40f;" horiz-adv-x="665" 
d="M547 32v639q0 19 17 19q18 0 18 -19v-652q0 -19 -18 -19h-217v-132q0 -19 -16 -19t-16 19v132h-215q-17 0 -17 19v652q0 19 17 19q18 0 18 -19v-639h429z" />
    <glyph glyph-name="afii10017" unicode="&#x410;" horiz-adv-x="599" 
d="M331 680l256 -646q11 -26 -4 -33q-19 -8 -29 19l-82 207h-327l-79 -203q-11 -30 -28 -23q-15 5 -4 33l252 644q9 22 23 22t22 -20zM307 648l-150 -389h303z" />
    <glyph glyph-name="afii10018" unicode="&#x411;" horiz-adv-x="551" 
d="M249 -5q-89 0 -148 9q-18 3 -18 21v646q0 19 18 19h330q16 0 16 -16t-16 -16h-313v-264q75 11 130 11q244 0 244 -200q0 -210 -243 -210zM246 373q-69 0 -128 -11v-327q48 -8 131 -8q110 0 158.5 45t48.5 132q0 169 -210 169z" />
    <glyph glyph-name="afii10019" unicode="&#x412;" horiz-adv-x="580" 
d="M251 695q115 0 178.5 -38t63.5 -130q0 -61 -30 -106.5t-96 -59.5q82 -7 121 -54t39 -118q0 -194 -265 -194q-100 0 -162 11q-17 3 -17 21v632q0 22 18 25q61 11 150 11zM276 341h-158v-305q64 -9 144 -9q111 0 170 36.5t59 124.5q0 83 -54 118t-161 35zM242 663
q-65 0 -124 -8v-284h151q188 0 188 156q0 74 -56 105t-159 31z" />
    <glyph glyph-name="afii10020" unicode="&#x413;" horiz-adv-x="458" 
d="M434 658h-316v-639q0 -19 -18 -19q-17 0 -17 19v651q0 20 18 20h333q16 0 16 -16t-16 -16z" />
    <glyph glyph-name="afii10021" unicode="&#x414;" horiz-adv-x="710" 
d="M13 -132v145q0 8 5 13.5t12 5.5h56q60 98 84 256.5t28 384.5q0 17 16 17h337q18 0 18 -19v-639h80q18 0 18 -17v-147q0 -19 -16 -19t-16 19v132h-590v-132q0 -19 -16 -19t-16 19zM126 32h408v626h-301q-3 -92 -6 -148.5t-13.5 -156.5t-32.5 -181t-55 -140z" />
    <glyph glyph-name="afii10022" unicode="&#x415;" horiz-adv-x="535" 
d="M491 0h-388q-9 0 -14.5 6t-5.5 14v650q0 20 19 20h381q16 0 16 -16t-16 -16h-365v-282h306q16 0 16 -16t-16 -16h-306v-312h373q16 0 16 -16t-16 -16z" />
    <glyph glyph-name="afii10024" unicode="&#x416;" horiz-adv-x="794" 
d="M392 19v320l-328 -326q-22 -20 -34 -8q-13 13 8 32l317 312l-288 301q-22 22 -7 35q14 14 37 -11l295 -316v313q0 19 18 19q17 0 17 -19v-313l298 317q22 24 35 11q12 -12 -9 -33l-287 -303l317 -310q21 -21 8 -35q-11 -13 -34 8l-328 326v-320q0 -19 -17 -19
q-18 0 -18 19z" />
    <glyph glyph-name="afii10025" unicode="&#x417;" horiz-adv-x="550" 
d="M86 22q-34 15 -24 32q1 2 2.5 3.5t3.5 2t3.5 1t4.5 0t5 -1t5 -1.5t5 -2t5.5 -2.5t5.5 -2.5q75 -29 161 -29q96 0 152 44t56 121q0 149 -202 151h-82q-16 0 -16 16t16 16h77q85 0 134.5 41.5t49.5 113.5q0 65 -42.5 104t-127.5 39q-83 0 -161 -35q-34 -16 -40 -4
q-8 16 25 32q82 39 178 39q94 0 149 -42.5t55 -129.5q0 -135 -137 -171q81 -8 120.5 -54.5t39.5 -113.5q0 -97 -67 -148t-176 -51q-108 0 -178 32z" />
    <glyph glyph-name="afii10026" unicode="&#x418;" horiz-adv-x="693" 
d="M118 671v-608l453 611q11 16 22 16q17 0 17 -21v-650q0 -19 -18 -19q-17 0 -17 19v607l-455 -613q-11 -13 -21 -13q-16 0 -16 20v651q0 19 17 19q18 0 18 -19z" />
    <glyph glyph-name="afii10027" unicode="&#x419;" horiz-adv-x="693" 
d="M118 671v-608l453 611q11 16 22 16q17 0 17 -21v-650q0 -19 -18 -19q-17 0 -17 19v607l-455 -613q-11 -13 -21 -13q-16 0 -16 20v651q0 19 17 19q18 0 18 -19zM345 765q-89 0 -135 64q-16 23 -4 33q12 9 28 -12q43 -55 111 -55q67 0 111 54q18 23 30 13q12 -9 -5 -33
q-48 -64 -136 -64z" />
    <glyph glyph-name="afii10028" unicode="&#x41a;" horiz-adv-x="518" 
d="M83 19v652q0 19 17 19q18 0 18 -19v-310l328 316q20 20 32 8q12 -11 -9 -32l-315 -301l338 -315q20 -19 9 -32t-34 8l-349 324v-318q0 -19 -18 -19q-17 0 -17 19z" />
    <glyph glyph-name="afii10029" unicode="&#x41b;" horiz-adv-x="611" 
d="M19 32q54 0 84 69q69 165 69 572q0 17 16 17h326q18 0 18 -19v-652q0 -19 -17 -19q-18 0 -18 19v639h-290q-7 -417 -72 -570q-40 -93 -113 -93q-46 0 -42 25q1 7 5.5 10t9 3.5t13 -0.5t11.5 -1z" />
    <glyph glyph-name="afii10030" unicode="&#x41c;" horiz-adv-x="772" 
d="M387 261l263 412q11 17 22 17q17 0 17 -21v-650q0 -19 -17 -19q-18 0 -18 19v606l-248 -393q-9 -14 -21.5 -14t-21.5 14l-247 388v-601q0 -19 -17 -19q-16 0 -16 19v650q0 21 17 21q13 0 23 -17z" />
    <glyph glyph-name="afii10031" unicode="&#x41d;" horiz-adv-x="692" 
d="M574 371v300q0 19 18 19q17 0 17 -19v-652q0 -19 -17 -19q-18 0 -18 19v320h-456v-320q0 -19 -18 -19q-17 0 -17 19v652q0 19 17 19q18 0 18 -19v-300h456z" />
    <glyph glyph-name="afii10032" unicode="&#x41e;" horiz-adv-x="753" 
d="M53 345q0 155 85.5 255t238.5 100q152 0 237.5 -100t85.5 -255q0 -156 -85 -255.5t-238 -99.5t-238.5 99.5t-85.5 255.5zM89 345q0 -143 77 -233t211 -90q133 0 210 90t77 233t-77 233t-210 90q-134 0 -211 -90t-77 -233z" />
    <glyph glyph-name="afii10033" unicode="&#x41f;" horiz-adv-x="665" 
d="M547 19v639h-429v-639q0 -19 -18 -19q-17 0 -17 19v652q0 19 17 19h464q18 0 18 -19v-652q0 -19 -18 -19q-17 0 -17 19z" />
    <glyph glyph-name="afii10034" unicode="&#x420;" 
d="M500 490q0 -111 -70.5 -163.5t-189.5 -52.5q-68 0 -122 9v-264q0 -19 -18 -19q-17 0 -17 19v641q0 20 18 23q74 12 154 12q245 0 245 -205zM255 663q-73 0 -137 -10v-338q51 -9 124 -9q222 0 222 184q0 173 -209 173z" />
    <glyph glyph-name="afii10035" unicode="&#x421;" horiz-adv-x="632" 
d="M376 668q-135 0 -211 -92t-76 -234q0 -150 76 -235t204 -85q101 0 180 54q27 19 36 9q10 -13 -18 -35q-77 -60 -200 -60q-157 0 -235.5 96t-78.5 258q0 159 87.5 257.5t236.5 98.5q110 -1 181 -44q28 -16 19 -31q-7 -13 -39 4q-75 39 -162 39z" />
    <glyph glyph-name="afii10036" unicode="&#x422;" horiz-adv-x="583" 
d="M554 658h-245v-639q0 -19 -18 -19q-17 0 -17 19v639h-245q-16 0 -16 16t16 16h525q16 0 16 -16t-16 -16z" />
    <glyph glyph-name="afii10037" unicode="&#x423;" horiz-adv-x="572" 
d="M313 157l-275 494q-17 28 -1 36q16 9 31 -17l263 -476l198 474q11 26 27 20q14 -6 4 -31l-194 -459q-21 -50 -32 -74t-28.5 -55.5t-32 -45t-36 -23.5t-47.5 -10q-49 0 -86 21q-23 14 -16 29q3 6 8.5 7t9.5 0l14 -6q42 -19 71 -19q41 0 67.5 33.5t54.5 101.5z" />
    <glyph glyph-name="afii10038" unicode="&#x424;" horiz-adv-x="785" 
d="M732 369q0 -132 -85 -201.5t-237 -69.5v-92q0 -19 -18 -19q-17 0 -17 19v92q-153 0 -237.5 69.5t-84.5 201.5t84.5 201t237.5 69v71q0 19 17 19q18 0 18 -19v-71q152 0 237 -69t85 -201zM696 369q0 120 -77.5 181t-211.5 61v-485q134 0 211.5 61t77.5 182zM89 369
q0 -121 77 -182t211 -61v485q-134 0 -211 -61t-77 -181z" />
    <glyph glyph-name="afii10039" unicode="&#x425;" horiz-adv-x="598" 
d="M100 673l210 -287l210 287q17 23 31 14t-4 -33l-216 -292l240 -324q19 -24 3 -34q-15 -11 -32 12l-233 317l-233 -316q-19 -26 -32 -14q-11 10 5 32l239 324l-218 293q-17 23 -3 34q14 12 33 -13z" />
    <glyph glyph-name="afii10040" unicode="&#x426;" horiz-adv-x="716" 
d="M540 32v639q0 19 18 19q17 0 17 -19v-639h81q17 0 17 -17v-147q0 -19 -16 -19t-16 19v132h-541q-17 0 -17 17v654q0 19 17 19q18 0 18 -19v-639h422z" />
    <glyph glyph-name="afii10041" unicode="&#x427;" horiz-adv-x="573" 
d="M455 19v316q-40 -35 -96 -57.5t-109 -22.5q-107 0 -157 52t-50 182v182q0 19 17 19q18 0 18 -19v-172q0 -116 39.5 -164t133.5 -48q53 0 108.5 23.5t95.5 61.5v299q0 19 17 19q18 0 18 -19v-652q0 -19 -18 -19q-17 0 -17 19z" />
    <glyph glyph-name="afii10042" unicode="&#x428;" horiz-adv-x="918" 
d="M441 32v639q0 19 18 19q17 0 17 -19v-639h324v639q0 19 18 19q17 0 17 -19v-651q0 -20 -21 -20h-714q-17 0 -17 19v652q0 19 17 19q18 0 18 -19v-639h323z" />
    <glyph glyph-name="afii10043" unicode="&#x429;" horiz-adv-x="976" 
d="M800 32v639q0 19 17 19q18 0 18 -19v-639h80q18 0 18 -17v-147q0 -19 -16 -19t-16 19v132h-801q-17 0 -17 17v654q0 19 17 19q18 0 18 -19v-639h323v639q0 19 18 19q17 0 17 -19v-639h324z" />
    <glyph glyph-name="afii10044" unicode="&#x42a;" horiz-adv-x="647" 
d="M356 -5q-94 0 -149 9q-18 3 -18 23v630h-170q-16 0 -16 16q0 17 16 17h188q17 0 17 -19v-268q62 11 131 11q251 0 251 -206q0 -102 -63 -157.5t-187 -55.5zM356 27q214 0 214 180q0 175 -217 175q-72 0 -129 -11v-337q51 -7 132 -7z" />
    <glyph glyph-name="afii10045" unicode="&#x42b;" horiz-adv-x="749" 
d="M631 19v652q0 19 18 19q17 0 17 -19v-652q0 -19 -17 -19q-18 0 -18 19zM248 -5q-92 0 -147 9q-18 3 -18 23v644q0 19 17 19q18 0 18 -19v-268q62 11 129 11q244 0 244 -206q0 -102 -61 -157.5t-182 -55.5zM248 27q207 0 207 180q0 175 -210 175q-70 0 -127 -11v-337
q51 -7 130 -7z" />
    <glyph glyph-name="afii10046" unicode="&#x42c;" horiz-adv-x="543" 
d="M250 -5q-94 0 -149 9q-18 3 -18 23v644q0 19 17 19q18 0 18 -19v-268q62 11 131 11q251 0 251 -206q0 -102 -63 -157.5t-187 -55.5zM250 27q214 0 214 180q0 175 -217 175q-72 0 -129 -11v-337q51 -7 132 -7z" />
    <glyph glyph-name="afii10047" unicode="&#x42d;" horiz-adv-x="629" 
d="M283 668q-85 0 -174 -41q-28 -12 -34 -2q-9 14 16 28q85 47 194 47q150 0 224.5 -94t74.5 -252q0 -166 -80 -265t-239 -99q-107 0 -177 33q-33 15 -25 32q6 13 36 -1q72 -32 164 -32q144 0 212.5 86.5t72.5 229.5h-381q-16 0 -16 16t16 16h381q-4 138 -72.5 218
t-192.5 80z" />
    <glyph glyph-name="afii10048" unicode="&#x42e;" horiz-adv-x="959" 
d="M83 19v652q0 19 17 19q18 0 18 -19v-308h161q5 150 85.5 243.5t228.5 93.5q152 0 232.5 -99t80.5 -256t-80.5 -256t-232.5 -99q-149 0 -229.5 94.5t-84.5 246.5h-161v-312q0 -19 -18 -19q-17 0 -17 19zM315 345q0 -145 72.5 -234t205.5 -89q132 0 204.5 89t72.5 234
t-72.5 234t-204.5 89q-133 0 -205.5 -89t-72.5 -234z" />
    <glyph glyph-name="afii10049" unicode="&#x42f;" horiz-adv-x="585" 
d="M518 662v-642q0 -20 -18 -20q-17 0 -17 19v271q-54 -7 -108 -7q-52 0 -90 7l-154 -268q-17 -29 -34 -20q-16 9 0 35l153 262q-138 39 -138 189q0 108 67.5 157.5t183.5 49.5q78 0 137 -11q18 -3 18 -22zM361 663q-213 0 -213 -174t227 -174q65 0 108 7v332q-54 9 -122 9z
" />
    <glyph glyph-name="afii10065" unicode="&#x430;" horiz-adv-x="491" 
d="M98 437q-24 -10 -29 3q-6 14 14 24q72 36 160 36q180 0 180 -174v-307q0 -19 -17 -19q-16 0 -16 19v118q-22 -64 -77 -105.5t-137 -41.5q-71 0 -113.5 36t-42.5 104q0 45 19.5 78.5t53.5 51t71 25.5t79 8q77 0 147 -14v43q0 147 -150 147q-63 0 -142 -32zM181 21
q95 0 152 65.5t57 141.5v22q-81 13 -142 13q-88 0 -141 -33t-53 -99q0 -51 33 -80.5t94 -29.5z" />
    <glyph glyph-name="afii10066" unicode="&#x431;" horiz-adv-x="543" 
d="M432 666q-25 -12 -71 -30t-72 -29l-46 -20q-12 -6 -41 -22t-41.5 -28t-32.5 -35t-29 -47.5t-17 -60t-9 -77.5q24 78 82.5 115t126.5 37q105 0 161.5 -67t56.5 -173q0 -104 -62 -171.5t-167 -67.5q-56 0 -97 16.5t-66 43t-39.5 67.5t-19.5 82t-5 94q0 137 51 214t192 133
q14 6 41 16l50 20q22 9 40 17q27 13 33 0q6 -14 -19 -27zM81 229q0 -93 48.5 -150.5t141.5 -57.5q89 0 142 57.5t53 150.5q0 92 -49 150.5t-141 58.5q-85 0 -140 -57.5t-55 -151.5z" />
    <glyph glyph-name="afii10067" unicode="&#x432;" horiz-adv-x="474" 
d="M68 26v436q0 19 17 22q58 10 128 10q186 0 186 -122q0 -41 -23 -75.5t-79 -45.5q65 -2 97 -35.5t32 -81.5q0 -139 -208 -139q-84 0 -133 9q-17 4 -17 22zM235 233h-134v-199q53 -8 118 -8q93 0 133 26t40 81q0 50 -37 75t-120 25zM211 463q-47 0 -110 -7v-194h125
q75 0 107 30t32 76q0 52 -38.5 73.5t-115.5 21.5z" />
    <glyph glyph-name="afii10068" unicode="&#x433;" horiz-adv-x="357" 
d="M338 459h-237v-440q0 -19 -17 -19q-16 0 -16 19v452q0 19 17 19h253q16 0 16 -16q0 -15 -16 -15z" />
    <glyph glyph-name="afii10069" unicode="&#x434;" horiz-adv-x="546" 
d="M10 -106v122q0 15 14 15h43q85 126 85 441q0 18 16 18h253q20 0 20 -19v-440h56q16 0 16 -16v-121q0 -19 -15 -19q-16 0 -16 19v106h-441v-106q0 -19 -16 -19q-15 0 -15 19zM185 459q-6 -289 -80 -428h303v428h-223z" />
    <glyph glyph-name="afii10070" unicode="&#x435;" horiz-adv-x="505" 
d="M274 21q75 0 142 42q19 11 26 0q9 -12 -10 -26q-64 -47 -158 -47q-115 0 -173 66t-58 187q0 114 61 185.5t166 71.5q94 0 143 -54.5t49 -131.5q0 -37 -5 -57q-6 -29 -31 -29h-349q0 -97 53 -152t144 -55zM267 469q-83 0 -136.5 -58t-53.5 -153h350q4 19 4 54
q-1 73 -44 115t-120 42z" />
    <glyph glyph-name="afii10072" unicode="&#x436;" horiz-adv-x="599" 
d="M296 19v224l-230 -229q-21 -21 -34 -10q-14 12 6 32l227 218l-211 201q-18 18 -7 31t31 -5l218 -217v207q0 19 16 19q17 0 17 -19v-208l220 216q17 17 28 7q13 -12 -6 -29l-210 -201l227 -219q20 -20 6 -33q-12 -11 -33 10l-232 228v-223q0 -19 -17 -19q-16 0 -16 19z
" />
    <glyph glyph-name="afii10073" unicode="&#x437;" horiz-adv-x="433" 
d="M228 500q76 0 114.5 -33.5t38.5 -90.5q0 -48 -30.5 -80t-79.5 -41q54 -4 88 -36t34 -90q0 -61 -47.5 -100t-132.5 -39q-94 0 -151 31q-22 12 -14 27q7 12 29 2q66 -29 132 -29q75 0 112.5 31t37.5 78q1 53 -35.5 80.5t-113.5 28.5h-59q-16 0 -16 15t16 15h57
q57 0 98 24.5t41 80.5q0 41 -28.5 68t-94.5 27q-60 0 -129 -32q-23 -11 -29 0q-8 14 12 25q69 38 150 38z" />
    <glyph glyph-name="afii10074" unicode="&#x438;" 
d="M437 19v416l-333 -424q-8 -11 -20 -11q-16 0 -16 20v451q0 19 16 19q17 0 17 -19v-418l333 426q9 11 19 11q17 0 17 -22v-449q0 -19 -17 -19q-16 0 -16 19z" />
    <glyph glyph-name="afii10075" unicode="&#x439;" 
d="M437 19v416l-333 -424q-8 -11 -20 -11q-16 0 -16 20v451q0 19 16 19q17 0 17 -19v-418l333 426q9 11 19 11q17 0 17 -22v-449q0 -19 -17 -19q-16 0 -16 19zM269 588q-46 0 -79 21t-48 51q-12 23 2 30q13 6 26 -15q35 -58 99 -58t100 57q14 22 26 16q13 -6 1 -29
q-41 -73 -127 -73z" />
    <glyph glyph-name="afii10076" unicode="&#x43a;" horiz-adv-x="398" 
d="M68 19v452q0 19 16 19q17 0 17 -19v-204l234 212q19 17 30 6q10 -11 -9 -30l-224 -201l240 -218q21 -19 8 -32q-11 -11 -33 9l-246 224v-218q0 -19 -17 -19q-16 0 -16 19z" />
    <glyph glyph-name="afii10077" unicode="&#x43b;" horiz-adv-x="490" 
d="M16 27q46 0 70 60q41 103 50 388q0 15 15 15h253q18 0 18 -19v-452q0 -19 -17 -19q-16 0 -16 19v440h-221q-11 -290 -55 -390q-32 -74 -96 -74q-14 0 -22.5 4.5t-7.5 15.5q0 4 1.5 6.5t3 3.5t5 1.5t5.5 0.5h7h7z" />
    <glyph glyph-name="afii10078" unicode="&#x43c;" horiz-adv-x="601" 
d="M68 19v450q0 21 16 21q12 0 25 -19l189 -264l191 261q16 22 28 22q16 0 16 -21v-450q0 -19 -17 -19q-16 0 -16 19v414l-186 -254q-8 -11 -18 -11t-18 11l-179 249v-409q0 -19 -16 -19q-15 0 -15 19z" />
    <glyph glyph-name="afii10079" unicode="&#x43d;" horiz-adv-x="535" 
d="M434 271v200q0 19 17 19q16 0 16 -19v-452q0 -19 -16 -19q-17 0 -17 19v221h-333v-221q0 -19 -17 -19q-16 0 -16 19v452q0 19 16 19q17 0 17 -19v-200h333z" />
    <glyph glyph-name="afii10080" unicode="&#x43e;" horiz-adv-x="558" 
d="M43 245q0 113 62.5 184t173.5 71t173.5 -71t62.5 -184t-62.5 -184t-173.5 -71t-173.5 71t-62.5 184zM77 245q0 -104 54 -164t148 -60t148 60t54 164q0 103 -54 163.5t-148 60.5t-148 -60.5t-54 -163.5z" />
    <glyph glyph-name="afii10081" unicode="&#x43f;" horiz-adv-x="518" 
d="M417 19v440h-316v-440q0 -19 -17 -19q-16 0 -16 19v452q0 19 16 19h349q17 0 17 -19v-452q0 -19 -16 -19q-17 0 -17 19z" />
    <glyph glyph-name="afii10082" unicode="&#x440;" horiz-adv-x="535" 
d="M301 500q94 0 142.5 -65.5t48.5 -174.5q0 -120 -58 -195t-175 -75q-92 0 -158 38v-209q0 -19 -17 -19q-16 0 -16 19v652q0 19 16 19q17 0 17 -19v-138q16 76 67.5 121.5t132.5 45.5zM295 469q-46 0 -81 -18t-56 -47t-34 -70t-18 -81.5t-5 -86.5v-104q74 -41 159 -41
q70 0 115.5 34t64 85.5t18.5 119.5q0 96 -40.5 152.5t-122.5 56.5z" />
    <glyph glyph-name="afii10083" unicode="&#x441;" horiz-adv-x="469" 
d="M431 40q-68 -50 -161 -50q-110 0 -168.5 64.5t-58.5 185.5q0 118 66.5 189t172.5 71q75 0 130 -29q24 -12 16 -27q-7 -12 -31 -1q-58 26 -115 26q-89 0 -147 -63t-58 -166q0 -105 52 -162t142 -57q73 0 142 44q21 13 30 3q9 -13 -12 -28z" />
    <glyph glyph-name="afii10084" unicode="&#x442;" horiz-adv-x="441" 
d="M417 459h-180v-440q0 -19 -17 -19q-16 0 -16 19v440h-180q-16 0 -16 15q0 16 16 16h393q16 0 16 -16q0 -15 -16 -15z" />
    <glyph glyph-name="afii10085" unicode="&#x443;" horiz-adv-x="453" 
d="M2 -192q-20 11 -14 26q6 13 30 1q31 -14 62 -14q25 0 47 15t37.5 41t27 51.5t22.5 54.5q3 9 5 14l-192 455q-12 29 5 36t28 -20l177 -430l172 431q11 25 27 19q15 -6 4 -32l-200 -488q-41 -100 -75 -139t-87 -39q-43 0 -76 18z" />
    <glyph glyph-name="afii10086" unicode="&#x444;" horiz-adv-x="694" 
d="M332 18v453h-15q-119 0 -179.5 -57t-60.5 -169q0 -110 58.5 -168.5t171.5 -58.5h25zM386 471h-25v-453h15q240 0 240 227q0 109 -59 167.5t-171 58.5zM363 671v-171h23q132 0 198.5 -68.5t66.5 -186.5q0 -120 -66 -187.5t-199 -67.5h-23v-171q0 -19 -17 -19q-16 0 -16 19
v171h-23q-133 0 -198.5 68t-65.5 187t65.5 187t198.5 68h23v171q0 19 16 19q17 0 17 -19z" />
    <glyph glyph-name="afii10087" unicode="&#x445;" horiz-adv-x="457" 
d="M87 475l152 -195l153 196q16 19 29 10q12 -9 -4 -29l-158 -200l175 -222q17 -21 5 -31q-13 -11 -31 12l-171 213l-169 -217q-16 -20 -29 -9q-11 10 6 31l173 221l-156 197q-18 22 -5 34q14 11 30 -11z" />
    <glyph glyph-name="afii10088" unicode="&#x446;" horiz-adv-x="552" 
d="M488 -106v106h-403q-17 0 -17 19v452q0 19 16 19q17 0 17 -19v-440h313v440q0 19 17 19q16 0 16 -19v-440h53q19 0 19 -18v-119q0 -19 -16 -19q-15 0 -15 19z" />
    <glyph glyph-name="afii10089" unicode="&#x447;" horiz-adv-x="449" 
d="M66 471v-117q0 -80 30 -114.5t102 -34.5q84 0 150 59v207q0 19 17 19q16 0 16 -19v-452q0 -19 -16 -19q-17 0 -17 19v209q-70 -54 -153 -54q-82 0 -122 38.5t-40 132.5v126q0 19 16 19q17 0 17 -19z" />
    <glyph glyph-name="afii10090" unicode="&#x448;" horiz-adv-x="732" 
d="M68 19v452q0 19 16 19q17 0 17 -19v-440h248v440q0 19 17 19q16 0 16 -19v-440h249v440q0 19 16 19q17 0 17 -19v-452q0 -19 -19 -19h-560q-17 0 -17 19z" />
    <glyph glyph-name="afii10091" unicode="&#x449;" horiz-adv-x="768" 
d="M704 -106v106h-619q-17 0 -17 19v452q0 19 16 19q17 0 17 -19v-440h248v440q0 19 17 19q16 0 16 -19v-440h249v440q0 19 16 19q17 0 17 -19v-440h53q18 0 18 -19v-118q0 -19 -15 -19q-16 0 -16 19z" />
    <glyph glyph-name="afii10092" unicode="&#x44a;" horiz-adv-x="515" 
d="M146 26v433h-127q-16 0 -16 15q0 16 16 16h143q17 0 17 -19v-167q48 10 102 10q198 0 198 -158q0 -30 -10 -56t-32 -51t-66.5 -39.5t-105.5 -14.5q-67 0 -103 9q-16 4 -16 22zM262 26q183 0 183 130q0 67 -41.5 97t-124.5 30q-41 0 -100 -9v-242q35 -6 83 -6z" />
    <glyph glyph-name="afii10093" unicode="&#x44b;" horiz-adv-x="588" 
d="M487 19v452q0 19 17 19q16 0 16 -19v-452q0 -19 -16 -19q-17 0 -17 19zM68 26v445q0 19 16 19q17 0 17 -19v-167q48 10 102 10q189 0 189 -158q0 -30 -8.5 -55.5t-29.5 -51t-63.5 -40t-103.5 -14.5q-67 0 -103 9q-16 4 -16 22zM184 26q174 0 174 130q0 127 -157 127
q-41 0 -100 -9v-242q34 -6 83 -6z" />
    <glyph glyph-name="afii10094" unicode="&#x44c;" horiz-adv-x="441" 
d="M68 26v445q0 19 16 19q17 0 17 -19v-167q48 10 102 10q198 0 198 -158q0 -30 -10 -56t-32 -51t-66.5 -39.5t-105.5 -14.5q-67 0 -103 9q-16 4 -16 22zM184 26q183 0 183 130q0 67 -41.5 97t-124.5 30q-41 0 -100 -9v-242q34 -6 83 -6z" />
    <glyph glyph-name="afii10095" unicode="&#x44d;" horiz-adv-x="473" 
d="M211 -10q-98 0 -153 31q-18 12 -11 26q7 13 29 2q60 -28 133 -28q96 0 143 57.5t50 158.5h-255q-16 0 -16 15t16 15h255q-6 202 -184 202q-62 0 -130 -32q-23 -11 -29 0q-8 14 13 26q67 37 150 37q215 0 215 -248q0 -116 -54.5 -189t-171.5 -73z" />
    <glyph glyph-name="afii10096" unicode="&#x44e;" horiz-adv-x="720" 
d="M68 19v452q0 19 16 19q17 0 17 -19v-206h127q5 106 62 170.5t161 64.5q109 0 167.5 -70.5t58.5 -184.5q0 -115 -58 -185t-168 -70q-106 0 -163.5 66.5t-60.5 177.5h-126v-215q0 -19 -17 -19q-16 0 -16 19zM260 245q0 -105 49.5 -164.5t141.5 -59.5q93 0 142.5 59.5
t49.5 164.5q0 104 -50 164t-142 60t-141.5 -60t-49.5 -164z" />
    <glyph glyph-name="afii10097" unicode="&#x44f;" horiz-adv-x="458" 
d="M402 466v-447q0 -19 -16 -19q-17 0 -17 19v175q-43 -8 -96 -8q-31 0 -52 3l-114 -173q-16 -24 -31 -13q-12 10 2 30l110 162q-108 27 -108 145q0 154 208 154q57 0 98 -9q16 -3 16 -19zM287 463q-83 0 -128 -27.5t-45 -96.5q0 -123 157 -123q62 0 98 8v233q-44 6 -82 6z
" />
    <glyph glyph-name="afii10071" unicode="&#x451;" horiz-adv-x="505" 
d="M274 21q75 0 142 42q19 11 26 0q9 -12 -10 -26q-64 -47 -158 -47q-115 0 -173 66t-58 187q0 114 61 185.5t166 71.5q94 0 143 -54.5t49 -131.5q0 -37 -5 -57q-6 -29 -31 -29h-349q0 -97 53 -152t144 -55zM267 469q-83 0 -136.5 -58t-53.5 -153h350q4 19 4 54
q-1 73 -44 115t-120 42zM171 635q0 12 7.5 20t20.5 8q12 0 20 -8t8 -20q0 -11 -7.5 -19t-20.5 -8t-20.5 7.5t-7.5 19.5zM314 635q0 12 7.5 20t19.5 8q13 0 20.5 -8t7.5 -20t-7.5 -19.5t-20.5 -7.5q-12 0 -19.5 7.5t-7.5 19.5z" />
    <glyph glyph-name="afii10099" unicode="&#x452;" horiz-adv-x="578" 
d="M330 461h-189v-255q17 82 70 124.5t126 42.5q91 0 132 -52.5t41 -154.5v-207q0 -86 -29 -127.5t-99 -41.5q-58 0 -92 16q-17 8 -12 22q5 13 25 6q41 -13 77 -13q58 0 77.5 34.5t19.5 112.5v197q0 84 -32 130.5t-110 46.5q-99 0 -146.5 -81t-47.5 -222v-20q0 -19 -17 -19
q-16 0 -16 19v442h-89q-16 0 -16 14q0 15 16 15h89v181q0 19 16 19q17 0 17 -19v-181h189q16 0 16 -15q0 -14 -16 -14z" />
    <glyph glyph-name="afii10100" unicode="&#x453;" horiz-adv-x="357" 
d="M326 690l-155 -104q-21 -16 -30 -3q-8 13 12 26l155 104q22 15 30 3t-12 -26zM338 459h-237v-440q0 -19 -17 -19q-16 0 -16 19v452q0 19 17 19h253q16 0 16 -16q0 -15 -16 -15z" />
    <glyph glyph-name="afii10101" unicode="&#x454;" horiz-adv-x="469" 
d="M431 40q-66 -50 -160 -50q-110 0 -169 64.5t-59 185.5q0 118 66.5 189t172.5 71q75 0 130 -29q24 -12 16 -27q-7 -12 -31 -1q-58 26 -115 26q-84 0 -141 -56.5t-64 -150.5h282q16 0 16 -15t-16 -15h-282q2 -101 54 -156t140 -55q73 0 141 43q23 14 31 4q9 -13 -12 -28z
" />
    <glyph glyph-name="afii10102" unicode="&#x455;" horiz-adv-x="416" 
d="M220 500q78 0 137 -32q24 -13 16 -27q-6 -11 -28 -2q-65 30 -125 30q-63 0 -95 -24t-32 -67q0 -41 31 -65t75 -35.5t87.5 -25t74.5 -43.5t31 -80q0 -64 -48 -101.5t-136 -37.5t-148 36q-25 14 -16 29q7 11 32 -1q66 -33 136 -33q66 0 106 28.5t40 76.5q0 41 -31 66
t-75 37l-87 25q-44 13 -75 42.5t-31 78.5q0 61 43 93t118 32z" />
    <glyph glyph-name="afii10103" unicode="&#x456;" horiz-adv-x="169" 
d="M68 19v452q0 19 16 19q17 0 17 -19v-452q0 -19 -17 -19q-16 0 -16 19zM56 636q0 13 7.5 21t20.5 8t21 -8t8 -21q0 -28 -29 -28q-28 0 -28 28z" />
    <glyph glyph-name="afii10104" unicode="&#x457;" horiz-adv-x="169" 
d="M-2 636q0 12 7.5 20t20.5 8q12 0 20 -8t8 -20t-8 -20t-20 -8q-13 0 -20.5 8t-7.5 20zM116 636q0 12 7.5 20t19.5 8q13 0 20.5 -8t7.5 -20t-7.5 -20t-20.5 -8q-12 0 -19.5 8t-7.5 20zM68 19v452q0 19 16 19q17 0 17 -19v-452q0 -19 -17 -19q-16 0 -16 19z" />
    <glyph glyph-name="afii10105" unicode="&#x458;" horiz-adv-x="169" 
d="M-113 -194q-18 8 -12 23q5 12 25 5q41 -13 77 -13q58 0 77.5 34.5t19.5 112.5v503q0 19 16 19q17 0 17 -19v-512q0 -86 -29 -127.5t-99 -41.5q-60 0 -92 16zM62 636q0 13 7.5 21t20.5 8t21 -8t8 -21q0 -28 -29 -28q-28 0 -28 28z" />
    <glyph glyph-name="afii10106" unicode="&#x459;" horiz-adv-x="761" 
d="M389 26v433h-221q-11 -290 -55 -390q-32 -74 -96 -74q-14 0 -22.5 4.5t-7.5 15.5q0 4 1.5 6.5t3 3.5t5 1.5t5.5 0.5h7h7q46 0 70 60q41 103 50 388q0 15 15 15h253q18 0 18 -19v-167q48 10 102 10q198 0 198 -158q0 -30 -10 -56t-32 -51t-66.5 -39.5t-105.5 -14.5
q-67 0 -103 9q-16 4 -16 22zM505 26q183 0 183 130q0 67 -41.5 97t-124.5 30q-41 0 -100 -9v-242q35 -6 83 -6z" />
    <glyph glyph-name="afii10107" unicode="&#x45a;" horiz-adv-x="807" 
d="M434 26v214h-333v-221q0 -19 -17 -19q-16 0 -16 19v452q0 19 16 19q17 0 17 -19v-200h333v200q0 19 16 19q17 0 17 -19v-167q48 10 102 10q198 0 198 -158q0 -30 -10 -56t-32 -51t-66.5 -39.5t-105.5 -14.5q-67 0 -103 9q-16 4 -16 22zM550 26q183 0 183 130
q0 67 -41.5 97t-124.5 30q-41 0 -100 -9v-242q35 -6 83 -6z" />
    <glyph glyph-name="afii10108" unicode="&#x45b;" horiz-adv-x="578" 
d="M477 19v146q0 84 -32 130.5t-110 46.5q-99 0 -146.5 -81t-47.5 -222v-20q0 -19 -17 -19q-16 0 -16 19v442h-89q-16 0 -16 14q0 15 16 15h89v181q0 19 16 19q17 0 17 -19v-181h189q16 0 16 -15q0 -14 -16 -14h-189v-255q17 82 70 124.5t126 42.5q91 0 132 -52.5t41 -154.5
v-147q0 -19 -16 -19q-17 0 -17 19z" />
    <glyph glyph-name="afii10109" unicode="&#x45c;" horiz-adv-x="398" 
d="M68 19v452q0 19 16 19q17 0 17 -19v-204l234 212q19 17 30 6q10 -11 -9 -30l-224 -201l240 -218q21 -19 8 -32q-11 -11 -33 9l-246 224v-218q0 -19 -17 -19q-16 0 -16 19zM344 690l-155 -104q-21 -16 -30 -3q-8 13 12 26l155 104q22 15 30 3t-12 -26z" />
    <glyph glyph-name="afii10110" unicode="&#x45e;" horiz-adv-x="453" 
d="M2 -192q-20 11 -14 26q6 13 30 1q31 -14 62 -14q25 0 47 15t37.5 41t27 51.5t22.5 54.5q3 9 5 14l-192 455q-12 29 5 36t28 -20l177 -430l172 431q11 25 27 19q15 -6 4 -32l-200 -488q-41 -100 -75 -139t-87 -39q-43 0 -76 18zM232 588q-46 0 -79 21t-48 51q-12 23 2 30
q13 6 26 -15q35 -58 99 -58t100 57q14 22 26 16q13 -6 1 -29q-41 -73 -127 -73z" />
    <glyph glyph-name="afii10193" unicode="&#x45f;" horiz-adv-x="518" 
d="M417 31v440q0 19 17 19q16 0 16 -19v-452q0 -19 -17 -19h-158v-106q0 -19 -16 -19q-15 0 -15 19v106h-160q-16 0 -16 19v452q0 19 16 19q17 0 17 -19v-440h316z" />
    <glyph glyph-name="afii10146" unicode="&#x462;" horiz-adv-x="648" 
d="M357 -5q-94 0 -149 9q-18 3 -18 23v514h-171q-16 0 -16 16t16 16h171v98q0 19 17 19q18 0 18 -19v-98h210q16 0 16 -16t-16 -16h-210v-138q62 11 131 11q251 0 251 -206q0 -102 -63 -157.5t-187 -55.5zM357 27q214 0 214 180q0 175 -217 175q-72 0 -129 -11v-337
q51 -7 132 -7z" />
    <glyph glyph-name="afii10194" unicode="&#x463;" horiz-adv-x="516" 
d="M147 26v435h-128q-16 0 -16 14q0 15 16 15h128v181q0 19 17 19q16 0 16 -19v-181h160q16 0 16 -15q0 -14 -16 -14h-160v-157q48 10 102 10q198 0 198 -158q0 -30 -10 -56t-32 -51t-66.5 -39.5t-105.5 -14.5q-67 0 -103 9q-16 4 -16 22zM263 26q183 0 183 130
q0 67 -41.5 97t-124.5 30q-42 0 -100 -9v-242q34 -6 83 -6z" />
    <glyph glyph-name="afii10147" unicode="&#x472;" horiz-adv-x="753" 
d="M53 345q0 155 85.5 255t238.5 100q152 0 237.5 -100t85.5 -255q0 -156 -85 -255.5t-238 -99.5t-238.5 99.5t-85.5 255.5zM377 668q-130 0 -207 -85.5t-81 -222.5h575q-5 137 -81.5 222.5t-205.5 85.5zM377 22q129 0 205.5 85t81.5 221h-575q5 -137 81.5 -221.5
t206.5 -84.5z" />
    <glyph glyph-name="afii10195" unicode="&#x473;" horiz-adv-x="558" 
d="M43 245q0 113 62.5 184t173.5 71t173.5 -71t62.5 -184t-62.5 -184t-173.5 -71t-173.5 71t-62.5 184zM279 21q91 0 145 57t57 156h-404q3 -99 56.5 -156t145.5 -57zM279 469q-89 0 -143 -55t-59 -149h403q-5 94 -58.5 149t-142.5 55z" />
    <glyph glyph-name="afii10148" unicode="&#x474;" horiz-adv-x="644" 
d="M529 521l-193 -511q-8 -20 -22 -20q-15 0 -22 19l-258 645q-12 28 7 35q18 7 28 -21l247 -624l185 494q39 102 66 133t72 31q37 0 65 -17q15 -9 9 -22q-5 -12 -23 -4q-27 12 -53 12q-33 0 -53.5 -30t-54.5 -120z" />
    <glyph glyph-name="afii10196" unicode="&#x475;" horiz-adv-x="501" 
d="M404 353l-141 -343q-7 -20 -21 -20q-13 0 -19 16l-197 450q-10 25 5 32q16 7 28 -19l186 -428l127 315q34 87 58.5 114t63.5 27q30 0 47 -15q11 -9 4 -20q-5 -9 -20 -3q-24 8 -33 8q-24 0 -40.5 -21.5t-47.5 -92.5z" />
    <glyph glyph-name="afii10050" unicode="&#x490;" horiz-adv-x="446" 
d="M421 658h-303v-639q0 -19 -18 -19q-17 0 -17 19v651q0 20 18 20h307v111q0 19 15 19t15 -19v-126q0 -17 -17 -17z" />
    <glyph glyph-name="afii10098" unicode="&#x491;" horiz-adv-x="352" 
d="M68 471q0 19 17 19h234v98q0 18 15 18t15 -18v-112q0 -18 -19 -18h-229v-439q0 -19 -17 -19q-16 0 -16 19v452z" />
    <glyph glyph-name="uni0492" unicode="&#x492;" horiz-adv-x="475" 
d="M451 658h-316v-278h242q15 0 15 -15t-15 -15h-242v-331q0 -19 -18 -19q-17 0 -17 19v331h-77q-15 0 -15 15t15 15h77v290q0 20 18 20h333q16 0 16 -16t-16 -16z" />
    <glyph glyph-name="uni0493" unicode="&#x493;" horiz-adv-x="372" 
d="M353 459h-237v-197h185q16 0 16 -14q0 -15 -16 -15h-185v-214q0 -19 -17 -19q-16 0 -16 19v214h-64q-16 0 -16 15q0 14 16 14h64v209q0 19 17 19h253q16 0 16 -16q0 -15 -16 -15z" />
    <glyph glyph-name="uni0494" unicode="&#x494;" horiz-adv-x="558" 
d="M295 -107q-70 0 -113 17q-22 8 -18 23q3 17 28 8q52 -16 105 -16q95 0 138.5 58t43.5 153q0 99 -60.5 146.5t-157.5 47.5q-77 0 -143 -17v-294q0 -19 -18 -19q-17 0 -17 19v651q0 20 18 20h333q16 0 16 -16t-16 -16h-316v-313q68 17 144 17q118 0 185.5 -56t67.5 -169
q0 -110 -54 -177t-166 -67z" />
    <glyph glyph-name="uni0495" unicode="&#x495;" horiz-adv-x="471" 
d="M253 -210q-57 0 -100 17q-19 9 -16 23q4 15 24 8q49 -17 95 -17q74 0 103.5 53t29.5 149q0 98 -42.5 143t-130.5 45q-61 0 -115 -18v-174q0 -19 -17 -19q-16 0 -16 19v452q0 19 17 19h253q16 0 16 -16q0 -15 -16 -15h-237v-235q57 18 116 18q103 0 154.5 -53t51.5 -166
q0 -233 -170 -233z" />
    <glyph glyph-name="uni0496" unicode="&#x496;" horiz-adv-x="848" 
d="M789 32h69q17 0 17 -17v-147q0 -19 -16 -19t-16 19v132h-63q-12 0 -26 14l-327 325v-320q0 -19 -17 -19q-18 0 -18 19v320l-328 -326q-22 -20 -34 -8q-13 13 8 32l317 312l-288 301q-22 22 -7 35q14 14 37 -11l295 -316v313q0 19 18 19q17 0 17 -19v-313l298 317
q22 24 35 11q12 -12 -9 -33l-287 -303z" />
    <glyph glyph-name="uni0497" unicode="&#x497;" horiz-adv-x="641" 
d="M593 31h57q19 0 19 -18v-119q0 -19 -16 -19q-15 0 -15 19v106h-49q-12 0 -28 14l-232 228v-223q0 -19 -17 -19q-16 0 -16 19v224l-230 -229q-21 -21 -34 -10q-14 12 6 32l227 218l-211 201q-18 18 -7 31t31 -5l218 -217v207q0 19 16 19q17 0 17 -19v-208l220 216
q17 17 28 7q13 -12 -6 -29l-210 -201z" />
    <glyph glyph-name="uni0498" unicode="&#x498;" horiz-adv-x="550" 
d="M86 22q-34 15 -24 32q1 2 2.5 3.5t3.5 2t3.5 1t4.5 0t5 -1t5 -1.5t5 -2t5.5 -2.5t5.5 -2.5q75 -29 161 -29q96 0 152 44t56 121q0 149 -202 151h-82q-16 0 -16 16t16 16h77q85 0 134.5 41.5t49.5 113.5q0 65 -42.5 104t-127.5 39t-162 -36q-33 -16 -39 -4q-9 17 25 33
q82 39 178 39q94 0 149 -42.5t55 -129.5q0 -134 -138 -171q82 -8 121.5 -54t39.5 -114q0 -93 -62.5 -144t-165.5 -55v-122q0 -19 -16 -19t-16 19v122q-98 3 -161 32z" />
    <glyph glyph-name="uni0499" unicode="&#x499;" horiz-adv-x="433" 
d="M228 500q76 0 114.5 -33.5t38.5 -90.5q0 -48 -31 -80t-80 -41q54 -4 88.5 -35t34.5 -91q0 -59 -43.5 -97t-122.5 -41v-97q0 -19 -16 -19q-15 0 -15 19v96q-83 4 -134 31q-22 12 -14 27q7 12 29 2q66 -29 132 -29q75 0 112.5 31t37.5 78q1 53 -35.5 80.5t-113.5 28.5h-59
q-16 0 -16 15t16 15h57q57 0 98 24.5t41 80.5q0 41 -28.5 68t-94.5 27q-60 0 -129 -32q-23 -11 -29 0q-8 14 12 25q69 38 150 38z" />
    <glyph glyph-name="uni049A" unicode="&#x49a;" horiz-adv-x="600" 
d="M497 32h73q17 0 17 -17v-147q0 -19 -16 -19t-16 19v132h-63q-10 0 -26 14l-348 323v-318q0 -19 -18 -19q-17 0 -17 19v652q0 19 17 19q18 0 18 -19v-310l328 316q20 20 32 8q12 -11 -9 -32l-315 -301z" />
    <glyph glyph-name="uni049B" unicode="&#x49b;" horiz-adv-x="441" 
d="M378 31h58q19 0 19 -18v-119q0 -19 -16 -19q-15 0 -15 19v106h-51q-11 0 -27 14l-245 223v-218q0 -19 -17 -19q-16 0 -16 19v452q0 19 16 19q17 0 17 -19v-204l234 212q19 17 30 6q10 -11 -9 -30l-224 -201z" />
    <glyph glyph-name="uni049C" unicode="&#x49c;" horiz-adv-x="555" 
d="M182 193v145h-64v-319q0 -19 -18 -19q-17 0 -17 19v652q0 19 17 19q18 0 18 -19v-305h64v122q0 18 14 18q15 0 15 -18v-122h54l212 306q16 25 31 16q13 -8 -4 -33l-210 -300l237 -317q19 -24 5 -35q-13 -11 -32 14l-240 321h-53v-145q0 -18 -15 -18q-14 0 -14 18z" />
    <glyph glyph-name="uni049D" unicode="&#x49d;" horiz-adv-x="436" 
d="M153 112v120h-52v-213q0 -19 -17 -19q-16 0 -16 19v452q0 19 16 19q17 0 17 -19v-213h52v105q0 17 13 17t13 -17v-105h43l143 216q14 22 27 13q13 -8 -1 -29l-142 -211l166 -214q15 -19 3 -29q-14 -12 -30 11l-166 217h-43v-120q0 -16 -13 -16t-13 16z" />
    <glyph glyph-name="uni04A0" unicode="&#x4a0;" horiz-adv-x="623" 
d="M188 19v638h-169q-16 0 -16 16q0 17 16 17h186q18 0 18 -19v-310l328 316q21 19 32 8t-9 -32l-315 -301l338 -315q20 -19 9 -32t-34 8l-349 324v-318q0 -19 -18 -19q-17 0 -17 19z" />
    <glyph glyph-name="uni04A1" unicode="&#x4a1;" horiz-adv-x="477" 
d="M147 19v440h-128q-16 0 -16 15q0 16 16 16h144q17 0 17 -19v-204l234 212q19 17 30 6q10 -11 -9 -30l-224 -201l240 -218q21 -19 8 -32q-11 -11 -33 9l-246 224v-218q0 -19 -17 -19q-16 0 -16 19z" />
    <glyph glyph-name="uni04A2" unicode="&#x4a2;" horiz-adv-x="750" 
d="M574 371v300q0 19 18 19q17 0 17 -19v-639h81q17 0 17 -17v-147q0 -19 -16 -19t-16 19v132h-83q-18 0 -18 19v320h-456v-320q0 -19 -18 -19q-17 0 -17 19v652q0 19 17 19q18 0 18 -19v-300h456z" />
    <glyph glyph-name="uni04A3" unicode="&#x4a3;" horiz-adv-x="579" 
d="M434 271v200q0 19 17 19q16 0 16 -19v-440h54q18 0 18 -18v-119q0 -19 -15 -19q-16 0 -16 19v106h-57q-17 0 -17 19v221h-333v-221q0 -19 -17 -19q-16 0 -16 19v452q0 19 16 19q17 0 17 -19v-200h333z" />
    <glyph glyph-name="uni04A4" unicode="&#x4a4;" horiz-adv-x="949" 
d="M925 658h-316v-639q0 -19 -18 -19q-17 0 -17 19v320h-456v-320q0 -19 -18 -19q-17 0 -17 19v652q0 19 17 19q18 0 18 -19v-300h456v299q0 20 18 20h333q16 0 16 -16t-16 -16z" />
    <glyph glyph-name="uni04A5" unicode="&#x4a5;" horiz-adv-x="723" 
d="M704 459h-237v-440q0 -19 -17 -19q-16 0 -16 19v221h-333v-221q0 -19 -17 -19q-16 0 -16 19v452q0 19 16 19q17 0 17 -19v-200h333v200q0 19 17 19h253q16 0 16 -16q0 -15 -16 -15z" />
    <glyph glyph-name="uni04AA" unicode="&#x4aa;" horiz-adv-x="632" 
d="M376 668q-135 0 -211 -92t-76 -234q0 -150 76 -235t204 -85q101 0 180 54q27 19 36 9q10 -13 -18 -35q-71 -55 -184 -59v-123q0 -19 -16 -19t-16 19v123q-150 5 -224 100t-74 253q0 159 87.5 257.5t236.5 98.5q110 -1 181 -44q28 -16 19 -31q-7 -13 -39 4q-75 39 -162 39
z" />
    <glyph glyph-name="uni04AB" unicode="&#x4ab;" horiz-adv-x="469" 
d="M431 40q-62 -46 -146 -49v-97q0 -19 -15 -19q-16 0 -16 19v97q-102 5 -156.5 68.5t-54.5 180.5q0 118 66.5 189t172.5 71q75 0 130 -29q24 -12 16 -27q-7 -12 -31 -1q-58 26 -115 26q-89 0 -147 -63t-58 -166q0 -105 52 -162t142 -57q73 0 141 43q23 14 31 4
q9 -13 -12 -28z" />
    <glyph glyph-name="uni04AE" unicode="&#x4ae;" horiz-adv-x="551" 
d="M275 19v286l-235 349q-15 22 -1 32q15 10 31 -14l224 -331l218 334q14 21 28 12t-1 -30l-229 -349v-289q0 -19 -17 -19q-18 0 -18 19z" />
    <glyph glyph-name="uni04AF" unicode="&#x4af;" horiz-adv-x="452" 
d="M439 460l-188 -460v-181q0 -19 -16 -19q-17 0 -17 19v183l-188 457q-9 22 6 29q16 7 26 -15l175 -430l171 429q10 21 25 16q15 -6 6 -28z" />
    <glyph glyph-name="uni04B0" unicode="&#x4b0;" horiz-adv-x="551" 
d="M275 19v259h-138q-16 0 -16 16q0 15 16 15h135l-232 345q-15 22 -1 32q15 10 31 -14l224 -331l218 334q14 21 28 12t-1 -30l-229 -348h141q16 0 16 -15q0 -16 -16 -16h-141v-259q0 -19 -17 -19q-18 0 -18 19z" />
    <glyph glyph-name="uni04B1" unicode="&#x4b1;" horiz-adv-x="452" 
d="M439 460l-188 -460h125q16 0 16 -15q0 -16 -16 -16h-125v-150q0 -19 -16 -19q-17 0 -17 19l1 150h-117q-16 0 -16 16q0 15 16 15h116l-188 459q-9 22 6 29q16 7 26 -15l174 -431l172 430q9 22 25 16q15 -6 6 -28z" />
    <glyph glyph-name="uni04B2" unicode="&#x4b2;" horiz-adv-x="636" 
d="M100 673l210 -287l210 287q17 23 31 14t-4 -33l-216 -292l244 -330h69q17 0 17 -17v-147q0 -19 -16 -19t-16 19v132h-61q-13 0 -26 16l-233 317l-233 -316q-19 -26 -32 -14q-11 10 5 32l239 324l-218 293q-17 23 -3 34q14 12 33 -13z" />
    <glyph glyph-name="uni04B3" unicode="&#x4b3;" horiz-adv-x="493" 
d="M87 475l152 -195l153 196q16 19 29 10q12 -9 -4 -29l-158 -200l178 -226h62q19 0 19 -18v-119q0 -19 -16 -19q-15 0 -15 19v106h-56q-10 0 -23 16l-171 213l-169 -217q-16 -20 -29 -9q-11 10 6 31l173 221l-156 197q-18 22 -5 34q14 11 30 -11z" />
    <glyph glyph-name="uni04B6" unicode="&#x4b6;" horiz-adv-x="631" 
d="M455 19v316q-40 -35 -96 -57.5t-109 -22.5q-107 0 -157 52t-50 182v182q0 19 17 19q18 0 18 -19v-172q0 -116 39.5 -164t133.5 -48q53 0 108.5 23.5t95.5 61.5v299q0 19 17 19q18 0 18 -19v-639h80q18 0 18 -17v-147q0 -19 -16 -19t-16 19v132h-84q-17 0 -17 19z" />
    <glyph glyph-name="uni04B7" unicode="&#x4b7;" horiz-adv-x="486" 
d="M66 471v-117q0 -80 30 -114.5t102 -34.5q84 0 150 59v207q0 19 17 19q16 0 16 -19v-440h53q19 0 19 -18v-119q0 -19 -16 -19q-15 0 -15 19v106h-57q-17 0 -17 19v209q-70 -54 -153 -54q-82 0 -122 38.5t-40 132.5v126q0 19 16 19q17 0 17 -19z" />
    <glyph glyph-name="uni04B8" unicode="&#x4b8;" horiz-adv-x="573" 
d="M247 138v117q-105 1 -154.5 53t-49.5 181v182q0 19 17 19q18 0 18 -19v-172q0 -115 39 -163t130 -49v145q0 18 15 18q16 0 16 -18v-144q100 12 177 84v299q0 19 17 19q18 0 18 -19v-652q0 -19 -18 -19q-17 0 -17 19v316q-75 -67 -177 -79v-118q0 -18 -16 -18
q-15 0 -15 18z" />
    <glyph glyph-name="uni04B9" unicode="&#x4b9;" horiz-adv-x="449" 
d="M189 73v101q-79 1 -117.5 39.5t-38.5 131.5v126q0 19 16 19q17 0 17 -19v-117q0 -77 28 -112t95 -37v107q0 18 15 18q14 0 14 -18v-107q74 7 130 58v208q0 19 17 19q16 0 16 -19v-452q0 -19 -16 -19q-17 0 -17 19v210q-58 -47 -130 -54v-102q0 -17 -14 -17q-15 0 -15 17z
" />
    <glyph glyph-name="uni04BA" unicode="&#x4ba;" horiz-adv-x="573" 
d="M116 671v-316q40 35 96 57.5t109 22.5q107 0 157 -52t50 -182v-182q0 -19 -17 -19q-18 0 -18 19v172q0 116 -39.5 164t-133.5 48q-53 0 -108.5 -23.5t-95.5 -61.5v-299q0 -19 -17 -19q-18 0 -18 19v652q0 19 18 19q17 0 17 -19z" />
    <glyph glyph-name="uni04BB" unicode="&#x4bb;" 
d="M437 19v273q0 84 -32 130.5t-110 46.5q-99 0 -146.5 -81t-47.5 -222v-147q0 -19 -17 -19q-16 0 -16 19v652q0 19 16 19q17 0 17 -19v-338q17 82 70 124.5t126 42.5q91 0 132 -52.5t41 -154.5v-274q0 -19 -16 -19q-17 0 -17 19z" />
    <glyph glyph-name="uni04C0" unicode="&#x4c0;" horiz-adv-x="201" 
d="M83 19v652q0 19 17 19q18 0 18 -19v-652q0 -19 -18 -19q-17 0 -17 19z" />
    <glyph glyph-name="uni04C3" unicode="&#x4c3;" horiz-adv-x="552" 
d="M83 19v652q0 19 17 19q18 0 18 -19v-304h120l234 305q18 25 33 14q10 -9 -6 -32l-227 -294q109 -25 174.5 -112t65.5 -205q0 -115 -45 -184t-146 -69q-64 0 -103 19q-23 11 -17 26q5 13 28 5q51 -18 96 -18q151 0 151 217q0 75 -31 141.5t-94.5 110.5t-147.5 44h-85v-316
q0 -19 -18 -19q-17 0 -17 19z" />
    <glyph glyph-name="uni04C4" unicode="&#x4c4;" horiz-adv-x="456" 
d="M259 -210q-56 0 -98 16q-22 9 -17 23q5 15 28 7q44 -15 89 -15q125 0 125 170q0 93 -56 165t-138 72h-91v-209q0 -19 -17 -19q-16 0 -16 19v452q0 19 16 19q17 0 17 -19v-212h103l158 218q14 20 28 9q10 -8 -3 -28l-150 -205q84 -21 133.5 -93.5t49.5 -166.5
q0 -203 -161 -203z" />
    <glyph glyph-name="uni04C7" unicode="&#x4c7;" horiz-adv-x="692" 
d="M574 371v300q0 19 18 19q17 0 17 -19v-659q0 -120 -24.5 -171t-104.5 -51q-54 0 -91 16q-17 8 -12 23q5 12 24 7q39 -14 77 -14q18 0 32 2.5t24 11t17 15t11.5 23.5t7 27.5t3.5 36.5t1 40v49v312h-456v-320q0 -19 -18 -19q-17 0 -17 19v652q0 19 17 19q18 0 18 -19v-300
h456z" />
    <glyph glyph-name="uni04C8" unicode="&#x4c8;" horiz-adv-x="535" 
d="M434 271v200q0 19 17 19q16 0 16 -19v-432q0 -54 -2 -87t-9 -67.5t-20.5 -53t-37.5 -30t-59 -11.5q-54 0 -91 16q-17 9 -12 22q4 12 24 7q39 -14 77 -14q68 0 86 57q11 36 11 162v15v185h-333v-221q0 -19 -17 -19q-16 0 -16 19v452q0 19 16 19q17 0 17 -19v-200h333z" />
    <glyph glyph-name="uni04D0" unicode="&#x4d0;" horiz-adv-x="599" 
d="M331 680l256 -646q11 -26 -4 -33q-19 -8 -29 19l-82 207h-327l-79 -203q-11 -30 -28 -23q-15 5 -4 33l252 644q9 22 23 22t22 -20zM307 648l-150 -389h303zM308 765q-89 0 -135 64q-16 23 -4 33q12 9 28 -12q43 -55 111 -55q67 0 111 54q18 23 30 13q12 -9 -5 -33
q-48 -64 -136 -64z" />
    <glyph glyph-name="uni04D1" unicode="&#x4d1;" horiz-adv-x="491" 
d="M98 437q-24 -10 -29 3q-6 14 14 24q72 36 160 36q180 0 180 -174v-307q0 -19 -17 -19q-16 0 -16 19v118q-22 -64 -77 -105.5t-137 -41.5q-71 0 -113.5 36t-42.5 104q0 45 19.5 78.5t53.5 51t71 25.5t79 8q77 0 147 -14v43q0 147 -150 147q-63 0 -142 -32zM181 21
q95 0 152 65.5t57 141.5v22q-81 13 -142 13q-88 0 -141 -33t-53 -99q0 -51 33 -80.5t94 -29.5zM237 588q-46 0 -79 21t-48 51q-12 23 2 30q13 6 26 -15q35 -58 99 -58t100 57q14 22 26 16q13 -6 1 -29q-41 -73 -127 -73z" />
    <glyph glyph-name="uni04D2" unicode="&#x4d2;" horiz-adv-x="599" 
d="M331 680l256 -646q11 -26 -4 -33q-19 -8 -29 19l-82 207h-327l-79 -203q-11 -30 -28 -23q-15 5 -4 33l252 644q9 22 23 22t22 -20zM307 648l-150 -389h303zM200 816q0 30 30 30q14 0 22.5 -8t8.5 -22q0 -29 -31 -29q-30 0 -30 29zM358 816q0 30 30 30q14 0 22.5 -8
t8.5 -22q0 -29 -31 -29q-30 0 -30 29z" />
    <glyph glyph-name="uni04D3" unicode="&#x4d3;" horiz-adv-x="491" 
d="M98 437q-24 -10 -29 3q-6 14 14 24q72 36 160 36q180 0 180 -174v-307q0 -19 -17 -19q-16 0 -16 19v118q-22 -64 -77 -105.5t-137 -41.5q-71 0 -113.5 36t-42.5 104q0 45 19.5 78.5t53.5 51t71 25.5t79 8q77 0 147 -14v43q0 147 -150 147q-63 0 -142 -32zM181 21
q95 0 152 65.5t57 141.5v22q-81 13 -142 13q-88 0 -141 -33t-53 -99q0 -51 33 -80.5t94 -29.5zM142 635q0 12 7.5 20t20.5 8q12 0 20 -8t8 -20q0 -11 -8 -19t-20 -8q-13 0 -20.5 7.5t-7.5 19.5zM285 635q0 12 7.5 20t19.5 8q13 0 20.5 -8t7.5 -20t-7.5 -19.5t-20.5 -7.5
q-12 0 -19.5 7.5t-7.5 19.5z" />
    <glyph glyph-name="uni04D4" unicode="&#x4d4;" horiz-adv-x="893" 
d="M862 0h-368q-21 0 -21 20v207h-265l-139 -207q-18 -29 -35 -17q-13 9 4 33l433 636q12 18 27 18h357q16 0 16 -16t-16 -16h-347v-282h290q16 0 16 -16t-16 -16h-290v-312h354q16 0 16 -16t-16 -16zM473 621l-243 -362h243v362z" />
    <glyph glyph-name="uni04D5" unicode="&#x4d5;" horiz-adv-x="851" 
d="M621 21q78 0 140 40q20 13 27 1q9 -14 -8 -26q-64 -46 -159 -46q-91 0 -150 46t-66 125q-23 -80 -83 -125.5t-145 -45.5q-71 0 -114 35t-43 99q0 45 17.5 77t50 48t69.5 23t85 7h148v43q0 147 -151 147q-59 0 -140 -33q-24 -10 -29 3q-4 12 16 23q28 15 73 26.5t84 11.5
q163 0 172 -139q46 139 204 139q91 0 140 -52.5t49 -124.5q0 -31 -6 -53q-4 -14 -13 -17t-34 -3h-8h-326q0 -113 51 -171t149 -58zM179 21q95 0 153 62t58 140v27h-151q-90 0 -137.5 -28.5t-47.5 -96.5q0 -48 33.5 -76t91.5 -28zM617 469q-79 0 -132.5 -50.5t-61.5 -139.5
h350q3 18 3 43q0 65 -42 106t-117 41z" />
    <glyph glyph-name="uni04D6" unicode="&#x4d6;" horiz-adv-x="535" 
d="M491 0h-388q-9 0 -14.5 6t-5.5 14v650q0 20 19 20h381q16 0 16 -16t-16 -16h-365v-282h306q16 0 16 -16t-16 -16h-306v-312h373q16 0 16 -16t-16 -16zM284 765q-89 0 -135 64q-16 23 -4 33q12 9 28 -12q43 -55 111 -55t111 54q18 23 30 13q12 -9 -5 -33q-48 -64 -136 -64
z" />
    <glyph glyph-name="uni04D7" unicode="&#x4d7;" horiz-adv-x="505" 
d="M274 21q75 0 142 42q19 11 26 0q9 -12 -10 -26q-64 -47 -158 -47q-115 0 -173 66t-58 187q0 114 61 185.5t166 71.5q94 0 143 -54.5t49 -131.5q0 -37 -5 -57q-6 -29 -31 -29h-349q0 -97 53 -152t144 -55zM267 469q-83 0 -136.5 -58t-53.5 -153h350q4 19 4 54
q-1 73 -44 115t-120 42zM273 588q-46 0 -79 21t-48 51q-12 23 2 30q13 6 26 -15q35 -58 99 -58t100 57q14 22 26 16q13 -6 1 -29q-41 -73 -127 -73z" />
    <glyph glyph-name="uni04D8" unicode="&#x4d8;" horiz-adv-x="650" 
d="M311 668q-83 0 -178 -41q-26 -12 -32 0q-9 17 20 31q89 42 192 42q80 0 136 -26t88 -75t46 -110.5t14 -141.5q0 -69 -13 -128t-42.5 -113t-87 -85t-137.5 -31q-132 0 -198 79t-66 216q0 37 5 62q7 34 33 34h469q-6 138 -64.5 212.5t-184.5 74.5zM317 22q245 0 245 326
h-470q-6 -21 -6 -61q1 -130 61 -197.5t170 -67.5z" />
    <glyph glyph-name="uni04D9" unicode="&#x4d9;" horiz-adv-x="486" 
d="M49 246q7 30 35 30h326q-11 193 -178 193q-61 0 -128 -29q-27 -12 -33 -1q-7 15 19 28q62 33 144 33q209 0 209 -254q0 -116 -50 -186t-158 -70q-95 0 -143.5 53.5t-48.5 147.5q0 32 6 55zM236 20q173 0 175 225h-331q-6 -27 -6 -55q0 -83 42 -126.5t120 -43.5z" />
    <glyph glyph-name="uni04DA" unicode="&#x4da;" horiz-adv-x="650" 
d="M311 668q-83 0 -178 -41q-26 -12 -32 0q-9 17 20 31q89 42 192 42q80 0 136 -26t88 -75t46 -110.5t14 -141.5q0 -69 -13 -128t-42.5 -113t-87 -85t-137.5 -31q-132 0 -198 79t-66 216q0 37 5 62q7 34 33 34h469q-6 138 -64.5 212.5t-184.5 74.5zM317 22q245 0 245 326
h-470q-6 -21 -6 -61q1 -130 61 -197.5t170 -67.5zM201 816q0 30 30 30q14 0 22.5 -8t8.5 -22q0 -29 -31 -29q-30 0 -30 29zM359 816q0 30 30 30q14 0 22.5 -8t8.5 -22q0 -29 -31 -29q-30 0 -30 29z" />
    <glyph glyph-name="uni04DB" unicode="&#x4db;" horiz-adv-x="486" 
d="M49 246q7 30 35 30h326q-11 193 -178 193q-61 0 -128 -29q-27 -12 -33 -1q-7 15 19 28q62 33 144 33q209 0 209 -254q0 -116 -50 -186t-158 -70q-95 0 -143.5 53.5t-48.5 147.5q0 32 6 55zM236 20q173 0 175 225h-331q-6 -27 -6 -55q0 -83 42 -126.5t120 -43.5zM138 635
q0 12 7.5 20t20.5 8q12 0 20 -8t8 -20q0 -11 -8 -19t-20 -8q-13 0 -20.5 7.5t-7.5 19.5zM281 635q0 12 7.5 20t19.5 8q13 0 20.5 -8t7.5 -20t-7.5 -19.5t-20.5 -7.5q-12 0 -19.5 7.5t-7.5 19.5z" />
    <glyph glyph-name="uni04DC" unicode="&#x4dc;" horiz-adv-x="794" 
d="M392 19v320l-328 -326q-22 -20 -34 -8q-13 13 8 32l317 312l-288 301q-22 22 -7 35q14 14 37 -11l295 -316v313q0 19 18 19q17 0 17 -19v-313l298 317q22 24 35 11q12 -12 -9 -33l-287 -303l317 -310q21 -21 8 -35q-11 -13 -34 8l-328 326v-320q0 -19 -17 -19
q-18 0 -18 19zM301 816q0 30 30 30q14 0 22.5 -8t8.5 -22q0 -29 -31 -29q-30 0 -30 29zM459 816q0 30 30 30q14 0 22.5 -8t8.5 -22q0 -29 -31 -29q-30 0 -30 29z" />
    <glyph glyph-name="uni04DD" unicode="&#x4dd;" horiz-adv-x="599" 
d="M296 19v224l-230 -229q-21 -21 -34 -10q-14 12 6 32l227 218l-211 201q-18 18 -7 31t31 -5l218 -217v207q0 19 16 19q17 0 17 -19v-208l220 216q17 17 28 7q13 -12 -6 -29l-210 -201l227 -219q20 -20 6 -33q-12 -11 -33 10l-232 228v-223q0 -19 -17 -19q-16 0 -16 19z
M214 635q0 12 7.5 20t20.5 8q12 0 20 -8t8 -20q0 -11 -8 -19t-20 -8q-13 0 -20.5 7.5t-7.5 19.5zM357 635q0 12 7.5 20t19.5 8q13 0 20.5 -8t7.5 -20t-7.5 -19.5t-20.5 -7.5q-12 0 -19.5 7.5t-7.5 19.5z" />
    <glyph glyph-name="uni04DE" unicode="&#x4de;" horiz-adv-x="550" 
d="M86 22q-34 15 -24 32q1 2 2.5 3.5t3.5 2t3.5 1t4.5 0t5 -1t5 -1.5t5 -2t5.5 -2.5t5.5 -2.5q75 -29 161 -29q96 0 152 44t56 121q0 149 -202 151h-82q-16 0 -16 16t16 16h77q85 0 134.5 41.5t49.5 113.5q0 65 -42.5 104t-127.5 39q-83 0 -161 -35q-34 -16 -40 -4
q-8 16 25 32q82 39 178 39q94 0 149 -42.5t55 -129.5q0 -135 -137 -171q81 -8 120.5 -54.5t39.5 -113.5q0 -97 -67 -148t-176 -51q-108 0 -178 32zM174 816q0 30 30 30q14 0 22.5 -8t8.5 -22q0 -29 -31 -29q-30 0 -30 29zM332 816q0 30 30 30q14 0 22.5 -8t8.5 -22
q0 -29 -31 -29q-30 0 -30 29z" />
    <glyph glyph-name="uni04DF" unicode="&#x4df;" horiz-adv-x="433" 
d="M228 500q76 0 114.5 -33.5t38.5 -90.5q0 -48 -30.5 -80t-79.5 -41q54 -4 88 -36t34 -90q0 -61 -47.5 -100t-132.5 -39q-94 0 -151 31q-22 12 -14 27q7 12 29 2q66 -29 132 -29q75 0 112.5 31t37.5 78q1 53 -35.5 80.5t-113.5 28.5h-59q-16 0 -16 15t16 15h57
q57 0 98 24.5t41 80.5q0 41 -28.5 68t-94.5 27q-60 0 -129 -32q-23 -11 -29 0q-8 14 12 25q69 38 150 38zM126 635q0 12 7.5 20t20.5 8q12 0 20 -8t8 -20q0 -11 -8 -19t-20 -8q-13 0 -20.5 7.5t-7.5 19.5zM269 635q0 12 7.5 20t19.5 8q13 0 20.5 -8t7.5 -20t-7.5 -19.5
t-20.5 -7.5q-12 0 -19.5 7.5t-7.5 19.5z" />
    <glyph glyph-name="uni04E2" unicode="&#x4e2;" horiz-adv-x="693" 
d="M118 671v-608l453 611q11 16 22 16q17 0 17 -21v-650q0 -19 -18 -19q-17 0 -17 19v607l-455 -613q-11 -13 -21 -13q-16 0 -16 20v651q0 19 17 19q18 0 18 -19zM488 794h-285q-16 0 -16 14q0 15 16 15h285q15 0 15 -15q0 -14 -15 -14z" />
    <glyph glyph-name="uni04E3" unicode="&#x4e3;" 
d="M437 19v416l-333 -424q-8 -11 -20 -11q-16 0 -16 20v451q0 19 16 19q17 0 17 -19v-418l333 426q9 11 19 11q17 0 17 -22v-449q0 -19 -17 -19q-16 0 -16 19zM398 618h-258q-15 0 -15 15t15 15h258q16 0 16 -15t-16 -15z" />
    <glyph glyph-name="uni04E4" unicode="&#x4e4;" horiz-adv-x="693" 
d="M118 671v-608l453 611q11 16 22 16q17 0 17 -21v-650q0 -19 -18 -19q-17 0 -17 19v607l-455 -613q-11 -13 -21 -13q-16 0 -16 20v651q0 19 17 19q18 0 18 -19zM237 816q0 30 30 30q14 0 22.5 -8t8.5 -22q0 -29 -31 -29q-30 0 -30 29zM395 816q0 30 30 30q14 0 22.5 -8
t8.5 -22q0 -29 -31 -29q-30 0 -30 29z" />
    <glyph glyph-name="uni04E5" unicode="&#x4e5;" 
d="M437 19v416l-333 -424q-8 -11 -20 -11q-16 0 -16 20v451q0 19 16 19q17 0 17 -19v-418l333 426q9 11 19 11q17 0 17 -22v-449q0 -19 -17 -19q-16 0 -16 19zM170 635q0 12 7.5 20t20.5 8q12 0 20 -8t8 -20q0 -11 -8 -19t-20 -8q-13 0 -20.5 7.5t-7.5 19.5zM313 635
q0 12 7.5 20t19.5 8q13 0 20.5 -8t7.5 -20t-7.5 -19.5t-20.5 -7.5q-12 0 -19.5 7.5t-7.5 19.5z" />
    <glyph glyph-name="uni04E6" unicode="&#x4e6;" horiz-adv-x="753" 
d="M53 345q0 155 85.5 255t238.5 100q152 0 237.5 -100t85.5 -255q0 -156 -85 -255.5t-238 -99.5t-238.5 99.5t-85.5 255.5zM89 345q0 -143 77 -233t211 -90q133 0 210 90t77 233t-77 233t-210 90q-134 0 -211 -90t-77 -233zM267 816q0 30 30 30q14 0 22.5 -8t8.5 -22
q0 -29 -31 -29q-30 0 -30 29zM425 816q0 30 30 30q14 0 22.5 -8t8.5 -22q0 -29 -31 -29q-30 0 -30 29z" />
    <glyph glyph-name="uni04E7" unicode="&#x4e7;" horiz-adv-x="558" 
d="M43 245q0 113 62.5 184t173.5 71t173.5 -71t62.5 -184t-62.5 -184t-173.5 -71t-173.5 71t-62.5 184zM77 245q0 -104 54 -164t148 -60t148 60t54 164q0 103 -54 163.5t-148 60.5t-148 -60.5t-54 -163.5zM179 635q0 12 7.5 20t20.5 8q12 0 20 -8t8 -20q0 -11 -7.5 -19
t-20.5 -8t-20.5 7.5t-7.5 19.5zM322 635q0 12 7.5 20t19.5 8q13 0 20.5 -8t7.5 -20t-7.5 -19.5t-20.5 -7.5q-12 0 -19.5 7.5t-7.5 19.5z" />
    <glyph glyph-name="uni04E8" unicode="&#x4e8;" horiz-adv-x="753" 
d="M53 345q0 155 85.5 255t238.5 100q152 0 237.5 -100t85.5 -255q0 -156 -85 -255.5t-238 -99.5t-238.5 99.5t-85.5 255.5zM377 668q-130 0 -207 -85.5t-81 -222.5h575q-5 137 -81.5 222.5t-205.5 85.5zM377 22q129 0 205.5 85t81.5 221h-575q5 -137 81.5 -221.5
t206.5 -84.5z" />
    <glyph glyph-name="uni04E9" unicode="&#x4e9;" horiz-adv-x="558" 
d="M43 245q0 113 62.5 184t173.5 71t173.5 -71t62.5 -184t-62.5 -184t-173.5 -71t-173.5 71t-62.5 184zM279 21q91 0 145 57t57 156h-404q3 -99 56.5 -156t145.5 -57zM279 469q-89 0 -143 -55t-59 -149h403q-5 94 -58.5 149t-142.5 55z" />
    <glyph glyph-name="uni04EA" unicode="&#x4ea;" horiz-adv-x="753" 
d="M53 345q0 155 85.5 255t238.5 100q152 0 237.5 -100t85.5 -255q0 -156 -85 -255.5t-238 -99.5t-238.5 99.5t-85.5 255.5zM377 668q-130 0 -207 -85.5t-81 -222.5h575q-5 137 -81.5 222.5t-205.5 85.5zM377 22q129 0 205.5 85t81.5 221h-575q5 -137 81.5 -221.5
t206.5 -84.5zM267 816q0 30 30 30q14 0 22.5 -8t8.5 -22q0 -29 -31 -29q-30 0 -30 29zM425 816q0 30 30 30q14 0 22.5 -8t8.5 -22q0 -29 -31 -29q-30 0 -30 29z" />
    <glyph glyph-name="uni04EB" unicode="&#x4eb;" horiz-adv-x="558" 
d="M43 245q0 113 62.5 184t173.5 71t173.5 -71t62.5 -184t-62.5 -184t-173.5 -71t-173.5 71t-62.5 184zM279 21q91 0 145 57t57 156h-404q3 -99 56.5 -156t145.5 -57zM279 469q-89 0 -143 -55t-59 -149h403q-5 94 -58.5 149t-142.5 55zM179 635q0 12 7.5 20t20.5 8
q12 0 20 -8t8 -20q0 -11 -7.5 -19t-20.5 -8t-20.5 7.5t-7.5 19.5zM322 635q0 12 7.5 20t19.5 8q13 0 20.5 -8t7.5 -20t-7.5 -19.5t-20.5 -7.5q-12 0 -19.5 7.5t-7.5 19.5z" />
    <glyph glyph-name="uni04EE" unicode="&#x4ee;" horiz-adv-x="572" 
d="M313 157l-275 494q-17 28 -1 36q16 9 31 -17l263 -476l198 474q11 26 27 20q14 -6 4 -31l-194 -459q-21 -50 -32 -74t-28.5 -55.5t-32 -45t-36 -23.5t-47.5 -10q-49 0 -86 21q-23 14 -16 29q3 6 8.5 7t9.5 0l14 -6q42 -19 71 -19q41 0 67.5 33.5t54.5 101.5zM430 794
h-285q-16 0 -16 14q0 15 16 15h285q15 0 15 -15q0 -14 -15 -14z" />
    <glyph glyph-name="uni04EF" unicode="&#x4ef;" horiz-adv-x="453" 
d="M2 -192q-20 11 -14 26q6 13 30 1q31 -14 62 -14q25 0 47 15t37.5 41t27 51.5t22.5 54.5q3 9 5 14l-192 455q-12 29 5 36t28 -20l177 -430l172 431q11 25 27 19q15 -6 4 -32l-200 -488q-41 -100 -75 -139t-87 -39q-43 0 -76 18zM361 618h-258q-15 0 -15 15t15 15h258
q16 0 16 -15t-16 -15z" />
    <glyph glyph-name="uni04F0" unicode="&#x4f0;" horiz-adv-x="572" 
d="M313 157l-275 494q-17 28 -1 36q16 9 31 -17l263 -476l198 474q11 26 27 20q14 -6 4 -31l-194 -459q-21 -50 -32 -74t-28.5 -55.5t-32 -45t-36 -23.5t-47.5 -10q-49 0 -86 21q-23 14 -16 29q3 6 8.5 7t9.5 0l14 -6q42 -19 71 -19q41 0 67.5 33.5t54.5 101.5zM183 816
q0 30 30 30q14 0 22.5 -8t8.5 -22q0 -29 -31 -29q-30 0 -30 29zM341 816q0 30 30 30q14 0 22.5 -8t8.5 -22q0 -29 -31 -29q-30 0 -30 29z" />
    <glyph glyph-name="uni04F1" unicode="&#x4f1;" horiz-adv-x="453" 
d="M2 -192q-20 11 -14 26q6 13 30 1q31 -14 62 -14q25 0 47 15t37.5 41t27 51.5t22.5 54.5q3 9 5 14l-192 455q-12 29 5 36t28 -20l177 -430l172 431q11 25 27 19q15 -6 4 -32l-200 -488q-41 -100 -75 -139t-87 -39q-43 0 -76 18zM134 635q0 12 7.5 20t20.5 8q12 0 20 -8
t8 -20q0 -11 -8 -19t-20 -8q-13 0 -20.5 7.5t-7.5 19.5zM277 635q0 12 7.5 20t19.5 8q13 0 20.5 -8t7.5 -20t-7.5 -19.5t-20.5 -7.5q-12 0 -19.5 7.5t-7.5 19.5z" />
    <glyph glyph-name="uni04F2" unicode="&#x4f2;" horiz-adv-x="572" 
d="M313 157l-275 494q-17 28 -1 36q16 9 31 -17l263 -476l198 474q11 26 27 20q14 -6 4 -31l-194 -459q-21 -50 -32 -74t-28.5 -55.5t-32 -45t-36 -23.5t-47.5 -10q-49 0 -86 21q-23 14 -16 29q3 6 8.5 7t9.5 0l14 -6q42 -19 71 -19q41 0 67.5 33.5t54.5 101.5zM388 875
l-184 -110q-24 -14 -32 -2q-9 14 16 28l183 108q23 13 31 2q8 -13 -14 -26zM565 875l-184 -110q-24 -14 -32 -2q-9 14 16 28l183 108q23 13 31 2q8 -13 -14 -26z" />
    <glyph glyph-name="uni04F3" unicode="&#x4f3;" horiz-adv-x="453" 
d="M2 -192q-20 11 -14 26q6 13 30 1q31 -14 62 -14q25 0 47 15t37.5 41t27 51.5t22.5 54.5q3 9 5 14l-192 455q-12 29 5 36t28 -20l177 -430l172 431q11 25 27 19q15 -6 4 -32l-200 -488q-41 -100 -75 -139t-87 -39q-43 0 -76 18zM316 689l-154 -103q-21 -16 -30 -3
q-8 13 12 26l157 105q20 14 28 2q8 -13 -13 -27zM456 689l-154 -103q-21 -16 -30 -3q-8 13 12 26l157 105q20 14 28 2q8 -13 -13 -27z" />
    <glyph glyph-name="uni04F4" unicode="&#x4f4;" horiz-adv-x="573" 
d="M455 19v316q-40 -35 -96 -57.5t-109 -22.5q-107 0 -157 52t-50 182v182q0 19 17 19q18 0 18 -19v-172q0 -116 39.5 -164t133.5 -48q53 0 108.5 23.5t95.5 61.5v299q0 19 17 19q18 0 18 -19v-652q0 -19 -18 -19q-17 0 -17 19zM159 816q0 30 30 30q14 0 22.5 -8t8.5 -22
q0 -29 -31 -29q-30 0 -30 29zM317 816q0 30 30 30q14 0 22.5 -8t8.5 -22q0 -29 -31 -29q-30 0 -30 29z" />
    <glyph glyph-name="uni04F5" unicode="&#x4f5;" horiz-adv-x="449" 
d="M66 471v-117q0 -80 30 -114.5t102 -34.5q84 0 150 59v207q0 19 17 19q16 0 16 -19v-452q0 -19 -16 -19q-17 0 -17 19v209q-70 -54 -153 -54q-82 0 -122 38.5t-40 132.5v126q0 19 16 19q17 0 17 -19zM108 635q0 12 7.5 20t20.5 8q12 0 20 -8t8 -20q0 -11 -8 -19t-20 -8
q-13 0 -20.5 7.5t-7.5 19.5zM251 635q0 12 7.5 20t19.5 8q13 0 20.5 -8t7.5 -20t-7.5 -19.5t-20.5 -7.5q-12 0 -19.5 7.5t-7.5 19.5z" />
    <glyph glyph-name="uni04F8" unicode="&#x4f8;" horiz-adv-x="749" 
d="M631 19v652q0 19 18 19q17 0 17 -19v-652q0 -19 -17 -19q-18 0 -18 19zM248 -5q-92 0 -147 9q-18 3 -18 23v644q0 19 17 19q18 0 18 -19v-268q62 11 129 11q244 0 244 -206q0 -102 -61 -157.5t-182 -55.5zM248 27q207 0 207 180q0 175 -210 175q-70 0 -127 -11v-337
q51 -7 130 -7zM265 816q0 30 30 30q14 0 22.5 -8t8.5 -22q0 -29 -31 -29q-30 0 -30 29zM423 816q0 30 30 30q14 0 22.5 -8t8.5 -22q0 -29 -31 -29q-30 0 -30 29z" />
    <glyph glyph-name="uni04F9" unicode="&#x4f9;" horiz-adv-x="588" 
d="M487 19v452q0 19 17 19q16 0 16 -19v-452q0 -19 -16 -19q-17 0 -17 19zM68 26v445q0 19 16 19q17 0 17 -19v-167q48 10 102 10q189 0 189 -158q0 -30 -8.5 -55.5t-29.5 -51t-63.5 -40t-103.5 -14.5q-67 0 -103 9q-16 4 -16 22zM184 26q174 0 174 130q0 127 -157 127
q-41 0 -100 -9v-242q34 -6 83 -6zM195 635q0 12 7.5 20t20.5 8q12 0 20 -8t8 -20q0 -11 -7.5 -19t-20.5 -8t-20.5 7.5t-7.5 19.5zM338 635q0 12 7.5 20t19.5 8q13 0 20.5 -8t7.5 -20t-7.5 -19.5t-20.5 -7.5q-12 0 -19.5 7.5t-7.5 19.5z" />
    <glyph glyph-name="endash" unicode="&#x2013;" horiz-adv-x="332" 
d="M303 255h-274q-16 0 -16 16q0 15 16 15h274q16 0 16 -15q0 -16 -16 -16z" />
    <glyph glyph-name="emdash" unicode="&#x2014;" horiz-adv-x="588" 
d="M559 255h-530q-16 0 -16 16q0 15 16 15h530q16 0 16 -15q0 -16 -16 -16z" />
    <glyph glyph-name="quoteleft" unicode="&#x2018;" horiz-adv-x="196" 
d="M167 493l-95 175q-11 21 3 29q17 9 29 -15l94 -174q12 -22 -2 -30q-17 -8 -29 15z" />
    <glyph glyph-name="quoteright" unicode="&#x2019;" horiz-adv-x="196" 
d="M145 668l-95 -175q-12 -23 -29 -15q-14 8 -2 30l94 174q12 24 29 15q14 -8 3 -29z" />
    <glyph glyph-name="quotesinglbase" unicode="&#x201a;" horiz-adv-x="196" 
d="M145 37l-95 -175q-12 -23 -29 -15q-14 8 -2 30l94 174q12 24 29 15q14 -8 3 -29z" />
    <glyph glyph-name="quotedblleft" unicode="&#x201c;" horiz-adv-x="307" 
d="M110 493l-95 175q-11 21 3 29q17 9 29 -15l94 -174q12 -22 -2 -30q-17 -8 -29 15zM221 493l-95 175q-11 21 3 29q17 9 29 -15l94 -174q12 -22 -2 -30q-17 -8 -29 15z" />
    <glyph glyph-name="quotedblright" unicode="&#x201d;" horiz-adv-x="307" 
d="M313 668l-95 -175q-12 -23 -29 -15q-14 8 -2 30l94 174q12 24 29 15q14 -8 3 -29zM202 668l-95 -175q-12 -23 -29 -15q-14 8 -2 30l94 174q12 24 29 15q14 -8 3 -29z" />
    <glyph glyph-name="quotedblbase" unicode="&#x201e;" horiz-adv-x="307" 
d="M145 37l-95 -175q-12 -23 -29 -15q-14 8 -2 30l94 174q12 24 29 15q14 -8 3 -29zM256 37l-95 -175q-12 -23 -29 -15q-14 8 -2 30l94 174q12 24 29 15q14 -8 3 -29z" />
    <glyph glyph-name="dagger" unicode="&#x2020;" horiz-adv-x="360" 
d="M331 460h-135v-641q0 -19 -16 -19t-16 19v641h-135q-16 0 -16 15t16 15h135v191q0 19 16 19t16 -19v-191h135q16 0 16 -15t-16 -15z" />
    <glyph glyph-name="daggerdbl" unicode="&#x2021;" horiz-adv-x="360" 
d="M331 29h-135v-210q0 -19 -16 -19t-16 19v210h-135q-16 0 -16 15t16 15h135v401h-135q-16 0 -16 15t16 15h135v191q0 19 16 19t16 -19v-191h135q16 0 16 -15t-16 -15h-135v-401h135q16 0 16 -15t-16 -15z" />
    <glyph glyph-name="bullet" unicode="&#x2022;" horiz-adv-x="301" 
d="M73 305q0 34 20.5 56.5t56.5 22.5t57 -22.5t21 -56.5t-20.5 -55.5t-57.5 -21.5q-36 0 -56.5 21.5t-20.5 55.5z" />
    <glyph glyph-name="ellipsis" unicode="&#x2026;" horiz-adv-x="564" 
d="M61 28q0 29 28 29q14 0 21.5 -8t7.5 -21q0 -28 -29 -28q-28 0 -28 28zM253 28q0 29 28 29q14 0 21.5 -8t7.5 -21q0 -28 -29 -28q-28 0 -28 28zM445 28q0 13 7.5 21t21.5 8t21.5 -8t7.5 -21q0 -28 -29 -28t-29 28z" />
    <glyph glyph-name="perthousand" unicode="&#x2030;" horiz-adv-x="1092" 
d="M31 521q0 82 35.5 130.5t106.5 48.5t106 -48.5t35 -130.5t-35 -130t-106 -48t-106.5 48t-35.5 130zM63 521q0 -150 110 -150q109 0 109 150q0 68 -26 109.5t-83 41.5q-110 0 -110 -151zM436 168q0 82 35.5 130.5t106.5 48.5t106 -48.5t35 -130.5t-35 -130t-106 -48
t-106.5 48t-35.5 130zM468 168q0 -150 110 -150q109 0 109 150q0 68 -26 109.5t-83 41.5q-110 0 -110 -151zM233 -5l255 715q6 17 12 24t15 4q14 -5 2 -38l-255 -716q-10 -27 -26 -23q-14 4 -3 34zM788 168q0 82 35.5 130.5t106.5 48.5t106 -48.5t35 -130.5t-35 -130
t-106 -48t-106.5 48t-35.5 130zM820 168q0 -150 110 -150q109 0 109 150q0 68 -26 109.5t-83 41.5q-110 0 -110 -151z" />
    <glyph glyph-name="guilsinglleft" unicode="&#x2039;" horiz-adv-x="311" 
d="M78 271l171 167q17 17 27 7q10 -9 -8 -27l-172 -168l172 -174q18 -18 9 -29q-11 -11 -29 8l-171 171q-22 22 1 45z" />
    <glyph glyph-name="guilsinglright" unicode="&#x203a;" horiz-adv-x="311" 
d="M262 222l-171 -167q-17 -17 -27 -7q-9 10 8 27l172 168l-172 174q-18 18 -9 29q10 10 29 -8l171 -171q22 -22 -1 -45z" />
    <glyph glyph-name="fraction" unicode="&#x2044;" horiz-adv-x="101" 
d="M-81 -5l255 715q6 17 12 24t15 4q14 -5 2 -38l-255 -716q-10 -27 -26 -23q-14 4 -3 34z" />
    <glyph glyph-name="uni2070" unicode="&#x2070;" horiz-adv-x="345" 
d="M31 521q0 82 35.5 130.5t106.5 48.5t106 -48.5t35 -130.5t-35 -130t-106 -48t-106.5 48t-35.5 130zM63 521q0 -150 110 -150q109 0 109 150q0 68 -26 109.5t-83 41.5q-110 0 -110 -151z" />
    <glyph glyph-name="uni2074" unicode="&#x2074;" horiz-adv-x="291" 
d="M42 484h137v171zM208 456v-88q0 -15 -15 -15q-14 0 -14 15v88h-157q-13 0 -15.5 11t4.5 18l161 201q10 14 22 14q14 0 14 -19v-197h39q13 0 13 -14t-13 -14h-39z" />
    <glyph glyph-name="uni2075" unicode="&#x2075;" horiz-adv-x="305" 
d="M93 690h141q14 0 14 -14t-14 -14h-136l-10 -102q32 6 62 6q56 0 85 -30t29 -79q0 -54 -35.5 -84t-94.5 -30q-53 0 -88 19q-23 12 -15 26q5 10 29 -1q33 -16 74 -16q98 0 98 85q0 37 -22.5 59.5t-67.5 22.5q-20 0 -43 -3t-26 -3q-16 0 -13 19l12 118q3 21 21 21z" />
    <glyph glyph-name="uni2076" unicode="&#x2076;" horiz-adv-x="310" 
d="M229 663q-30 9 -53 9q-52 0 -83 -41t-31 -112q14 28 42.5 43t59.5 15q52 0 82.5 -31.5t30.5 -82.5q0 -52 -31.5 -86t-88.5 -34q-59 0 -91.5 40.5t-32.5 115.5q0 93 37 147t109 54q36 0 60 -12q15 -8 10 -20q-4 -10 -20 -5zM64 473q0 -40 24 -71t68 -31q43 0 66.5 25
t23.5 65q0 39 -24.5 63.5t-65.5 24.5q-34 0 -63 -23.5t-29 -52.5z" />
    <glyph glyph-name="uni2077" unicode="&#x2077;" horiz-adv-x="225" 
d="M219 660l-132 -285q-13 -26 -26 -21q-14 6 -2 30l128 278h-170q-14 0 -14 14t14 14h188q12 0 16 -8.5t-2 -21.5z" />
    <glyph glyph-name="uni2078" unicode="&#x2078;" horiz-adv-x="330" 
d="M60 621q0 36 29.5 57.5t75.5 21.5t75.5 -20t29.5 -58q0 -56 -63 -92q44 -22 62 -43t18 -54q0 -42 -34.5 -66t-87.5 -24t-87.5 22t-34.5 65q0 64 82 107q-65 33 -65 84zM74 432q0 -29 25 -46.5t65 -17.5q42 0 67 18t25 47q0 30 -26.5 50t-80.5 41q-75 -36 -75 -92zM91 621
q0 -47 91 -81q58 34 58 80q0 25 -20 39.5t-55 14.5q-74 0 -74 -53z" />
    <glyph glyph-name="uni2079" unicode="&#x2079;" horiz-adv-x="310" 
d="M79 380q30 -9 53 -9q52 0 83 41t31 112q-14 -28 -42.5 -43t-59.5 -15q-52 0 -82.5 31.5t-30.5 82.5q0 52 31.5 86t88.5 34q59 0 91.5 -40.5t32.5 -115.5q0 -93 -37 -147t-109 -54q-36 0 -60 12q-15 8 -10 20q4 10 20 5zM244 570q0 40 -24 71t-68 31q-43 0 -66.5 -25
t-23.5 -65q0 -39 24.5 -63.5t65.5 -24.5q34 0 63 24t29 52z" />
    <glyph glyph-name="uni2080" unicode="&#x2080;" horiz-adv-x="345" 
d="M31 168q0 82 35.5 130.5t106.5 48.5t106 -48.5t35 -130.5t-35 -130t-106 -48t-106.5 48t-35.5 130zM63 168q0 -150 110 -150q109 0 109 150q0 68 -26 109.5t-83 41.5q-110 0 -110 -151z" />
    <glyph glyph-name="uni2081" unicode="&#x2081;" horiz-adv-x="234" 
d="M149 16v284l-94 -94q-18 -18 -28 -7q-9 10 6 25l110 110q13 13 23 13q14 0 14 -17v-314q0 -16 -16 -16q-15 0 -15 16z" />
    <glyph glyph-name="uni2082" unicode="&#x2082;" horiz-adv-x="284" 
d="M250 0h-209q-12 0 -12 13q0 40 19.5 70.5t47.5 49.5l57 36q28 17 47.5 39.5t19.5 50.5q0 26 -19 43t-59 17q-41 0 -82 -23q-20 -12 -26 -2q-7 11 12 24q43 29 98 29q53 0 80.5 -23.5t27.5 -61.5q0 -33 -19.5 -60t-48.5 -45l-56 -36q-28 -18 -47.5 -41.5t-19.5 -51.5h189
q15 0 15 -14t-15 -14z" />
    <glyph glyph-name="uni2083" unicode="&#x2083;" horiz-adv-x="295" 
d="M103 175q-16 0 -16 13q0 7 10 17l113 104h-145q-14 0 -14 14t14 14h177q14 0 14 -13q0 -8 -10 -18l-118 -106q141 -2 141 -102q0 -52 -34 -80t-96 -28q-54 0 -87 18q-24 12 -17 27q5 11 29 0q41 -17 75 -17q98 0 98 79q0 40 -31.5 59t-102.5 19z" />
    <glyph glyph-name="uni2084" unicode="&#x2084;" horiz-adv-x="291" 
d="M42 131h137v171zM208 103v-88q0 -15 -15 -15q-14 0 -14 15v88h-157q-13 0 -15.5 10.5t4.5 18.5l161 201q10 14 22 14q14 0 14 -19v-197h39q13 0 13 -14t-13 -14h-39z" />
    <glyph glyph-name="uni2085" unicode="&#x2085;" horiz-adv-x="305" 
d="M93 337h141q14 0 14 -14t-14 -14h-136l-10 -102q32 6 62 6q56 0 85 -30t29 -79q0 -54 -35.5 -84t-94.5 -30q-53 0 -88 19q-23 12 -15 26q5 10 29 -1q33 -16 74 -16q98 0 98 85q0 37 -22.5 59.5t-67.5 22.5q-20 0 -43 -3t-26 -3q-16 0 -13 19l12 118q3 21 21 21z" />
    <glyph glyph-name="uni2086" unicode="&#x2086;" horiz-adv-x="310" 
d="M229 310q-30 9 -53 9q-52 0 -83 -41t-31 -112q14 28 42.5 43t59.5 15q52 0 82.5 -31.5t30.5 -82.5q0 -52 -31.5 -86t-88.5 -34q-59 0 -91.5 40.5t-32.5 115.5q0 93 37 147t109 54q36 0 60 -12q15 -8 10 -20q-4 -10 -20 -5zM64 120q0 -40 24 -71t68 -31q43 0 66.5 25
t23.5 65q0 39 -24.5 63.5t-65.5 24.5q-34 0 -63 -24t-29 -52z" />
    <glyph glyph-name="uni2087" unicode="&#x2087;" horiz-adv-x="225" 
d="M219 307l-132 -285q-13 -26 -26 -21q-14 6 -2 30l128 278h-170q-14 0 -14 14t14 14h188q12 0 16 -8.5t-2 -21.5z" />
    <glyph glyph-name="uni2088" unicode="&#x2088;" horiz-adv-x="330" 
d="M60 268q0 36 29.5 57.5t75.5 21.5t75.5 -20t29.5 -58q0 -56 -63 -92q44 -22 62 -43t18 -54q0 -42 -34.5 -66t-87.5 -24t-87.5 22t-34.5 65q0 64 82 107q-65 33 -65 84zM74 79q0 -29 25 -46.5t65 -17.5q42 0 67 18t25 47q0 30 -26.5 50t-80.5 41q-75 -36 -75 -92zM91 268
q0 -47 91 -81q58 34 58 80q0 25 -20 39.5t-55 14.5q-74 0 -74 -53z" />
    <glyph glyph-name="uni2089" unicode="&#x2089;" horiz-adv-x="310" 
d="M79 27q30 -9 53 -9q52 0 83 41t31 112q-14 -28 -42.5 -43t-59.5 -15q-52 0 -82.5 31.5t-30.5 82.5q0 52 31.5 86t88.5 34q59 0 91.5 -40.5t32.5 -115.5q0 -93 -37 -147t-109 -54q-36 0 -60 12q-15 8 -10 20q4 10 20 5zM244 217q0 40 -24 71t-68 31q-43 0 -66.5 -25
t-23.5 -65q0 -39 24.5 -63.5t65.5 -24.5q34 0 63 23.5t29 52.5z" />
    <glyph glyph-name="Euro" unicode="&#x20ac;" horiz-adv-x="546" 
d="M411 265h-288q15 -121 82 -182t176 -61q77 0 136 27q30 13 36 1q8 -16 -21 -30q-59 -30 -152 -30q-264 0 -294 275h-73q-16 0 -16 15q0 16 16 16h70q-1 15 -1 47q0 33 3 65h-72q-16 0 -16 16q0 15 16 15h77q22 121 97.5 191t198.5 70q84 0 140 -27q25 -12 20 -27
q-6 -14 -31 -3q-61 25 -133 25q-106 0 -170 -62t-85 -167h284q16 0 16 -15q0 -16 -16 -16h-289q-4 -28 -4 -65q0 -32 1 -47h292q16 0 16 -16q0 -15 -16 -15z" />
    <glyph glyph-name="uni20B4" unicode="&#x20b4;" horiz-adv-x="546" 
d="M467 379h-389q-16 0 -16 15q0 16 16 16h273q97 58 97 143q0 51 -36.5 83t-114.5 32q-73 0 -149 -40q-25 -13 -32 -1q-8 14 16 29q74 44 167 44q96 0 140.5 -40t44.5 -104q0 -87 -87 -146h70q16 0 16 -16q0 -15 -16 -15zM467 258h-295q-42 -42 -42 -103q0 -133 168 -133
q76 0 145 44q29 18 37 7q12 -15 -18 -34q-76 -49 -164 -49q-204 0 -204 159q0 65 39 109h-55q-16 0 -16 16q0 15 16 15h389q16 0 16 -15q0 -16 -16 -16z" />
    <glyph glyph-name="uni20B6" unicode="&#x20b6;" horiz-adv-x="546" 
d="M332 168h-191v-149q0 -19 -17 -19q-18 0 -18 19v149h-73q-16 0 -16 15q0 16 16 16h73v82h-73q-16 0 -16 16q0 15 16 15h73v348q0 18 18 22q51 13 138 13q237 0 237 -200q0 -108 -64 -161t-182 -53h-112v-82h191q16 0 16 -16q0 -15 -16 -15zM262 663q-53 0 -121 -10v-341
h110q100 0 156 41.5t56 141.5q0 168 -201 168z" />
    <glyph glyph-name="uni20B8" unicode="&#x20b8;" horiz-adv-x="546" 
d="M517 532h-227v-513q0 -19 -17 -19q-18 0 -18 19v513h-226q-16 0 -16 16t16 16h488q16 0 16 -16t-16 -16zM517 658h-488q-16 0 -16 16t16 16h488q16 0 16 -16t-16 -16z" />
    <glyph glyph-name="afii61352" unicode="&#x2116;" horiz-adv-x="1079" 
d="M1001 265h-250q-16 0 -16 15q0 16 16 16h250q16 0 16 -16q0 -15 -16 -15zM735 521q0 82 35.5 130.5t106.5 48.5t106 -48.5t35 -130.5t-35 -130t-106 -48t-106.5 48t-35.5 130zM767 521q0 -150 110 -150q109 0 109 150q0 68 -26 109.5t-83 41.5q-110 0 -110 -151zM577 68
v603q0 19 17 19q16 0 16 -19v-650q0 -21 -17 -21q-10 0 -20 12l-457 610v-603q0 -19 -17 -19q-16 0 -16 19v648q0 23 17 23q12 0 24 -16z" />
    <glyph glyph-name="trademark" unicode="&#x2122;" horiz-adv-x="818" 
d="M336 662h-139v-332q0 -17 -15 -17q-16 0 -16 17v332h-138q-15 0 -15 14t15 14h308q15 0 15 -15q0 -13 -15 -13zM393 330v340q0 20 15 20q10 0 20 -15l154 -234l156 233q11 16 22 16q15 0 15 -20v-340q0 -17 -16 -17q-15 0 -15 17v305l-147 -217q-7 -11 -17 -11
q-9 0 -17 11l-142 213v-301q0 -17 -14 -17t-14 17z" />
    <glyph glyph-name="Omega" unicode="&#x2126;" horiz-adv-x="752" 
d="M376 668q-136 0 -217.5 -76.5t-81.5 -211.5q0 -58 16 -104.5t43 -77t56.5 -49t62.5 -28.5q18 -6 18 -24v-78q0 -19 -17 -19h-196q-16 0 -16 16t16 16h180v62q-35 10 -67 30t-63.5 52.5t-50 85.5t-18.5 118q0 143 89 231.5t246 88.5t246.5 -88.5t89.5 -231.5
q0 -66 -19 -118t-51 -85t-63.5 -52t-67.5 -31v-62h181q16 0 16 -16t-16 -16h-196q-17 0 -17 19v78q0 18 18 24q74 23 126.5 86t52.5 173q0 135 -82 211.5t-218 76.5z" />
    <glyph glyph-name="partialdiff" unicode="&#x2202;" horiz-adv-x="547" 
d="M479 326q-16 64 -62 103.5t-116 39.5q-106 0 -169 -76.5t-63 -194.5q0 -82 43.5 -129.5t123.5 -47.5q48 0 87 18.5t64.5 48t45 71t30 82t16.5 85.5zM207 669q-12 1 -17.5 5t-4.5 12q1 14 22 14q117 -5 196 -58q112 -76 112 -228q0 -56 -8 -112t-29 -113t-51.5 -100.5
t-80.5 -71t-112 -27.5q-97 0 -148.5 57.5t-50.5 152.5q0 128 72 214t192 86q67 0 116 -32t70 -92q0 165 -101 237q-67 48 -177 56z" />
    <glyph glyph-name="Delta" unicode="&#x2206;" horiz-adv-x="599" 
d="M41 0q-13 0 -17 9t1 20l255 649q9 22 23 22q15 0 22 -19l257 -650q5 -12 -0.5 -21.5t-18.5 -9.5h-522zM302 649l-240 -617h483z" />
    <glyph glyph-name="product" unicode="&#x220f;" horiz-adv-x="665" 
d="M547 -181v839h-429v-839q0 -19 -18 -19q-17 0 -17 19v853q0 18 16 18h465q18 0 18 -18v-853q0 -19 -18 -19q-17 0 -17 19z" />
    <glyph glyph-name="summation" unicode="&#x2211;" horiz-adv-x="557" 
d="M341 242l-303 411q-9 11 -5.5 24t19.5 13h466q18 0 18 -16t-18 -16h-442l292 -392q18 -23 -1 -47l-295 -387h448q18 0 18 -16t-18 -16h-471q-15 0 -19.5 11.5t5.5 24.5z" />
    <glyph glyph-name="minus" unicode="&#x2212;" horiz-adv-x="486" 
d="M427 314h-368q-16 0 -16 15q0 16 16 16h368q16 0 16 -16q0 -15 -16 -15z" />
    <glyph glyph-name="uni2215" unicode="&#x2215;" horiz-adv-x="310" 
d="M0 -72l301 845q6 17 12 22.5t14 3.5q16 -4 5 -36l-299 -848q-11 -29 -28 -24q-16 5 -5 37z" />
    <glyph glyph-name="radical" unicode="&#x221a;" horiz-adv-x="605" 
d="M666 659h-159l-175 -652q-5 -17 -19 -17q-13 0 -19 16l-185 453h-90q-16 0 -16 15q0 16 16 16h96q20 0 27 -19l172 -426l161 621q7 24 27 24h164q16 0 16 -16q0 -15 -16 -15z" />
    <glyph glyph-name="infinity" unicode="&#x221e;" horiz-adv-x="744" 
d="M561 196q-55 0 -98.5 32t-91.5 92q-43 -60 -86 -92t-98 -32q-58 0 -101 38.5t-43 108.5q0 66 40 107t106 41q50 0 91 -32t91 -93q44 60 88 92.5t100 32.5q65 0 103.5 -40.5t38.5 -109.5q0 -64 -39 -104.5t-101 -40.5zM555 460q-47 0 -85.5 -30t-79.5 -86q46 -57 84 -87
t85 -30q48 0 79 31.5t31 82.5q0 53 -29.5 86t-84.5 33zM188 227q49 0 86 28.5t79 85.5q-32 39 -51 59t-50.5 40t-61.5 20q-54 0 -85 -33t-31 -84q0 -56 34.5 -86t79.5 -30z" />
    <glyph glyph-name="integral" unicode="&#x222b;" horiz-adv-x="320" 
d="M-40 -161q5 12 23 5q34 -13 68 -13q54 0 75.5 33.5t21.5 101.5v564q0 86 30.5 128t102.5 42q48 0 80 -18q14 -8 9 -21q-5 -12 -23 -5q-34 13 -69 13q-53 0 -75 -34t-22 -101v-564q0 -86 -30.5 -128t-101.5 -42q-52 0 -80 17q-14 8 -9 22z" />
    <glyph glyph-name="approxequal" unicode="&#x2248;" horiz-adv-x="486" 
d="M343 318q-32 0 -94.5 25t-89.5 25q-39 0 -71 -30q-21 -19 -31 -10q-10 11 9 30q41 41 96 41q34 0 98 -25t86 -25q39 0 72 29q21 20 31 10t-10 -30q-40 -40 -96 -40zM343 195q-32 0 -94.5 25t-89.5 25q-39 0 -71 -30q-21 -19 -31 -10q-10 11 9 30q41 41 96 41q34 0 98 -25
t86 -25q39 0 72 29q21 20 31 10t-10 -30q-40 -40 -96 -40z" />
    <glyph glyph-name="notequal" unicode="&#x2260;" horiz-adv-x="486" 
d="M427 222h-202l-60 -172q-6 -16 -11.5 -22.5t-14.5 -3.5q-12 4 -2 35l57 163h-135q-16 0 -16 15q0 16 16 16h146l31 90h-177q-16 0 -16 15q0 16 16 16h188l60 172q11 30 26 25q14 -5 3 -34l-57 -163h148q16 0 16 -16q0 -15 -16 -15h-159l-32 -90h191q16 0 16 -16
q0 -15 -16 -15z" />
    <glyph glyph-name="lessequal" unicode="&#x2264;" horiz-adv-x="486" 
d="M160 255l226 -180q21 -16 11 -29q-8 -13 -30 4l-228 181q-22 18 -13 31q10 12 34 -7zM137 392l229 179q21 16 30 5q9 -12 -13 -29l-225 -177l226 -179q22 -18 13 -30q-9 -13 -30 4l-231 181q-29 22 1 46z" />
    <glyph glyph-name="greaterequal" unicode="&#x2265;" horiz-adv-x="486" 
d="M129 75l226 180q24 19 34 7q9 -13 -13 -31l-228 -181q-22 -17 -30 -4q-10 13 11 29zM378 346l-229 -179q-21 -16 -30 -5q-9 12 13 29l225 177l-226 179q-22 18 -13 30q9 13 30 -4l231 -181q29 -22 -1 -46z" />
    <glyph glyph-name="dotmath" unicode="&#x22c5;" horiz-adv-x="174" 
d="M57 314q0 13 7.5 21t21.5 8t22 -8.5t8 -20.5t-8 -20.5t-22 -8.5t-21.5 8t-7.5 21z" />
    <glyph glyph-name="lozenge" unicode="&#x25ca;" horiz-adv-x="558" 
d="M267 43l-198 282q-13 20 -1 38l198 286q13 17 24 17t24 -17l200 -286q11 -16 0 -34l-199 -285q-12 -18 -24 -18t-24 17zM289 628l-195 -281l198 -283l194 280z" />
    <glyph glyph-name="uniF639" unicode="&#xf639;" horiz-adv-x="546" 
d="M517 345q0 -163 -61.5 -259t-182.5 -96t-182.5 96t-61.5 259t61.5 259t182.5 96t182.5 -96t61.5 -259zM483 345q0 155 -53.5 239.5t-156.5 84.5t-156.5 -84.5t-53.5 -239.5t53.5 -239.5t156.5 -84.5t156.5 84.5t53.5 239.5z" />
    <glyph glyph-name="uniF63A" unicode="&#xf63a;" horiz-adv-x="464" 
d="M69 620q-31 -20 -39 -11q-11 13 17 34q79 57 179 57q97 0 144 -43.5t47 -114.5q0 -47 -20 -87t-51.5 -69.5t-70.5 -56.5l-77 -57q-38 -29 -69.5 -61.5t-51.5 -78.5t-20 -101h366q17 0 17 -16q0 -15 -17 -15h-377q-22 0 -22 23q0 61 20 111.5t51.5 85.5t69.5 65.5
t76.5 57.5t70 55t51.5 64.5t20 79.5q0 52 -38 89.5t-119 37.5q-80 0 -157 -49z" />
    <glyph glyph-name="uniF63B" unicode="&#xf63b;" horiz-adv-x="499" 
d="M175 377q-17 0 -22 10.5t5 20.5l220 251h-287q-16 0 -16 15q0 16 16 16h309q15 0 19 -11t-7 -25l-216 -246q118 -2 184.5 -53.5t66.5 -153.5q0 -96 -60 -153.5t-164 -57.5t-169 46q-26 20 -17 33q7 12 34 -5q70 -43 154 -43q93 0 140.5 51.5t47.5 129.5q0 83 -58.5 129
t-179.5 46z" />
    <glyph glyph-name="uniF63C" unicode="&#xf63c;" horiz-adv-x="504" 
d="M448 246h-64v-227q0 -19 -17 -19q-16 0 -16 19v227h-316q-14 0 -17.5 11t3.5 19l328 410q10 14 21 14q14 0 14 -19v-404h64q18 0 18 -15q0 -16 -18 -16zM57 277h294v365z" />
    <glyph glyph-name="uniF63D" unicode="&#xf63d;" horiz-adv-x="487" 
d="M230 -10q-44 0 -93 13.5t-77 33.5q-25 18 -15 32q7 11 34 -6q69 -42 152 -42q101 0 147.5 56.5t46.5 140.5q0 74 -44.5 124.5t-133.5 50.5q-48 0 -91 -13t-44 -13q-16 0 -15 19l22 283q1 21 21 21h279q16 0 16 -15q0 -16 -16 -16h-270l-20 -258q60 23 121 23
q57 0 99.5 -18.5t65.5 -49.5t33.5 -65t10.5 -72q0 -110 -63 -169.5t-166 -59.5z" />
    <glyph glyph-name="uniF63E" unicode="&#xf63e;" horiz-adv-x="513" 
d="M392 655q-42 14 -102 14q-106 0 -165 -91t-59 -262q26 63 82.5 95t123.5 32q96 0 151 -59t55 -154q0 -99 -55 -169.5t-162 -70.5q-226 0 -226 298q0 412 261 412q66 0 109 -17q24 -11 19 -24q-4 -12 -32 -4zM72 237q0 -36 8.5 -70.5t28 -69t59.5 -55.5t95 -21
q90 0 135.5 61.5t45.5 146.5q0 80 -47 131.5t-131 51.5q-80 0 -137 -49.5t-57 -125.5z" />
    <glyph glyph-name="uniF63F" unicode="&#xf63f;" horiz-adv-x="449" 
d="M427 654l-294 -632q-12 -26 -27 -20t-2 33l48 104l94 201l106 228l42 91h-372q-17 0 -17 15q0 16 17 16h387q35 0 18 -36z" />
    <glyph glyph-name="uniF640" unicode="&#xf640;" horiz-adv-x="554" 
d="M81 548q0 75 55.5 113.5t140.5 38.5q86 0 141 -38.5t55 -113.5q0 -59 -32.5 -104.5t-98.5 -86.5q88 -42 125.5 -85.5t37.5 -108.5q0 -78 -64 -125.5t-164 -47.5q-97 0 -162.5 43.5t-65.5 129.5q0 70 40.5 122t126.5 94q-75 39 -105 76.5t-30 92.5zM82 163
q0 -66 57.5 -104t137.5 -38q87 0 141 38.5t54 103.5q0 68 -57 112.5t-169 87.5q-164 -73 -164 -200zM114 548q0 -60 55 -102t145 -75q126 72 126 177q0 121 -163 121q-74 0 -118.5 -31t-44.5 -90z" />
    <glyph glyph-name="uniF641" unicode="&#xf641;" horiz-adv-x="513" 
d="M119 35q42 -14 102 -14q106 0 165 91t59 262q-26 -63 -82.5 -95t-123.5 -32q-96 0 -151 59t-55 154q0 99 55 169.5t162 70.5q226 0 226 -298q0 -412 -261 -412q-67 0 -109 17q-24 11 -19 24q4 12 32 4zM439 453q0 36 -8.5 70.5t-28 69t-59.5 55.5t-95 21
q-90 0 -135.5 -61.5t-45.5 -146.5q0 -80 47 -131.5t131 -51.5q80 0 137 49.5t57 125.5z" />
    <glyph glyph-name="uniF6BA" unicode="&#xf6ba;" horiz-adv-x="0" 
 />
    <glyph glyph-name="uniF6BB" unicode="&#xf6bb;" horiz-adv-x="0" 
 />
    <glyph glyph-name="uniF6BC" unicode="&#xf6bc;" horiz-adv-x="0" 
 />
    <glyph glyph-name="Acute" unicode="&#xf6c9;" horiz-adv-x="525" 
d="M367 875l-184 -110q-24 -14 -32 -2q-9 14 16 28l183 108q23 16 31 3q9 -13 -14 -27z" />
    <glyph glyph-name="Caron" unicode="&#xf6ca;" horiz-adv-x="525" 
d="M140 865l132 -83l138 84q21 13 29 2q9 -12 -15 -27l-127 -81q-14 -9 -24.5 -9t-24.5 9l-125 79q-27 15 -17 30q8 12 34 -4z" />
    <glyph glyph-name="Dieresis" unicode="&#xf6cb;" horiz-adv-x="525" 
d="M158 816q0 30 30 30q14 0 22.5 -8t8.5 -22q0 -29 -31 -29q-30 0 -30 29zM316 816q0 30 30 30q14 0 22.5 -8t8.5 -22q0 -29 -31 -29q-30 0 -30 29z" />
    <glyph glyph-name="Grave" unicode="&#xf6ce;" horiz-adv-x="525" 
d="M349 765l-184 110q-23 14 -14 27q8 13 31 -3l183 -108q25 -14 16 -28q-8 -12 -32 2z" />
    <glyph glyph-name="Hungarumlaut" unicode="&#xf6cf;" horiz-adv-x="525" 
d="M284 875l-184 -110q-24 -14 -32 -2q-9 14 16 28l183 108q23 13 31 2q8 -13 -14 -26zM461 875l-184 -110q-24 -14 -32 -2q-9 14 16 28l183 108q23 13 31 2q8 -13 -14 -26z" />
    <glyph glyph-name="Macron" unicode="&#xf6d0;" horiz-adv-x="525" 
d="M405 794h-285q-16 0 -16 14q0 15 16 15h285q15 0 15 -15q0 -14 -15 -14z" />
    <glyph glyph-name="cyrBreve" unicode="&#xf6d1;" horiz-adv-x="525" 
d="M274 765q-89 0 -135 64q-16 23 -4 33q12 9 28 -12q43 -55 111 -55t111 54q18 23 30 13q12 -9 -5 -33q-48 -64 -136 -64z" />
    <glyph glyph-name="cyrbreve" unicode="&#xf6d4;" horiz-adv-x="525" 
d="M274 588q-46 0 -79 21t-48 51q-12 23 2 30q13 6 26 -15q35 -58 99 -58t100 57q14 22 26 16q13 -6 1 -29q-41 -73 -127 -73z" />
    <glyph glyph-name="uniF6DC" unicode="&#xf6dc;" horiz-adv-x="343" 
d="M221 19v629l-161 -157q-20 -20 -32 -10q-10 12 9 31l178 174q14 14 25 14q14 0 14 -21v-660q0 -19 -17 -19q-16 0 -16 19z" />
    <glyph glyph-name="uniF730" unicode="&#xf730;" horiz-adv-x="545" 
d="M35 245q0 112 63.5 183.5t173.5 71.5q111 0 174 -71.5t63 -183.5q0 -113 -63 -184t-174 -71t-174 71t-63 184zM69 245q0 -100 54.5 -162t148.5 -62t148.5 62t54.5 162t-54.5 162t-148.5 62t-148.5 -62.5t-54.5 -161.5z" />
    <glyph glyph-name="uniF731" unicode="&#xf731;" horiz-adv-x="351" 
d="M223 19v431l-137 -138q-21 -21 -32 -10q-10 10 9 30l155 154q14 14 23 14q15 0 15 -21v-460q0 -19 -17 -19q-16 0 -16 19z" />
    <glyph glyph-name="uniF732" unicode="&#xf732;" horiz-adv-x="419" 
d="M97 436l-6 -3l-6 -3q-2 -2 -5.5 -3.5t-6.5 -2.5h-5q-2 -1 -4 0.5t-4 3.5q-10 13 17 32q59 40 134 40q78 0 113.5 -34.5t35.5 -85.5q0 -48 -28.5 -86.5t-69.5 -65.5l-82 -52q-41 -27 -69.5 -63.5t-28.5 -81.5h281q16 0 16 -15q0 -16 -16 -16h-299q-16 0 -16 17
q0 48 20.5 87t51.5 63t67 49l67 44q31 20 51.5 51.5t20.5 68.5q0 39 -28 64t-87 25q-55 0 -114 -33z" />
    <glyph glyph-name="uniF733" unicode="&#xf733;" horiz-adv-x="499" 
d="M175 177q-17 0 -22 10.5t5 20.5l220 251h-287q-16 0 -16 15q0 16 16 16h309q15 0 19 -11t-7 -25l-216 -246q118 -2 184.5 -53.5t66.5 -153.5q0 -96 -60 -153.5t-164 -57.5t-169 46q-26 20 -17 33q7 12 34 -5q70 -43 154 -43q93 0 140.5 51.5t47.5 129.5q0 83 -58.5 129
t-179.5 46z" />
    <glyph glyph-name="uniF734" unicode="&#xf734;" horiz-adv-x="504" 
d="M448 46h-64v-227q0 -19 -17 -19q-16 0 -16 19v227h-316q-14 0 -17.5 11t3.5 19l328 410q10 14 21 14q14 0 14 -19v-404h64q18 0 18 -15q0 -16 -18 -16zM57 77h294v365z" />
    <glyph glyph-name="uniF735" unicode="&#xf735;" horiz-adv-x="487" 
d="M230 -210q-44 0 -93 13.5t-77 33.5q-25 18 -15 32q7 11 34 -6q69 -42 152 -42q101 0 147.5 56.5t46.5 140.5q0 74 -44.5 124.5t-133.5 50.5q-48 0 -91 -13t-44 -13q-16 0 -15 19l22 283q1 21 21 21h279q16 0 16 -15q0 -16 -16 -16h-270l-20 -258q60 23 121 23
q57 0 99.5 -18.5t65.5 -49.5t33.5 -65t10.5 -72q0 -110 -63 -169.5t-166 -59.5z" />
    <glyph glyph-name="uniF736" unicode="&#xf736;" horiz-adv-x="513" 
d="M392 655q-42 14 -102 14q-106 0 -165 -91t-59 -262q26 63 82.5 95t123.5 32q96 0 151 -59t55 -154q0 -99 -55 -169.5t-162 -70.5q-226 0 -226 298q0 412 261 412q66 0 109 -17q24 -11 19 -24q-4 -12 -32 -4zM72 237q0 -36 8.5 -70.5t28 -69t59.5 -55.5t95 -21
q90 0 135.5 61.5t45.5 146.5q0 80 -47 131.5t-131 51.5q-80 0 -137 -49.5t-57 -125.5z" />
    <glyph glyph-name="uniF737" unicode="&#xf737;" horiz-adv-x="449" 
d="M427 454l-294 -632q-12 -26 -27 -20t-2 33l48 104l94 201l106 228l42 91h-372q-17 0 -17 15q0 16 17 16h387q35 0 18 -36z" />
    <glyph glyph-name="uniF738" unicode="&#xf738;" horiz-adv-x="557" 
d="M82 548q0 75 55.5 113.5t140.5 38.5q86 0 141 -38.5t55 -113.5q0 -59 -32.5 -104.5t-98.5 -86.5q88 -42 125.5 -85.5t37.5 -108.5q0 -78 -64 -125.5t-164 -47.5q-97 0 -162.5 43.5t-65.5 129.5q0 70 40.5 122t126.5 94q-75 39 -105 76.5t-30 92.5zM83 163
q0 -66 57.5 -104t137.5 -38q87 0 141 38.5t54 103.5q0 68 -57 112.5t-169 87.5q-164 -73 -164 -200zM115 548q0 -60 55 -102t145 -75q126 72 126 177q0 121 -163 121q-74 0 -118.5 -31t-44.5 -90z" />
    <glyph glyph-name="uniF739" unicode="&#xf739;" horiz-adv-x="513" 
d="M119 -165q42 -14 102 -14q106 0 165 91t59 262q-26 -63 -82.5 -95t-123.5 -32q-96 0 -151 59t-55 154q0 99 55 169.5t162 70.5q226 0 226 -298q0 -412 -261 -412q-67 0 -109 17q-24 11 -19 24q4 12 32 4zM439 253q0 36 -8.5 70.5t-28 69t-59.5 55.5t-95 21
q-90 0 -135.5 -61.5t-45.5 -146.5q0 -80 47 -131.5t131 -51.5q80 0 137 49.5t57 125.5z" />
    <glyph glyph-name="k.alt" horiz-adv-x="447" 
d="M68 19v652q0 19 16 19q17 0 17 -19v-292q48 121 166 121q54 0 81.5 -30t27.5 -82q0 -112 -114 -159l144 -195q16 -22 2 -31t-29 11l-148 204q-62 -16 -130 -16v-183q0 -19 -17 -19q-16 0 -16 19zM259 469q-65 0 -111.5 -55t-46.5 -139v-44q119 0 181.5 40t62.5 115
q0 37 -20.5 60t-65.5 23z" />
    <glyph glyph-name="a.alt" horiz-adv-x="535" 
d="M234 -10q-94 0 -142.5 65.5t-48.5 174.5q0 120 58 195t175 75q92 0 158 -38v9q0 19 17 19q16 0 16 -19v-452q0 -19 -16 -19q-17 0 -17 19v138q-16 -76 -67.5 -121.5t-132.5 -45.5zM240 21q46 0 81 18t56 47t34 70t18 81.5t5 86.5v104q-74 41 -159 41q-70 0 -115.5 -34
t-64 -85.5t-18.5 -119.5q0 -96 40.5 -152.5t122.5 -56.5z" />
    <glyph glyph-name="g.alt.2" horiz-adv-x="535" 
d="M467 471v-378q0 -61 -2.5 -97.5t-14 -81t-33 -68t-62 -40t-99.5 -16.5q-82 0 -140 28q-29 14 -23 29t35 2q67 -28 129 -28q33 0 59 5.5t44 16.5t31.5 26.5t21 35.5t12.5 44t6.5 51.5t2.5 58t0 63.5v35q-16 -76 -67.5 -121.5t-132.5 -45.5q-94 0 -142.5 65.5t-48.5 174.5
q0 120 58 195t175 75q92 0 158 -38v9q0 19 17 19q16 0 16 -19zM240 21q46 0 81 18t56 47t34 70t18 81.5t5 86.5v104q-74 41 -159 41q-70 0 -115.5 -34t-64 -85.5t-18.5 -119.5q0 -96 40.5 -152.5t122.5 -56.5z" />
    <glyph glyph-name="Breve" horiz-adv-x="525" 
d="M274 765q-89 0 -135 64q-16 23 -4 33q12 9 28 -12q43 -55 111 -55t111 54q18 23 30 13q12 -9 -5 -33q-48 -64 -136 -64z" />
    <glyph glyph-name="Cedilla" horiz-adv-x="297" 
d="M90 -202q32 -12 60 -12q70 0 70 60q0 61 -93 62q-17 2 -14 17l20 81q5 18 19 15q12 -3 9 -19l-18 -68q108 -4 108 -87q0 -42 -26.5 -66t-75.5 -24q-40 0 -74 16q-20 9 -13 24q1 2 2.5 3.5t3.5 2t3.5 0.5t4.5 -0.5t4.5 -1t5 -2t4.5 -1.5z" />
    <glyph glyph-name="Circumflex" horiz-adv-x="525" 
d="M402 757l-134 83l-137 -84q-22 -13 -30 -1q-6 12 15 26l128 81q14 9 24.5 9t24.5 -9l127 -79q24 -16 15 -29q-8 -13 -33 3z" />
    <glyph glyph-name="Dotaccent" horiz-adv-x="525" 
d="M229 818q0 32 33 32t33 -32q0 -31 -33 -31t-33 31z" />
    <glyph glyph-name="Ogonek" horiz-adv-x="257" 
d="M163 -13q-28 -24 -53.5 -64t-25.5 -77q0 -60 55 -60q19 0 39 11q16 10 23 1q9 -12 -12 -26q-21 -15 -50 -15q-39 0 -62.5 21t-23.5 64t27 88.5t64 76.5q27 23 36 11q7 -9 -13 -28q-3 -2 -4 -3z" />
    <glyph glyph-name="Ring" horiz-adv-x="525" 
d="M250 889q43 0 71 -22.5t28 -60.5t-27.5 -61t-71.5 -23t-71 23t-27 61t27.5 60.5t70.5 22.5zM250 864q-31 0 -50 -16t-19 -42q0 -25 19 -42t50 -17q32 0 51.5 16.5t19.5 42.5q0 25 -20 41.5t-51 16.5z" />
    <glyph glyph-name="Tilde" horiz-adv-x="525" 
d="M343 773q-32 0 -75 26.5t-65 26.5q-26 0 -59 -31q-20 -18 -28 -12q-12 10 6 30q36 42 84 42q29 0 73 -26t66 -26q30 0 60 30q18 20 28 11q11 -8 -7 -30q-37 -41 -83 -41z" />
    <glyph glyph-name="dollar.fitted" horiz-adv-x="506" 
d="M266 668q-80 0 -117 -36t-37 -94q0 -41 20 -71.5t52.5 -48.5t71.5 -32.5t78 -31t71.5 -37.5t52.5 -57t20 -84q0 -80 -48 -130t-144 -55v-98q0 -19 -16 -19t-16 19v97q-106 2 -181 48q-31 20 -20 36q8 12 39 -6q79 -46 174 -46q87 0 131.5 40t44.5 109q0 43 -20 74.5
t-52.5 50t-71.5 33.5l-78 31q-39 16 -71.5 36.5t-52.5 55.5t-20 83q0 71 44 116.5t136 48.5v97q0 19 16 19t16 -19v-98q76 -4 141 -42q34 -19 23 -36q-1 -2 -2.5 -3.5t-3.5 -2t-3.5 -0.5t-4 0.5t-4.5 1t-5 2t-5 3t-5.5 3.5t-5.5 3q-68 40 -147 40z" />
    <glyph glyph-name="Euro.fitted" horiz-adv-x="558" 
d="M408 265h-288q15 -121 82 -182t176 -61q77 0 136 27q30 13 36 1q8 -16 -21 -30q-59 -30 -152 -30q-264 0 -294 275h-73q-16 0 -16 15q0 16 16 16h70q-1 15 -1 47q0 33 3 65h-72q-16 0 -16 16q0 15 16 15h77q22 121 97.5 191t198.5 70q84 0 140 -27q25 -12 20 -27
q-6 -14 -31 -3q-61 25 -133 25q-106 0 -170 -62t-85 -167h284q16 0 16 -15q0 -16 -16 -16h-289q-4 -28 -4 -65q0 -32 1 -47h292q16 0 16 -16q0 -15 -16 -15z" />
    <glyph glyph-name="cent.fitted" horiz-adv-x="441" 
d="M415 40q-57 -44 -142 -49v-103q0 -19 -15 -19q-16 0 -16 19v102q-104 4 -159.5 68t-55.5 182q0 111 59.5 181t155.5 78v103q0 19 16 19q15 0 15 -19v-102q69 -1 123 -29q24 -12 16 -27q-7 -12 -31 -1q-58 26 -115 26q-89 0 -147 -63t-58 -166q0 -105 52 -162t142 -57
q73 0 141 43q23 14 31 4q9 -13 -12 -28z" />
    <glyph glyph-name="sterling.fitted" horiz-adv-x="486" 
d="M280 678q-73 0 -116.5 -39.5t-43.5 -110.5q0 -25 6.5 -52.5t12.5 -44.5t20.5 -50t19.5 -47h177q16 0 16 -15t-16 -15h-166q20 -58 20 -116q0 -51 -23 -93.5t-57 -63.5h341q16 0 16 -16q0 -15 -16 -15h-416q-16 0 -16 15q0 16 16 16q52 0 86.5 47t34.5 109q0 58 -22 117
h-85q-16 0 -16 15t16 15h74q-4 8 -15.5 34.5t-16.5 39t-12 34.5t-10 42.5t-3 43.5q0 83 53 132t143 49q105 -1 173 -48q23 -15 15 -29q-7 -12 -34 3q-74 43 -156 43z" />
    <glyph glyph-name="yen.fitted" horiz-adv-x="536" 
d="M459 172h-155v-153q0 -19 -18 -19q-17 0 -17 19v153h-155q-16 0 -16 15t16 15h155v95h-155q-16 0 -16 15t16 15h143l-210 326q-17 24 -1 34q15 9 30 -16l210 -337l210 339q13 23 27 15q13 -7 -1 -30l-209 -331h146q16 0 16 -15t-16 -15h-155v-95h155q16 0 16 -15t-16 -15
z" />
    <glyph glyph-name="florin.fitted" horiz-adv-x="398" 
d="M323 459h-149l-67 -480q-14 -96 -51 -142.5t-121 -46.5q-56 0 -90 19q-17 10 -11 24q6 13 26 4q42 -16 81 -16q60 0 90.5 39t40.5 113l75 537q14 96 52.5 143t122.5 47q55 0 92 -21q15 -9 9 -23q-6 -12 -26 -3q-44 16 -82 16q-61 0 -92 -39t-41 -113l-4 -27h145
q16 0 16 -16q0 -15 -16 -15z" />
    <glyph glyph-name="uni20B4.fitted" horiz-adv-x="474" 
d="M431 379h-389q-16 0 -16 15q0 16 16 16h273q97 58 97 143q0 51 -36.5 83t-114.5 32q-73 0 -149 -40q-25 -13 -32 -1q-8 14 16 29q74 44 167 44q96 0 140.5 -40t44.5 -104q0 -87 -87 -146h70q16 0 16 -16q0 -15 -16 -15zM431 258h-295q-42 -42 -42 -103q0 -133 168 -133
q76 0 145 44q29 18 37 7q12 -15 -18 -34q-76 -49 -164 -49q-204 0 -204 159q0 65 39 109h-55q-16 0 -16 16q0 15 16 15h389q16 0 16 -15q0 -16 -16 -16z" />
    <glyph glyph-name="uni20B6.fitted" horiz-adv-x="510" 
d="M314 168h-191v-149q0 -19 -17 -19q-18 0 -18 19v149h-73q-16 0 -16 15q0 16 16 16h73v82h-73q-16 0 -16 16q0 15 16 15h73v348q0 18 18 22q51 13 138 13q237 0 237 -200q0 -108 -64 -161t-182 -53h-112v-82h191q16 0 16 -16q0 -15 -16 -15zM244 663q-53 0 -121 -10v-341
h110q100 0 156 41.5t56 141.5q0 168 -201 168z" />
    <glyph glyph-name="uni20B8.fitted" horiz-adv-x="526" 
d="M507 532h-227v-513q0 -19 -17 -19q-18 0 -18 19v513h-226q-16 0 -16 16t16 16h488q16 0 16 -16t-16 -16zM507 658h-488q-16 0 -16 16t16 16h488q16 0 16 -16t-16 -16z" />
    </font>
</defs>
</svg>
