<?xml version="1.0" encoding="utf-8"?>
<!-- Generator: Adobe Illustrator 16.0.0, SVG Export Plug-In . SVG Version: 6.00 Build 0)  -->
<!DOCTYPE svg PUBLIC "-//W3C//DTD SVG 1.1//EN" "http://www.w3.org/Graphics/SVG/1.1/DTD/svg11.dtd">
<svg version="1.1" id="Layer_1" xmlns="http://www.w3.org/2000/svg" xmlns:xlink="http://www.w3.org/1999/xlink" x="0px" y="0px"
	 width="616.995px" height="626.875px" viewBox="0 0 616.995 626.875" enable-background="new 0 0 616.995 626.875"
	 xml:space="preserve">
<g>
	<path fill="none" stroke="#996A0B" stroke-width="2.6286" stroke-miterlimit="10" d="M108.817,14.513
		c0,2.977-2.181,5.39-4.873,5.39H86.041c-2.692,0-4.875-2.413-4.875-5.39V7.39c0-2.977,2.183-5.39,4.875-5.39h17.903
		c2.692,0,4.873,2.413,4.873,5.39V14.513z"/>
	<path fill="none" stroke="#5B0606" stroke-width="3.943" stroke-miterlimit="10" d="M108.817,8.9V7.39
		c0-2.977-2.181-5.39-4.873-5.39H86.041c-2.692,0-4.875,2.413-4.875,5.39V8.9"/>
	<path fill="#5B0606" stroke="#632D2D" stroke-width="0.865" stroke-miterlimit="10" d="M149.452,83.557
		c0,1.017-0.823,1.839-1.838,1.839H47.49c-1.014,0-1.838-0.822-1.838-1.839v-69.27c0-1.015,0.824-1.84,1.838-1.84h100.124
		c1.015,0,1.838,0.825,1.838,1.84V83.557z"/>
	<path fill="#750D0D" stroke="#632D2D" stroke-width="0.865" stroke-miterlimit="10" d="M44.084,12.448h106.829V37.1
		c0,0,0.865,1.443-2.308,2.453c-3.171,1.008-27.968,7.64-27.968,7.64h-46.71l-28.401-7.784c0,0-1.441,0.576-1.441-3.173
		C44.084,32.488,44.084,12.448,44.084,12.448z"/>
	<rect x="72.846" y="12.039" fill="#5B0606" width="6.791" height="32.361"/>
	<rect x="78.103" y="12.039" fill="#632D2D" width="0.439" height="32.143"/>
	<rect x="74.161" y="12.039" fill="#632D2D" width="0.438" height="32.143"/>
	<rect x="110.606" y="12.038" fill="#5B0606" width="6.79" height="32.361"/>
	<rect x="115.862" y="12.038" fill="#632D2D" width="0.438" height="32.144"/>
	<rect x="111.919" y="12.038" fill="#632D2D" width="0.438" height="32.144"/>
	<rect x="110.386" y="41.262" fill="#C49445" width="7.228" height="6.354"/>
	<rect x="110.386" y="47.617" fill="#976A19" width="7.228" height="6.354"/>
	<rect x="111.864" y="50.795" fill="#5B0606" width="4.272" height="1.561"/>
	<rect x="72.627" y="41.262" fill="#C49445" width="7.228" height="6.354"/>
	<rect x="72.627" y="47.617" fill="#976A19" width="7.228" height="6.354"/>
	<rect x="74.105" y="50.795" fill="#5B0606" width="4.272" height="1.561"/>
</g>
<g>
	<path fill="#EE812A" d="M99.682,193.835c0-2.933,1.571-5.55,4.035-7.282H92.314c2.462,1.731,4.033,4.35,4.033,7.282
		c0,4.229-3.267,7.807-7.768,9.007v0.145h19.527C103.273,201.972,99.682,198.265,99.682,193.835z"/>
	<path fill="#FDDF6D" d="M68.488,130.176c2.003,32.604,14.474,57.72,29.569,57.72c15.094,0,27.564-25.116,29.566-57.72H68.488z"/>
	<path fill="#EE812A" d="M126.744,139.292c0.212-1.026,0.482-2.043,0.788-3.044c0.524-1.714,1.094-3.552,2.15-5.022
		c1.567-2.185,4.317-3.757,6.897-4.386c0.723-0.177,1.489-0.294,2.234-0.325c2.99-0.122,7.017,0.305,9.335,2.868
		c3.876,4.284,3.316,10.629,0.828,15.447c-2.277,4.409-6.008,7.626-10.012,10.438c-2.982,2.096-6.1,3.987-9.16,5.964
		c-0.25,0.163-0.5,0.326-0.753,0.487c0,0-8.946,5.577-7.524,11.27c1.422,5.693,2.277,3.374,2.277,3.374l0.366,0.468
		c0,0-2.38,0.569-3.844-1.626c-1.465-2.196-2.079-4.68-0.967-7.363c1.128-2.719,4.21-4.446,6.578-5.931
		c1.926-1.208,3.909-2.319,5.825-3.542c2.375-1.516,4.721-3.131,6.828-5.007c2.422-2.152,4.321-4.881,5.629-7.838
		c0.396-0.895,0.742-1.81,1.026-2.746c0.526-1.734,1.043-3.586,0.872-5.415c-0.277-2.938-1.958-5.704-4.823-6.733
		c-0.712-0.256-1.538-0.433-2.297-0.455c-3.142-0.096-7.81,1.922-9.152,5.766C128.79,138.958,126.971,138.545,126.744,139.292z"/>
	<circle fill="#FBC837" cx="130.516" cy="140.305" r="3.905"/>
	<circle fill="#FBC837" cx="125.269" cy="173.497" r="3.783"/>
	<rect x="87.134" y="202.774" fill="#FBC837" width="21.295" height="2.877"/>
	<polygon fill="#EE812A" points="73.65,192.595 73.742,192.595 73.742,192.595 	"/>
	<rect x="80.545" y="205.652" fill="#F55326" width="35.022" height="7.933"/>
	<polygon fill="#8F1311" points="120.205,218.831 75.908,218.831 77.86,213.583 118.252,213.583 	"/>
	<path fill="#EE812A" d="M69.292,139.292c-0.212-1.026-0.481-2.043-0.788-3.044c-0.524-1.714-1.093-3.552-2.149-5.022
		c-1.569-2.185-4.319-3.757-6.899-4.386c-0.723-0.177-1.491-0.294-2.234-0.325c-2.99-0.122-7.017,0.305-9.335,2.868
		c-3.876,4.284-3.316,10.629-0.828,15.447c2.277,4.409,6.006,7.626,10.01,10.438c2.984,2.096,6.102,3.987,9.16,5.964
		c0.251,0.163,0.503,0.326,0.755,0.487c0,0,8.946,5.577,7.524,11.27c-1.422,5.693-2.276,3.374-2.276,3.374l-0.367,0.468
		c0,0,2.38,0.569,3.844-1.626c1.465-2.196,2.079-4.68,0.965-7.363c-1.125-2.719-4.206-4.446-6.574-5.931
		c-1.926-1.208-3.909-2.319-5.827-3.542c-2.375-1.516-4.721-3.131-6.83-5.007c-2.418-2.152-4.319-4.881-5.627-7.838
		c-0.395-0.895-0.742-1.81-1.026-2.746c-0.524-1.734-1.042-3.586-0.872-5.415c0.275-2.938,1.96-5.704,4.823-6.733
		c0.71-0.256,1.538-0.433,2.297-0.455c3.142-0.096,7.81,1.922,9.152,5.766C67.244,138.958,69.064,138.545,69.292,139.292z"/>
	<circle fill="#FBC837" cx="71.087" cy="173.497" r="3.783"/>
	<circle fill="#FBC837" cx="65.596" cy="140.305" r="3.783"/>
	<path fill="#FBC837" d="M126.365,130.176h1.258c-2.002,32.604-14.472,57.72-29.566,57.72c-9.866,0-18.611-10.729-24.044-27.264
		L126.365,130.176z"/>
	<rect x="68.2" y="127.898" fill="#EE812A" width="59.714" height="4.556"/>
</g>
<g>
	<g>
		<path fill="#73C0C6" d="M52.222,327.422c0,0-2.942-0.249-6.231,2.131c-3.291,2.379-6.652,5.671-8.612,13.511
			c0,0-1.75,4.061,3.291,4.132c5.041,0.069,41.869,0,41.869,0s5.252,0.771,3.431-4.552c-1.82-5.321-3.781-10.424-8.542-13.404
			c0,0-3.22-1.817-5.671-1.817C69.307,327.422,52.222,327.422,52.222,327.422z"/>
		<path fill="#73C0C6" d="M55.297,319.961v8.682c0,0-0.001,0.911,0.805,1.576c0.806,0.666,2.801,1.96,6.336,1.856
			c3.535-0.106,4.621-1.541,5.321-2.103c0,0,0.524-0.595,0.524-1.645c0-1.052,0-8.156,0-8.156L55.297,319.961z"/>
		<ellipse fill="#73C0C6" cx="61.791" cy="309.739" rx="12.646" ry="16.541"/>
		<path fill="#73C0C6" d="M53.924,295.823c0,0-2.241,0.701-3.781,3.643c-1.541,2.938-0.998,5.811-0.998,5.811v4.48h1.208l0.14-2.73
			c0,0,2.17-0.699,3.011-1.189c0.84-0.49,1.89-2.171,2.03-3.046c0,0,3.781,2.976,7.841,3.746c4.062,0.771,7.144,1.119,9.662,0.979
			v2.522h1.399v-5.952c0,0-0.138-4.063-1.959-6.583c-1.82-2.521-3.362-3.429-5.531-4.41c-2.17-0.98-4.831-0.98-6.162-0.771
			C59.455,292.532,57.267,292.934,53.924,295.823z"/>
		<path fill="#73C0C6" d="M50.443,309.24c0,0-1.04-0.303-1.512,0.21c-0.451,0.489-0.378,0.631-0.326,1.208
			c0.053,0.576,0.578,5.04,0.578,5.04s0.028,1.173,1.184,1.146c0,0,0.128,0.219,0.049-1.986
			C50.337,312.652,50.443,309.24,50.443,309.24z"/>
		<path fill="#73C0C6" d="M73.158,309.535c0,0,0.864-0.261,1.372,0.203c0.381,0.349,0.447,0.63,0.396,1.207
			c-0.053,0.578-0.577,5.042-0.577,5.042s-0.081,1.158-1.237,1.132c0,0,0.001-0.411,0.001-1.973
			C73.113,312.94,73.158,309.535,73.158,309.535z"/>
	</g>
	<g>
		<path fill="#73C0C6" d="M123.248,327.184c0,0-2.941-0.25-6.231,2.131c-3.292,2.381-6.652,5.671-8.611,13.514
			c0,0-1.75,4.062,3.289,4.131c5.042,0.068,41.869,0,41.869,0s5.252,0.769,3.432-4.554c-1.82-5.319-3.78-10.423-8.542-13.401
			c0,0-3.22-1.819-5.671-1.819C140.332,327.184,123.248,327.184,123.248,327.184z"/>
		<path fill="#73C0C6" d="M126.324,319.723v8.682c0,0-0.001,0.911,0.805,1.575c0.806,0.666,2.801,1.96,6.336,1.856
			c3.535-0.106,4.621-1.542,5.32-2.103c0,0,0.525-0.595,0.525-1.645c0-1.051,0-8.157,0-8.157L126.324,319.723z"/>
		<ellipse fill="#73C0C6" cx="132.817" cy="309.5" rx="12.647" ry="16.541"/>
		<path fill="#73C0C6" d="M124.95,295.584c0,0-2.242,0.7-3.781,3.642c-1.542,2.939-0.999,5.812-0.999,5.812v4.479h1.21l0.138-2.729
			c0,0,2.171-0.7,3.011-1.19c0.841-0.49,1.891-2.171,2.03-3.046c0,0,3.781,2.976,7.842,3.746c4.062,0.771,7.142,1.121,9.662,0.979
			v2.521h1.401v-5.951c0,0-0.14-4.061-1.96-6.582c-1.82-2.521-3.361-3.431-5.531-4.411c-2.17-0.979-4.831-0.979-6.162-0.77
			C130.481,292.293,128.292,292.696,124.95,295.584z"/>
		<path fill="#73C0C6" d="M121.47,309.001c0,0-1.041-0.302-1.514,0.21c-0.45,0.489-0.378,0.63-0.325,1.207
			c0.053,0.578,0.578,5.042,0.578,5.042s0.03,1.17,1.184,1.146c0,0,0.129,0.218,0.05-1.985
			C121.363,312.415,121.47,309.001,121.47,309.001z"/>
		<path fill="#73C0C6" d="M144.185,309.297c0,0,0.864-0.261,1.371,0.202c0.38,0.349,0.448,0.63,0.396,1.208
			c-0.054,0.579-0.578,5.042-0.578,5.042s-0.08,1.159-1.236,1.131c0,0,0.001-0.411,0.001-1.972
			C144.139,312.702,144.185,309.297,144.185,309.297z"/>
	</g>
	<path fill="#E25E30" d="M78.958,334.698c0,0-5.589-0.476-11.844,4.05c-6.254,4.521-12.643,10.777-16.369,25.683
		c0,0-3.327,7.722,6.255,7.854c9.582,0.131,79.583,0,79.583,0s9.981,1.462,6.521-8.65c-3.461-10.115-7.187-19.814-16.237-25.478
		c0,0-6.121-3.458-10.78-3.458C111.43,334.698,78.958,334.698,78.958,334.698z"/>
	<ellipse fill="#D64C27" cx="97.011" cy="340.139" rx="15.703" ry="7.614"/>
	<path fill="#F5AA73" d="M84.803,320.515v16.502c0,0,0,1.73,1.531,2.994c1.531,1.264,5.323,3.727,12.044,3.527
		c6.719-0.199,8.783-2.929,10.113-3.992c0,0,0.999-1.132,0.999-3.128c0-1.998,0-15.504,0-15.504L84.803,320.515z"/>
	<ellipse fill="#F9BB88" cx="97.147" cy="301.085" rx="24.039" ry="31.44"/>
	<path fill="#F5AA73" d="M75.465,299.976c0,0,8.192-0.788,9.79-8.272c0,0,4.492,8.217,32.738,9.947c0.756,0.046,0.532,0,0.532,0
		v-4.791c0,0-21.493-0.066-33.271-9.648c0,0-2.811,7.522-9.79,7.604L75.465,299.976L75.465,299.976z"/>
	<path fill="#AD633C" d="M82.193,274.635c0,0-4.256,1.331-7.186,6.92c-2.927,5.589-1.898,11.045-1.898,11.045v8.519h2.298
		l0.266-5.19c0,0,4.126-1.332,5.724-2.263c1.596-0.932,3.592-4.125,3.858-5.788c0,0,7.186,5.655,14.905,7.119
		c7.719,1.465,13.574,2.129,18.366,1.863v4.791h2.661v-11.312c0,0-0.267-7.719-3.727-12.51c-3.458-4.791-6.386-6.521-10.513-8.385
		c-4.124-1.862-9.182-1.862-11.71-1.464C92.707,268.38,88.547,269.144,82.193,274.635z"/>
	<circle fill="#C78D67" cx="86.352" cy="306.607" r="2.695"/>
	<circle fill="#C78D67" cx="108.112" cy="306.607" r="2.695"/>
	<path fill="#F5AA73" d="M75.577,300.137c0,0-1.976-0.574-2.874,0.399c-0.859,0.929-0.719,1.197-0.619,2.295
		s1.098,9.582,1.098,9.582s0.056,2.229,2.252,2.18c0,0,0.243,0.416,0.093-3.776S75.577,300.137,75.577,300.137z"/>
	<path fill="#F5AA73" d="M118.753,300.698c0,0,1.644-0.493,2.607,0.388c0.724,0.661,0.852,1.198,0.752,2.295
		c-0.1,1.098-1.098,9.582-1.098,9.582s-0.152,2.202-2.348,2.15c0,0,0.003-0.779,0.003-3.747
		C118.67,307.17,118.753,300.698,118.753,300.698z"/>
	<path fill="#48A4B1" d="M118.793,300.129H115.5c-1.073-0.698-2.695-0.948-2.695-0.948c-3.542-0.474-4.865-0.25-8.284-0.075
		c-3.418,0.174-4.616,2.271-4.616,2.271c-2.521-0.624-4.991,0-4.991,0c-0.175-0.898-1.671-2.495-7.834-2.495
		c-6.164,0-7.611,1.297-7.611,1.297h-3.893l-0.08,3.733c0.45,1.997,2.251,2.255,2.251,2.255c0.05,0.549,0.099,2.545,1.247,4.417
		s4.143,3.75,7.486,3.75c3.344,0,5.964-1.454,7.61-3.625c1.647-2.171,1.373-5.665,1.373-5.665c2.021-0.45,3.769,0.024,3.769,0.024
		c-0.101,4.393,1.696,6.164,2.344,6.737c0.649,0.574,3.469,2.919,7.312,2.47c3.842-0.447,5.59-2.069,7.012-4.017
		c1.422-1.946,1.147-4.167,1.147-4.167c1.721-0.749,1.746-2.114,1.746-2.114v-2.632v-0.285V300.129z M92.087,308.194
		c-0.4,0.998-1.272,2.495-3.668,3.145c-2.395,0.648-4.691-0.101-5.789-1.023c-1.099-0.923-1.971-2.221-1.846-4.44
		c0.124-2.222,0.534-3.521,2.071-3.793c0,0,4.466-1.099,8.035,0.149c0,0,1.247,0.449,1.471,1.996
		C92.586,305.773,92.486,307.195,92.087,308.194z M112.252,310.314c-1.098,0.923-3.394,1.672-5.789,1.023
		c-2.396-0.648-3.269-2.146-3.669-3.145c-0.398-0.999-0.498-2.421-0.273-3.968c0.224-1.547,1.472-1.996,1.472-1.996
		c3.568-1.248,8.035-0.149,8.035-0.149c1.537,0.272,1.946,1.571,2.07,3.793C114.223,308.093,113.35,309.391,112.252,310.314z"/>
	<path fill="none" stroke="#FFFFFF" stroke-width="2.3955" stroke-linecap="round" stroke-miterlimit="10" d="M88.36,319.261
		c0,0,9.449,7.482,17.301-0.636"/>
</g>
<g>
	<path d="M318.178,249.186c0,1.895-1.463,3.427-3.269,3.427h-87.402c-1.804,0-3.267-1.532-3.267-3.427v-55.197
		c0-1.891,1.463-3.426,3.267-3.426h87.402c1.806,0,3.269,1.535,3.269,3.426V249.186z"/>
	<path d="M277.261,262.024c0,1.804-1.464,3.268-3.27,3.268h-3.646c-1.806,0-3.269-1.463-3.269-3.268v-7.875
		c0-1.803,1.463-3.266,3.269-3.266h3.646c1.806,0,3.27,1.463,3.27,3.266V262.024z"/>
	<path d="M291.087,267.693c-2.418-3.499-9.968-6.051-18.919-6.051c-8.95,0-16.499,2.553-18.917,6.051H291.087z"/>
	<rect x="263.884" y="245.6" fill="#FFFFFF" width="1.68" height="1.441"/>
	<rect x="266.095" y="245.6" fill="#FFFFFF" width="2.688" height="1.441"/>
	<rect x="269.453" y="245.6" fill="#FFFFFF" width="2.161" height="1.441"/>
	<rect x="272.19" y="245.6" fill="#FFFFFF" width="2.736" height="1.441"/>
	<rect x="275.554" y="245.6" fill="#FFFFFF" width="2.737" height="1.441"/>
	<rect x="278.867" y="245.6" fill="#FFFFFF" width="1.585" height="1.441"/>
	<g>
		<rect x="228.851" y="196.159" fill="#3DADBC" width="84.33" height="46.104"/>
		<rect x="228.923" y="237.952" fill="#FDFFFB" width="84.258" height="4.311"/>
		<rect x="249.054" y="199.031" width="43.999" height="1.046"/>
		<rect x="243.81" y="204.124" fill="#FAFDF8" width="69.371" height="30.17"/>
		<rect x="228.851" y="204.191" fill="#FAFDF8" width="2.346" height="30.04"/>
		<rect x="230.021" y="208.304" fill="#FAFDF8" width="15.842" height="5.747"/>
		<rect x="230.021" y="216.924" fill="#FAFDF8" width="15.842" height="5.748"/>
		<rect x="229.437" y="225.807" fill="#FAFDF8" width="15.84" height="5.745"/>
		<rect x="297.341" y="207.325" fill="#BFC3C8" width="12.318" height="23.771"/>
		<path fill="#F4C62B" d="M271.44,205.538c0,0-8.801,13.188,0,25.073C271.44,230.611,279.948,219.38,271.44,205.538z"/>
		<path fill="#F4C62B" d="M272.729,231.552c0,0,15.143-1.306,21.724-15.961C294.453,215.591,277.425,217.944,272.729,231.552"/>
		<path fill="#F4C62B" d="M269.372,231.552c0,0-15.143-1.306-21.721-15.961C247.651,215.591,264.681,217.944,269.372,231.552"/>
	</g>
	<g>
		<path fill="none" stroke="#000000" stroke-width="1.1526" stroke-miterlimit="10" d="M316.926,231.169
			c4.396-0.133,8.83-0.052,13.228-0.014c6.387,0.055,12.778,0.093,19.164,0.042c4.326-0.033,10.239,1.076,10.239,6.54
			c0,7.78-6.898,7.84-9.205,7.84c-2.305,0-20.458,0-20.458,0s-9.248-0.924-9.222,7.203c0.02,5.42,4.131,6.797,8.717,6.938
			c5.531,0.171,11.076,0.031,16.611,0.072c1.835,0.014,3.668,0.05,5.505,0.045c0,0,8.068-0.702,8.068,7.353
			c0,7.649-8.646,7.204-8.646,7.204l-56.479,0.09c0,0-6.915-0.918-6.915,3.944c0,5.033,8.355,4.034,9.221,4.034
			s49.852,0.171,49.852,0.171s9.673,0.059,9.797,8.185c0.146,9.795-7.78,9.51-9.222,9.51c-1.44,0-81.835,0-81.835,0"/>
		<g>
			<rect x="302.553" y="280.673" width="37.172" height="3.458"/>
			<rect x="339.725" y="280.673" fill="#666665" width="8.5" height="3.458"/>
			<rect x="332.905" y="280.673" fill="#70706F" width="0.576" height="3.458"/>
			<rect x="313.117" y="280.673" fill="#70706F" width="0.576" height="3.458"/>
			<rect x="315.711" y="281.826" fill="#FFFFFF" width="1.152" height="1.152"/>
			<rect x="317.367" y="281.826" fill="#FFFFFF" width="1.153" height="1.152"/>
			<rect x="318.916" y="281.826" fill="#FFFFFF" width="1.153" height="1.152"/>
			<rect x="320.454" y="281.826" fill="#FFFFFF" width="1.152" height="1.152"/>
			<rect x="322.11" y="281.826" fill="#FFFFFF" width="1.152" height="1.152"/>
			<rect x="323.659" y="281.826" fill="#FFFFFF" width="1.152" height="1.152"/>
			<rect x="326.624" y="281.826" fill="#FFFFFF" width="1.153" height="1.152"/>
			<rect x="328.281" y="281.826" fill="#FFFFFF" width="1.151" height="1.152"/>
			<rect x="329.83" y="281.826" fill="#FFFFFF" width="1.152" height="1.152"/>
			<polygon fill="#F7D7B9" points="302.553,284.113 297.215,282.393 302.553,280.673 			"/>
		</g>
		<path fill="#010600" d="M265.657,300.326c0,4.495-2.932,8.14-6.547,8.14h-17.45c-3.615,0-6.548-3.646-6.548-8.14l0,0
			c0-4.496,2.933-8.142,6.548-8.142h17.45C262.728,292.186,265.657,295.831,265.657,300.326L265.657,300.326z"/>
		<rect x="255.522" y="292.186" fill="#B1B2B1" width="0.576" height="16.281"/>
		<rect x="255.802" y="300.101" fill="#B1B2B1" width="9.846" height="0.45"/>
		<rect x="259.644" y="300.101" fill="#727272" width="2.053" height="0.45"/>
	</g>
</g>
<g>
	
		<rect x="248.954" y="372.515" fill="none" stroke="#000000" stroke-width="0.5928" stroke-miterlimit="10" width="92.872" height="101.563"/>
	
		<rect x="228.399" y="364.164" fill="#FFFFFF" stroke="#595959" stroke-width="0.5928" stroke-miterlimit="10" width="58.295" height="77.265"/>
	<rect x="239.171" y="385.357" fill="#219D9A" width="26.676" height="26.677"/>
	<rect x="240.851" y="370.933" width="34.976" height="1.383"/>
	<rect x="239.171" y="377.354" width="42.485" height="0.792"/>
	<rect x="239.171" y="381.013" width="42.485" height="0.788"/>
	<rect x="239.171" y="414.997" width="42.485" height="0.792"/>
	<rect x="239.171" y="418.754" width="42.485" height="0.789"/>
	<rect x="239.171" y="422.507" width="42.485" height="0.79"/>
	<rect x="239.171" y="426.261" width="42.485" height="0.792"/>
	<rect x="239.171" y="430.114" width="42.485" height="0.792"/>
	<rect x="239.171" y="433.869" width="42.485" height="0.79"/>
	<rect x="269.702" y="387.237" width="11.854" height="0.787"/>
	<rect x="269.702" y="390.991" width="11.854" height="0.789"/>
	<rect x="269.702" y="394.745" width="11.854" height="0.786"/>
	<rect x="269.702" y="398.498" width="11.854" height="0.79"/>
	<rect x="269.702" y="402.354" width="11.854" height="0.787"/>
	<rect x="269.702" y="406.107" width="11.854" height="0.79"/>
	<rect x="269.702" y="409.762" width="11.854" height="0.79"/>
	<polygon fill="#5C5939" points="239.171,385.357 239.171,389.606 244.247,385.357 	"/>
	<polygon fill="#5C5939" points="239.171,394.004 239.171,400.178 254.685,385.357 248.101,385.357 	"/>
	<polygon fill="#5C5939" points="258.474,385.357 265.847,385.357 239.171,412.033 239.271,404.526 	"/>
	
		<rect x="300.922" y="430.114" fill="#FFFFFF" stroke="#595959" stroke-width="0.5928" stroke-miterlimit="10" width="58.836" height="33.197"/>
	<rect x="331.748" y="433.004" fill="#219D9A" width="26.454" height="26.453"/>
	<polygon fill="#5C5939" points="331.748,433.004 331.748,437.219 336.78,433.004 	"/>
	<polygon fill="#5C5939" points="331.748,441.578 331.748,447.7 347.129,433.004 340.604,433.004 	"/>
	<polygon fill="#5C5939" points="350.889,433.004 358.202,433.004 331.748,459.457 331.846,452.011 	"/>
	<rect x="304.627" y="433.004" width="22.379" height="1.26"/>
	<rect x="304.627" y="435.153" width="22.379" height="1.259"/>
	<rect x="304.627" y="437.745" width="22.379" height="1.261"/>
	<rect x="304.627" y="439.746" width="22.379" height="1.261"/>
	<rect x="333.971" y="451.401" width="22.379" height="1.063"/>
	<rect x="333.971" y="453.213" width="22.379" height="1.063"/>
	<rect x="333.971" y="455.15" width="22.379" height="1.062"/>
	<rect x="333.971" y="457.081" width="22.379" height="1.063"/>
	<path fill="#219D9A" d="M324.954,412.371c0,3.023-2.876,5.475-6.424,5.475h-14.623c-3.546,0-6.422-2.45-6.422-5.475v-25.51
		c0.002-1.193,0-4.276,0-4.276s4.116-0.073,6.262-0.073h14.783c1.939,0,6.424,0,6.424,0s0,2.979,0,4.351V412.371z"/>
	<path fill="#3CAFB6" d="M311.417,417.846h-7.51c-3.546,0-6.422-2.45-6.422-5.475v-25.51c0.002-1.193,0-4.276,0-4.276
		s4.116-0.073,6.262-0.073h7.67"/>
	<polygon fill="#5C5939" points="297.485,382.512 297.485,386.761 302.562,382.512 	"/>
	<polygon fill="#5C5939" points="297.485,391.155 297.485,397.331 312.998,382.512 306.415,382.512 	"/>
	<polygon fill="#5C5939" points="316.789,382.512 324.162,382.512 297.485,409.188 297.485,401.845 	"/>
	<path fill="#219D9A" d="M324.954,387.988c0,0,9.188-1.26,9.188,4.742s0,12.895,0,12.895s0.37,5.632-9.188,5.632v-3.039
		c0,0,6.225,0.371,6.225-3.631c0-4.001,0-10.077,0-10.077s0.579-4.149-6.225-3.854V387.988z"/>
</g>
<g>
	<g>
		<path fill="#0E303F" d="M298.48,114.13c-1.057,4.316-2.11,8.632-3.167,12.95c9.853,0,19.707,0,29.562,0
			c-1.057-4.318-2.114-8.634-3.168-12.95C313.965,114.13,306.223,114.13,298.48,114.13z"/>
		<path fill="#2C5871" d="M326.701,126.851h-33.216c-0.844,0-1.529,0.805-1.529,1.794v0.673h36.273v-0.673
			C328.23,127.655,327.544,126.851,326.701,126.851z"/>
		<path fill="#2C5871" d="M260.146,109.091v7.137c0,1.373,1.111,2.485,2.488,2.485h94.92c1.373,0,2.487-1.113,2.487-2.485v-7.137
			H260.146z"/>
		<path fill="#0E303F" d="M360.041,109.091V48.663c0-1.376-1.114-2.49-2.487-2.49h-94.92c-1.377,0-2.488,1.114-2.488,2.49v60.428
			H360.041z"/>
		<rect x="264.237" y="50.059" fill="#FEC00F" width="91.711" height="54.907"/>
		<polygon fill="#F99B1C" points="264.237,104.966 355.948,50.059 355.948,104.966 		"/>
	</g>
	<rect x="275.534" y="46.173" fill="#DAE1DB" width="73.985" height="58.886"/>
	<g>
		<path fill="#FFFFFF" d="M347.088,104.349c0,0.308-0.25,0.557-0.556,0.557h-72.877c-0.309,0-0.557-0.249-0.557-0.557V0.557
			c0-0.308,0.248-0.557,0.557-0.557h72.877c0.306,0,0.556,0.249,0.556,0.557V104.349L347.088,104.349z"/>
		<path fill="#C5E0EF" d="M347.088,5.926v-5.37c0-0.308-0.25-0.557-0.556-0.557h-72.877c-0.309,0-0.557,0.249-0.557,0.557v5.37
			H347.088z"/>
		<path fill="#C5E0EF" d="M273.101,91.972v12.377c0,0.308,0.246,0.557,0.556,0.557h72.877c0.306,0,0.556-0.249,0.556-0.557V91.972
			H273.101z"/>
		<rect x="273.101" y="25.222" fill="#2898CD" width="73.987" height="27.979"/>
		<g>
			<rect x="289.918" y="33.883" fill="#C5E0EF" width="40.203" height="2.639"/>
			<g>
				<rect x="285.63" y="39.096" fill="#C5E0EF" width="48.783" height="0.66"/>
				<rect x="283.649" y="41.489" fill="#C5E0EF" width="52.739" height="0.661"/>
				<rect x="290.116" y="43.88" fill="#C5E0EF" width="39.809" height="0.66"/>
			</g>
		</g>
		<rect x="300.195" y="11.835" fill="#C5E0EF" width="19.796" height="4.677"/>
		<g>
			<rect x="282.535" y="19.123" fill="#8FC4D7" width="9.795" height="0.661"/>
			<rect x="293.865" y="19.123" fill="#8FC4D7" width="9.795" height="0.661"/>
			<rect x="305.194" y="19.123" fill="#8FC4D7" width="9.798" height="0.661"/>
			<rect x="316.525" y="19.123" fill="#8FC4D7" width="9.797" height="0.661"/>
			<rect x="327.854" y="19.123" fill="#8FC4D7" width="9.799" height="0.661"/>
		</g>
		<g>
			<g>
				<g>
					<polygon fill="#FFFFFF" points="343.265,40.614 342.786,40.264 343.551,39.212 342.786,38.159 343.265,37.81 344.284,39.212 
											"/>
				</g>
				<g>
					<polygon fill="#FFFFFF" points="343.917,39.509 341.199,39.509 341.199,38.915 343.917,38.915 					"/>
				</g>
			</g>
			<g>
				<g>
					<polygon fill="#FFFFFF" points="276.923,40.614 275.901,39.212 276.923,37.81 277.401,38.159 276.638,39.212 277.401,40.264 
											"/>
				</g>
				<g>
					<polygon fill="#FFFFFF" points="278.987,39.509 276.271,39.509 276.271,38.915 278.987,38.915 					"/>
				</g>
			</g>
		</g>
		<g>
			<g>
				<rect x="279.31" y="57.031" fill="#C5E0EF" width="17.924" height="17.924"/>
				<path fill="#8FC4D7" d="M296.937,57.329v17.329h-17.33V57.329H296.937 M297.53,56.735h-18.518v18.518h18.518V56.735
					L297.53,56.735z"/>
			</g>
			<g>
				<g>
					<path fill="#8FC4D7" d="M279.608,74.955c-0.076,0-0.152-0.029-0.211-0.087c-0.115-0.116-0.115-0.305,0-0.42l17.33-17.327
						c0.113-0.116,0.303-0.116,0.418,0c0.117,0.115,0.117,0.304,0,0.419l-17.328,17.328
						C279.76,74.926,279.685,74.955,279.608,74.955L279.608,74.955z"/>
				</g>
				<g>
					<path fill="#8FC4D7" d="M296.937,74.955c-0.076,0-0.15-0.029-0.209-0.087l-17.33-17.328c-0.115-0.116-0.115-0.305,0-0.419
						c0.117-0.115,0.305-0.116,0.42,0l17.328,17.327c0.117,0.116,0.117,0.304,0,0.42C297.088,74.926,297.013,74.955,296.937,74.955
						L296.937,74.955z"/>
				</g>
			</g>
		</g>
		<g>
			<g>
				<rect x="301.131" y="57.031" fill="#C5E0EF" width="17.925" height="17.924"/>
				<path fill="#8FC4D7" d="M318.759,57.329v17.329H301.43V57.329H318.759 M319.353,56.735h-18.518v18.518h18.518V56.735
					L319.353,56.735z"/>
			</g>
			<g>
				<g>
					<path fill="#8FC4D7" d="M301.428,74.955c-0.075,0-0.149-0.029-0.209-0.087c-0.114-0.116-0.114-0.305,0-0.42l17.33-17.327
						c0.114-0.116,0.304-0.116,0.42,0c0.116,0.115,0.116,0.304,0,0.419l-17.331,17.328
						C301.581,74.926,301.505,74.955,301.428,74.955L301.428,74.955z"/>
				</g>
				<g>
					<path fill="#8FC4D7" d="M318.759,74.955c-0.076,0-0.151-0.029-0.21-0.087l-17.33-17.328c-0.114-0.116-0.114-0.305,0-0.419
						c0.115-0.115,0.305-0.116,0.419,0l17.331,17.327c0.116,0.116,0.116,0.304,0,0.42C318.911,74.926,318.834,74.955,318.759,74.955
						L318.759,74.955z"/>
				</g>
			</g>
		</g>
		<g>
			<g>
				<rect x="322.954" y="57.031" fill="#C5E0EF" width="17.923" height="17.924"/>
				<path fill="#8FC4D7" d="M340.58,57.329v17.329h-17.328V57.329H340.58 M341.174,56.735h-18.517v18.518h18.517V56.735
					L341.174,56.735z"/>
			</g>
			<g>
				<g>
					<path fill="#8FC4D7" d="M323.251,74.955c-0.076,0-0.15-0.029-0.21-0.087c-0.116-0.116-0.116-0.305,0-0.42l17.33-17.327
						c0.115-0.116,0.304-0.116,0.419,0c0.116,0.115,0.116,0.304,0,0.419l-17.33,17.328
						C323.403,74.926,323.327,74.955,323.251,74.955L323.251,74.955z"/>
				</g>
				<g>
					<path fill="#8FC4D7" d="M340.58,74.955c-0.076,0-0.151-0.029-0.209-0.087l-17.33-17.328c-0.116-0.116-0.116-0.305,0-0.419
						c0.116-0.115,0.305-0.116,0.419,0l17.33,17.327c0.116,0.116,0.116,0.304,0,0.42C340.732,74.926,340.656,74.955,340.58,74.955
						L340.58,74.955z"/>
				</g>
			</g>
		</g>
		<g>
			<g>
				<path fill="none" d="M323.251,74.658"/>
			</g>
			<g>
				<path fill="none" d="M340.579,57.33"/>
			</g>
		</g>
		<g>
			<rect x="279.015" y="79.027" fill="#C5E0EF" width="18.137" height="0.661"/>
			<rect x="279.015" y="80.744" fill="#C5E0EF" width="16.504" height="0.658"/>
			<rect x="279.015" y="82.459" fill="#C5E0EF" width="18.137" height="0.659"/>
			<rect x="279.015" y="84.173" fill="#C5E0EF" width="14.476" height="0.66"/>
			<g>
				<rect x="279.015" y="77.394" fill="#2898CD" width="9.795" height="0.66"/>
			</g>
		</g>
		<g>
			<rect x="279.015" y="97.869" fill="#8FC4D7" width="18.137" height="0.657"/>
			<rect x="279.015" y="99.154" fill="#8FC4D7" width="16.504" height="0.66"/>
			<g>
				<rect x="279.015" y="96.233" fill="#8FC4D7" width="9.795" height="0.661"/>
			</g>
		</g>
		<g>
			<rect x="300.835" y="79.027" fill="#C5E0EF" width="18.138" height="0.661"/>
			<rect x="300.835" y="80.744" fill="#C5E0EF" width="16.505" height="0.658"/>
			<rect x="300.835" y="82.459" fill="#C5E0EF" width="18.138" height="0.659"/>
			<rect x="300.835" y="84.173" fill="#C5E0EF" width="14.476" height="0.66"/>
			<g>
				<rect x="300.835" y="77.394" fill="#2898CD" width="9.797" height="0.66"/>
			</g>
		</g>
		<g>
			<rect x="322.656" y="79.027" fill="#C5E0EF" width="18.139" height="0.661"/>
			<rect x="322.656" y="80.744" fill="#C5E0EF" width="16.505" height="0.658"/>
			<rect x="322.656" y="82.459" fill="#C5E0EF" width="18.139" height="0.659"/>
			<rect x="322.656" y="84.173" fill="#C5E0EF" width="14.477" height="0.66"/>
			<g>
				<rect x="322.656" y="77.394" fill="#2898CD" width="9.796" height="0.66"/>
			</g>
		</g>
		<circle fill="#8FC4D7" cx="339.64" cy="98.025" r="1.534"/>
		<circle fill="#8FC4D7" cx="335.681" cy="98.025" r="1.534"/>
		<circle fill="#8FC4D7" cx="331.721" cy="98.025" r="1.534"/>
		<circle fill="#B1BE46" cx="281.709" cy="2.91" r="0.949"/>
		<circle fill="#FFC907" cx="278.612" cy="2.91" r="0.948"/>
		<circle fill="#FD6120" cx="275.517" cy="2.91" r="0.949"/>
	</g>
	<g>
		<g>
			<path fill="#0E303F" d="M330.083,135.671h-40.377c0.122,0.79,0.742,1.409,1.523,1.507h38.854V135.671z"/>
			<path fill="#174F78" d="M330.083,140.763v-3.585h-38.854l0,0c-0.008,0.001-0.013,0.004-0.021,0.005
				c0.006,0,0.017,0.001,0.021,0.003c-0.871,0.107-1.545,0.865-1.547,1.784c0.002,0.922,0.676,1.677,1.547,1.787
				c-0.004,0.001-0.015,0.002-0.021,0.002c0.008,0.002,0.013,0.005,0.021,0.004l0,0H330.083z"/>
			<path fill="#0E303F" d="M291.229,140.763c-0.781,0.099-1.401,0.718-1.523,1.509l40.377-0.001v-1.507L291.229,140.763
				L291.229,140.763z"/>
			<path fill="#FFFFFF" d="M289.705,142.274c0.121-0.791,0.741-1.413,1.524-1.511l0,0c-0.008,0-0.013-0.002-0.021-0.004
				c0.006,0,0.017,0,0.021-0.002c-0.871-0.109-1.545-0.865-1.547-1.787c0.002-0.919,0.676-1.677,1.547-1.784
				c-0.004-0.002-0.015-0.003-0.021-0.003c0.008-0.001,0.013-0.004,0.021-0.005l0,0c-0.781-0.099-1.403-0.719-1.524-1.512
				l-4.106,3.304L289.705,142.274z"/>
			<path fill="#0E303F" d="M287.614,137.349l-2.016,1.621l2.016,1.622c0.123-0.521,0.189-1.063,0.189-1.622
				C287.806,138.413,287.737,137.869,287.614,137.349z"/>
			<g>
				<rect x="330.106" y="135.67" fill="#F99B1C" width="1.943" height="1.507"/>
				<rect x="330.107" y="137.177" fill="#FEC00F" width="1.942" height="3.587"/>
				<rect x="330.107" y="140.764" fill="#F99B1C" width="1.943" height="1.507"/>
			</g>
		</g>
	</g>
</g>
<g>
	<g>
		<path fill="#DE3F18" d="M285.041,555.813h-2.472c-0.174-0.87-0.416-1.712-0.715-2.528l2.064-1.191
			c0.494-0.286,0.662-0.918,0.378-1.417l-2.069-3.582c-0.287-0.494-0.92-0.663-1.414-0.379l-2.146,1.237
			c-0.577-0.656-1.205-1.27-1.879-1.83l1.194-2.066c0.285-0.498,0.115-1.129-0.381-1.417l-3.582-2.069
			c-0.494-0.284-1.125-0.115-1.412,0.381l-1.236,2.144c-0.824-0.281-1.676-0.495-2.545-0.646v-2.392c0-0.57-0.465-1.034-1.037-1.034
			h-4.137c-0.575,0-1.039,0.464-1.039,1.034v2.474c-0.865,0.175-1.709,0.413-2.524,0.713l-1.188-2.063
			c-0.289-0.498-0.922-0.665-1.422-0.379l-3.582,2.069c-0.492,0.284-0.664,0.917-0.377,1.412l1.24,2.147
			c-0.658,0.575-1.273,1.202-1.83,1.876l-2.068-1.195c-0.497-0.283-1.129-0.111-1.418,0.382l-2.071,3.584
			c-0.284,0.493-0.114,1.127,0.382,1.413l2.143,1.237c-0.277,0.821-0.494,1.671-0.643,2.543h-2.387
			c-0.575,0-1.039,0.465-1.039,1.037v4.137c0,0.573,0.464,1.037,1.039,1.037h2.469c0.174,0.866,0.411,1.714,0.713,2.527
			l-2.064,1.192c-0.495,0.284-0.662,0.917-0.379,1.411l2.068,3.586c0.284,0.494,0.92,0.664,1.415,0.378l2.146-1.238
			c0.58,0.658,1.205,1.273,1.88,1.832l-1.193,2.071c-0.288,0.494-0.116,1.128,0.377,1.412l3.589,2.068
			c0.492,0.284,1.125,0.117,1.408-0.377l1.24-2.145c0.82,0.276,1.672,0.492,2.544,0.642v2.392c0,0.572,0.463,1.033,1.032,1.033
			l4.141,0.002c0.572,0,1.035-0.463,1.035-1.035v-2.472c0.867-0.176,1.711-0.411,2.527-0.712l1.192,2.063
			c0.285,0.498,0.915,0.664,1.413,0.379l3.586-2.068c0.493-0.283,0.662-0.919,0.376-1.415l-1.239-2.146
			c0.66-0.577,1.273-1.204,1.834-1.877l2.068,1.195c0.497,0.284,1.126,0.114,1.414-0.381l2.068-3.585
			c0.287-0.494,0.113-1.128-0.377-1.413l-2.144-1.239c0.278-0.818,0.492-1.671,0.646-2.54h2.388c0.571,0,1.03-0.465,1.033-1.038
			v-4.138C286.077,556.274,285.61,555.813,285.041,555.813z M265.953,566.431c-4.022,0-7.285-3.262-7.285-7.284
			c0-4.023,3.263-7.285,7.285-7.285s7.286,3.263,7.286,7.285S269.976,566.431,265.953,566.431z"/>
	</g>
	<path fill="#FD6120" d="M265.593,569.873c-5.763-0.188-10.377-4.919-10.377-10.728c0-5.811,4.614-10.539,10.377-10.728v-9.396
		h-1.938c-0.575,0-1.039,0.464-1.039,1.034v2.474c-0.865,0.175-1.708,0.413-2.524,0.713l-1.188-2.063
		c-0.289-0.498-0.922-0.665-1.422-0.379l-3.582,2.069c-0.492,0.284-0.664,0.917-0.377,1.412l1.24,2.147
		c-0.658,0.576-1.272,1.202-1.83,1.876l-2.068-1.195c-0.497-0.283-1.129-0.111-1.417,0.382l-2.072,3.584
		c-0.284,0.493-0.114,1.127,0.382,1.413l2.143,1.237c-0.277,0.821-0.493,1.671-0.643,2.543h-2.387c-0.575,0-1.039,0.465-1.039,1.037
		v4.137c0,0.573,0.464,1.037,1.039,1.037h2.469c0.174,0.866,0.411,1.714,0.713,2.527l-2.063,1.192
		c-0.496,0.284-0.663,0.917-0.38,1.411l2.068,3.586c0.284,0.494,0.92,0.664,1.415,0.378l2.146-1.237
		c0.58,0.657,1.205,1.272,1.88,1.832l-1.193,2.07c-0.288,0.494-0.116,1.128,0.378,1.412l3.588,2.068
		c0.492,0.285,1.125,0.117,1.408-0.377l1.24-2.145c0.82,0.276,1.672,0.492,2.544,0.642v2.392c0,0.572,0.463,1.033,1.032,1.033
		l1.48,0.001v-9.394H265.593z"/>
	<path fill="#FD6120" d="M265.953,548.655v3.206c4.022,0,7.286,3.263,7.286,7.285s-3.264,7.284-7.286,7.284v3.207
		c5.793,0,10.489-4.698,10.489-10.491S271.746,548.655,265.953,548.655z"/>
</g>
<path fill="#2898CD" d="M322.759,613.057c20.936,0,37.969-17.03,37.969-37.968c0-20.935-17.033-37.973-37.969-37.973"/>
<path fill="#6BB8D6" d="M322.759,537.116c-20.938,0-37.975,17.038-37.975,37.973c0,20.938,17.037,37.968,37.975,37.968"/>
<g>
	<path fill="#C1E2DE" d="M359.083,585.409c-0.501,0.012-1.15,0.247-1.162,0.417c-0.009,0.176-0.697,0.481-0.926,0.573
		c-0.229,0.092-0.669,0.797-0.77,1.028c-0.094,0.233-0.655,0.163-0.864,0.257c-0.209,0.092-0.638,0.436-0.641,0.646
		c0,0.206-0.116,0.186-0.259-0.053c0,0,0,0-0.271,0.288c-0.324,0.36-0.324,0.36-0.324,0.36c-0.186,0.583-0.805,1.319-1.017,1.383
		c-0.213,0.059-0.25,1.085-0.25,1.494c0,0.415,0.16,0.925,0.358,1.134c0,0,0,0,0.042,0.328c0.07,0.651,0.07,0.651,0.07,0.651
		c-0.112,0.505,0.27,0.955,0.381,1.044c0.112,0.086,1.052-0.169,1.41-0.256c0.149-0.034,0.336-0.117,0.513-0.206
		c1.679-2.81,2.996-5.854,3.909-9.069C359.213,585.416,359.146,585.407,359.083,585.409z"/>
	<path fill="#C1E2DE" d="M296.388,586.383c-0.054,0.102,0.625,0.8,0.889,1.035c0.264,0.239,0.822,1.378,0.935,1.753
		c0.115,0.375,0.045,0.984,0.011,1.13c-0.033,0.146,0.126,0.461,0.153,0.591c0.025,0.133-0.231,1.25-0.135,1.698
		c0.099,0.449-0.524,1.852-0.513,2.547c0.017,0.697,0.33,1.604,0.459,1.536c0.125-0.066,0.171,0.635-0.041,0.717
		c-0.215,0.086-0.463,0.64-0.342,0.667c0.118,0.03-0.009,0.578,0.024,0.796c0.03,0.219,0.218,1.665,0.256,2.024
		c0.042,0.359,0.555,1.236,0.664,1.534c0.107,0.3,0.217,0.863,0.26,0.948c0.04,0.087,0.094,0.174,0.101,0.179
		c0.01,0.003,0.424,0.157,0.542,0.248c0.124,0.091,0.936,0.033,1.201-0.021c0.265-0.055,0.021-0.297-0.099-0.43
		c-0.121-0.133-0.226-0.772-0.364-0.84c-0.138-0.063-0.194-0.881-0.074-1.062c0.121-0.183,0.606-0.47,0.66-0.622
		c0.053-0.15,0.066-0.862-0.063-0.961c-0.132-0.099,0.038-0.961-0.061-1.393c-0.099-0.429,0.744-0.817,0.795-1.157
		c0.048-0.341,0.962-0.706,1.169-0.876c0.205-0.173,0.387-1.146,0.289-1.356c-0.103-0.207,0.337-0.378,0.529-0.378
		c0.193,0,0.413-0.139,0.489-0.139c0.074-0.003,0.305-0.436,0.43-0.534s0.384-1.128,0.609-1.298c0.228-0.17,0.416-0.791,0.416-0.973
		c0-0.183,0.345-0.726,0.457-0.889c0.115-0.164,0.969-0.555,1.12-0.614c0.151-0.063,0.383-1.434,0.442-1.926
		c0.059-0.491,0.313-1.147,0.334-1.31c0.016-0.161,0.291-0.301,0.34-0.353c0.053-0.052,0.255-0.678,0.386-0.823
		c0.131-0.142,0.602-0.739,0.613-0.873c0.011-0.136,0.082-0.476,0.159-0.763c0,0,0,0-0.002-0.334
		c0.004-0.534,0.004-0.534,0.004-0.534c-0.148-0.41-0.605-0.929-0.724-0.813c-0.117,0.112-0.646-0.364-0.914-0.467
		c-0.271-0.101-0.938-0.184-1.109-0.184c-0.17,0-0.757-0.48-1.021-0.563c-0.262-0.081-0.934-0.211-1.056-0.29
		c-0.122-0.076-0.287-1.076-0.826-1.401c-0.543-0.327-1.49-1.086-1.592-1.367c-0.104-0.278-1.144-0.864-1.466-1.043
		c-0.318-0.177-0.806-0.218-0.865-0.152c-0.063,0.061-0.46-0.542-0.667-0.714c-0.208-0.168-0.829-0.312-0.856-0.158
		c-0.026,0.153-0.44,0.072-0.539-0.058c-0.095-0.129-0.416,0.053-0.565,0.103c-0.15,0.048-0.666,0.837-0.901,1.026
		c-0.24,0.188-0.522-0.176-0.679-0.244c-0.157-0.067-0.752,0.119-0.914,0.233c-0.162,0.115-0.539-0.834-0.451-1.272
		c0.085-0.437-0.391-1.307-0.764-1.327c-0.366-0.021-0.482-0.936-0.408-1.272s-0.668-0.549-0.854-0.571
		c-0.189-0.023-0.647,0.45-0.728,0.679c-0.081,0.228-1.761-0.311-1.562-1.317c0.195-1.007,0.992-2.049,1.188-2.173
		c0.198-0.122,1.278-0.184,1.519-0.047c0.239,0.138,0.454-0.003,0.494-0.064c0.04-0.061,0.922,0.01,1.188,0.118
		c0.262,0.106,0.64,1.123,0.91,1.248c0.273,0.129,0.373-0.656,0.416-0.847c0.047-0.19-0.133-0.674-0.197-0.813
		c-0.067-0.136,0.438-1.368,0.852-1.578c0.408-0.212,0.844-0.896,0.809-1.019c-0.034-0.12,0.33-0.216,0.429-0.27
		c0.099-0.048-0.017-1.047,0.147-1.264c0.164-0.215,0.934-0.673,1.18-0.776c0.243-0.104,0.427-0.73,0.34-0.842
		c-0.089-0.111,0.634-0.727,1.007-0.846c0.374-0.115,0.698,0.216,0.607,0.267c0.073-0.04,0.591-0.308,0.81-0.451
		c0.257-0.172,0.002-0.638-0.16-0.775c-0.167-0.137-0.066-0.677,0.131-0.729c0.202-0.048,0.374-0.517,0.319-0.616
		c-0.05-0.103,0.826,0.081,1.159-0.168c0.333-0.247,0.098,0.596-0.149,0.936c-0.239,0.339,0.183,0.66,0.338,0.595
		c0.157-0.063,0.324,0.182,0.356,0.275c0.03,0.096,0.369-0.099,0.59-0.002c0.223,0.098,0.354-0.303,0.371-0.485
		c0.014-0.187-0.528-0.567-0.617-0.788c-0.082-0.222-0.118-1.508-0.129-1.771c-0.014-0.264-0.366-0.69-0.48-0.614
		c-0.114,0.073-0.346-0.685-0.527-0.85c-0.188-0.165-0.228-0.528-0.22-0.651c0.009-0.121-0.623-0.779-0.773-1.086
		c-0.153-0.305-0.365-0.243-0.38-0.104c-0.015,0.14-0.451,0.158-0.633,0.143c-0.183-0.016-0.328-0.713-0.328-0.978
		c0-0.261-0.813-0.307-0.948-0.52c-0.131-0.211-0.662-0.111-0.746-0.259c-0.085-0.146-0.556-0.281-0.645-0.228
		c-0.099,0.057-0.052,1.943-0.142,2.453c-0.092,0.509-0.521,0.956-0.681,0.945c-0.157-0.012-0.065,0.363,0.045,0.33
		c0.11-0.036-0.305,0.555-0.36,0.941c-0.054,0.387-0.446-0.018-0.511-0.366c-0.063-0.353-0.446-0.827-0.52-0.706
		c-0.074,0.118-0.337-0.145-0.453-0.069c-0.115,0.076-0.839-0.421-1.134-0.583c-0.29-0.153-0.455-1.053-0.623-1.132
		c-0.17-0.081-0.028-0.188-0.034-0.325c-0.005-0.137,0.569-0.658,0.741-0.866s0.801-1.024,1.05-1.199
		c0.25-0.178,0.442-0.644,0.399-0.73c-0.041-0.085,1.064-0.431,1.367-0.534c0.301-0.104,0.561-0.94,0.6-1.182
		c0.044-0.241-0.188-0.697-0.326-0.756c-0.141-0.061,0.419-0.081,0.604,0.012c0.188,0.091,0.758-0.169,0.981-0.05
		c0.227,0.12,0.684,0.391,1.014,0.601c0,0,0,0-0.073,0.614c-0.132,1.042-0.132,1.042-0.132,1.042
		c-0.874,0.363-1.126,0.988-0.819,0.975s1.7,0.604,2.096,0.887c0.394,0.282,0.52-0.408,0.636-0.64
		c0.116-0.227,0.078-0.896-0.017-1.026c-0.096-0.135,0.458-0.089,0.611,0.063c0.153,0.146,0.337-0.155,0.456-0.207
		c0.116-0.054,0.178-0.627,0.242-0.74c0.063-0.117-0.263-0.233-0.271-0.377c-0.013-0.146-0.639-0.418-0.841-0.515
		c-0.206-0.097-0.255-0.53-0.153-0.605s-0.068-0.625-0.169-0.809c-0.1-0.181-0.754-0.33-0.975-0.33c-0.218,0-0.442-0.506-0.57-0.58
		c-0.125-0.072-0.966-0.164-1.172-0.104c-0.208,0.061-0.592-0.599-0.939-0.396c-0.353,0.2-0.714-0.234-0.874-0.32
		c-0.156-0.088-0.98,0.795-0.973,1.414c0.01,0.622,0.32,1.222,0.447,1.238c0.129,0.019-0.028,0.578-0.174,0.739
		c-0.14,0.157-0.486-0.17-0.354-0.312c0.131-0.14-0.357-0.789-0.525-1.054c-0.118-0.192-0.546-0.36-0.838-0.477
		c-0.169,0.184-0.332,0.372-0.498,0.559c0.065,0.229,0.142,0.521,0.067,0.742c-0.123,0.379-0.438,0.436-0.457,0.271
		c-0.01-0.07-0.17-0.126-0.357-0.15c-4.6,5.516-7.66,12.353-8.537,19.847c0.184,0.21,0.393,0.456,0.445,0.635
		c0.104,0.332,0.686,0.553,0.794,0.622c0.106,0.064,0.146-0.64,0.065-0.822c-0.072-0.185,0.144-0.293,0.139-0.158
		s0.545,0.755,0.725,0.98c0.182,0.223,0.369,1.67,0.541,1.98c0.176,0.313,1.846,0.956,2.385,1.067
		c0.539,0.115,1.217,0.718,1.322,0.89c0.105,0.174,0.818,0.263,0.973,0.331c0.156,0.07,0.522,0.556,0.675,0.656
		c0.149,0.103,0.271,0.39,0.271,0.467s0.944,0.435,1.174,0.686c0.229,0.253,0.606,0.187,0.679,0.078
		c0.071-0.106,0.257,0.501,0.356,0.711c0.094,0.211,0.118,0.728,0.045,0.809c-0.074,0.081-0.213,1.032-0.371,1.222
		c-0.164,0.19-0.496,1.569-0.424,1.843c0.072,0.274,0.518,0.836,0.709,0.921c0.19,0.083,0.106,0.378-0.043,0.398
		c-0.148,0.019-0.08,1.337,0.275,1.53C296.142,585.696,296.437,586.281,296.388,586.383z"/>
	<path fill="#C1E2DE" d="M300.855,563.254l0.003-0.001C300.845,563.259,300.843,563.262,300.855,563.254z"/>
	<path fill="#C1E2DE" d="M298.26,547.239c0.455-0.075,1.211-0.201,1.265-0.33c0.035-0.104,0.041-0.415-0.043-0.524
		c0.068,0.006,0.155,0.009,0.219,0.009c0.171,0,0.461-0.946,0.643-1.167c0.185-0.22,1.224-0.547,1.467-0.696
		c0.249-0.149,0.79-0.672,0.999-0.731c0.207-0.063,0.513-0.548,0.467-0.646c-0.045-0.096,0.704-0.551,0.988-0.672
		c0.283-0.119,0.431-0.454,0.324-0.468c-0.066-0.008-1.655,0.819-3.105,1.646c-1.658,1.125-3.217,2.384-4.675,3.75
		C297.263,547.372,297.963,547.288,298.26,547.239z"/>
	<path fill="#C1E2DE" d="M325.723,594.5c0.484-0.286,1.313-1.509,1.582-1.765c0.271-0.258,0.471-1.184,0.527-1.384
		c0.054-0.201,0.466-0.528,0.62-0.572s0.646-2.091,1.079-2.539c0.432-0.446,0.938-2.609,0.886-3.391
		c-0.057-0.776,0.275-2.259,0.378-2.617c0.104-0.356,0.647-0.988,0.814-1.12c0.168-0.133,1.211-1.677,1.55-2.229
		c0.332-0.557,0.653-1.771,0.59-2.056c-0.066-0.286-0.791-0.484-0.927-0.345c-0.138,0.142-0.819,0.256-1.038,0.256
		s-0.722-1.171-1.032-1.412c-0.311-0.239-0.59-1.583-0.77-1.837s-0.681-0.896-0.837-1.046c-0.156-0.146-0.187-0.855-0.22-1.052
		c-0.037-0.194,0.301,0.127,0.36,0.409c0.058,0.283,0.86,1.428,1.111,1.813c0.248,0.387,0.903,1.61,1.071,1.994
		s1.627,0.19,2.101-0.033c0.477-0.225,1.064-0.603,1.086-0.733c0.022-0.133,0.778-0.479,0.987-0.647
		c0.208-0.168,0.396-1.045,0.532-1.186c0.137-0.146-0.108-0.98-0.269-1.229c-0.156-0.25-0.913-0.446-1.065-0.352
		c-0.153,0.1-0.479-0.561-0.597-0.802c-0.117-0.244-0.693-0.54-0.76-0.706c-0.06-0.168,0.156-0.43,0.249-0.484
		c0.093-0.06,1.158,0.689,1.468,1.063c0.305,0.372,0.656,1.058,0.717,1.179c0.054,0.117,0.898,0.179,1.088,0.04
		c0.187-0.138,0.401-0.102,0.477,0.077c0,0,0,0,0.267-0.046c0.924-0.146,0.924-0.146,0.924-0.146
		c0.438,0.475,0.563,0.885,0.554,0.98c-0.01,0.091,0.27,0.478,0.447,0.517c0.179,0.043,0.313,0.648,0.367,0.797
		c0.051,0.152,0.579,1.058,0.687,1.438c0.109,0.382,0.561,1.125,0.668,1.322c0.105,0.2,0.192,0.778,0.192,0.936
		s0.34,0.469,0.552,0.454c0.208-0.016,0.635-1.341,0.731-1.834c0.1-0.492,0.438-0.898,0.536-0.898c0.096,0,0.171-0.276,0.171-0.384
		c0-0.104,0.537-0.093,0.587-0.227c0.044-0.136,0.203-1.011,0.394-1.144c0.193-0.133,0.871-0.578,1.11-0.661
		c0.235-0.083,0.844,0.442,0.982,0.688c0.134,0.244,0.257,0.869,0.205,0.969c-0.053,0.103,0.319,0.64,0.646,0.631
		c0.32-0.01,0.423,0.41,0.432,0.563c0.014,0.15,0.438,0.585,0.524,0.777c0.085,0.194,0.06,0.724,0.002,0.845
		c-0.057,0.119-0.019,0.813,0.045,1.009c0.063,0.192,1.059,1.203,1.43,1.51c0.373,0.305,0.551-0.625,0.36-0.914
		c-0.193-0.29-0.845-0.963-0.996-1.162c-0.152-0.204-0.18-1.01-0.121-1.236c0.057-0.227,0.568,0.126,0.78,0.288
		c0.214,0.163,0.493,0.528,0.499,0.65c0.01,0.119,1.343-0.628,1.39-1.438c0.048-0.813,0.491-1.729,0.535-1.941
		c0.045-0.215-0.131-0.507-0.243-0.515c-0.113-0.012,0.196-0.62,0.573-0.61c0.375,0.012,1.275-0.992,1.486-1.39
		c0.215-0.399,0.644-0.728,0.691-0.778c0.053-0.046,0.353-0.988,0.401-1.378c0.051-0.39-0.219-0.998-0.25-1.2
		c-0.032-0.2-0.354-0.664-0.44-0.81c-0.08-0.146-0.159-0.69-0.108-0.796c0.05-0.098,0.387-0.207,0.423-0.298
		c0.036-0.092,0.424-0.503,0.395-0.687c-0.028-0.182,0.239,0.236,0.417,0.388c0.176,0.149,0.369,1.116,0.588,1.225
		c0.215,0.104,1.104-1.026,0.993-1.758c-0.106-0.73,0.257-1.666,0.471-1.751c0.163-0.063,0.58-0.654,0.861-1.078
		c-1.948-5.629-5.182-10.657-9.353-14.739c-0.049,0.004-0.098,0.005-0.144-0.004c-0.325-0.069-0.325-0.069-0.325-0.069
		c-0.544-0.115-0.86-0.699-0.77-0.833c0.031-0.042,0.024-0.14-0.002-0.255c-0.305-0.275-0.616-0.544-0.931-0.809
		c-0.258-0.008-0.529,0-0.688-0.007c-0.326-0.014-1.033-0.245-1.162-0.372c-0.126-0.126-0.552,0.113-0.579,0.349
		c-0.028,0.235-0.771,0.346-0.838,0.525c-0.075,0.179-0.457,0.191-0.53,0.089c-0.074-0.1-0.765,0.244-1.108,0.294
		c-0.342,0.049-0.98,0.326-1.133,0.396c-0.156,0.066-0.52,0.424-0.578,0.571c-0.056,0.146-0.497,0.393-0.638,0.45
		c-0.145,0.056-0.112,0.694,0.067,0.786c0.182,0.09-0.339-0.076-0.566-0.194c-0.233-0.116-0.486,0.272-0.559,0.406
		c-0.074,0.133-0.284-0.08-0.275-0.271c0.008-0.19-0.567-0.346-0.645-0.191c-0.077,0.152-0.474-0.052-0.64-0.138
		c-0.166-0.089-0.882,0.657-1.146,0.924c-0.263,0.27-1.532,0.477-1.771,0.375c-0.236-0.099-0.47,0.563-0.266,0.605
		c0.199,0.04-0.515-0.031-0.907,0.004c-0.396,0.038-1.541,0.496-1.813,0.699c-0.275,0.204-0.496-0.043-0.496-0.201
		c0-0.156-0.435-0.301-0.563-0.344c-0.128-0.044-0.384,0.855-0.609,1.027c-0.228,0.178-0.5-0.7-1.035-0.847
		c-0.534-0.145-1.369-0.66-1.605-0.721c-0.235-0.063-0.716-0.563-0.848-0.705c-0.134-0.146-0.817-0.267-1.038-0.267
		c-0.219,0-0.927,0.405-1.113,0.566c-0.194,0.159-0.479,0.128-0.571,0.186c-0.096,0.059-0.896,0.842-1.205,1.086
		c-0.312,0.244-0.854,1.302-1.027,1.555c-0.181,0.25-0.433,0.298-0.536,0.305c-0.104,0.005-0.188,0.287-0.188,0.389
		c0,0.104-0.92,0.584-1.015,1.001c-0.1,0.416,0.09,1.369,0.09,1.708s0.341,1.012,0.595,1.021c0.253,0.011,0.121,0.574,0.055,0.729
		c-0.065,0.161,0.159,0.333,0.154,0.471c-0.008,0.134-0.645,0.321-0.842,0.398c-0.2,0.071-0.519,0.519-0.561,0.686
		c-0.034,0.143-0.647,0.244-0.851,0.439c0.05-0.14,0.119-0.334,0.175-0.441c0.116-0.225-0.044-0.612-0.141-0.691
		c-0.097-0.08-0.145-1.186-0.298-1.421c-0.154-0.238-0.542-0.638-0.636-0.717c-0.098-0.077,0.063-0.367,0.12-0.491
		c0.057-0.122-0.516-0.194-0.671-0.103c-0.156,0.092-0.239,1.184-0.308,1.482c-0.063,0.298,0.282,0.758,0.379,0.779
		c0.092,0.021,0.066,0.561-0.133,0.578c-0.201,0.02-0.386,0.805-0.281,0.983c0.104,0.18-0.143,0.531-0.263,0.613
		c-0.117,0.08,0.769,0.033,1.175,0.022c0.402-0.012,0.721,0.172,0.68,0.204c-0.042,0.033-0.773,0.143-0.908,0.314
		c-0.128,0.175-0.626,0.508-0.723,0.642c-0.096,0.132,0.164,0.429,0.375,0.413c0.209-0.012,0.449,0.729,0.614,0.865
		c0.161,0.137,0.104,0.521,0.03,0.628c-0.072,0.104-1.063-0.072-1.437,0.021c-0.377,0.092-0.852,0.888-0.884,1.187
		c-0.035,0.302,0.06,1.163,0.109,1.401c0.048,0.235,0.834,0.387,0.991,0.504c0.163,0.114,0.915,0.004,1.075,0.075
		c0.15,0.073,0.661-0.764,0.762-1.15c0.097-0.391,0.9-1.104,1.067-1.368c0.168-0.264,1.031-0.231,1.244-0.371
		c0.213-0.138,0.094,0.656,0.195,1.093c0.103,0.438,0.93,0.383,0.811-0.028c-0.121-0.407,0.081-0.586,0.113-0.438
		c0.035,0.146,0.829,0.473,0.982,0.701c0.148,0.231,0.105,0.72-0.069,0.714c-0.178-0.007-0.185,0.536,0.005,0.597
		c0.185,0.057,0.434-0.611,0.635-0.711c0.201-0.101,0.363-0.519,0.268-0.55c-0.088-0.03,0.172-0.404,0.285-0.28
		c0.114,0.123-0.424-0.813-0.763-1.154c-0.339-0.34-0.102-0.189,0.533,0.338c0,0,0,0,0.436,0.612
		c0.085,0.107,0.197,0.443,0.273,0.565c0.102,0.182,0.102,0.182,0.102,0.182c0.086,0.214,0.16,0.801,0.16,0.96
		c0,0.156,0.345,0.47,0.55,0.454c0.209-0.017,0.367,0.1,0.325,0.106s0.137,0.412,0.344,0.422c0.207,0.008,0.296-0.523,0.088-0.536
		c-0.208-0.012-0.177-0.782-0.203-1.116c-0.022-0.337,0.149-0.61,0.223-0.61c0.069,0-0.01,0.689-0.003,0.849
		c0.003,0.159,0.09,0.472,0.188,0.695c0,0,0,0,0.213,0.161c0.479,0.369,0.479,0.369,0.479,0.369
		c0.688-0.202,1.608-0.047,1.575,0.094c-0.038,0.14,0.508,0.175,0.539-0.053c0.032-0.225,0.059,0.007,0.059,0.163
		c0,0.155-0.449,0.77-0.525,1.053c-0.075,0.283-1.661,0.092-2.346,0.039c-0.683-0.052-1.688,0.181-1.768,0.384
		c-0.076,0.205-1.143-0.468-1.633-0.673c-0.487-0.207-0.871-0.951-0.971-1.048c-0.104-0.101,0.082-0.339,0.035-0.486
		c-0.046-0.147-1.16-0.179-1.485-0.058c-0.323,0.119-1.995,0.296-2.393,0.47c-0.396,0.177-0.993-0.013-1.177-0.045
		c-0.187-0.031-0.629,0.515-0.854,0.613c-0.229,0.099-0.51,0.872-0.633,1.723c0,0,0,0-0.306,0.592
		c-0.196,0.379-0.196,0.379-0.196,0.379c-0.552,0.421-1.164,1.821-1.345,2.104c-0.179,0.281-0.322,2.301-0.322,2.979
		c0,0.681,0.593,2.118,0.762,2.515c0.167,0.396,1.191,1.273,1.531,1.482c0.343,0.207,1.454,0.234,1.822,0.233
		c0.362-0.002,0.778-0.349,0.92-0.77c0,0,0,0,0.535,0.055c0.246,0.022,0.246,0.022,0.246,0.022c0.011,0.3,0.8,0.539,0.994,0.646
		c0.19,0.104,0.713,0.024,0.866-0.021c0.154-0.044,0.329,1.352,0.215,1.754c-0.11,0.401,0.275,1.816,0.39,2.241
		c0.114,0.427,0.598,1.59,0.646,2.009c0.047,0.418-0.284,1.808-0.34,2.293c-0.054,0.487,0.605,1.85,0.78,2.315
		c0.172,0.468,0.314,1.475,0.314,1.708c0,0.234,0.724,1.641,0.888,2.219C323.422,594.644,325.234,594.784,325.723,594.5z"/>
	<path fill="#C1E2DE" d="M357.024,577.261c0.047,0.103,0.502-0.259,0.775-0.3c0.275-0.043,0.446-0.778,0.232-0.829
		c-0.214-0.06-0.485-0.623-0.644-0.69c-0.151-0.068-0.454,0.241-0.439,0.464c0.011,0.224-0.496,0.313-0.597,0.5
		c-0.094,0.185-0.09,0.318,0.018,0.3C356.473,576.687,356.978,577.157,357.024,577.261z"/>
	<path fill="#C1E2DE" d="M356.465,581.248c0.137-0.051-0.016-0.774-0.301-0.837c-0.285-0.059-1.071,0.956-0.921,1.54
		c0.149,0.582,0.313,0.549,0.396,0.425c0.081-0.121,0.551,0.081,0.689,0.127c0.137,0.045,0.137-0.097,0-0.312
		C356.188,581.976,356.33,581.299,356.465,581.248z"/>
	<path fill="#C1E2DE" d="M354.911,580.541c0.032-0.26,0.083-1.068,0.126-1.23c0.045-0.161-0.441-0.625-0.68-0.71
		c-0.238-0.082-1.003,1.578-1.556,1.873c-0.549,0.296-0.747,1.307-0.604,1.54c0.147,0.233,1.294,0.355,1.493,0.534
		c0.2,0.175,0.422-0.028,0.543-0.059c0.122-0.028,0.083-0.105,0.039-0.139c-0.048-0.028,0.397-0.499,0.463-0.798
		C354.799,581.257,354.878,580.799,354.911,580.541z"/>
	<path fill="#C1E2DE" d="M351.793,583.307c-0.431-0.162-0.937,0.091-0.977,0.258c-0.043,0.165,1.654,0.438,2.221,0.588
		c0.562,0.153,0.913,0.202,0.785,0.107C353.692,584.164,352.222,583.47,351.793,583.307z"/>
	<path fill="#C1E2DE" d="M355.238,572.26c0.137-0.19-0.19-1.079-0.354-0.877c-0.163,0.199-0.045,0.718,0.007,0.9
		C354.943,572.46,355.102,572.449,355.238,572.26z"/>
	<path fill="#C1E2DE" d="M356.263,574.166c0.1-0.229-0.123-0.481-0.488-0.561c-0.367-0.076-0.313,1.029-0.152,1.17
		C355.78,574.914,356.162,574.398,356.263,574.166z"/>
	<path fill="#C1E2DE" d="M358.174,581.013c0.439,0.31,1.421,0.168,1.451-0.427C359.19,580.301,358.137,580.349,358.174,581.013z"/>
	<path fill="#C1E2DE" d="M357.937,567.464c-0.183,0.128-0.278,0.454-0.223,0.585c-0.023-0.001-0.051-0.002-0.074-0.002
		c-0.146,0-0.163,0.58-0.009,0.679c0.149,0.1,0.523-0.452,0.716-0.583c0.194-0.133,0.584-0.212,0.644-0.169
		c0.061,0.04,0.397-0.063,0.758-0.229c0.063-0.029,0.139-0.124,0.215-0.26c-0.087-0.423-0.189-0.84-0.289-1.256
		c-0.183,0.134-0.389,0.278-0.484,0.364C358.994,566.77,358.178,567.299,357.937,567.464z"/>
	<path fill="#C1E2DE" d="M347.9,579.119c0.004,0.002,0.006,0.001,0.006,0.002C347.829,579.067,347.817,579.061,347.9,579.119z"/>
	<path fill="#C1E2DE" d="M350.635,581.669c-0.158-0.36-0.685-0.969-1.168-1.354c0,0,0,0-0.182-0.302
		c-0.203-0.332-0.203-0.332-0.203-0.332c-0.179-0.364-0.725-0.646-0.771-0.756c-0.047-0.104-0.221,0.317-0.405,0.194
		c0.097,0.068,0.301,0.214,0.587,0.416c0.51,0.365,1.493,2.839,1.717,3.013C350.432,582.724,350.794,582.028,350.635,581.669z"/>
	<path fill="#C1E2DE" d="M342.796,577.674c-0.137,0.278,0.728,0.873,0.795,0.735c0.071-0.136-0.108-0.82-0.264-0.972
		C343.174,577.286,342.935,577.396,342.796,577.674z"/>
	<path fill="#C1E2DE" d="M331.325,590.883c0.034,0.294,0.63,0.527,0.802,0.479c0.177-0.05,0.657-0.938,0.725-1.191
		c0.068-0.259,0.121-0.809,0.121-0.938s0.08-0.425,0.147-0.461c0.063-0.034,0.174-0.337,0.241-0.672
		c0.067-0.336-0.358-1.896-0.369-2.168c-0.011-0.274-0.32,0.141-0.398,0.418c-0.084,0.277-0.858,0.841-1.032,1.078
		c-0.171,0.233-0.36,1.029-0.294,1.169c0.064,0.137-0.066,0.68-0.146,0.832C331.046,589.578,331.294,590.589,331.325,590.883z"/>
	<path fill="#C1E2DE" d="M303.33,601.678c0.173,0,0.343,0,0.521,0C303.944,601.112,303.301,601.206,303.33,601.678z"/>
	<path fill="#C1E2DE" d="M317.245,542.926c-0.22,0.026-0.785-0.086-0.885-0.19c-0.097-0.104-0.942-0.196-1.189-0.093
		c-0.244,0.104-0.076-0.596,0.264-0.672c0.342-0.077,0.053-0.561-0.311-0.562c-0.362-0.003-1.259-0.135-1.468-0.087
		c-0.212,0.045-0.622-0.146-0.773-0.169c-0.147-0.021-1.225,0.322-1.732,0.296c-0.511-0.021-1.759,0.029-2.027,0.104
		c-0.275,0.072-0.47,0.602-0.43,0.789c0.038,0.188-1.211,0.186-1.603,0.189c-0.396,0.005-2.485,0.451-3.035,0.753
		c-0.545,0.3-0.973,1.068-0.792,1.084c0.183,0.015-0.305,0.449-0.596,0.552c-0.295,0.101-0.998,0.146-1.16,0.312
		c-0.167,0.163,0.174,0.276,0.239,0.389c0.063,0.109,0.262-0.097,0.448,0.011c0.183,0.104,0.793,0.153,0.954,0.215
		c0.162,0.063-0.518,0.193-0.839,0.218c-0.318,0.022-0.246,0.65,0.014,0.737c0.262,0.086,0.934,0.18,1.002,0.069
		c0.066-0.107,0.797,0.119,1.125,0.157c0.328,0.035,0.578,0.857,0.679,1.037c0.102,0.177,0.121,0.804,0.097,0.984
		c-0.021,0.181,0.581,0.513,0.688,0.396s0.078,0.283-0.163,0.263c-0.242-0.021-0.083,0.675,0.216,0.775
		c0.294,0.1,0.091,0.526-0.079,0.657c-0.173,0.128-0.078,0.538-0.255,0.687c-0.175,0.146,0.625,1.529,0.62,2.242
		c-0.005,0.712,0.438,1.293,0.608,1.293c0.169,0,0.757,0.145,0.833,0.297c0.074,0.152,0.358-0.105,0.472-0.225
		c0.107-0.114,0.346-0.457,0.528-0.759c0.178-0.303,0.581-1.729,0.636-1.884c0.053-0.154,0.725-0.059,0.877-0.138
		c0.151-0.076,0.59-0.422,0.716-0.525c0.123-0.104,1.081-0.507,1.343-0.696c0.26-0.188,0.695-0.998,0.899-1.172
		c0.201-0.172-0.105-0.121-0.359-0.289c-0.254-0.165-0.143-0.371-0.067-0.447c0.071-0.079,0.844,0.127,1.109,0.231
		c0.267,0.104,0.771-0.264,0.58-0.405c-0.198-0.14-0.095-0.136,0-0.077c0.093,0.06,0.191-0.468,0.091-0.565
		c-0.103-0.103,0.778-0.746,0.625-1.354c-0.154-0.607,0.239-1.232,0.477-1.24c0.24-0.008,0.171-0.688-0.115-0.751
		c-0.283-0.063-0.017-0.125,0.092-0.223c0.104-0.097,0.239-0.703,0.178-0.82c-0.064-0.117,0.434-0.247,0.519-0.387
		c0.092-0.138,0.658-0.409,0.859-0.455C317.351,543.435,317.463,542.901,317.245,542.926z"/>
	<path fill="#C1E2DE" d="M322.19,543.423c-0.271-0.092-0.819,0.207-0.749,0.376c0.07,0.174-0.447-0.217-0.809-0.031
		c-0.359,0.189-0.462,0.822-0.297,0.905c0.169,0.082,0.288,0.585,0.292,0.683c0.007,0.098,0.702,0.028,0.882-0.118
		c0.177-0.146,0.152,0.51-0.021,0.688c-0.178,0.178,0.063,0.533,0.257,0.563c0.195,0.027,0.456,0.484,0.656,0.479
		c0.197-0.005,0.542-0.771,0.617-1.061c0.077-0.285,0.741-0.061,1.048,0.032c0.305,0.09,0.412-1.057,0.084-1.229
		c-0.326-0.173-0.738-0.087-0.875-0.219c-0.138-0.132-0.368-0.256-0.522-0.277C322.6,544.191,322.457,543.514,322.19,543.423z"/>
	<path fill="#C1E2DE" d="M324.843,543.973c0.534,0.075,1.14-0.366,1.27-0.492c0.132-0.122-1.485-0.452-2.099-0.471
		c-0.616-0.021-1.112,0.063-1.104,0.186C322.918,543.314,324.306,543.895,324.843,543.973z"/>
	<path fill="#C1E2DE" d="M315.068,558.462c-0.143-0.059-0.221,0.471-0.188,0.672c0.031,0.202,0.526,0.185,0.736,0.147
		c0.211-0.035,0.374-0.205,0.364-0.381c-0.01-0.172-0.31-0.962-0.428-0.962S315.211,558.519,315.068,558.462z"/>
	<path fill="#C1E2DE" d="M316.656,552.299c-0.11-0.193-0.95-0.171-1.155-0.184c-0.205-0.011-0.833-0.221-0.953-0.354
		c-0.117-0.134-0.21,0.518-0.398,0.601c-0.195,0.086,0.092,0.21,0.172,0.142c0.079-0.069-0.004,0.334-0.094,0.474
		c-0.086,0.139,0.563,0.235,0.635,0.445c0.071,0.209,0.34,0.345,0.594,0.305c0.253-0.043,0.759-0.304,0.938-0.321
		C316.57,553.387,316.767,552.493,316.656,552.299z"/>
	<path fill="#C1E2DE" d="M334.303,547.487c0.29-0.292,1.479-0.682,1.613-0.98c0.133-0.3-0.084-0.544-0.205-0.544
		c-0.12,0-0.268,0.151-0.295,0.197c-0.029,0.05-1.395,0.371-1.81,0.573c-0.423,0.2-0.907,0.512-1.081,0.69
		c-0.178,0.178-0.467,1.527-0.568,1.682c-0.099,0.152,0.453,0.703,0.699,0.854c0.247,0.15,0.586,0.071,0.679,0.043
		c0.096-0.029-0.127-0.975-0.254-1.303C332.949,548.373,334.016,547.779,334.303,547.487z"/>
	<path fill="#C1E2DE" d="M332.846,543.966c0.448,0.443,0.696-0.198,1.188-0.137C334.024,542.926,332.801,543.235,332.846,543.966z"
		/>
	<path fill="#C1E2DE" d="M341.565,544.134c-0.015,0.167,1.241,0.301,1.607,0.236c0.367-0.063-0.074-0.636-0.612-0.604
		C342.027,543.803,341.581,543.968,341.565,544.134z"/>
	<path fill="#C1E2DE" d="M296.136,553.439c-0.132,0.121-0.018,0.736,0.236,0.754c0.25,0.019,0.65-0.928,0.959-0.737
		c0.307,0.189,0.516,0.264,0.466,0.163c-0.054-0.1-0.93-0.482-1.036-0.554C296.651,552.998,296.271,553.318,296.136,553.439z"/>
	<path fill="#C1E2DE" d="M299.346,574.271c0,0.104,0.545,0.09,0.639-0.08c0.085-0.165,0.04-0.302-0.108-0.302
		C299.73,573.89,299.346,574.166,299.346,574.271z"/>
	<path fill="#C1E2DE" d="M296.91,573.371c0.262-0.049,0.14,0.374,0.202,0.524c0.062,0.155,0.691,0.274,0.816,0.378
		s0.449-0.192,0.699-0.16c0.25,0.03-0.083-0.869-0.503-0.844c-0.42,0.028-0.754-0.381-0.854-0.43
		c-0.103-0.046-0.588-0.342-0.729-0.454c-0.136-0.113-1.207-0.208-1.572-0.208s-0.767,0.372-0.82,0.492
		c-0.06,0.124,0.576,0.206,0.756,0.108c0.185-0.095,1.031,0.107,1.205,0.313C296.287,573.296,296.646,573.423,296.91,573.371z"/>
	<path fill="#C1E2DE" d="M295.767,574.271c0,0.104,0.551,0.039,0.684,0.044c0.134,0.002,0.13-0.09-0.008-0.201
		C296.302,574.002,295.767,574.166,295.767,574.271z"/>
	<path fill="#C1E2DE" d="M296.156,571.43c-0.144-0.058-0.261,0.17-0.261,0.274c0,0.105,0.08,0.192,0.179,0.192
		C296.17,571.897,296.3,571.487,296.156,571.43z"/>
	<path fill="#C1E2DE" d="M297.313,571.519c-0.049-0.107-0.285-0.192-0.355-0.192c-0.073,0-0.121,0.184-0.107,0.404
		C296.86,571.953,297.36,571.622,297.313,571.519z"/>
	<path fill="#C1E2DE" d="M298.147,572.8c0.222-0.105,0.252-0.374,0.118-0.358c-0.134,0.013-0.378-0.384-0.522-0.439
		c-0.145-0.059-0.262,0.236-0.262,0.366c0,0.132,0.082,0.22,0.18,0.192C297.761,572.535,297.922,572.905,298.147,572.8z"/>
	<path fill="#C1E2DE" d="M359.835,581.476c-0.116,0.061-0.671,0.126-0.745,0.017c-0.074-0.108-0.185,0.227-0.304,0.279
		c-0.117,0.055-0.055,0.346,0.124,0.255c0.124-0.061,0.65,0.232,1.081,0.501c0.085-0.425,0.159-0.853,0.229-1.282
		C360.067,581.325,359.905,581.436,359.835,581.476z"/>
</g>
<g>
	<path fill="#FFFFFF" d="M296.388,586.383c-0.054,0.102,0.625,0.8,0.889,1.035c0.264,0.239,0.822,1.378,0.935,1.753
		c0.115,0.375,0.045,0.984,0.011,1.13c-0.033,0.146,0.126,0.461,0.153,0.591c0.025,0.133-0.231,1.25-0.135,1.698
		c0.099,0.449-0.524,1.852-0.513,2.547c0.017,0.697,0.33,1.604,0.459,1.536c0.125-0.066,0.171,0.635-0.041,0.717
		c-0.215,0.086-0.463,0.64-0.342,0.667c0.118,0.03-0.009,0.578,0.024,0.796c0.03,0.219,0.218,1.665,0.256,2.024
		c0.042,0.359,0.555,1.236,0.664,1.534c0.107,0.3,0.217,0.863,0.26,0.948c0.04,0.087,0.094,0.174,0.101,0.179
		c0.01,0.003,0.424,0.157,0.542,0.248c0.124,0.091,0.936,0.033,1.201-0.021c0.265-0.055,0.021-0.297-0.099-0.43
		c-0.121-0.133-0.226-0.772-0.364-0.84c-0.138-0.063-0.194-0.881-0.074-1.062c0.121-0.183,0.606-0.47,0.66-0.622
		c0.053-0.15,0.066-0.862-0.063-0.961c-0.132-0.099,0.038-0.961-0.061-1.393c-0.099-0.429,0.744-0.817,0.795-1.157
		c0.048-0.341,0.962-0.706,1.169-0.876c0.205-0.173,0.387-1.146,0.289-1.356c-0.103-0.207,0.337-0.378,0.529-0.378
		c0.193,0,0.413-0.139,0.489-0.139c0.074-0.003,0.305-0.436,0.43-0.534s0.384-1.128,0.609-1.298c0.228-0.17,0.416-0.791,0.416-0.973
		c0-0.183,0.345-0.726,0.457-0.889c0.115-0.164,0.969-0.555,1.12-0.614c0.151-0.063,0.383-1.434,0.442-1.926
		c0.059-0.491,0.313-1.147,0.334-1.31c0.016-0.161,0.291-0.301,0.34-0.353c0.053-0.052,0.255-0.678,0.386-0.823
		c0.131-0.142,0.602-0.739,0.613-0.873c0.011-0.136,0.082-0.476,0.159-0.763c0,0,0,0-0.002-0.334
		c0.004-0.534,0.004-0.534,0.004-0.534c-0.148-0.41-0.605-0.929-0.724-0.813c-0.117,0.112-0.646-0.364-0.914-0.467
		c-0.271-0.101-0.938-0.184-1.109-0.184c-0.17,0-0.757-0.48-1.021-0.563c-0.262-0.081-0.934-0.211-1.056-0.29
		c-0.122-0.076-0.287-1.076-0.826-1.401c-0.543-0.327-1.49-1.086-1.592-1.367c-0.104-0.278-1.144-0.864-1.466-1.043
		c-0.318-0.177-0.806-0.218-0.865-0.152c-0.063,0.061-0.46-0.542-0.667-0.714c-0.208-0.168-0.829-0.312-0.856-0.158
		c-0.026,0.153-0.44,0.072-0.539-0.058c-0.095-0.129-0.416,0.053-0.565,0.103c-0.15,0.048-0.666,0.837-0.901,1.026
		c-0.24,0.188-0.522-0.176-0.679-0.244c-0.157-0.067-0.752,0.119-0.914,0.233c-0.162,0.115-0.539-0.834-0.451-1.272
		c0.085-0.437-0.391-1.307-0.764-1.327c-0.366-0.021-0.482-0.936-0.408-1.272s-0.668-0.549-0.854-0.571
		c-0.189-0.023-0.647,0.45-0.728,0.679c-0.081,0.228-1.761-0.311-1.562-1.317c0.195-1.007,0.992-2.049,1.188-2.173
		c0.198-0.122,1.278-0.184,1.519-0.047c0.239,0.138,0.454-0.003,0.494-0.064c0.04-0.061,0.922,0.01,1.188,0.118
		c0.262,0.106,0.64,1.123,0.91,1.248c0.273,0.129,0.373-0.656,0.416-0.847c0.047-0.19-0.133-0.674-0.197-0.813
		c-0.067-0.136,0.438-1.368,0.852-1.578c0.408-0.212,0.844-0.896,0.809-1.019c-0.034-0.12,0.33-0.216,0.429-0.27
		c0.099-0.048-0.017-1.047,0.147-1.264c0.164-0.215,0.934-0.673,1.18-0.776c0.243-0.104,0.427-0.73,0.34-0.842
		c-0.089-0.111,0.634-0.727,1.007-0.846c0.374-0.115,0.698,0.216,0.607,0.267c0.073-0.04,0.591-0.308,0.81-0.451
		c0.257-0.172,0.002-0.638-0.16-0.775c-0.167-0.137-0.066-0.677,0.131-0.729c0.202-0.048,0.374-0.517,0.319-0.616
		c-0.05-0.103,0.826,0.081,1.159-0.168c0.333-0.247,0.098,0.596-0.149,0.936c-0.239,0.339,0.183,0.66,0.338,0.595
		c0.157-0.063,0.324,0.182,0.356,0.275c0.03,0.096,0.369-0.099,0.59-0.002c0.223,0.098,0.354-0.303,0.371-0.485
		c0.014-0.187-0.528-0.567-0.617-0.788c-0.082-0.222-0.118-1.508-0.129-1.771c-0.014-0.264-0.366-0.69-0.48-0.614
		c-0.114,0.073-0.346-0.685-0.527-0.85c-0.188-0.165-0.228-0.528-0.22-0.651c0.009-0.121-0.623-0.779-0.773-1.086
		c-0.153-0.305-0.365-0.243-0.38-0.104c-0.015,0.14-0.451,0.158-0.633,0.143c-0.183-0.016-0.328-0.713-0.328-0.978
		c0-0.261-0.813-0.307-0.948-0.52c-0.131-0.211-0.662-0.111-0.746-0.259c-0.085-0.146-0.556-0.281-0.645-0.228
		c-0.099,0.057-0.052,1.943-0.142,2.453c-0.092,0.509-0.521,0.956-0.681,0.945c-0.157-0.012-0.065,0.363,0.045,0.33
		c0.11-0.036-0.305,0.555-0.36,0.941c-0.054,0.387-0.446-0.018-0.511-0.366c-0.063-0.353-0.446-0.827-0.52-0.706
		c-0.074,0.118-0.337-0.145-0.453-0.069c-0.115,0.076-0.839-0.421-1.134-0.583c-0.29-0.153-0.455-1.053-0.623-1.132
		c-0.17-0.081-0.028-0.188-0.034-0.325c-0.005-0.137,0.569-0.658,0.741-0.866s0.801-1.024,1.05-1.199
		c0.25-0.178,0.442-0.644,0.399-0.73c-0.041-0.085,1.064-0.431,1.367-0.534c0.301-0.104,0.561-0.94,0.6-1.182
		c0.044-0.241-0.188-0.697-0.326-0.756c-0.141-0.061,0.419-0.081,0.604,0.012c0.188,0.091,0.758-0.169,0.981-0.05
		c0.227,0.12,0.684,0.391,1.014,0.601c0,0,0,0-0.073,0.614c-0.132,1.042-0.132,1.042-0.132,1.042
		c-0.874,0.363-1.126,0.988-0.819,0.975s1.7,0.604,2.096,0.887c0.394,0.282,0.52-0.408,0.636-0.64
		c0.116-0.227,0.078-0.896-0.017-1.026c-0.096-0.135,0.458-0.089,0.611,0.063c0.153,0.146,0.337-0.155,0.456-0.207
		c0.116-0.054,0.178-0.627,0.242-0.74c0.063-0.117-0.263-0.233-0.271-0.377c-0.013-0.146-0.639-0.418-0.841-0.515
		c-0.206-0.097-0.255-0.53-0.153-0.605s-0.068-0.625-0.169-0.809c-0.1-0.181-0.754-0.33-0.975-0.33c-0.218,0-0.442-0.506-0.57-0.58
		c-0.125-0.072-0.966-0.164-1.172-0.104c-0.208,0.061-0.592-0.599-0.939-0.396c-0.353,0.2-0.714-0.234-0.874-0.32
		c-0.156-0.088-0.98,0.795-0.973,1.414c0.01,0.622,0.32,1.222,0.447,1.238c0.129,0.019-0.028,0.578-0.174,0.739
		c-0.14,0.157-0.486-0.17-0.354-0.312c0.131-0.14-0.357-0.789-0.525-1.054c-0.118-0.192-0.546-0.36-0.838-0.477
		c-0.169,0.184-0.332,0.372-0.498,0.559c0.065,0.229,0.142,0.521,0.067,0.742c-0.123,0.379-0.438,0.436-0.457,0.271
		c-0.01-0.07-0.17-0.126-0.357-0.15c-0.171,0.205-0.337,0.416-0.505,0.626c-0.161,0.205-0.326,0.412-0.485,0.621
		c-0.175,0.225-0.342,0.448-0.508,0.678c-0.148,0.205-0.295,0.412-0.439,0.618c-0.217,0.309-0.43,0.62-0.639,0.935
		c-0.199,0.302-0.393,0.604-0.584,0.912c-0.162,0.264-0.32,0.532-0.476,0.801c-0.106,0.186-0.214,0.37-0.321,0.557
		c-0.156,0.279-0.311,0.563-0.461,0.849c-0.084,0.161-0.168,0.325-0.25,0.488c-0.343,0.671-0.672,1.353-0.972,2.045
		c-0.011,0.021-0.021,0.039-0.026,0.058c-0.15,0.342-0.289,0.688-0.428,1.036c-0.055,0.13-0.105,0.263-0.156,0.395
		c-0.137,0.355-0.273,0.714-0.398,1.075c-0.022,0.06-0.041,0.12-0.063,0.181c-0.419,1.211-0.779,2.446-1.074,3.708
		c-0.021,0.085-0.039,0.169-0.061,0.252c-0.297,1.307-0.528,2.636-0.688,3.985c0,0.012-0.002,0.021-0.006,0.029
		c0.184,0.21,0.393,0.456,0.446,0.635c0.104,0.332,0.685,0.553,0.794,0.622c0.105,0.064,0.146-0.64,0.066-0.823
		c-0.073-0.184,0.143-0.293,0.138-0.157c-0.005,0.135,0.545,0.755,0.726,0.98c0.18,0.223,0.368,1.67,0.541,1.98
		c0.174,0.313,1.844,0.956,2.383,1.067c0.539,0.115,1.217,0.718,1.322,0.89c0.106,0.174,0.819,0.263,0.975,0.331
		c0.154,0.07,0.521,0.556,0.674,0.656c0.148,0.103,0.271,0.39,0.271,0.467c0,0.076,0.943,0.435,1.174,0.686
		c0.228,0.253,0.605,0.186,0.678,0.078c0.072-0.106,0.257,0.501,0.355,0.711c0.094,0.211,0.119,0.728,0.045,0.809
		s-0.211,1.032-0.369,1.222c-0.164,0.19-0.498,1.569-0.426,1.843c0.073,0.273,0.519,0.836,0.711,0.921
		c0.189,0.083,0.105,0.378-0.043,0.398c-0.149,0.019-0.08,1.337,0.274,1.53C296.14,585.697,296.437,586.281,296.388,586.383z"/>
	<line fill="none" x1="300.858" y1="563.253" x2="300.855" y2="563.254"/>
	<path fill="#FFFFFF" d="M298.26,547.239c0.455-0.075,1.211-0.201,1.265-0.33c0.035-0.104,0.041-0.415-0.043-0.524
		c0.068,0.006,0.155,0.009,0.219,0.009c0.171,0,0.461-0.946,0.643-1.167c0.185-0.22,1.224-0.547,1.467-0.696
		c0.249-0.149,0.79-0.672,0.999-0.731c0.207-0.063,0.513-0.548,0.467-0.646c-0.045-0.096,0.704-0.551,0.988-0.672
		c0.283-0.119,0.431-0.454,0.324-0.468c-0.066-0.008-1.655,0.819-3.105,1.646c-0.015,0.009-0.027,0.021-0.04,0.03
		c-0.416,0.281-0.826,0.574-1.231,0.873c-0.272,0.204-0.541,0.415-0.81,0.626c-0.145,0.111-0.284,0.222-0.426,0.335
		c-0.32,0.259-0.637,0.521-0.946,0.791c-0.064,0.056-0.134,0.113-0.197,0.171c-0.345,0.303-0.687,0.609-1.022,0.924
		C297.263,547.372,297.963,547.288,298.26,547.239z"/>
	<path fill="#FFFFFF" d="M322.287,565.78c-0.177-0.007-0.185,0.536,0.005,0.597c0.136,0.041,0.306-0.306,0.467-0.533v-2.115
		c-0.016-0.015-0.029-0.033-0.042-0.047c-0.224-0.227-0.189-0.23,0.042-0.058v-12.988c-0.19,0.18-0.381,0.349-0.498,0.44
		c-0.312,0.244-0.854,1.302-1.026,1.555c-0.182,0.25-0.434,0.298-0.537,0.305c-0.104,0.005-0.188,0.287-0.188,0.389
		c0,0.104-0.92,0.584-1.015,1.001c-0.099,0.416,0.09,1.369,0.09,1.708s0.341,1.011,0.595,1.021c0.253,0.011,0.121,0.573,0.056,0.729
		c-0.066,0.161,0.158,0.333,0.153,0.471c-0.008,0.134-0.645,0.321-0.842,0.398c-0.2,0.071-0.518,0.518-0.56,0.686
		c-0.035,0.143-0.648,0.244-0.852,0.439c0.05-0.14,0.119-0.334,0.175-0.442c0.116-0.224-0.044-0.611-0.141-0.69
		c-0.097-0.08-0.144-1.187-0.298-1.421c-0.154-0.238-0.542-0.639-0.635-0.717c-0.099-0.077,0.063-0.367,0.12-0.491
		c0.056-0.122-0.517-0.194-0.672-0.103c-0.155,0.091-0.238,1.184-0.308,1.482c-0.063,0.298,0.282,0.758,0.379,0.779
		c0.092,0.021,0.067,0.561-0.133,0.577c-0.201,0.021-0.385,0.806-0.281,0.984c0.104,0.179-0.143,0.531-0.263,0.613
		c-0.117,0.08,0.769,0.033,1.175,0.022c0.403-0.012,0.721,0.171,0.68,0.204c-0.042,0.033-0.773,0.143-0.907,0.314
		c-0.129,0.175-0.626,0.508-0.724,0.642c-0.096,0.132,0.164,0.428,0.375,0.413c0.209-0.012,0.449,0.729,0.614,0.865
		c0.161,0.137,0.104,0.521,0.031,0.628c-0.073,0.104-1.063-0.072-1.438,0.021c-0.377,0.093-0.852,0.889-0.884,1.188
		c-0.035,0.302,0.06,1.163,0.11,1.401c0.047,0.235,0.834,0.387,0.99,0.504c0.163,0.113,0.915,0.004,1.075,0.075
		c0.15,0.073,0.661-0.764,0.763-1.15c0.096-0.391,0.899-1.104,1.066-1.368c0.168-0.264,1.031-0.231,1.244-0.371
		c0.213-0.138,0.094,0.656,0.196,1.092c0.102,0.438,0.929,0.384,0.81-0.027c-0.121-0.407,0.081-0.586,0.113-0.438
		c0.036,0.146,0.83,0.473,0.982,0.701C322.506,565.298,322.463,565.785,322.287,565.78z"/>
	<path fill="#FFFFFF" d="M322.759,568.349c-0.163-0.085-0.314-0.161-0.432-0.21c-0.488-0.207-0.872-0.951-0.971-1.048
		c-0.104-0.101,0.082-0.339,0.034-0.486c-0.046-0.148-1.159-0.179-1.484-0.058c-0.324,0.119-1.996,0.296-2.394,0.47
		c-0.396,0.177-0.993-0.013-1.177-0.045c-0.186-0.031-0.629,0.515-0.853,0.612c-0.229,0.1-0.511,0.872-0.634,1.724
		c0,0,0,0-0.306,0.592c-0.196,0.379-0.196,0.379-0.196,0.379c-0.552,0.421-1.164,1.821-1.345,2.104
		c-0.178,0.28-0.322,2.301-0.322,2.979c0,0.68,0.594,2.118,0.763,2.514c0.167,0.396,1.19,1.274,1.53,1.483
		c0.344,0.207,1.454,0.234,1.822,0.233c0.363-0.002,0.779-0.349,0.92-0.77c0,0,0,0,0.535,0.055c0.246,0.022,0.246,0.022,0.246,0.022
		c0.011,0.3,0.8,0.539,0.995,0.646c0.189,0.104,0.712,0.024,0.866-0.021c0.153-0.044,0.328,1.352,0.215,1.754
		c-0.111,0.401,0.274,1.816,0.389,2.241c0.114,0.427,0.598,1.59,0.647,2.009c0.047,0.418-0.284,1.808-0.341,2.293
		c-0.054,0.487,0.605,1.85,0.78,2.315c0.172,0.468,0.315,1.475,0.315,1.708c0,0.118,0.186,0.54,0.392,1.002v-24.497H322.759z"/>
	<path fill="#FFFFFF" d="M303.33,601.678c0.173,0,0.343,0,0.521,0C303.944,601.112,303.301,601.206,303.33,601.678z"/>
	<path fill="#FFFFFF" d="M313.849,549.759c0.268,0.104,0.771-0.265,0.58-0.405c-0.197-0.14-0.095-0.136,0-0.077
		c0.094,0.06,0.191-0.468,0.091-0.565c-0.103-0.103,0.778-0.746,0.625-1.354c-0.154-0.608,0.239-1.233,0.477-1.24
		c0.24-0.008,0.171-0.688-0.115-0.751c-0.283-0.063-0.017-0.125,0.092-0.223c0.104-0.097,0.239-0.703,0.178-0.82
		c-0.064-0.118,0.434-0.247,0.519-0.387c0.092-0.138,0.658-0.409,0.859-0.455c0.199-0.046,0.312-0.579,0.094-0.555
		c-0.22,0.026-0.785-0.086-0.885-0.19c-0.097-0.104-0.942-0.196-1.189-0.093c-0.244,0.104-0.076-0.596,0.265-0.672
		c0.341-0.077,0.052-0.561-0.312-0.562c-0.362-0.003-1.259-0.135-1.468-0.087c-0.212,0.045-0.622-0.146-0.773-0.169
		c-0.147-0.021-1.225,0.322-1.732,0.296c-0.511-0.021-1.759,0.029-2.027,0.104c-0.275,0.071-0.47,0.602-0.43,0.789
		c0.038,0.188-1.211,0.186-1.603,0.189c-0.396,0.005-2.485,0.451-3.035,0.753c-0.545,0.299-0.973,1.068-0.792,1.084
		c0.183,0.015-0.305,0.449-0.596,0.552c-0.295,0.101-0.998,0.146-1.16,0.312c-0.167,0.163,0.174,0.276,0.239,0.389
		c0.064,0.109,0.262-0.097,0.448,0.011c0.183,0.104,0.793,0.153,0.954,0.215c0.163,0.063-0.518,0.192-0.838,0.218
		c-0.319,0.022-0.247,0.65,0.013,0.737c0.262,0.086,0.934,0.18,1.002,0.068c0.067-0.106,0.797,0.12,1.125,0.158
		c0.328,0.035,0.578,0.857,0.679,1.037c0.102,0.177,0.121,0.804,0.098,0.984c-0.022,0.181,0.58,0.513,0.688,0.396
		s0.078,0.283-0.163,0.263c-0.242-0.021-0.083,0.675,0.216,0.775c0.294,0.1,0.092,0.526-0.079,0.657
		c-0.173,0.128-0.077,0.538-0.255,0.687c-0.175,0.146,0.625,1.529,0.62,2.242c-0.005,0.712,0.438,1.293,0.608,1.293
		c0.169,0,0.757,0.145,0.833,0.297c0.075,0.152,0.358-0.105,0.472-0.225c0.107-0.114,0.346-0.457,0.528-0.759
		c0.178-0.303,0.581-1.729,0.636-1.884c0.053-0.154,0.725-0.059,0.877-0.138c0.151-0.077,0.59-0.422,0.716-0.525
		c0.123-0.104,1.081-0.507,1.343-0.696c0.26-0.188,0.695-0.998,0.899-1.172c0.201-0.172-0.104-0.121-0.359-0.289
		c-0.254-0.165-0.143-0.371-0.067-0.447C312.811,549.448,313.582,549.654,313.849,549.759z"/>
	<path fill="#FFFFFF" d="M322.19,543.423c-0.271-0.092-0.819,0.207-0.749,0.376c0.07,0.174-0.447-0.217-0.809-0.031
		c-0.359,0.189-0.462,0.822-0.297,0.905c0.169,0.082,0.288,0.585,0.292,0.683c0.007,0.098,0.702,0.028,0.882-0.118
		c0.177-0.146,0.152,0.51-0.021,0.688c-0.178,0.178,0.063,0.533,0.257,0.563c0.195,0.027,0.456,0.484,0.656,0.479
		c0.101-0.003,0.236-0.198,0.356-0.429v-2.323l-0.004-0.001C322.6,544.191,322.457,543.514,322.19,543.423z"/>
	<path fill="#FFFFFF" d="M315.618,559.281c0.211-0.035,0.374-0.205,0.364-0.381c-0.01-0.172-0.31-0.962-0.428-0.962
		s-0.345,0.579-0.486,0.522c-0.143-0.059-0.221,0.471-0.188,0.672C314.913,559.336,315.408,559.318,315.618,559.281z"/>
	<path fill="#FFFFFF" d="M314.861,553.422c0.071,0.209,0.34,0.345,0.594,0.305c0.253-0.043,0.759-0.304,0.938-0.321
		c0.179-0.019,0.374-0.911,0.265-1.105c-0.11-0.193-0.95-0.171-1.155-0.184c-0.205-0.011-0.833-0.221-0.953-0.354
		c-0.117-0.134-0.21,0.518-0.398,0.601c-0.195,0.086,0.092,0.21,0.172,0.142c0.079-0.069-0.004,0.334-0.093,0.474
		C314.142,553.115,314.789,553.212,314.861,553.422z"/>
	<path fill="#FFFFFF" d="M296.136,553.439c-0.132,0.121-0.018,0.736,0.236,0.754c0.25,0.019,0.65-0.928,0.959-0.737
		c0.307,0.189,0.516,0.264,0.466,0.163c-0.054-0.1-0.93-0.482-1.036-0.554C296.651,552.998,296.271,553.318,296.136,553.439z"/>
	<path fill="#FFFFFF" d="M299.346,574.271c0,0.104,0.545,0.09,0.639-0.08c0.085-0.165,0.04-0.302-0.108-0.302
		C299.73,573.89,299.346,574.166,299.346,574.271z"/>
	<path fill="#FFFFFF" d="M296.91,573.371c0.262-0.049,0.14,0.374,0.202,0.524c0.062,0.155,0.691,0.274,0.816,0.378
		s0.449-0.192,0.699-0.16c0.25,0.03-0.083-0.869-0.503-0.844c-0.42,0.028-0.754-0.381-0.854-0.43
		c-0.103-0.046-0.588-0.342-0.729-0.454c-0.136-0.113-1.207-0.208-1.572-0.208s-0.767,0.372-0.82,0.492
		c-0.06,0.124,0.576,0.206,0.756,0.108c0.185-0.095,1.031,0.107,1.205,0.313C296.287,573.296,296.646,573.423,296.91,573.371z"/>
	<path fill="#FFFFFF" d="M295.767,574.271c0,0.104,0.551,0.039,0.684,0.044c0.134,0.002,0.13-0.09-0.008-0.201
		C296.302,574.002,295.767,574.166,295.767,574.271z"/>
	<path fill="#FFFFFF" d="M296.156,571.43c-0.144-0.058-0.261,0.17-0.261,0.274c0,0.105,0.08,0.192,0.179,0.192
		C296.17,571.897,296.3,571.487,296.156,571.43z"/>
	<path fill="#FFFFFF" d="M297.313,571.519c-0.049-0.107-0.285-0.192-0.355-0.192c-0.073,0-0.121,0.184-0.107,0.404
		C296.86,571.953,297.36,571.622,297.313,571.519z"/>
	<path fill="#FFFFFF" d="M298.147,572.8c0.222-0.105,0.252-0.374,0.118-0.358c-0.134,0.013-0.378-0.384-0.522-0.439
		c-0.145-0.059-0.262,0.236-0.262,0.366c0,0.132,0.082,0.22,0.18,0.192C297.761,572.535,297.922,572.905,298.147,572.8z"/>
</g>
<path fill="#C1E2DE" d="M299.523,546.469c-0.038-0.038-0.198,0.076-0.126,0.146C299.431,546.661,299.584,546.549,299.523,546.469z"
	/>
<path fill="#C1E2DE" d="M303.729,559.003c-0.031-0.048-0.191,0.073-0.132,0.146C303.637,559.193,303.799,559.076,303.729,559.003z"
	/>
<g>
	<path fill="#174F78" d="M326.125,559.881h-91.799c-1.33,0-2.403,1.076-2.403,2.405v55.938c0,1.324,1.073,2.399,2.403,2.399h91.799
		c1.332,0,2.409-1.075,2.409-2.399v-55.938C328.534,560.957,327.457,559.881,326.125,559.881z"/>
	<rect x="237.903" y="565.668" fill="#103754" width="84.649" height="49.042"/>
	<path fill="#FFFFFF" d="M337.438,619.252H297.84c-0.082,0.812-0.741,1.449-1.571,1.449h-32.08c-0.832,0-1.492-0.639-1.576-1.449
		h-39.598c-0.022,0.196-0.06,0.383-0.06,0.578v1.734c0,2.872,2.334,5.21,5.21,5.21h104.128c2.875,0,5.205-2.338,5.205-5.21v-1.734
		C337.499,619.635,337.467,619.448,337.438,619.252z"/>
	<path fill="#C1E2DE" d="M223.372,623.604c0.794,1.861,2.643,3.171,4.794,3.171h104.128c2.152,0,3.997-1.31,4.79-3.171H223.372z"/>
	<rect x="244.763" y="577.558" fill="#F3AC1D" width="26.223" height="1.472"/>
	<rect x="273.362" y="577.558" fill="#6BB8D6" width="5.945" height="1.472"/>
	<rect x="244.763" y="571.899" fill="#DE3F18" width="17.502" height="1.472"/>
	<rect x="260.282" y="583.22" fill="#C1E2DE" width="55.098" height="1.47"/>
	<rect x="244.763" y="583.22" fill="#F3AC1D" width="12.745" height="1.47"/>
	<rect x="250.373" y="588.877" fill="#C1E2DE" width="44.491" height="1.473"/>
	<rect x="297.283" y="588.877" fill="#DE3F18" width="7.628" height="1.473"/>
	<rect x="250.373" y="594.536" fill="#F3AC1D" width="8.535" height="1.472"/>
	<rect x="250.373" y="600.196" fill="#F3AC1D" width="8.535" height="1.473"/>
	<rect x="261.326" y="594.536" fill="#B1BE46" width="46.491" height="1.472"/>
	<rect x="261.326" y="600.196" fill="#B1BE46" width="24.336" height="1.473"/>
	<rect x="287.479" y="600.196" fill="#6BB8D6" width="24.332" height="1.473"/>
	<rect x="261.074" y="605.856" fill="#6BB8D6" width="32.241" height="1.471"/>
	<rect x="244.763" y="605.856" fill="#F3AC1D" width="14.33" height="1.471"/>
	<rect x="296.278" y="605.856" fill="#DE3F18" width="4.509" height="1.471"/>
</g>
<g>
	<polygon fill="#C1E2DE" points="248.233,594.715 254.067,589.947 259.901,585.179 252.615,583.262 245.328,581.344 248.09,586.112 
		242.801,587.261 243.479,590.378 248.767,589.229 	"/>
	<polygon fill="#FFFFFF" points="254.067,589.947 259.901,585.179 259.659,585.115 243.116,588.707 243.479,590.378 
		248.767,589.229 248.233,594.715 	"/>
</g>
<path fill="#231F20" d="M555.194,126.466h30.249c0,0,0-84.507,0-84.554c0-1-0.656-2.316-0.976-3.229
	c-0.977-2.781-2.262-5.454-3.888-7.916c-4.829-7.296-12.588-13.926-21.192-16.021c-3.408-0.829-6.672-0.799-10.417-0.666
	c-1.964,0.073-3.985,0.154-5.924,0.494c-4.103,0.715-7.638,1.782-11.133,4.189c-3.198,2.209-6.232,4.94-8.564,8.061
	c-1.332,1.79-2.482,3.76-3.473,5.756c-3.409,6.875-2.91,13.584-2.99,21.017c-0.063,5.382,0.012,10.757,0.066,16.136
	c0.032,2.914,0.061,5.831,0.061,8.749c0,0.11-0.005,2.854-0.005,2.854h7.688v12.646c0,0-0.743,17.108,14.627,17.606
	c15.377,0.495,15.377,0.495,15.377,0.495L555.194,126.466z"/>
<path fill="#EBECED" d="M539.824,53.942c0,2.667-2.167,4.835-4.835,4.835c-2.674,0-4.836-2.168-4.836-4.835
	c0-2.673,2.162-4.835,4.836-4.835C537.657,49.107,539.824,51.269,539.824,53.942z"/>
<path fill="#18397C" d="M611.142,31.219c0,14.191-11.507,25.695-25.698,25.695c-14.188,0-25.692-11.504-25.692-25.695
	s11.505-25.695,25.692-25.695C599.635,5.524,611.142,17.028,611.142,31.219z"/>
<path fill="#72BEC3" d="M602.334,31.513c0-2.229-1.228-4.138-3.002-5.082c0.126-0.413,0.213-0.837,0.213-1.288
	c0-2.723-2.441-4.928-5.454-4.928c-1.159,0-2.229,0.334-3.112,0.889c-0.378-1.973-2.561-3.492-5.221-3.492
	c-2.574,0-4.716,1.415-5.196,3.295c-0.809-0.428-1.737-0.692-2.742-0.692c-3.011,0-5.451,2.206-5.451,4.928
	c0,0.311,0.041,0.613,0.101,0.91c-2.257,0.7-3.914,2.865-3.914,5.46c0,2.874,1.735,5.314,4.371,5.718c-0.007,0.026,0.279,0,0.279,0
	h24.64c0,0,0.007,0.043,0,0C600.401,36.758,602.334,34.328,602.334,31.513z"/>
<polygon fill="#FFFFFF" points="585.443,37.223 585.443,25.617 591.034,37.223 "/>
<polygon fill="#FFFFFF" points="585.443,37.231 585.443,48.834 579.854,37.231 "/>
<path fill="#306F7E" d="M615.056,282.937c0,5.771-3.434,10.446-7.662,10.446h-77.676c-4.232,0-7.662-4.676-7.662-10.446v-90.012
	c0-5.77,3.43-10.446,7.662-10.446h77.676c4.229,0,7.662,4.676,7.662,10.446V282.937z"/>
<path fill="#FFFFFF" d="M604.624,276.622c0,2.838-1.563,5.141-3.493,5.141h-65.146c-1.93,0-3.497-2.303-3.497-5.141v-82.51
	c0-2.84,1.567-5.142,3.497-5.142h65.146c1.93,0,3.493,2.302,3.493,5.142V276.622z"/>
<path fill="#50A3B1" d="M594.178,192.095c-0.542-7.42-5.248-13.222-10.973-13.222h-29.299c-5.725,0-10.432,5.801-10.977,13.222
	H594.178z"/>
<path fill="#50A3B1" d="M576.685,172.383h-16.254c-3.132,0-5.67,2.907-5.67,6.491c0,3.585,2.538,6.491,5.67,6.491h1.019
	c-2.735,0-4.956-2.421-4.956-5.409c0-2.986,2.221-5.409,4.956-5.409h14.213c2.739,0,4.956,2.423,4.956,5.409
	c0,2.988-2.217,5.409-4.956,5.409h1.022c3.127,0,5.665-2.905,5.665-6.491C582.35,175.29,579.812,172.383,576.685,172.383z"/>
<rect x="541.325" y="213.592" fill="#F28F33" width="6.05" height="4.568"/>
<rect x="541.325" y="223.568" fill="#F28F33" width="6.05" height="4.567"/>
<rect x="541.325" y="233.184" fill="#F28F33" width="6.05" height="4.568"/>
<rect x="541.325" y="242.879" fill="#F28F33" width="6.05" height="4.567"/>
<rect x="541.325" y="252.577" fill="#F28F33" width="6.05" height="4.567"/>
<rect x="552.474" y="213.592" fill="#C9E4EF" width="43.313" height="4.568"/>
<rect x="552.474" y="223.568" fill="#C9E4EF" width="43.313" height="4.567"/>
<rect x="552.474" y="233.184" fill="#C9E4EF" width="43.313" height="4.568"/>
<rect x="552.474" y="242.879" fill="#C9E4EF" width="43.313" height="4.567"/>
<rect x="552.791" y="252.577" fill="#C9E4EF" width="13.216" height="4.567"/>
<g>
	<polygon fill="#28A9C8" points="616.984,394.78 606.986,404.844 565.46,363.493 575.459,353.429 	"/>
	<polygon fill="#C20084" points="576.224,435.803 566.177,425.791 606.941,384.781 616.99,394.793 	"/>
	<polygon fill="#060067" points="616.995,394.793 606.984,404.856 596.94,394.84 606.951,384.778 	"/>
</g>
<g>
	<polygon fill="#28A9C8" points="458.006,394.981 468.006,405.043 509.53,363.694 499.533,353.629 	"/>
	<polygon fill="#C20084" points="498.767,436.004 508.815,425.99 468.05,384.979 458.001,394.992 	"/>
	<polygon fill="#060067" points="457.995,394.99 468.006,405.055 478.052,395.039 468.039,384.975 	"/>
</g>
<g>
	<path fill="#060067" d="M537.89,363.944l1.405-5.324c0,0,0.358-1.067,1.94-1.116c1.584-0.048,7.23,0.524,10.64,2.813
		c0,0,1.544,0.728,1.137,1.984c-0.406,1.256-1.411,5.22-1.411,5.22S545.339,363.536,537.89,363.944z"/>
	<path fill="#060067" d="M537.467,365.639c0,0,6.689-0.887,13.396,3.598l-15.301,56.616c0,0-4.967-4.167-13.584-3.731
		L537.467,365.639z"/>
	<path fill="#060067" d="M521.838,423.492c0,0,6.821-1.176,13.346,3.666l-5.765,6.18l-5.421-1.443L521.838,423.492z"/>
	<polygon fill="#060067" points="524.037,432.881 528.688,434.141 525.317,437.429 	"/>
</g>
<path fill="#6F7070" stroke="#2E383D" stroke-width="6.1418" stroke-miterlimit="10" d="M613.39,597.411
	c-2.022-45.394-36.84-81.53-79.499-81.53c-42.66,0-77.479,36.137-79.501,81.53H613.39z"/>
<rect x="457.608" y="594.309" fill="#3D3D3D" width="152.537" height="6.203"/>
<polygon fill="#ACADAE" points="476.493,577.336 475.173,579.258 462.948,570.515 463.843,568.301 "/>
<polygon fill="#ACADAE" points="487.392,557.672 485.694,559.257 475.622,548.01 477.123,546.213 "/>
<polygon fill="#ACADAE" points="500.704,544.987 498.738,546.213 490.954,533.215 492.854,531.841 "/>
<polygon fill="#ACADAE" points="518.505,536.328 516.3,537 512.032,522.403 514.237,521.732 "/>
<polygon fill="#ACADAE" points="535.296,534.194 532.994,534.209 532.89,518.975 535.168,518.975 "/>
<polygon fill="#ACADAE" points="591.183,577.018 592.503,578.942 604.729,570.198 603.835,567.942 "/>
<polygon fill="#ACADAE" points="580.214,557.49 581.915,559.074 591.984,547.828 590.51,545.994 "/>
<polygon fill="#ACADAE" points="566.918,544.877 568.882,546.102 576.666,533.106 574.785,531.742 "/>
<polygon fill="#ACADAE" points="549.108,536.296 551.315,536.966 555.583,522.37 553.378,521.698 "/>
<polygon fill="#CE4068" points="530.487,582.951 577.478,552.779 540.117,594.686 "/>
<path fill="#505558" d="M546.298,591.43c0,6.879-5.466,12.451-12.204,12.451c-6.736,0-12.204-5.572-12.204-12.451
	c0-6.88,5.468-12.453,12.204-12.453C540.832,578.977,546.298,584.55,546.298,591.43z"/>
<ellipse fill="#4A4143" cx="534.095" cy="591.43" rx="9.646" ry="9.844"/>
</svg>
