<?xml version="1.0" encoding="utf-8"?>
<!-- Generator: Adobe Illustrator 19.0.0, SVG Export Plug-In . SVG Version: 6.00 Build 0)  -->
<svg version="1.1" id="Layer_1" xmlns="http://www.w3.org/2000/svg" xmlns:xlink="http://www.w3.org/1999/xlink" x="0px" y="0px"
	 viewBox="-324.9 353.8 228 114" style="enable-background:new -324.9 353.8 228 114;" xml:space="preserve">
<style type="text/css">
	.st0{fill:#5EACEC;}
	.st1{display:none;fill:#E56363;}
	.st2{fill:#FFFFFF;}
	.st3{fill:#3F5996;}
	.st4{fill:#48668D;}
	.st5{fill:#1D77B3;}
	.st6{fill:#E64989;}
	.st7{fill:#969696;}
</style>
<rect x="-134.9" y="391.8" class="st0" width="38" height="38"/>
<rect x="-270" y="407.5" class="st1" width="54.7" height="18.2"/>
<g>
	<path class="st2" d="M-106.6,404.7c-0.7,0.3-1.4,0.5-2.2,0.6c0.8-0.5,1.4-1.2,1.7-2.1c-0.7,0.4-1.5,0.7-2.4,0.9
		c-0.7-0.7-1.7-1.2-2.8-1.2c-2.1,0-3.8,1.7-3.8,3.8c0,0.3,0,0.6,0.1,0.9c-3.1-0.2-5.9-1.7-7.8-4c-0.3,0.6-0.5,1.2-0.5,1.9
		c0,1.3,0.7,2.5,1.7,3.1c-0.6,0-1.2-0.2-1.7-0.5v0c0,1.8,1.3,3.4,3,3.7c-0.3,0.1-0.6,0.1-1,0.1c-0.2,0-0.5,0-0.7-0.1
		c0.5,1.5,1.9,2.6,3.5,2.6c-1.3,1-2.9,1.6-4.7,1.6c-0.3,0-0.6,0-0.9-0.1c1.7,1.1,3.7,1.7,5.8,1.7c7,0,10.8-5.8,10.8-10.8l0-0.5
		C-107.8,406.1-107.1,405.5-106.6,404.7L-106.6,404.7z"/>
</g>
<rect x="-324.9" y="391.8" class="st3" width="38" height="38"/>
<rect x="-286.9" y="391.8" width="38" height="38"/>
<rect x="-248.9" y="391.8" class="st4" width="38" height="38"/>
<rect x="-210.9" y="391.8" class="st5" width="38" height="38"/>
<rect x="-172.9" y="391.8" class="st6" width="38" height="38"/>
<path class="st2" d="M-300.7,400.6l-2.6,0c-2.9,0-4.8,1.9-4.8,4.9v2.3h-2.6c-0.2,0-0.4,0.2-0.4,0.4v3.3c0,0.2,0.2,0.4,0.4,0.4h2.6
	v8.3c0,0.2,0.2,0.4,0.4,0.4h3.4c0.2,0,0.4-0.2,0.4-0.4v-8.3h3c0.2,0,0.4-0.2,0.4-0.4v-3.3c0-0.1,0-0.2-0.1-0.3
	c-0.1-0.1-0.2-0.1-0.3-0.1h-3.1v-1.9c0-0.9,0.2-1.4,1.4-1.4h1.7c0.2,0,0.4-0.2,0.4-0.4V401C-300.3,400.8-300.5,400.6-300.7,400.6
	L-300.7,400.6z"/>
<g>
	<path class="st2" d="M-270.2,409.8c0,0,2.2-0.2,2.2-2.8c0-2.6-1.8-3.9-4.2-3.9h-4.3h-0.1h-3.2v14.7h3.2h0.1h4.3
		c0,0,4.7,0.1,4.7-4.3C-267.4,413.4-267.2,409.8-270.2,409.8z M-276.4,405.7h3.7h0.5c0,0,1,0,1,1.5c0,1.5-0.6,1.7-1.3,1.7h-4
		L-276.4,405.7L-276.4,405.7z M-272.3,415.2c-0.1,0-0.2,0-0.3,0h-3.8v-3.9h4.3c0,0,1.5,0,1.5,2C-270.5,415-271.7,415.2-272.3,415.2z
		"/>
	<path class="st2" d="M-261.2,406.8c-5.6,0-5.6,5.6-5.6,5.6s-0.4,5.6,5.6,5.6c0,0,5,0.3,5-3.9h-2.6c0,0,0.1,1.6-2.4,1.6
		c0,0-2.6,0.2-2.6-2.6h7.6C-256.1,413.2-255.2,406.8-261.2,406.8z M-263.7,411.2c0,0,0.3-2.3,2.6-2.3s2.2,2.3,2.2,2.3H-263.7z"/>
	<rect x="-264.3" y="404" class="st2" width="6.1" height="1.8"/>
</g>
<path class="st2" d="M-217.7,415.2c-0.8-0.9-1.7-1.8-2.6-2.6c-0.8-0.8-0.8-1.2-0.2-2.1c0.7-1,1.4-1.9,2.1-2.9
	c0.7-0.9,1.3-1.8,1.7-2.9c0.2-0.7,0-1-0.7-1.1c-0.1,0-0.2,0-0.4,0l-4.2,0c-0.5,0-0.8,0.2-1,0.7c-0.2,0.6-0.5,1.2-0.8,1.8
	c-0.7,1.4-1.4,2.7-2.5,3.8c-0.2,0.2-0.5,0.6-0.9,0.4c-0.5-0.2-0.6-1-0.6-1.2v-4.8c-0.1-0.7-0.2-1-0.9-1.1h-4.4
	c-0.6,0-0.9,0.2-1.2,0.6c-0.2,0.2-0.2,0.3,0.1,0.4c0.7,0.1,1.1,0.6,1.2,1.3c0.2,1.2,0.2,2.3,0.1,3.5c0,0.3-0.1,0.7-0.2,1
	c-0.2,0.5-0.6,0.6-1,0.3c-0.4-0.3-0.7-0.7-1-1.1c-1-1.5-1.9-3.1-2.6-4.8c-0.2-0.5-0.5-0.8-1-0.8c-1.3,0-2.5,0-3.8,0
	c-0.8,0-1,0.4-0.7,1.1c1.4,3,2.9,6,4.9,8.7c1,1.4,2.2,2.6,3.7,3.5c1.7,1,3.6,1.3,5.5,1.2c0.9,0,1.2-0.3,1.2-1.2
	c0-0.6,0.1-1.2,0.4-1.8c0.3-0.5,0.8-0.7,1.3-0.3c0.3,0.2,0.5,0.4,0.7,0.6c0.5,0.6,1,1.1,1.5,1.7c0.7,0.7,1.5,1.1,2.5,1h3.9
	c0.6,0,0.9-0.8,0.6-1.5C-217,416.1-217.3,415.7-217.7,415.2L-217.7,415.2z"/>
<g>
	<path class="st2" d="M-182.5,412.6v7h-4v-6.5c0-1.6-0.6-2.7-2-2.7c-1.1,0-1.8,0.7-2.1,1.5c-0.1,0.3-0.1,0.6-0.1,1v6.8h-4
		c0,0,0.1-11,0-12.1h4v1.7c0,0,0,0,0,0h0v0c0.5-0.8,1.5-2,3.6-2C-184.4,407.2-182.5,408.9-182.5,412.6L-182.5,412.6z M-199,401.6
		c-1.4,0-2.3,0.9-2.3,2.1c0,1.2,0.9,2.1,2.2,2.1h0c1.4,0,2.3-0.9,2.3-2.1C-196.8,402.5-197.6,401.6-199,401.6L-199,401.6z
		 M-201.1,419.6h4v-12.1h-4C-201.1,407.4-201.1,419.6-201.1,419.6z"/>
</g>
<path class="st2" d="M-162.8,410.6c0-1.6,0.4-3.1,1.2-4.5c0.8-1.4,1.9-2.5,3.3-3.3c1.4-0.8,2.9-1.2,4.5-1.2c1.6,0,3.1,0.4,4.5,1.2
	c1.4,0.8,2.5,1.9,3.3,3.3c0.8,1.4,1.2,2.9,1.2,4.5c0,1.6-0.4,3.1-1.2,4.5c-0.8,1.4-1.9,2.5-3.3,3.3s-2.9,1.2-4.5,1.2
	c-1.6,0-3.1-0.4-4.5-1.2c-1.4-0.8-2.5-1.9-3.3-3.3C-162.4,413.7-162.8,412.2-162.8,410.6z M-161.3,410.6c0,1.9,0.6,3.5,1.9,5
	c0.6-1.1,1.5-2.2,2.7-3.2c1.2-1,2.5-1.7,3.7-1.9c-0.2-0.4-0.4-0.8-0.5-1.1c-2.1,0.7-4.3,1-6.7,1c-0.5,0-0.8,0-1,0c0,0.1,0,0.1,0,0.2
	C-161.3,410.5-161.3,410.5-161.3,410.6z M-161.1,408.7c0.3,0,0.7,0,1.2,0c2,0,3.9-0.3,5.7-0.8c-0.9-1.6-1.9-3-3-4
	c-0.9,0.5-1.8,1.1-2.4,2C-160.3,406.8-160.8,407.7-161.1,408.7z M-158.4,416.5c1.4,1.1,2.9,1.6,4.6,1.6c0.9,0,1.8-0.2,2.6-0.5
	c-0.2-2.1-0.7-4-1.4-6c-1.1,0.2-2.2,0.8-3.3,1.8C-157,414.4-157.9,415.4-158.4,416.5z M-155.6,403.3c1.1,1.1,2,2.5,2.9,4.1
	c1.6-0.7,2.9-1.6,3.7-2.6c-1.4-1.2-3-1.7-4.8-1.7C-154.4,403.1-155,403.2-155.6,403.3z M-152.1,408.7c0.2,0.4,0.4,0.9,0.6,1.5
	c0.9-0.1,1.9-0.1,2.9-0.1c0.7,0,1.5,0,2.2,0.1c-0.1-1.6-0.7-3.1-1.8-4.4C-148.9,406.9-150.2,407.9-152.1,408.7z M-151,411.4
	c0.6,1.8,1,3.6,1.2,5.5c0.9-0.6,1.7-1.4,2.3-2.4c0.6-1,1-2,1.1-3.1c-0.9-0.1-1.7-0.1-2.4-0.1C-149.4,411.3-150.2,411.4-151,411.4z"
	/>
<g>
	<path class="st2" d="M-106.6,366.7c-0.7,0.3-1.4,0.5-2.2,0.6c0.8-0.5,1.4-1.2,1.7-2.1c-0.7,0.4-1.5,0.7-2.4,0.9
		c-0.7-0.7-1.7-1.2-2.8-1.2c-2.1,0-3.8,1.7-3.8,3.8c0,0.3,0,0.6,0.1,0.9c-3.1-0.2-5.9-1.7-7.8-4c-0.3,0.6-0.5,1.2-0.5,1.9
		c0,1.3,0.7,2.5,1.7,3.1c-0.6,0-1.2-0.2-1.7-0.5v0c0,1.8,1.3,3.4,3,3.7c-0.3,0.1-0.6,0.1-1,0.1c-0.2,0-0.5,0-0.7-0.1
		c0.5,1.5,1.9,2.6,3.5,2.6c-1.3,1-2.9,1.6-4.7,1.6c-0.3,0-0.6,0-0.9-0.1c1.7,1.1,3.7,1.7,5.8,1.7c7,0,10.8-5.8,10.8-10.8l0-0.5
		C-107.8,368.1-107.1,367.5-106.6,366.7L-106.6,366.7z"/>
</g>
<path class="st2" d="M-300.7,362.6l-2.6,0c-2.9,0-4.8,1.9-4.8,4.9v2.3h-2.6c-0.2,0-0.4,0.2-0.4,0.4v3.3c0,0.2,0.2,0.4,0.4,0.4h2.6
	v8.3c0,0.2,0.2,0.4,0.4,0.4h3.4c0.2,0,0.4-0.2,0.4-0.4v-8.3h3c0.2,0,0.4-0.2,0.4-0.4v-3.3c0-0.1,0-0.2-0.1-0.3
	c-0.1-0.1-0.2-0.1-0.3-0.1h-3.1v-1.9c0-0.9,0.2-1.4,1.4-1.4h1.7c0.2,0,0.4-0.2,0.4-0.4V363C-300.3,362.8-300.5,362.6-300.7,362.6
	L-300.7,362.6z"/>
<g>
	<path class="st2" d="M-270.2,371.8c0,0,2.2-0.2,2.2-2.8c0-2.6-1.8-3.9-4.2-3.9h-4.3h-0.1h-3.2v14.7h3.2h0.1h4.3
		c0,0,4.7,0.1,4.7-4.3C-267.4,375.4-267.2,371.8-270.2,371.8z M-276.4,367.7h3.7h0.5c0,0,1,0,1,1.5c0,1.5-0.6,1.7-1.3,1.7h-4
		L-276.4,367.7L-276.4,367.7z M-272.3,377.2c-0.1,0-0.2,0-0.3,0h-3.8v-3.9h4.3c0,0,1.5,0,1.5,2C-270.5,377-271.7,377.2-272.3,377.2z
		"/>
	<path class="st2" d="M-261.2,368.8c-5.6,0-5.6,5.6-5.6,5.6s-0.4,5.6,5.6,5.6c0,0,5,0.3,5-3.9h-2.6c0,0,0.1,1.6-2.4,1.6
		c0,0-2.6,0.2-2.6-2.6h7.6C-256.1,375.2-255.2,368.8-261.2,368.8z M-263.7,373.2c0,0,0.3-2.3,2.6-2.3s2.2,2.3,2.2,2.3H-263.7z"/>
	<rect x="-264.3" y="366" class="st2" width="6.1" height="1.8"/>
</g>
<path class="st2" d="M-217.7,377.2c-0.8-0.9-1.7-1.8-2.6-2.6c-0.8-0.8-0.8-1.2-0.2-2.1c0.7-1,1.4-1.9,2.1-2.9
	c0.7-0.9,1.3-1.8,1.7-2.9c0.2-0.7,0-1-0.7-1.1c-0.1,0-0.2,0-0.4,0l-4.2,0c-0.5,0-0.8,0.2-1,0.7c-0.2,0.6-0.5,1.2-0.8,1.8
	c-0.7,1.4-1.4,2.7-2.5,3.8c-0.2,0.2-0.5,0.6-0.9,0.4c-0.5-0.2-0.6-1-0.6-1.2v-4.8c-0.1-0.7-0.2-1-0.9-1.1h-4.4
	c-0.6,0-0.9,0.2-1.2,0.6c-0.2,0.2-0.2,0.3,0.1,0.4c0.7,0.1,1.1,0.6,1.2,1.3c0.2,1.2,0.2,2.3,0.1,3.5c0,0.3-0.1,0.7-0.2,1
	c-0.2,0.5-0.6,0.6-1,0.3c-0.4-0.3-0.7-0.7-1-1.1c-1-1.5-1.9-3.1-2.6-4.8c-0.2-0.5-0.5-0.8-1-0.8c-1.3,0-2.5,0-3.8,0
	c-0.8,0-1,0.4-0.7,1.1c1.4,3,2.9,6,4.9,8.7c1,1.4,2.2,2.6,3.7,3.5c1.7,1,3.6,1.3,5.5,1.2c0.9,0,1.2-0.3,1.2-1.2
	c0-0.6,0.1-1.2,0.4-1.8c0.3-0.5,0.8-0.7,1.3-0.3c0.3,0.2,0.5,0.4,0.7,0.6c0.5,0.6,1,1.1,1.5,1.7c0.7,0.7,1.5,1.1,2.5,1h3.9
	c0.6,0,0.9-0.8,0.6-1.5C-217,378.1-217.3,377.7-217.7,377.2L-217.7,377.2z"/>
<g>
	<path class="st2" d="M-182.5,374.6v7h-4v-6.5c0-1.6-0.6-2.7-2-2.7c-1.1,0-1.8,0.7-2.1,1.5c-0.1,0.3-0.1,0.6-0.1,1v6.8h-4
		c0,0,0.1-11,0-12.1h4v1.7c0,0,0,0,0,0h0v0c0.5-0.8,1.5-2,3.6-2C-184.4,369.2-182.5,370.9-182.5,374.6L-182.5,374.6z M-199,363.6
		c-1.4,0-2.3,0.9-2.3,2.1c0,1.2,0.9,2.1,2.2,2.1h0c1.4,0,2.3-0.9,2.3-2.1C-196.8,364.5-197.6,363.6-199,363.6L-199,363.6z
		 M-201.1,381.6h4v-12.1h-4C-201.1,369.4-201.1,381.6-201.1,381.6z"/>
</g>
<path class="st2" d="M-162.8,372.6c0-1.6,0.4-3.1,1.2-4.5c0.8-1.4,1.9-2.5,3.3-3.3c1.4-0.8,2.9-1.2,4.5-1.2c1.6,0,3.1,0.4,4.5,1.2
	c1.4,0.8,2.5,1.9,3.3,3.3c0.8,1.4,1.2,2.9,1.2,4.5c0,1.6-0.4,3.1-1.2,4.5c-0.8,1.4-1.9,2.5-3.3,3.3s-2.9,1.2-4.5,1.2
	c-1.6,0-3.1-0.4-4.5-1.2c-1.4-0.8-2.5-1.9-3.3-3.3C-162.4,375.7-162.8,374.2-162.8,372.6z M-161.3,372.6c0,1.9,0.6,3.5,1.9,5
	c0.6-1.1,1.5-2.2,2.7-3.2c1.2-1,2.5-1.7,3.7-1.9c-0.2-0.4-0.4-0.8-0.5-1.1c-2.1,0.7-4.3,1-6.7,1c-0.5,0-0.8,0-1,0c0,0.1,0,0.1,0,0.2
	C-161.3,372.5-161.3,372.5-161.3,372.6z M-161.1,370.7c0.3,0,0.7,0,1.2,0c2,0,3.9-0.3,5.7-0.8c-0.9-1.6-1.9-3-3-4
	c-0.9,0.5-1.8,1.1-2.4,2C-160.3,368.8-160.8,369.7-161.1,370.7z M-158.4,378.5c1.4,1.1,2.9,1.6,4.6,1.6c0.9,0,1.8-0.2,2.6-0.5
	c-0.2-2.1-0.7-4-1.4-6c-1.1,0.2-2.2,0.8-3.3,1.8C-157,376.4-157.9,377.4-158.4,378.5z M-155.6,365.3c1.1,1.1,2,2.5,2.9,4.1
	c1.6-0.7,2.9-1.6,3.7-2.6c-1.4-1.2-3-1.7-4.8-1.7C-154.4,365.1-155,365.2-155.6,365.3z M-152.1,370.7c0.2,0.4,0.4,0.9,0.6,1.5
	c0.9-0.1,1.9-0.1,2.9-0.1c0.7,0,1.5,0,2.2,0.1c-0.1-1.6-0.7-3.1-1.8-4.4C-148.9,368.9-150.2,369.9-152.1,370.7z M-151,373.4
	c0.6,1.8,1,3.6,1.2,5.5c0.9-0.6,1.7-1.4,2.3-2.4c0.6-1,1-2,1.1-3.1c-0.9-0.1-1.7-0.1-2.4-0.1C-149.4,373.3-150.2,373.4-151,373.4z"
	/>
<rect x="-134.9" y="429.8" class="st7" width="38" height="38"/>
<g>
	<path class="st2" d="M-106.6,442.7c-0.7,0.3-1.4,0.5-2.2,0.6c0.8-0.5,1.4-1.2,1.7-2.1c-0.7,0.4-1.5,0.7-2.4,0.9
		c-0.7-0.7-1.7-1.2-2.8-1.2c-2.1,0-3.8,1.7-3.8,3.8c0,0.3,0,0.6,0.1,0.9c-3.1-0.2-5.9-1.7-7.8-4c-0.3,0.6-0.5,1.2-0.5,1.9
		c0,1.3,0.7,2.5,1.7,3.1c-0.6,0-1.2-0.2-1.7-0.5v0c0,1.8,1.3,3.4,3,3.7c-0.3,0.1-0.6,0.1-1,0.1c-0.2,0-0.5,0-0.7-0.1
		c0.5,1.5,1.9,2.6,3.5,2.6c-1.3,1-2.9,1.6-4.7,1.6c-0.3,0-0.6,0-0.9-0.1c1.7,1.1,3.7,1.7,5.8,1.7c7,0,10.8-5.8,10.8-10.8l0-0.5
		C-107.8,444.1-107.1,443.5-106.6,442.7L-106.6,442.7z"/>
</g>
<rect x="-324.9" y="429.8" class="st7" width="38" height="38"/>
<rect x="-286.9" y="429.8" class="st7" width="38" height="38"/>
<rect x="-248.9" y="429.8" class="st7" width="38" height="38"/>
<rect x="-210.9" y="429.8" class="st7" width="38" height="38"/>
<rect x="-172.9" y="429.8" class="st7" width="38" height="38"/>
<path class="st2" d="M-300.7,438.6l-2.6,0c-2.9,0-4.8,1.9-4.8,4.9v2.3h-2.6c-0.2,0-0.4,0.2-0.4,0.4v3.3c0,0.2,0.2,0.4,0.4,0.4h2.6
	v8.3c0,0.2,0.2,0.4,0.4,0.4h3.4c0.2,0,0.4-0.2,0.4-0.4v-8.3h3c0.2,0,0.4-0.2,0.4-0.4v-3.3c0-0.1,0-0.2-0.1-0.3
	c-0.1-0.1-0.2-0.1-0.3-0.1h-3.1v-1.9c0-0.9,0.2-1.4,1.4-1.4h1.7c0.2,0,0.4-0.2,0.4-0.4V439C-300.3,438.8-300.5,438.6-300.7,438.6
	L-300.7,438.6z"/>
<g>
	<path class="st2" d="M-270.2,447.8c0,0,2.2-0.2,2.2-2.8c0-2.6-1.8-3.9-4.2-3.9h-4.3h-0.1h-3.2v14.7h3.2h0.1h4.3
		c0,0,4.7,0.1,4.7-4.3C-267.4,451.4-267.2,447.8-270.2,447.8z M-276.4,443.7h3.7h0.5c0,0,1,0,1,1.5c0,1.5-0.6,1.7-1.3,1.7h-4
		L-276.4,443.7L-276.4,443.7z M-272.3,453.2c-0.1,0-0.2,0-0.3,0h-3.8v-3.9h4.3c0,0,1.5,0,1.5,2C-270.5,453-271.7,453.2-272.3,453.2z
		"/>
	<path class="st2" d="M-261.2,444.8c-5.6,0-5.6,5.6-5.6,5.6s-0.4,5.6,5.6,5.6c0,0,5,0.3,5-3.9h-2.6c0,0,0.1,1.6-2.4,1.6
		c0,0-2.6,0.2-2.6-2.6h7.6C-256.1,451.2-255.2,444.8-261.2,444.8z M-263.7,449.2c0,0,0.3-2.3,2.6-2.3s2.2,2.3,2.2,2.3H-263.7z"/>
	<rect x="-264.3" y="442" class="st2" width="6.1" height="1.8"/>
</g>
<path class="st2" d="M-217.7,453.2c-0.8-0.9-1.7-1.8-2.6-2.6c-0.8-0.8-0.8-1.2-0.2-2.1c0.7-1,1.4-1.9,2.1-2.9
	c0.7-0.9,1.3-1.8,1.7-2.9c0.2-0.7,0-1-0.7-1.1c-0.1,0-0.2,0-0.4,0l-4.2,0c-0.5,0-0.8,0.2-1,0.7c-0.2,0.6-0.5,1.2-0.8,1.8
	c-0.7,1.4-1.4,2.7-2.5,3.8c-0.2,0.2-0.5,0.6-0.9,0.4c-0.5-0.2-0.6-1-0.6-1.2v-4.8c-0.1-0.7-0.2-1-0.9-1.1h-4.4
	c-0.6,0-0.9,0.2-1.2,0.6c-0.2,0.2-0.2,0.3,0.1,0.4c0.7,0.1,1.1,0.6,1.2,1.3c0.2,1.2,0.2,2.3,0.1,3.5c0,0.3-0.1,0.7-0.2,1
	c-0.2,0.5-0.6,0.6-1,0.3c-0.4-0.3-0.7-0.7-1-1.1c-1-1.5-1.9-3.1-2.6-4.8c-0.2-0.5-0.5-0.8-1-0.8c-1.3,0-2.5,0-3.8,0
	c-0.8,0-1,0.4-0.7,1.1c1.4,3,2.9,6,4.9,8.7c1,1.4,2.2,2.6,3.7,3.5c1.7,1,3.6,1.3,5.5,1.2c0.9,0,1.2-0.3,1.2-1.2
	c0-0.6,0.1-1.2,0.4-1.8c0.3-0.5,0.8-0.7,1.3-0.3c0.3,0.2,0.5,0.4,0.7,0.6c0.5,0.6,1,1.1,1.5,1.7c0.7,0.7,1.5,1.1,2.5,1h3.9
	c0.6,0,0.9-0.8,0.6-1.5C-217,454.1-217.3,453.7-217.7,453.2L-217.7,453.2z"/>
<g>
	<path class="st2" d="M-182.5,450.6v7h-4v-6.5c0-1.6-0.6-2.7-2-2.7c-1.1,0-1.8,0.7-2.1,1.5c-0.1,0.3-0.1,0.6-0.1,1v6.8h-4
		c0,0,0.1-11,0-12.1h4v1.7c0,0,0,0,0,0h0v0c0.5-0.8,1.5-2,3.6-2C-184.4,445.2-182.5,446.9-182.5,450.6L-182.5,450.6z M-199,439.6
		c-1.4,0-2.3,0.9-2.3,2.1c0,1.2,0.9,2.1,2.2,2.1h0c1.4,0,2.3-0.9,2.3-2.1C-196.8,440.5-197.6,439.6-199,439.6L-199,439.6z
		 M-201.1,457.6h4v-12.1h-4C-201.1,445.4-201.1,457.6-201.1,457.6z"/>
</g>
<path class="st2" d="M-162.8,448.6c0-1.6,0.4-3.1,1.2-4.5c0.8-1.4,1.9-2.5,3.3-3.3c1.4-0.8,2.9-1.2,4.5-1.2c1.6,0,3.1,0.4,4.5,1.2
	c1.4,0.8,2.5,1.9,3.3,3.3c0.8,1.4,1.2,2.9,1.2,4.5c0,1.6-0.4,3.1-1.2,4.5c-0.8,1.4-1.9,2.5-3.3,3.3s-2.9,1.2-4.5,1.2
	c-1.6,0-3.1-0.4-4.5-1.2c-1.4-0.8-2.5-1.9-3.3-3.3C-162.4,451.7-162.8,450.2-162.8,448.6z M-161.3,448.6c0,1.9,0.6,3.5,1.9,5
	c0.6-1.1,1.5-2.2,2.7-3.2c1.2-1,2.5-1.7,3.7-1.9c-0.2-0.4-0.4-0.8-0.5-1.1c-2.1,0.7-4.3,1-6.7,1c-0.5,0-0.8,0-1,0c0,0.1,0,0.1,0,0.2
	C-161.3,448.5-161.3,448.5-161.3,448.6z M-161.1,446.7c0.3,0,0.7,0,1.2,0c2,0,3.9-0.3,5.7-0.8c-0.9-1.6-1.9-3-3-4
	c-0.9,0.5-1.8,1.1-2.4,2C-160.3,444.8-160.8,445.7-161.1,446.7z M-158.4,454.5c1.4,1.1,2.9,1.6,4.6,1.6c0.9,0,1.8-0.2,2.6-0.5
	c-0.2-2.1-0.7-4-1.4-6c-1.1,0.2-2.2,0.8-3.3,1.8C-157,452.4-157.9,453.4-158.4,454.5z M-155.6,441.3c1.1,1.1,2,2.5,2.9,4.1
	c1.6-0.7,2.9-1.6,3.7-2.6c-1.4-1.2-3-1.7-4.8-1.7C-154.4,441.1-155,441.2-155.6,441.3z M-152.1,446.7c0.2,0.4,0.4,0.9,0.6,1.5
	c0.9-0.1,1.9-0.1,2.9-0.1c0.7,0,1.5,0,2.2,0.1c-0.1-1.6-0.7-3.1-1.8-4.4C-148.9,444.9-150.2,445.9-152.1,446.7z M-151,449.4
	c0.6,1.8,1,3.6,1.2,5.5c0.9-0.6,1.7-1.4,2.3-2.4c0.6-1,1-2,1.1-3.1c-0.9-0.1-1.7-0.1-2.4-0.1C-149.4,449.3-150.2,449.4-151,449.4z"
	/>
</svg>
