<?xml version="1.0" encoding="utf-8"?>
<!-- Generator: Adobe Illustrator 16.0.0, SVG Export Plug-In . SVG Version: 6.00 Build 0)  -->
<!DOCTYPE svg PUBLIC "-//W3C//DTD SVG 1.1//EN" "http://www.w3.org/Graphics/SVG/1.1/DTD/svg11.dtd">
<svg version="1.1" id="Layer_1" xmlns="http://www.w3.org/2000/svg" xmlns:xlink="http://www.w3.org/1999/xlink" x="0px" y="0px"
	 width="197.777px" height="349.524px" viewBox="0 0 197.777 349.524" enable-background="new 0 0 197.777 349.524"
	 xml:space="preserve">
<g>
	<path fill="#48A286" d="M17.481,91.168H16.45c0-3.371-2.743-6.111-6.114-6.111v-1.033C14.277,84.021,17.481,87.227,17.481,91.168
		L17.481,91.168z M10.334,85.805v1.029c2.391,0,4.331,1.941,4.331,4.332h1.03C15.697,88.209,13.293,85.805,10.334,85.805
		L10.334,85.805z M10.129,80.932C4.543,80.932,0,85.475,0,91.061c0,5.588,4.543,10.129,10.129,10.129
		c0.347,0,0.623-0.277,0.623-0.623c0-0.346-0.276-0.627-0.623-0.627c-4.896,0-8.879-3.982-8.879-8.879s3.98-8.879,8.879-8.879
		c4.896,0,8.879,3.98,8.879,8.879c0,2.047-1.088,4.076-2.646,4.934c-0.564,0.313-1.181,0.465-1.835,0.475
		c0.396-0.234,0.732-0.553,0.987-0.949c0.048-0.074,0.114-0.143,0.147-0.225c0.201-0.486,0.221-1.045,0.342-1.563
		c0.15-0.658-2.888-1.947-3.15-1.125c-0.096,0.307-0.242,1.27-0.435,1.521c-0.173,0.229-0.591,0.121-0.854-0.104
		c-0.691-0.59-1.466-1.459-2.146-2.144c-0.02-0.019-0.038-0.038-0.06-0.058c-0.018-0.02-0.039-0.041-0.058-0.059
		C8.619,91.09,7.75,90.319,7.16,89.623c-0.227-0.262-0.331-0.684-0.104-0.854c0.255-0.193,1.218-0.336,1.522-0.436
		C9.4,88.069,8.11,85.03,7.452,85.185c-0.517,0.121-1.072,0.139-1.562,0.342c-0.085,0.037-0.146,0.1-0.225,0.147
		c-1.734,1.099-1.959,3.772-0.265,5.763c0.646,0.76,1.315,1.5,2.012,2.217L7.41,93.656c0.019,0.021,0.039,0.037,0.06,0.059
		c0.021,0.02,0.037,0.037,0.053,0.059l0.007-0.002c0.72,0.691,1.571,1.713,2.955,2.637c2.919,1.947,5.157,1.406,6.476,0.682
		c2.275-1.254,3.295-3.93,3.295-6.023C20.258,85.475,15.713,80.932,10.129,80.932L10.129,80.932z"/>
</g>
<g>
	<path fill="#41A186" d="M49.179,32.92V7.001h3.96c1.957,0,3.584,0.631,4.879,1.896c1.293,1.264,1.94,2.768,1.94,4.512
		c0,2.338-1.123,4.202-3.373,5.592c2.642,1.237,3.961,3.385,3.961,6.439c0,2.209-0.715,4.009-2.145,5.396
		c-1.428,1.39-3.453,2.083-6.078,2.083L49.179,32.92L49.179,32.92z M52.514,17.99h0.303c1.162,0,2.088-0.366,2.774-1.099
		c0.688-0.733,1.033-1.711,1.033-2.938c0-1.225-0.33-2.172-0.996-2.841c-0.659-0.67-1.604-1.005-2.813-1.005h-0.303L52.514,17.99
		L52.514,17.99z M52.514,29.813h0.588c1.287,0,2.295-0.375,3.021-1.125c0.728-0.749,1.088-1.793,1.088-3.129
		c0-1.323-0.354-2.397-1.067-3.225c-0.715-0.824-1.729-1.236-3.041-1.236h-0.588V29.813z"/>
	<path fill="#41A186" d="M64.071,32.92V7.001H73.3v3.106h-5.896v7.75h5.4v3.104h-5.4v8.85h6.217v3.105L64.071,32.92L64.071,32.92z"
		/>
	<path fill="#41A186" d="M76.198,32.92l4.887-26.07h3.47l4.85,26.068H86.18l-0.927-5.739h-4.813l-1.021,5.739L76.198,32.92
		L76.198,32.92z M80.934,24.072h3.731l-1.817-10.857h-0.097L80.934,24.072z"/>
	<path fill="#41A186" d="M94.043,32.92V10.108h-3.979V7.001h11.293v3.106h-3.979V32.92H94.043z"/>
	<path fill="#41A186" d="M59.071,57.292v3.505c-1.252,0.975-2.568,1.459-3.961,1.459c-2.223,0-3.939-1.137-5.152-3.408
		c-1.212-2.273-1.817-5.521-1.817-9.738c0-4.217,0.607-7.515,1.826-9.89c1.221-2.375,2.959-3.563,5.22-3.563
		c1.086,0,2.28,0.449,3.582,1.345v3.373c-1.111-1.071-2.226-1.608-3.334-1.608c-1.34,0-2.31,0.783-2.908,2.354
		c-0.603,1.57-0.898,4.185-0.898,7.838c0,3.619,0.304,6.225,0.91,7.812c0.604,1.589,1.607,2.383,3.012,2.383
		C56.506,59.148,57.678,58.529,59.071,57.292z"/>
	<path fill="#41A186" d="M67.176,62.256c-2.047,0-3.715-1.184-5.002-3.553c-1.289-2.369-1.934-5.619-1.934-9.748
		c0-3.9,0.607-7.096,1.828-9.577c1.221-2.48,2.922-3.723,5.104-3.723c2.123,0,3.812,1.238,5.066,3.713
		c1.258,2.478,1.887,5.671,1.887,9.587c0,4.167-0.662,7.427-1.987,9.775C70.815,61.081,69.159,62.256,67.176,62.256z M67.137,38.762
		c-1.099,0-1.943,0.902-2.529,2.713c-0.586,1.81-0.879,4.303-0.879,7.479c0,3.291,0.301,5.813,0.908,7.564
		c0.604,1.754,1.463,2.629,2.577,2.629c1.06,0,1.896-0.896,2.511-2.688c0.61-1.79,0.918-4.293,0.918-7.507
		c0-3.266-0.31-5.781-0.929-7.545C69.094,39.645,68.237,38.762,67.137,38.762z"/>
	<path fill="#41A186" d="M76.645,61.915V35.996h3.676c5.926,0,8.889,4.309,8.889,12.921c0,4.31-0.735,7.554-2.207,9.729
		c-1.475,2.18-3.541,3.269-6.205,3.269H76.645L76.645,61.915z M79.981,58.808h0.492c1.969,0,3.362-0.755,4.178-2.267
		c0.814-1.51,1.223-4,1.223-7.474c0-3.625-0.387-6.191-1.153-7.701c-0.771-1.51-2.16-2.264-4.169-2.264h-0.567L79.981,58.808
		L79.981,58.808z"/>
	<path fill="#41A186" d="M92.008,61.915V35.996h9.229v3.108h-5.896v7.749h5.4v3.105h-5.4v8.851h6.216v3.104L92.008,61.915
		L92.008,61.915z"/>
</g>
<polygon fill="#41A186" points="11.428,0 11.428,6.632 6.688,6.632 6.688,62.265 11.428,62.265 11.428,68.896 0,68.896 0,0 "/>
<path fill="#41A186" d="M13.379,37.696v18.023c0,0,8.686,1.438,8.639-8.967C22.017,46.753,22.109,37.881,13.379,37.696z"/>
<path fill="#41A186" d="M13.865,13.133c-0.15,0-0.297,0.017-0.441,0.027v15.505c0.146,0.015,0.291,0.028,0.441,0.028
	c3.448,0,6.244-3.484,6.244-7.78S17.315,13.133,13.865,13.133z"/>
<path fill="#41A186" d="M21.965,34.574c9.06,0,4.738-19.589,6.226-27.604c1.486-8.017,11.894-6.583,11.894-6.583V6.97
	c0,0-5.521-0.956-5.521,3.345c0,4.301,1.08,24.206-4.46,24.206l0,0c5.54,0,4.459,20.09,4.459,24.39c0,4.299,5.521,3.345,5.521,3.345
	v6.584c0,0-10.404,1.434-11.894-6.584C26.702,54.24,31.023,34.574,21.965,34.574L21.965,34.574z"/>
<g>
	<path fill="#FFFFFF" d="M1.38,150.733l-1.19-1.966c6.751-3.613,10.127-6.989,10.127-10.127c0-0.754-0.277-1.419-0.834-1.995
		c-0.558-0.576-1.549-1.241-2.979-1.996c-2.186-1.111-3.743-2.293-4.676-3.545c-0.935-1.25-1.4-2.81-1.4-4.676
		c0-2.581,0.895-4.767,2.682-6.554s3.933-2.681,6.435-2.681c2.818,0,5.094,1.112,6.82,3.336c1.728,2.225,2.592,5.123,2.592,8.697
		c0,2.819-0.564,5.521-1.698,8.102c-1.131,2.582-2.811,4.925-5.032,7.029C9.64,146.742,6.027,148.867,1.38,150.733z M24.91,150.733
		l-1.19-1.966c6.751-3.574,10.127-6.949,10.127-10.127c0-1.351-1.271-2.682-3.813-3.991c-2.265-1.191-3.844-2.383-4.735-3.574
		c-0.896-1.19-1.341-2.74-1.341-4.646c0-2.541,0.902-4.716,2.71-6.523c1.809-1.807,3.962-2.71,6.464-2.71
		c2.779,0,5.034,1.112,6.762,3.336c1.729,2.225,2.592,5.123,2.592,8.697c0,5.878-2.226,10.922-6.672,15.131
		c-1.511,1.391-2.987,2.513-4.438,3.366C29.924,148.579,27.77,149.582,24.91,150.733z"/>
</g>
<polyline fill="none" stroke="#FFFFFF" stroke-width="0.6523" stroke-linecap="round" stroke-miterlimit="10" points="
	1.585,192.219 14.585,197.083 1.585,202.219 "/>
<g>
	<path fill="#666666" d="M188.397,10.053c-0.003-0.112-0.035-0.209-0.089-0.308c-0.017-0.031-0.003-0.069-0.025-0.1
		c-0.013-0.014-0.026-0.011-0.038-0.021c-0.014-0.016-0.014-0.036-0.022-0.049c-0.104-0.103-0.231-0.164-0.369-0.188
		c-0.016-0.002-0.021,0.006-0.034,0.003c-0.123-0.016-0.252-0.009-0.366,0.043l-26.641,11.6c-0.271,0.118-0.438,0.396-0.41,0.69
		c0.022,0.293,0.235,0.539,0.526,0.607l6.025,1.45l2.93,6.205c0.021,0.04,0.06,0.061,0.087,0.095
		c0.013,0.021,0.005,0.049,0.022,0.068c0.025,0.034,0.068,0.05,0.104,0.076c0.025,0.021,0.05,0.045,0.086,0.062
		c0.104,0.058,0.212,0.097,0.329,0.097c0.025,0,0.05-0.003,0.077-0.006c0.132-0.015,0.242-0.075,0.341-0.151
		c0.012-0.011,0.029-0.005,0.043-0.016l4.616-4.044l4.568,1.487c0.34,0.105,0.712-0.055,0.854-0.381l7.354-16.938
		c0.015-0.041,0.003-0.086,0.012-0.129C188.394,10.154,188.397,10.109,188.397,10.053z M171.266,23.67
		c-0.014,0.01-0.009,0.025-0.021,0.035c-0.093,0.093-0.17,0.201-0.198,0.333l-0.776,3.526l-1.942-4.123l11.992-7.76L171.266,23.67z
		 M180.292,14.054l-12.979,8.396l-4.063-0.977L180.292,14.054z M171.642,27.79l0.596-2.713l1.822,0.593L171.642,27.79z
		 M179.99,26.153l-6.901-2.249l12.771-11.266L179.99,26.153z"/>
</g>
<polygon fill="#FFFFFF" points="189.483,143.944 177.753,159.763 166.023,143.944 "/>
<path fill="#FFFFFF" d="M177.707,122.763c-7.729,0-14,6.134-14,13.706c0,7.566,6.271,13.704,14,13.704c7.734,0,14-6.138,14-13.704
	C191.707,128.897,185.443,122.763,177.707,122.763z M177.707,141.791c-3.005,0-5.437-2.38-5.437-5.32
	c0-2.942,2.432-5.326,5.437-5.326s5.439,2.384,5.439,5.326C183.148,139.411,180.712,141.791,177.707,141.791z"/>
<g>
	<path fill="#969696" d="M79.93,287.51v-42.125h6.436c3.181,0,5.825,1.025,7.93,3.08c2.101,2.056,3.154,4.5,3.154,7.335
		c0,3.8-1.826,6.828-5.482,9.088c4.293,2.009,6.437,5.502,6.437,10.464c0,3.591-1.162,6.517-3.485,8.77
		c-2.321,2.261-5.613,3.388-9.879,3.388L79.93,287.51L79.93,287.51z M85.35,263.248h0.492c1.889,0,3.393-0.598,4.509-1.787
		c1.119-1.19,1.679-2.781,1.679-4.775c0-1.991-0.537-3.529-1.619-4.618c-1.071-1.089-2.606-1.633-4.571-1.633h-0.492L85.35,263.248
		L85.35,263.248z M85.35,282.461h0.955c2.092,0,3.73-0.609,4.91-1.829c1.182-1.216,1.768-2.913,1.768-5.084
		c0-2.149-0.576-3.896-1.735-5.241c-1.162-1.34-2.811-2.009-4.943-2.009H85.35V282.461z"/>
	<path fill="#969696" d="M104.133,287.51v-42.125h14.998v5.047h-9.581v12.596h8.776v5.046h-8.776v14.383h10.104v5.045
		L104.133,287.51L104.133,287.51z"/>
	<path fill="#969696" d="M123.843,287.51l7.941-42.37h5.64l7.881,42.369h-5.238l-1.507-9.329h-7.821l-1.66,9.329L123.843,287.51
		L123.843,287.51z M131.539,273.132h6.064l-2.953-17.646h-0.157L131.539,273.132z"/>
	<path fill="#969696" d="M152.844,287.51v-37.076h-6.465v-5.049h18.354v5.047h-6.468v37.078H152.844z"/>
	<path fill="#969696" d="M96.006,327.121v5.698c-2.035,1.584-4.174,2.372-6.438,2.372c-3.612,0-6.402-1.849-8.374-5.54
		c-1.97-3.695-2.954-8.974-2.954-15.827s0.987-12.213,2.968-16.073c1.984-3.859,4.81-5.791,8.483-5.791
		c1.765,0,3.706,0.729,5.822,2.187v5.481c-1.807-1.741-3.618-2.613-5.419-2.613c-2.177,0-3.753,1.273-4.726,3.826
		c-0.979,2.553-1.46,6.802-1.46,12.739c0,5.882,0.493,10.116,1.479,12.695c0.983,2.582,2.613,3.874,4.895,3.874
		C91.836,330.138,93.743,329.134,96.006,327.121z"/>
	<path fill="#969696" d="M109.178,335.189c-3.328,0-6.038-1.926-8.13-5.776c-2.095-3.85-3.143-9.132-3.143-15.843
		c0-6.338,0.987-11.532,2.971-15.563c1.984-4.031,4.749-6.05,8.297-6.05c3.45,0,6.194,2.011,8.233,6.034
		c2.044,4.026,3.066,9.215,3.066,15.579c0,6.774-1.075,12.071-3.229,15.888C115.094,333.279,112.402,335.189,109.178,335.189z
		 M109.116,297.006c-1.786,0-3.158,1.467-4.111,4.409c-0.951,2.942-1.428,6.993-1.428,12.154c0,5.349,0.488,9.448,1.477,12.294
		c0.981,2.852,2.377,4.273,4.188,4.273c1.722,0,3.081-1.457,4.08-4.369c0.992-2.908,1.491-6.977,1.491-12.201
		c0-5.308-0.502-9.396-1.509-12.262C112.297,298.441,110.903,297.006,109.116,297.006z"/>
	<path fill="#969696" d="M124.569,334.634v-42.123h5.974c9.631,0,14.447,7.003,14.447,20.998c0,7.006-1.196,12.278-3.588,15.813
		c-2.396,3.544-5.755,5.312-10.085,5.312H124.569L124.569,334.634z M129.99,329.586h0.801c3.199,0,5.465-1.227,6.79-3.684
		c1.323-2.455,1.986-6.502,1.986-12.148c0-5.892-0.628-10.063-1.874-12.518c-1.254-2.453-3.511-3.679-6.775-3.679h-0.923
		L129.99,329.586L129.99,329.586z"/>
	<path fill="#969696" d="M149.537,334.634v-42.123h15v5.05h-9.581v12.595h8.776v5.046h-8.776v14.386h10.102v5.044L149.537,334.634
		L149.537,334.634z"/>
</g>
<polygon fill="#969696" points="18.574,234.008 18.574,244.785 10.87,244.785 10.87,335.205 18.574,335.205 18.574,345.981 
	0,345.981 0,234.008 "/>
<path fill="#969696" d="M21.744,295.273v29.293c0,0,14.117,2.337,14.04-14.573C35.784,309.993,35.933,295.574,21.744,295.273z"/>
<path fill="#969696" d="M22.534,255.351c-0.245,0-0.482,0.027-0.717,0.042v25.202c0.238,0.023,0.473,0.044,0.717,0.044
	c5.604,0,10.148-5.663,10.148-12.644C32.683,261.013,28.142,255.351,22.534,255.351z"/>
<path fill="#969696" d="M35.698,290.201c14.724,0,7.701-31.839,10.118-44.865c2.416-13.029,19.331-10.699,19.331-10.699v10.699
	c0,0-8.974-1.554-8.974,5.437s1.755,39.341-7.249,39.341l0,0c9.004,0,7.247,32.653,7.247,39.64c0,6.989,8.974,5.438,8.974,5.438
	v10.7c0,0-16.91,2.33-19.331-10.7C43.398,322.164,50.421,290.201,35.698,290.201L35.698,290.201z"/>
</svg>
